G04 #@! TF.GenerationSoftware,KiCad,Pcbnew,5.1.5-52549c5~84~ubuntu19.10.1*
G04 #@! TF.CreationDate,2020-03-16T21:02:33+01:00*
G04 #@! TF.ProjectId,JTAG-TC-PROG,4a544147-2d54-4432-9d50-524f472e6b69,rev?*
G04 #@! TF.SameCoordinates,Original*
G04 #@! TF.FileFunction,Legend,Bot*
G04 #@! TF.FilePolarity,Positive*
%FSLAX46Y46*%
G04 Gerber Fmt 4.6, Leading zero omitted, Abs format (unit mm)*
G04 Created by KiCad (PCBNEW 5.1.5-52549c5~84~ubuntu19.10.1) date 2020-03-16 21:02:33*
%MOMM*%
%LPD*%
G04 APERTURE LIST*
%ADD10C,0.120000*%
%ADD11C,0.100000*%
%ADD12C,0.010000*%
G04 APERTURE END LIST*
D10*
X131983333Y-105481666D02*
X131983333Y-104781666D01*
X131816666Y-104781666D01*
X131716666Y-104815000D01*
X131650000Y-104881666D01*
X131616666Y-104948333D01*
X131583333Y-105081666D01*
X131583333Y-105181666D01*
X131616666Y-105315000D01*
X131650000Y-105381666D01*
X131716666Y-105448333D01*
X131816666Y-105481666D01*
X131983333Y-105481666D01*
X131016666Y-105448333D02*
X131083333Y-105481666D01*
X131216666Y-105481666D01*
X131283333Y-105448333D01*
X131316666Y-105381666D01*
X131316666Y-105115000D01*
X131283333Y-105048333D01*
X131216666Y-105015000D01*
X131083333Y-105015000D01*
X131016666Y-105048333D01*
X130983333Y-105115000D01*
X130983333Y-105181666D01*
X131316666Y-105248333D01*
X130716666Y-105448333D02*
X130650000Y-105481666D01*
X130516666Y-105481666D01*
X130450000Y-105448333D01*
X130416666Y-105381666D01*
X130416666Y-105348333D01*
X130450000Y-105281666D01*
X130516666Y-105248333D01*
X130616666Y-105248333D01*
X130683333Y-105215000D01*
X130716666Y-105148333D01*
X130716666Y-105115000D01*
X130683333Y-105048333D01*
X130616666Y-105015000D01*
X130516666Y-105015000D01*
X130450000Y-105048333D01*
X130116666Y-105481666D02*
X130116666Y-105015000D01*
X130116666Y-104781666D02*
X130150000Y-104815000D01*
X130116666Y-104848333D01*
X130083333Y-104815000D01*
X130116666Y-104781666D01*
X130116666Y-104848333D01*
X129483333Y-105015000D02*
X129483333Y-105581666D01*
X129516666Y-105648333D01*
X129550000Y-105681666D01*
X129616666Y-105715000D01*
X129716666Y-105715000D01*
X129783333Y-105681666D01*
X129483333Y-105448333D02*
X129550000Y-105481666D01*
X129683333Y-105481666D01*
X129750000Y-105448333D01*
X129783333Y-105415000D01*
X129816666Y-105348333D01*
X129816666Y-105148333D01*
X129783333Y-105081666D01*
X129750000Y-105048333D01*
X129683333Y-105015000D01*
X129550000Y-105015000D01*
X129483333Y-105048333D01*
X129150000Y-105015000D02*
X129150000Y-105481666D01*
X129150000Y-105081666D02*
X129116666Y-105048333D01*
X129050000Y-105015000D01*
X128950000Y-105015000D01*
X128883333Y-105048333D01*
X128850000Y-105115000D01*
X128850000Y-105481666D01*
X127983333Y-105481666D02*
X127983333Y-104781666D01*
X127983333Y-105048333D02*
X127916666Y-105015000D01*
X127783333Y-105015000D01*
X127716666Y-105048333D01*
X127683333Y-105081666D01*
X127650000Y-105148333D01*
X127650000Y-105348333D01*
X127683333Y-105415000D01*
X127716666Y-105448333D01*
X127783333Y-105481666D01*
X127916666Y-105481666D01*
X127983333Y-105448333D01*
X127416666Y-105015000D02*
X127250000Y-105481666D01*
X127083333Y-105015000D02*
X127250000Y-105481666D01*
X127316666Y-105648333D01*
X127350000Y-105681666D01*
X127416666Y-105715000D01*
X126816666Y-105415000D02*
X126783333Y-105448333D01*
X126816666Y-105481666D01*
X126850000Y-105448333D01*
X126816666Y-105415000D01*
X126816666Y-105481666D01*
X126816666Y-105048333D02*
X126783333Y-105081666D01*
X126816666Y-105115000D01*
X126850000Y-105081666D01*
X126816666Y-105048333D01*
X126816666Y-105115000D01*
X132166666Y-106318333D02*
X132200000Y-106285000D01*
X132266666Y-106251666D01*
X132333333Y-106251666D01*
X132400000Y-106285000D01*
X132433333Y-106318333D01*
X132466666Y-106385000D01*
X132466666Y-106451666D01*
X132433333Y-106518333D01*
X132400000Y-106551666D01*
X132333333Y-106585000D01*
X132266666Y-106585000D01*
X132200000Y-106551666D01*
X132166666Y-106518333D01*
X132166666Y-106251666D02*
X132166666Y-106518333D01*
X132133333Y-106551666D01*
X132100000Y-106551666D01*
X132033333Y-106518333D01*
X132000000Y-106451666D01*
X132000000Y-106285000D01*
X132066666Y-106185000D01*
X132166666Y-106118333D01*
X132300000Y-106085000D01*
X132433333Y-106118333D01*
X132533333Y-106185000D01*
X132600000Y-106285000D01*
X132633333Y-106418333D01*
X132600000Y-106551666D01*
X132533333Y-106651666D01*
X132433333Y-106718333D01*
X132300000Y-106751666D01*
X132166666Y-106718333D01*
X132066666Y-106651666D01*
X131500000Y-105951666D02*
X131500000Y-106451666D01*
X131533333Y-106551666D01*
X131600000Y-106618333D01*
X131700000Y-106651666D01*
X131766666Y-106651666D01*
X130866666Y-106651666D02*
X130866666Y-106285000D01*
X130900000Y-106218333D01*
X130966666Y-106185000D01*
X131100000Y-106185000D01*
X131166666Y-106218333D01*
X130866666Y-106618333D02*
X130933333Y-106651666D01*
X131100000Y-106651666D01*
X131166666Y-106618333D01*
X131200000Y-106551666D01*
X131200000Y-106485000D01*
X131166666Y-106418333D01*
X131100000Y-106385000D01*
X130933333Y-106385000D01*
X130866666Y-106351666D01*
X130533333Y-106185000D02*
X130533333Y-106651666D01*
X130533333Y-106251666D02*
X130500000Y-106218333D01*
X130433333Y-106185000D01*
X130333333Y-106185000D01*
X130266666Y-106218333D01*
X130233333Y-106285000D01*
X130233333Y-106651666D01*
X129900000Y-106651666D02*
X129900000Y-105951666D01*
X129900000Y-106285000D02*
X129500000Y-106285000D01*
X129500000Y-106651666D02*
X129500000Y-105951666D01*
X128900000Y-106618333D02*
X128966666Y-106651666D01*
X129100000Y-106651666D01*
X129166666Y-106618333D01*
X129200000Y-106551666D01*
X129200000Y-106285000D01*
X129166666Y-106218333D01*
X129100000Y-106185000D01*
X128966666Y-106185000D01*
X128900000Y-106218333D01*
X128866666Y-106285000D01*
X128866666Y-106351666D01*
X129200000Y-106418333D01*
X128566666Y-106185000D02*
X128566666Y-106651666D01*
X128566666Y-106251666D02*
X128533333Y-106218333D01*
X128466666Y-106185000D01*
X128366666Y-106185000D01*
X128300000Y-106218333D01*
X128266666Y-106285000D01*
X128266666Y-106651666D01*
X127933333Y-106651666D02*
X127933333Y-106185000D01*
X127933333Y-106318333D02*
X127900000Y-106251666D01*
X127866666Y-106218333D01*
X127800000Y-106185000D01*
X127733333Y-106185000D01*
X127500000Y-106651666D02*
X127500000Y-106185000D01*
X127500000Y-105951666D02*
X127533333Y-105985000D01*
X127500000Y-106018333D01*
X127466666Y-105985000D01*
X127500000Y-105951666D01*
X127500000Y-106018333D01*
X127166666Y-106651666D02*
X127166666Y-105951666D01*
X127100000Y-106385000D02*
X126900000Y-106651666D01*
X126900000Y-106185000D02*
X127166666Y-106451666D01*
X126600000Y-106651666D02*
X126600000Y-105951666D01*
X126600000Y-106285000D02*
X126200000Y-106285000D01*
X126200000Y-106651666D02*
X126200000Y-105951666D01*
D11*
X116009523Y-105311904D02*
X115552380Y-105311904D01*
X115780952Y-106111904D02*
X115780952Y-105311904D01*
X115361904Y-105311904D02*
X114828571Y-106111904D01*
X114828571Y-105311904D02*
X115361904Y-106111904D01*
X120633333Y-106711904D02*
X120900000Y-106330952D01*
X121090476Y-106711904D02*
X121090476Y-105911904D01*
X120785714Y-105911904D01*
X120709523Y-105950000D01*
X120671428Y-105988095D01*
X120633333Y-106064285D01*
X120633333Y-106178571D01*
X120671428Y-106254761D01*
X120709523Y-106292857D01*
X120785714Y-106330952D01*
X121090476Y-106330952D01*
X120366666Y-105911904D02*
X119833333Y-106711904D01*
X119833333Y-105911904D02*
X120366666Y-106711904D01*
D12*
G36*
X106597309Y-98819052D02*
G01*
X106594240Y-98824709D01*
X106577680Y-98861391D01*
X106547613Y-98921328D01*
X106529781Y-98955365D01*
X106475915Y-99056674D01*
X106587964Y-99151155D01*
X106647665Y-99200073D01*
X106692556Y-99234214D01*
X106711616Y-99245636D01*
X106731331Y-99228779D01*
X106764601Y-99187401D01*
X106770398Y-99179379D01*
X106810448Y-99115009D01*
X106839977Y-99054206D01*
X106850050Y-99009064D01*
X106830578Y-98977363D01*
X106800143Y-98955837D01*
X106739273Y-98912235D01*
X106675582Y-98859673D01*
X106671370Y-98855874D01*
X106622719Y-98819018D01*
X106597309Y-98819052D01*
G37*
X106597309Y-98819052D02*
X106594240Y-98824709D01*
X106577680Y-98861391D01*
X106547613Y-98921328D01*
X106529781Y-98955365D01*
X106475915Y-99056674D01*
X106587964Y-99151155D01*
X106647665Y-99200073D01*
X106692556Y-99234214D01*
X106711616Y-99245636D01*
X106731331Y-99228779D01*
X106764601Y-99187401D01*
X106770398Y-99179379D01*
X106810448Y-99115009D01*
X106839977Y-99054206D01*
X106850050Y-99009064D01*
X106830578Y-98977363D01*
X106800143Y-98955837D01*
X106739273Y-98912235D01*
X106675582Y-98859673D01*
X106671370Y-98855874D01*
X106622719Y-98819018D01*
X106597309Y-98819052D01*
G36*
X108586857Y-100376354D02*
G01*
X108670332Y-100492545D01*
X109201516Y-100492545D01*
X109120328Y-100382864D01*
X109039141Y-100273182D01*
X108503381Y-100260162D01*
X108586857Y-100376354D01*
G37*
X108586857Y-100376354D02*
X108670332Y-100492545D01*
X109201516Y-100492545D01*
X109120328Y-100382864D01*
X109039141Y-100273182D01*
X108503381Y-100260162D01*
X108586857Y-100376354D01*
G36*
X113005728Y-98490808D02*
G01*
X112887725Y-98495144D01*
X112802610Y-98502651D01*
X112790890Y-98504482D01*
X112568642Y-98558204D01*
X112385530Y-98635717D01*
X112240504Y-98738060D01*
X112132515Y-98866268D01*
X112060513Y-99021380D01*
X112023446Y-99204432D01*
X112018891Y-99266860D01*
X112016419Y-99378947D01*
X112022745Y-99463990D01*
X112040243Y-99540677D01*
X112061457Y-99602180D01*
X112133341Y-99738627D01*
X112236174Y-99861161D01*
X112358196Y-99957364D01*
X112435504Y-99997189D01*
X112497691Y-100025830D01*
X112537445Y-100050016D01*
X112545186Y-100059528D01*
X112532218Y-100083830D01*
X112496892Y-100137014D01*
X112444681Y-100211110D01*
X112384293Y-100293793D01*
X112264277Y-100462702D01*
X112144153Y-100644569D01*
X112032936Y-100825095D01*
X111939643Y-100989979D01*
X111912631Y-101041866D01*
X111850844Y-101164005D01*
X112050844Y-101157320D01*
X112250844Y-101150636D01*
X112415377Y-100877995D01*
X112496958Y-100747472D01*
X112591806Y-100602944D01*
X112687193Y-100463473D01*
X112758386Y-100364222D01*
X112936863Y-100123091D01*
X113492000Y-100123091D01*
X113492000Y-101162182D01*
X113861454Y-101162182D01*
X113861454Y-98806909D01*
X113492000Y-98806909D01*
X113492000Y-99829277D01*
X113162954Y-99816626D01*
X112997068Y-99807299D01*
X112856775Y-99793461D01*
X112750299Y-99776029D01*
X112712504Y-99766313D01*
X112579250Y-99704888D01*
X112481914Y-99614507D01*
X112420650Y-99495333D01*
X112407265Y-99444499D01*
X112393975Y-99290080D01*
X112418312Y-99148480D01*
X112477906Y-99026844D01*
X112570388Y-98932314D01*
X112579275Y-98926041D01*
X112661158Y-98878678D01*
X112753047Y-98844828D01*
X112863798Y-98822747D01*
X113002266Y-98810690D01*
X113177305Y-98806913D01*
X113183943Y-98806909D01*
X113492000Y-98806909D01*
X113861454Y-98806909D01*
X113861454Y-98535060D01*
X113786409Y-98521063D01*
X113702826Y-98510240D01*
X113585917Y-98501484D01*
X113446716Y-98494979D01*
X113296260Y-98490908D01*
X113145586Y-98489457D01*
X113005728Y-98490808D01*
G37*
X113005728Y-98490808D02*
X112887725Y-98495144D01*
X112802610Y-98502651D01*
X112790890Y-98504482D01*
X112568642Y-98558204D01*
X112385530Y-98635717D01*
X112240504Y-98738060D01*
X112132515Y-98866268D01*
X112060513Y-99021380D01*
X112023446Y-99204432D01*
X112018891Y-99266860D01*
X112016419Y-99378947D01*
X112022745Y-99463990D01*
X112040243Y-99540677D01*
X112061457Y-99602180D01*
X112133341Y-99738627D01*
X112236174Y-99861161D01*
X112358196Y-99957364D01*
X112435504Y-99997189D01*
X112497691Y-100025830D01*
X112537445Y-100050016D01*
X112545186Y-100059528D01*
X112532218Y-100083830D01*
X112496892Y-100137014D01*
X112444681Y-100211110D01*
X112384293Y-100293793D01*
X112264277Y-100462702D01*
X112144153Y-100644569D01*
X112032936Y-100825095D01*
X111939643Y-100989979D01*
X111912631Y-101041866D01*
X111850844Y-101164005D01*
X112050844Y-101157320D01*
X112250844Y-101150636D01*
X112415377Y-100877995D01*
X112496958Y-100747472D01*
X112591806Y-100602944D01*
X112687193Y-100463473D01*
X112758386Y-100364222D01*
X112936863Y-100123091D01*
X113492000Y-100123091D01*
X113492000Y-101162182D01*
X113861454Y-101162182D01*
X113861454Y-98806909D01*
X113492000Y-98806909D01*
X113492000Y-99829277D01*
X113162954Y-99816626D01*
X112997068Y-99807299D01*
X112856775Y-99793461D01*
X112750299Y-99776029D01*
X112712504Y-99766313D01*
X112579250Y-99704888D01*
X112481914Y-99614507D01*
X112420650Y-99495333D01*
X112407265Y-99444499D01*
X112393975Y-99290080D01*
X112418312Y-99148480D01*
X112477906Y-99026844D01*
X112570388Y-98932314D01*
X112579275Y-98926041D01*
X112661158Y-98878678D01*
X112753047Y-98844828D01*
X112863798Y-98822747D01*
X113002266Y-98810690D01*
X113177305Y-98806913D01*
X113183943Y-98806909D01*
X113492000Y-98806909D01*
X113861454Y-98806909D01*
X113861454Y-98535060D01*
X113786409Y-98521063D01*
X113702826Y-98510240D01*
X113585917Y-98501484D01*
X113446716Y-98494979D01*
X113296260Y-98490908D01*
X113145586Y-98489457D01*
X113005728Y-98490808D01*
G36*
X114438727Y-98806909D02*
G01*
X115685636Y-98806909D01*
X115685636Y-99615091D01*
X114577273Y-99615091D01*
X114577273Y-99915273D01*
X115685636Y-99915273D01*
X115685636Y-100862000D01*
X114346364Y-100862000D01*
X114346364Y-101162182D01*
X116055091Y-101162182D01*
X116055091Y-98506727D01*
X114438727Y-98506727D01*
X114438727Y-98806909D01*
G37*
X114438727Y-98806909D02*
X115685636Y-98806909D01*
X115685636Y-99615091D01*
X114577273Y-99615091D01*
X114577273Y-99915273D01*
X115685636Y-99915273D01*
X115685636Y-100862000D01*
X114346364Y-100862000D01*
X114346364Y-101162182D01*
X116055091Y-101162182D01*
X116055091Y-98506727D01*
X114438727Y-98506727D01*
X114438727Y-98806909D01*
G36*
X121689273Y-98806167D02*
G01*
X122947727Y-98818455D01*
X122960363Y-99615091D01*
X121827818Y-99615091D01*
X121827818Y-99914452D01*
X122387773Y-99920635D01*
X122947727Y-99926818D01*
X122947727Y-100850455D01*
X122272318Y-100856576D01*
X121596909Y-100862698D01*
X121596909Y-101162182D01*
X123305636Y-101162182D01*
X123305636Y-98506727D01*
X121689273Y-98506727D01*
X121689273Y-98806167D01*
G37*
X121689273Y-98806167D02*
X122947727Y-98818455D01*
X122960363Y-99615091D01*
X121827818Y-99615091D01*
X121827818Y-99914452D01*
X122387773Y-99920635D01*
X122947727Y-99926818D01*
X122947727Y-100850455D01*
X122272318Y-100856576D01*
X121596909Y-100862698D01*
X121596909Y-101162182D01*
X123305636Y-101162182D01*
X123305636Y-98506727D01*
X121689273Y-98506727D01*
X121689273Y-98806167D01*
G36*
X104972886Y-99602498D02*
G01*
X104958924Y-99620876D01*
X104960880Y-99652605D01*
X104973878Y-99721737D01*
X104996306Y-99821263D01*
X105026552Y-99944171D01*
X105063005Y-100083451D01*
X105077709Y-100137603D01*
X105136139Y-100359619D01*
X105178235Y-100540624D01*
X105204257Y-100682706D01*
X105214462Y-100787953D01*
X105209110Y-100858452D01*
X105188457Y-100896292D01*
X105172487Y-100903614D01*
X105135037Y-100896395D01*
X105069403Y-100870066D01*
X104986889Y-100829461D01*
X104943801Y-100805862D01*
X104861395Y-100760870D01*
X104794995Y-100727804D01*
X104753980Y-100711174D01*
X104745689Y-100710614D01*
X104741218Y-100738541D01*
X104771680Y-100781260D01*
X104839129Y-100840935D01*
X104941249Y-100916653D01*
X105076730Y-101008175D01*
X105201512Y-101084828D01*
X105310158Y-101143839D01*
X105397229Y-101182439D01*
X105457289Y-101197856D01*
X105481761Y-101192131D01*
X105499981Y-101160392D01*
X105507988Y-101108574D01*
X105505256Y-101032498D01*
X105491260Y-100927985D01*
X105465473Y-100790856D01*
X105427370Y-100616933D01*
X105388665Y-100452646D01*
X105343299Y-100262755D01*
X105310385Y-100114848D01*
X105291729Y-100005971D01*
X105289132Y-99933172D01*
X105304399Y-99893495D01*
X105339334Y-99883989D01*
X105395740Y-99901699D01*
X105475421Y-99943671D01*
X105580182Y-100006954D01*
X105638680Y-100043270D01*
X105727451Y-100100743D01*
X105801728Y-100153123D01*
X105852355Y-100193698D01*
X105869335Y-100212415D01*
X105880810Y-100246289D01*
X105900873Y-100317085D01*
X105927391Y-100416808D01*
X105958230Y-100537458D01*
X105987150Y-100654182D01*
X106020310Y-100785747D01*
X106051673Y-100902489D01*
X106079002Y-100996655D01*
X106100057Y-101060491D01*
X106111693Y-101085501D01*
X106146753Y-101108408D01*
X106209397Y-101138328D01*
X106259741Y-101158696D01*
X106328427Y-101183318D01*
X106363422Y-101190974D01*
X106373743Y-101182264D01*
X106370933Y-101166104D01*
X106289305Y-100875743D01*
X106220600Y-100622098D01*
X106165135Y-100406465D01*
X106123225Y-100230144D01*
X106095187Y-100094431D01*
X106081337Y-100000626D01*
X106079818Y-99972106D01*
X106084200Y-99917883D01*
X106104038Y-99895841D01*
X106138465Y-99892182D01*
X106195509Y-99902650D01*
X106267352Y-99928840D01*
X106290794Y-99939974D01*
X106349537Y-99965658D01*
X106390219Y-99975574D01*
X106398739Y-99973503D01*
X106402727Y-99944916D01*
X106367786Y-99904246D01*
X106292448Y-99850241D01*
X106175246Y-99781647D01*
X106171749Y-99779724D01*
X106026188Y-99701573D01*
X105915809Y-99646594D01*
X105836810Y-99613199D01*
X105785388Y-99599800D01*
X105757744Y-99604809D01*
X105756271Y-99606129D01*
X105750029Y-99640708D01*
X105758183Y-99713547D01*
X105780121Y-99819232D01*
X105780587Y-99821188D01*
X105800530Y-99909160D01*
X105814159Y-99978173D01*
X105819430Y-100017445D01*
X105818752Y-100022399D01*
X105797539Y-100013496D01*
X105743708Y-99983832D01*
X105663763Y-99937188D01*
X105564209Y-99877347D01*
X105473161Y-99821486D01*
X105310173Y-99723900D01*
X105180998Y-99654123D01*
X105083291Y-99611241D01*
X105014702Y-99594338D01*
X104972886Y-99602498D01*
G37*
X104972886Y-99602498D02*
X104958924Y-99620876D01*
X104960880Y-99652605D01*
X104973878Y-99721737D01*
X104996306Y-99821263D01*
X105026552Y-99944171D01*
X105063005Y-100083451D01*
X105077709Y-100137603D01*
X105136139Y-100359619D01*
X105178235Y-100540624D01*
X105204257Y-100682706D01*
X105214462Y-100787953D01*
X105209110Y-100858452D01*
X105188457Y-100896292D01*
X105172487Y-100903614D01*
X105135037Y-100896395D01*
X105069403Y-100870066D01*
X104986889Y-100829461D01*
X104943801Y-100805862D01*
X104861395Y-100760870D01*
X104794995Y-100727804D01*
X104753980Y-100711174D01*
X104745689Y-100710614D01*
X104741218Y-100738541D01*
X104771680Y-100781260D01*
X104839129Y-100840935D01*
X104941249Y-100916653D01*
X105076730Y-101008175D01*
X105201512Y-101084828D01*
X105310158Y-101143839D01*
X105397229Y-101182439D01*
X105457289Y-101197856D01*
X105481761Y-101192131D01*
X105499981Y-101160392D01*
X105507988Y-101108574D01*
X105505256Y-101032498D01*
X105491260Y-100927985D01*
X105465473Y-100790856D01*
X105427370Y-100616933D01*
X105388665Y-100452646D01*
X105343299Y-100262755D01*
X105310385Y-100114848D01*
X105291729Y-100005971D01*
X105289132Y-99933172D01*
X105304399Y-99893495D01*
X105339334Y-99883989D01*
X105395740Y-99901699D01*
X105475421Y-99943671D01*
X105580182Y-100006954D01*
X105638680Y-100043270D01*
X105727451Y-100100743D01*
X105801728Y-100153123D01*
X105852355Y-100193698D01*
X105869335Y-100212415D01*
X105880810Y-100246289D01*
X105900873Y-100317085D01*
X105927391Y-100416808D01*
X105958230Y-100537458D01*
X105987150Y-100654182D01*
X106020310Y-100785747D01*
X106051673Y-100902489D01*
X106079002Y-100996655D01*
X106100057Y-101060491D01*
X106111693Y-101085501D01*
X106146753Y-101108408D01*
X106209397Y-101138328D01*
X106259741Y-101158696D01*
X106328427Y-101183318D01*
X106363422Y-101190974D01*
X106373743Y-101182264D01*
X106370933Y-101166104D01*
X106289305Y-100875743D01*
X106220600Y-100622098D01*
X106165135Y-100406465D01*
X106123225Y-100230144D01*
X106095187Y-100094431D01*
X106081337Y-100000626D01*
X106079818Y-99972106D01*
X106084200Y-99917883D01*
X106104038Y-99895841D01*
X106138465Y-99892182D01*
X106195509Y-99902650D01*
X106267352Y-99928840D01*
X106290794Y-99939974D01*
X106349537Y-99965658D01*
X106390219Y-99975574D01*
X106398739Y-99973503D01*
X106402727Y-99944916D01*
X106367786Y-99904246D01*
X106292448Y-99850241D01*
X106175246Y-99781647D01*
X106171749Y-99779724D01*
X106026188Y-99701573D01*
X105915809Y-99646594D01*
X105836810Y-99613199D01*
X105785388Y-99599800D01*
X105757744Y-99604809D01*
X105756271Y-99606129D01*
X105750029Y-99640708D01*
X105758183Y-99713547D01*
X105780121Y-99819232D01*
X105780587Y-99821188D01*
X105800530Y-99909160D01*
X105814159Y-99978173D01*
X105819430Y-100017445D01*
X105818752Y-100022399D01*
X105797539Y-100013496D01*
X105743708Y-99983832D01*
X105663763Y-99937188D01*
X105564209Y-99877347D01*
X105473161Y-99821486D01*
X105310173Y-99723900D01*
X105180998Y-99654123D01*
X105083291Y-99611241D01*
X105014702Y-99594338D01*
X104972886Y-99602498D01*
G36*
X106702466Y-99606661D02*
G01*
X106698877Y-99634099D01*
X106706551Y-99699195D01*
X106725784Y-99803486D01*
X106756873Y-99948514D01*
X106800114Y-100135817D01*
X106821182Y-100224179D01*
X106865169Y-100409174D01*
X106898559Y-100554652D01*
X106922286Y-100665819D01*
X106937284Y-100747877D01*
X106944487Y-100806030D01*
X106944830Y-100845482D01*
X106939245Y-100871436D01*
X106937926Y-100874548D01*
X106915914Y-100910455D01*
X106886176Y-100926162D01*
X106840689Y-100920769D01*
X106771428Y-100893375D01*
X106673833Y-100844872D01*
X106594141Y-100803726D01*
X106530409Y-100771052D01*
X106493626Y-100752479D01*
X106489682Y-100750584D01*
X106475636Y-100762859D01*
X106472364Y-100787494D01*
X106486233Y-100816197D01*
X106530190Y-100857315D01*
X106607757Y-100913634D01*
X106722458Y-100987937D01*
X106738819Y-100998154D01*
X106884274Y-101086812D01*
X106996974Y-101150372D01*
X107081817Y-101190474D01*
X107143704Y-101208756D01*
X107187534Y-101206858D01*
X107218205Y-101186420D01*
X107233551Y-101163700D01*
X107249451Y-101122081D01*
X107255165Y-101069843D01*
X107249851Y-100999815D01*
X107232666Y-100904827D01*
X107202768Y-100777705D01*
X107176056Y-100674212D01*
X107124119Y-100476365D01*
X107083372Y-100318277D01*
X107052891Y-100195142D01*
X107031752Y-100102155D01*
X107019030Y-100034510D01*
X107013803Y-99987402D01*
X107015146Y-99956025D01*
X107022135Y-99935572D01*
X107031697Y-99923316D01*
X107056181Y-99905597D01*
X107086775Y-99905254D01*
X107136337Y-99924365D01*
X107184388Y-99947987D01*
X107259017Y-99985100D01*
X107301572Y-100002307D01*
X107321057Y-100000803D01*
X107326477Y-99981784D01*
X107326727Y-99966880D01*
X107306278Y-99932764D01*
X107247003Y-99881918D01*
X107152015Y-99816952D01*
X107136227Y-99806994D01*
X106980490Y-99712890D01*
X106859702Y-99647320D01*
X106772865Y-99609826D01*
X106718984Y-99599946D01*
X106702466Y-99606661D01*
G37*
X106702466Y-99606661D02*
X106698877Y-99634099D01*
X106706551Y-99699195D01*
X106725784Y-99803486D01*
X106756873Y-99948514D01*
X106800114Y-100135817D01*
X106821182Y-100224179D01*
X106865169Y-100409174D01*
X106898559Y-100554652D01*
X106922286Y-100665819D01*
X106937284Y-100747877D01*
X106944487Y-100806030D01*
X106944830Y-100845482D01*
X106939245Y-100871436D01*
X106937926Y-100874548D01*
X106915914Y-100910455D01*
X106886176Y-100926162D01*
X106840689Y-100920769D01*
X106771428Y-100893375D01*
X106673833Y-100844872D01*
X106594141Y-100803726D01*
X106530409Y-100771052D01*
X106493626Y-100752479D01*
X106489682Y-100750584D01*
X106475636Y-100762859D01*
X106472364Y-100787494D01*
X106486233Y-100816197D01*
X106530190Y-100857315D01*
X106607757Y-100913634D01*
X106722458Y-100987937D01*
X106738819Y-100998154D01*
X106884274Y-101086812D01*
X106996974Y-101150372D01*
X107081817Y-101190474D01*
X107143704Y-101208756D01*
X107187534Y-101206858D01*
X107218205Y-101186420D01*
X107233551Y-101163700D01*
X107249451Y-101122081D01*
X107255165Y-101069843D01*
X107249851Y-100999815D01*
X107232666Y-100904827D01*
X107202768Y-100777705D01*
X107176056Y-100674212D01*
X107124119Y-100476365D01*
X107083372Y-100318277D01*
X107052891Y-100195142D01*
X107031752Y-100102155D01*
X107019030Y-100034510D01*
X107013803Y-99987402D01*
X107015146Y-99956025D01*
X107022135Y-99935572D01*
X107031697Y-99923316D01*
X107056181Y-99905597D01*
X107086775Y-99905254D01*
X107136337Y-99924365D01*
X107184388Y-99947987D01*
X107259017Y-99985100D01*
X107301572Y-100002307D01*
X107321057Y-100000803D01*
X107326477Y-99981784D01*
X107326727Y-99966880D01*
X107306278Y-99932764D01*
X107247003Y-99881918D01*
X107152015Y-99816952D01*
X107136227Y-99806994D01*
X106980490Y-99712890D01*
X106859702Y-99647320D01*
X106772865Y-99609826D01*
X106718984Y-99599946D01*
X106702466Y-99606661D01*
G36*
X107008442Y-98566349D02*
G01*
X107004404Y-98566981D01*
X106910113Y-98582059D01*
X106988627Y-98677152D01*
X107067140Y-98772246D01*
X107216824Y-98764549D01*
X107299580Y-98761917D01*
X107350517Y-98767201D01*
X107383813Y-98784217D01*
X107413650Y-98816783D01*
X107414400Y-98817736D01*
X107445800Y-98868640D01*
X107480195Y-98946664D01*
X107518659Y-99055184D01*
X107562268Y-99197579D01*
X107612097Y-99377228D01*
X107669220Y-99597509D01*
X107693894Y-99695909D01*
X107758452Y-99957538D01*
X107811570Y-100178210D01*
X107853867Y-100361553D01*
X107885959Y-100511189D01*
X107908463Y-100630745D01*
X107921995Y-100723846D01*
X107927173Y-100794115D01*
X107924613Y-100845179D01*
X107914933Y-100880662D01*
X107899382Y-100903564D01*
X107877027Y-100921453D01*
X107851083Y-100927080D01*
X107813779Y-100917834D01*
X107757348Y-100891103D01*
X107674018Y-100844276D01*
X107608405Y-100805759D01*
X107508511Y-100748718D01*
X107442546Y-100716172D01*
X107406416Y-100706402D01*
X107396000Y-100716622D01*
X107396568Y-100731432D01*
X107401597Y-100745591D01*
X107416072Y-100763171D01*
X107444980Y-100788246D01*
X107493308Y-100824888D01*
X107566040Y-100877169D01*
X107668165Y-100949162D01*
X107757232Y-101011657D01*
X107885903Y-101099447D01*
X107984390Y-101159777D01*
X108058204Y-101194493D01*
X108112855Y-101205438D01*
X108153852Y-101194460D01*
X108186704Y-101163402D01*
X108191327Y-101157044D01*
X108208852Y-101124523D01*
X108219599Y-101083044D01*
X108222964Y-101028021D01*
X108218340Y-100954870D01*
X108205121Y-100859006D01*
X108182704Y-100735844D01*
X108150480Y-100580799D01*
X108107846Y-100389285D01*
X108065765Y-100206431D01*
X108003831Y-99940927D01*
X107950515Y-99716323D01*
X107904296Y-99528463D01*
X107863657Y-99373192D01*
X107827077Y-99246354D01*
X107793036Y-99143793D01*
X107760017Y-99061353D01*
X107726498Y-98994880D01*
X107690961Y-98940217D01*
X107651886Y-98893208D01*
X107607755Y-98849699D01*
X107557046Y-98805533D01*
X107552010Y-98801301D01*
X107417514Y-98695192D01*
X107303754Y-98621999D01*
X107202887Y-98578366D01*
X107107064Y-98560935D01*
X107008442Y-98566349D01*
G37*
X107008442Y-98566349D02*
X107004404Y-98566981D01*
X106910113Y-98582059D01*
X106988627Y-98677152D01*
X107067140Y-98772246D01*
X107216824Y-98764549D01*
X107299580Y-98761917D01*
X107350517Y-98767201D01*
X107383813Y-98784217D01*
X107413650Y-98816783D01*
X107414400Y-98817736D01*
X107445800Y-98868640D01*
X107480195Y-98946664D01*
X107518659Y-99055184D01*
X107562268Y-99197579D01*
X107612097Y-99377228D01*
X107669220Y-99597509D01*
X107693894Y-99695909D01*
X107758452Y-99957538D01*
X107811570Y-100178210D01*
X107853867Y-100361553D01*
X107885959Y-100511189D01*
X107908463Y-100630745D01*
X107921995Y-100723846D01*
X107927173Y-100794115D01*
X107924613Y-100845179D01*
X107914933Y-100880662D01*
X107899382Y-100903564D01*
X107877027Y-100921453D01*
X107851083Y-100927080D01*
X107813779Y-100917834D01*
X107757348Y-100891103D01*
X107674018Y-100844276D01*
X107608405Y-100805759D01*
X107508511Y-100748718D01*
X107442546Y-100716172D01*
X107406416Y-100706402D01*
X107396000Y-100716622D01*
X107396568Y-100731432D01*
X107401597Y-100745591D01*
X107416072Y-100763171D01*
X107444980Y-100788246D01*
X107493308Y-100824888D01*
X107566040Y-100877169D01*
X107668165Y-100949162D01*
X107757232Y-101011657D01*
X107885903Y-101099447D01*
X107984390Y-101159777D01*
X108058204Y-101194493D01*
X108112855Y-101205438D01*
X108153852Y-101194460D01*
X108186704Y-101163402D01*
X108191327Y-101157044D01*
X108208852Y-101124523D01*
X108219599Y-101083044D01*
X108222964Y-101028021D01*
X108218340Y-100954870D01*
X108205121Y-100859006D01*
X108182704Y-100735844D01*
X108150480Y-100580799D01*
X108107846Y-100389285D01*
X108065765Y-100206431D01*
X108003831Y-99940927D01*
X107950515Y-99716323D01*
X107904296Y-99528463D01*
X107863657Y-99373192D01*
X107827077Y-99246354D01*
X107793036Y-99143793D01*
X107760017Y-99061353D01*
X107726498Y-98994880D01*
X107690961Y-98940217D01*
X107651886Y-98893208D01*
X107607755Y-98849699D01*
X107557046Y-98805533D01*
X107552010Y-98801301D01*
X107417514Y-98695192D01*
X107303754Y-98621999D01*
X107202887Y-98578366D01*
X107107064Y-98560935D01*
X107008442Y-98566349D01*
G36*
X109616663Y-99604414D02*
G01*
X109533719Y-99637063D01*
X109482315Y-99674999D01*
X109453404Y-99708301D01*
X109451091Y-99716354D01*
X109466549Y-99747911D01*
X109505806Y-99796110D01*
X109531645Y-99822653D01*
X109612198Y-99900729D01*
X109664417Y-99851812D01*
X109736892Y-99799932D01*
X109814126Y-99769393D01*
X109879282Y-99766632D01*
X109883845Y-99767923D01*
X109994509Y-99820372D01*
X110064838Y-99894610D01*
X110095848Y-99991867D01*
X110097636Y-100026467D01*
X110082102Y-100098113D01*
X110032909Y-100171112D01*
X109946175Y-100250183D01*
X109865135Y-100308899D01*
X109776942Y-100373084D01*
X109722205Y-100427413D01*
X109693430Y-100483384D01*
X109683125Y-100552496D01*
X109682507Y-100589164D01*
X109705236Y-100721843D01*
X109767892Y-100848558D01*
X109864226Y-100963946D01*
X109987989Y-101062644D01*
X110132929Y-101139290D01*
X110292796Y-101188519D01*
X110397865Y-101203007D01*
X110482656Y-101207488D01*
X110537383Y-101203307D01*
X110577918Y-101186589D01*
X110620129Y-101153461D01*
X110627445Y-101146963D01*
X110681966Y-101084918D01*
X110708747Y-101012092D01*
X110714542Y-100973383D01*
X110726545Y-100866900D01*
X110602590Y-100783187D01*
X110535894Y-100738987D01*
X110498206Y-100718707D01*
X110480437Y-100720166D01*
X110473494Y-100741182D01*
X110472051Y-100751873D01*
X110442979Y-100873600D01*
X110392513Y-100969699D01*
X110325749Y-101034566D01*
X110247785Y-101062597D01*
X110193286Y-101058352D01*
X110074073Y-101009220D01*
X109983930Y-100931945D01*
X109928505Y-100832999D01*
X109912909Y-100737130D01*
X109916493Y-100695261D01*
X109931970Y-100658836D01*
X109966427Y-100618693D01*
X110026948Y-100565665D01*
X110076367Y-100525729D01*
X110195067Y-100423172D01*
X110274428Y-100332913D01*
X110317007Y-100247821D01*
X110325361Y-100160765D01*
X110302047Y-100064615D01*
X110268780Y-99989134D01*
X110190890Y-99868603D01*
X110090092Y-99765565D01*
X109974328Y-99683823D01*
X109851541Y-99627181D01*
X109729672Y-99599444D01*
X109616663Y-99604414D01*
G37*
X109616663Y-99604414D02*
X109533719Y-99637063D01*
X109482315Y-99674999D01*
X109453404Y-99708301D01*
X109451091Y-99716354D01*
X109466549Y-99747911D01*
X109505806Y-99796110D01*
X109531645Y-99822653D01*
X109612198Y-99900729D01*
X109664417Y-99851812D01*
X109736892Y-99799932D01*
X109814126Y-99769393D01*
X109879282Y-99766632D01*
X109883845Y-99767923D01*
X109994509Y-99820372D01*
X110064838Y-99894610D01*
X110095848Y-99991867D01*
X110097636Y-100026467D01*
X110082102Y-100098113D01*
X110032909Y-100171112D01*
X109946175Y-100250183D01*
X109865135Y-100308899D01*
X109776942Y-100373084D01*
X109722205Y-100427413D01*
X109693430Y-100483384D01*
X109683125Y-100552496D01*
X109682507Y-100589164D01*
X109705236Y-100721843D01*
X109767892Y-100848558D01*
X109864226Y-100963946D01*
X109987989Y-101062644D01*
X110132929Y-101139290D01*
X110292796Y-101188519D01*
X110397865Y-101203007D01*
X110482656Y-101207488D01*
X110537383Y-101203307D01*
X110577918Y-101186589D01*
X110620129Y-101153461D01*
X110627445Y-101146963D01*
X110681966Y-101084918D01*
X110708747Y-101012092D01*
X110714542Y-100973383D01*
X110726545Y-100866900D01*
X110602590Y-100783187D01*
X110535894Y-100738987D01*
X110498206Y-100718707D01*
X110480437Y-100720166D01*
X110473494Y-100741182D01*
X110472051Y-100751873D01*
X110442979Y-100873600D01*
X110392513Y-100969699D01*
X110325749Y-101034566D01*
X110247785Y-101062597D01*
X110193286Y-101058352D01*
X110074073Y-101009220D01*
X109983930Y-100931945D01*
X109928505Y-100832999D01*
X109912909Y-100737130D01*
X109916493Y-100695261D01*
X109931970Y-100658836D01*
X109966427Y-100618693D01*
X110026948Y-100565665D01*
X110076367Y-100525729D01*
X110195067Y-100423172D01*
X110274428Y-100332913D01*
X110317007Y-100247821D01*
X110325361Y-100160765D01*
X110302047Y-100064615D01*
X110268780Y-99989134D01*
X110190890Y-99868603D01*
X110090092Y-99765565D01*
X109974328Y-99683823D01*
X109851541Y-99627181D01*
X109729672Y-99599444D01*
X109616663Y-99604414D01*
G36*
X117261281Y-98456684D02*
G01*
X117045413Y-98488553D01*
X116846106Y-98542288D01*
X116766618Y-98572881D01*
X116658418Y-98619270D01*
X116718883Y-98771668D01*
X116753964Y-98853376D01*
X116780832Y-98897447D01*
X116804235Y-98910572D01*
X116815538Y-98907886D01*
X116980673Y-98841547D01*
X117130709Y-98800074D01*
X117286195Y-98778971D01*
X117429000Y-98773733D01*
X117546097Y-98774173D01*
X117630212Y-98778446D01*
X117694509Y-98788602D01*
X117752154Y-98806693D01*
X117814044Y-98833704D01*
X117986540Y-98937033D01*
X118125122Y-99069825D01*
X118230245Y-99232935D01*
X118302360Y-99427218D01*
X118341922Y-99653530D01*
X118350500Y-99846000D01*
X118334158Y-100098571D01*
X118286425Y-100317307D01*
X118207261Y-100502281D01*
X118096626Y-100653569D01*
X117954479Y-100771243D01*
X117813396Y-100843098D01*
X117747699Y-100866391D01*
X117682339Y-100881563D01*
X117604851Y-100890177D01*
X117502773Y-100893794D01*
X117405909Y-100894178D01*
X117287959Y-100891620D01*
X117183676Y-100885283D01*
X117104458Y-100876088D01*
X117065318Y-100866700D01*
X117001818Y-100840052D01*
X117001818Y-99869091D01*
X116655454Y-99869091D01*
X116655454Y-101108651D01*
X116776682Y-101135037D01*
X116995782Y-101175203D01*
X117217436Y-101202122D01*
X117428189Y-101214724D01*
X117614586Y-101211941D01*
X117677005Y-101206541D01*
X117909224Y-101159188D01*
X118117869Y-101072951D01*
X118300626Y-100949944D01*
X118455182Y-100792281D01*
X118579222Y-100602075D01*
X118670433Y-100381439D01*
X118700408Y-100271690D01*
X118722913Y-100133958D01*
X118735227Y-99968370D01*
X118737341Y-99791524D01*
X118729243Y-99620016D01*
X118710924Y-99470443D01*
X118700958Y-99421434D01*
X118648962Y-99258743D01*
X118571664Y-99090633D01*
X118478687Y-98936030D01*
X118406825Y-98843005D01*
X118275990Y-98720557D01*
X118115967Y-98611704D01*
X117943663Y-98527219D01*
X117870499Y-98501219D01*
X117687599Y-98462123D01*
X117479935Y-98447576D01*
X117261281Y-98456684D01*
G37*
X117261281Y-98456684D02*
X117045413Y-98488553D01*
X116846106Y-98542288D01*
X116766618Y-98572881D01*
X116658418Y-98619270D01*
X116718883Y-98771668D01*
X116753964Y-98853376D01*
X116780832Y-98897447D01*
X116804235Y-98910572D01*
X116815538Y-98907886D01*
X116980673Y-98841547D01*
X117130709Y-98800074D01*
X117286195Y-98778971D01*
X117429000Y-98773733D01*
X117546097Y-98774173D01*
X117630212Y-98778446D01*
X117694509Y-98788602D01*
X117752154Y-98806693D01*
X117814044Y-98833704D01*
X117986540Y-98937033D01*
X118125122Y-99069825D01*
X118230245Y-99232935D01*
X118302360Y-99427218D01*
X118341922Y-99653530D01*
X118350500Y-99846000D01*
X118334158Y-100098571D01*
X118286425Y-100317307D01*
X118207261Y-100502281D01*
X118096626Y-100653569D01*
X117954479Y-100771243D01*
X117813396Y-100843098D01*
X117747699Y-100866391D01*
X117682339Y-100881563D01*
X117604851Y-100890177D01*
X117502773Y-100893794D01*
X117405909Y-100894178D01*
X117287959Y-100891620D01*
X117183676Y-100885283D01*
X117104458Y-100876088D01*
X117065318Y-100866700D01*
X117001818Y-100840052D01*
X117001818Y-99869091D01*
X116655454Y-99869091D01*
X116655454Y-101108651D01*
X116776682Y-101135037D01*
X116995782Y-101175203D01*
X117217436Y-101202122D01*
X117428189Y-101214724D01*
X117614586Y-101211941D01*
X117677005Y-101206541D01*
X117909224Y-101159188D01*
X118117869Y-101072951D01*
X118300626Y-100949944D01*
X118455182Y-100792281D01*
X118579222Y-100602075D01*
X118670433Y-100381439D01*
X118700408Y-100271690D01*
X118722913Y-100133958D01*
X118735227Y-99968370D01*
X118737341Y-99791524D01*
X118729243Y-99620016D01*
X118710924Y-99470443D01*
X118700958Y-99421434D01*
X118648962Y-99258743D01*
X118571664Y-99090633D01*
X118478687Y-98936030D01*
X118406825Y-98843005D01*
X118275990Y-98720557D01*
X118115967Y-98611704D01*
X117943663Y-98527219D01*
X117870499Y-98501219D01*
X117687599Y-98462123D01*
X117479935Y-98447576D01*
X117261281Y-98456684D01*
G36*
X119847462Y-98456684D02*
G01*
X119631594Y-98488553D01*
X119432288Y-98542288D01*
X119352800Y-98572881D01*
X119244600Y-98619270D01*
X119305065Y-98771668D01*
X119340145Y-98853376D01*
X119367014Y-98897447D01*
X119390417Y-98910572D01*
X119401719Y-98907886D01*
X119566855Y-98841547D01*
X119716891Y-98800074D01*
X119872377Y-98778971D01*
X120015182Y-98773733D01*
X120132279Y-98774173D01*
X120216393Y-98778446D01*
X120280691Y-98788602D01*
X120338336Y-98806693D01*
X120400226Y-98833704D01*
X120572722Y-98937033D01*
X120711304Y-99069825D01*
X120816427Y-99232935D01*
X120888542Y-99427218D01*
X120928104Y-99653530D01*
X120936682Y-99846000D01*
X120920340Y-100098571D01*
X120872607Y-100317307D01*
X120793443Y-100502281D01*
X120682807Y-100653569D01*
X120540661Y-100771243D01*
X120399578Y-100843098D01*
X120333881Y-100866391D01*
X120268520Y-100881563D01*
X120191033Y-100890177D01*
X120088955Y-100893794D01*
X119992091Y-100894178D01*
X119874141Y-100891620D01*
X119769857Y-100885283D01*
X119690639Y-100876088D01*
X119651500Y-100866700D01*
X119588000Y-100840052D01*
X119588000Y-99869091D01*
X119241636Y-99869091D01*
X119241636Y-101108651D01*
X119362864Y-101135037D01*
X119581964Y-101175203D01*
X119803618Y-101202122D01*
X120014371Y-101214724D01*
X120200768Y-101211941D01*
X120263187Y-101206541D01*
X120495940Y-101159225D01*
X120704704Y-101073188D01*
X120887319Y-100950404D01*
X121041620Y-100792852D01*
X121165447Y-100602507D01*
X121256635Y-100381347D01*
X121286782Y-100270862D01*
X121309158Y-100133752D01*
X121321404Y-99968674D01*
X121323514Y-99792219D01*
X121315479Y-99620977D01*
X121297293Y-99471537D01*
X121287140Y-99421434D01*
X121235144Y-99258743D01*
X121157846Y-99090633D01*
X121064869Y-98936030D01*
X120993006Y-98843005D01*
X120862172Y-98720557D01*
X120702149Y-98611704D01*
X120529845Y-98527219D01*
X120456681Y-98501219D01*
X120273781Y-98462123D01*
X120066117Y-98447576D01*
X119847462Y-98456684D01*
G37*
X119847462Y-98456684D02*
X119631594Y-98488553D01*
X119432288Y-98542288D01*
X119352800Y-98572881D01*
X119244600Y-98619270D01*
X119305065Y-98771668D01*
X119340145Y-98853376D01*
X119367014Y-98897447D01*
X119390417Y-98910572D01*
X119401719Y-98907886D01*
X119566855Y-98841547D01*
X119716891Y-98800074D01*
X119872377Y-98778971D01*
X120015182Y-98773733D01*
X120132279Y-98774173D01*
X120216393Y-98778446D01*
X120280691Y-98788602D01*
X120338336Y-98806693D01*
X120400226Y-98833704D01*
X120572722Y-98937033D01*
X120711304Y-99069825D01*
X120816427Y-99232935D01*
X120888542Y-99427218D01*
X120928104Y-99653530D01*
X120936682Y-99846000D01*
X120920340Y-100098571D01*
X120872607Y-100317307D01*
X120793443Y-100502281D01*
X120682807Y-100653569D01*
X120540661Y-100771243D01*
X120399578Y-100843098D01*
X120333881Y-100866391D01*
X120268520Y-100881563D01*
X120191033Y-100890177D01*
X120088955Y-100893794D01*
X119992091Y-100894178D01*
X119874141Y-100891620D01*
X119769857Y-100885283D01*
X119690639Y-100876088D01*
X119651500Y-100866700D01*
X119588000Y-100840052D01*
X119588000Y-99869091D01*
X119241636Y-99869091D01*
X119241636Y-101108651D01*
X119362864Y-101135037D01*
X119581964Y-101175203D01*
X119803618Y-101202122D01*
X120014371Y-101214724D01*
X120200768Y-101211941D01*
X120263187Y-101206541D01*
X120495940Y-101159225D01*
X120704704Y-101073188D01*
X120887319Y-100950404D01*
X121041620Y-100792852D01*
X121165447Y-100602507D01*
X121256635Y-100381347D01*
X121286782Y-100270862D01*
X121309158Y-100133752D01*
X121321404Y-99968674D01*
X121323514Y-99792219D01*
X121315479Y-99620977D01*
X121297293Y-99471537D01*
X121287140Y-99421434D01*
X121235144Y-99258743D01*
X121157846Y-99090633D01*
X121064869Y-98936030D01*
X120993006Y-98843005D01*
X120862172Y-98720557D01*
X120702149Y-98611704D01*
X120529845Y-98527219D01*
X120456681Y-98501219D01*
X120273781Y-98462123D01*
X120066117Y-98447576D01*
X119847462Y-98456684D01*
G36*
X123980569Y-99574682D02*
G01*
X123982446Y-99826917D01*
X123984376Y-100037318D01*
X123986545Y-100210230D01*
X123989140Y-100350002D01*
X123992348Y-100460978D01*
X123996357Y-100547507D01*
X124001353Y-100613934D01*
X124007523Y-100664607D01*
X124015055Y-100703873D01*
X124024135Y-100736078D01*
X124031431Y-100756532D01*
X124099232Y-100880677D01*
X124199922Y-100997875D01*
X124320561Y-101095483D01*
X124443501Y-101159155D01*
X124589614Y-101197514D01*
X124759703Y-101217908D01*
X124934741Y-101219220D01*
X125095705Y-101200334D01*
X125106727Y-101198062D01*
X125284595Y-101149695D01*
X125432376Y-101088081D01*
X125490122Y-101054580D01*
X125543149Y-101019836D01*
X125471908Y-100875366D01*
X125400667Y-100730897D01*
X125245787Y-100810361D01*
X125083397Y-100875166D01*
X124922922Y-100905069D01*
X124770474Y-100901591D01*
X124632163Y-100866252D01*
X124514102Y-100800572D01*
X124422402Y-100706074D01*
X124365373Y-100591313D01*
X124357373Y-100547653D01*
X124350328Y-100468331D01*
X124344178Y-100351566D01*
X124338859Y-100195573D01*
X124334310Y-99998570D01*
X124330469Y-99758773D01*
X124327571Y-99505409D01*
X124317823Y-98506727D01*
X123973124Y-98506727D01*
X123980569Y-99574682D01*
G37*
X123980569Y-99574682D02*
X123982446Y-99826917D01*
X123984376Y-100037318D01*
X123986545Y-100210230D01*
X123989140Y-100350002D01*
X123992348Y-100460978D01*
X123996357Y-100547507D01*
X124001353Y-100613934D01*
X124007523Y-100664607D01*
X124015055Y-100703873D01*
X124024135Y-100736078D01*
X124031431Y-100756532D01*
X124099232Y-100880677D01*
X124199922Y-100997875D01*
X124320561Y-101095483D01*
X124443501Y-101159155D01*
X124589614Y-101197514D01*
X124759703Y-101217908D01*
X124934741Y-101219220D01*
X125095705Y-101200334D01*
X125106727Y-101198062D01*
X125284595Y-101149695D01*
X125432376Y-101088081D01*
X125490122Y-101054580D01*
X125543149Y-101019836D01*
X125471908Y-100875366D01*
X125400667Y-100730897D01*
X125245787Y-100810361D01*
X125083397Y-100875166D01*
X124922922Y-100905069D01*
X124770474Y-100901591D01*
X124632163Y-100866252D01*
X124514102Y-100800572D01*
X124422402Y-100706074D01*
X124365373Y-100591313D01*
X124357373Y-100547653D01*
X124350328Y-100468331D01*
X124344178Y-100351566D01*
X124338859Y-100195573D01*
X124334310Y-99998570D01*
X124330469Y-99758773D01*
X124327571Y-99505409D01*
X124317823Y-98506727D01*
X123973124Y-98506727D01*
X123980569Y-99574682D01*
G36*
X103280086Y-98579945D02*
G01*
X103193535Y-98587545D01*
X103260007Y-98687649D01*
X103298963Y-98743107D01*
X103332637Y-98773397D01*
X103377193Y-98786668D01*
X103448798Y-98791070D01*
X103466118Y-98791558D01*
X103579645Y-98804509D01*
X103665727Y-98841131D01*
X103735265Y-98908780D01*
X103799163Y-99014809D01*
X103800253Y-99016965D01*
X103820467Y-99067147D01*
X103848257Y-99150373D01*
X103881750Y-99259621D01*
X103919074Y-99387873D01*
X103958355Y-99528108D01*
X103997721Y-99673306D01*
X104035298Y-99816447D01*
X104069215Y-99950511D01*
X104097599Y-100068478D01*
X104118576Y-100163328D01*
X104130273Y-100228041D01*
X104130819Y-100255597D01*
X104130720Y-100255704D01*
X104110871Y-100244555D01*
X104062493Y-100206479D01*
X103990894Y-100145980D01*
X103901382Y-100067560D01*
X103799266Y-99975722D01*
X103780594Y-99958697D01*
X103672878Y-99860695D01*
X103573396Y-99770959D01*
X103488454Y-99695115D01*
X103424360Y-99638794D01*
X103387421Y-99607623D01*
X103385737Y-99606315D01*
X103299470Y-99565134D01*
X103195393Y-99550431D01*
X103094731Y-99563998D01*
X103058397Y-99578651D01*
X102984959Y-99616627D01*
X103078964Y-99755056D01*
X103172969Y-99893484D01*
X103232508Y-99846651D01*
X103318281Y-99806363D01*
X103411513Y-99808728D01*
X103463290Y-99829519D01*
X103500968Y-99856353D01*
X103562890Y-99906673D01*
X103639484Y-99972516D01*
X103698643Y-100025335D01*
X103883524Y-100193086D01*
X103847549Y-100279316D01*
X103827387Y-100324084D01*
X103790153Y-100403346D01*
X103739171Y-100510159D01*
X103677765Y-100637583D01*
X103609259Y-100778678D01*
X103562933Y-100873545D01*
X103467912Y-101064418D01*
X103387330Y-101217636D01*
X103317611Y-101338065D01*
X103255176Y-101430573D01*
X103196449Y-101500028D01*
X103137853Y-101551296D01*
X103075812Y-101589245D01*
X103018524Y-101614349D01*
X102913390Y-101641605D01*
X102820049Y-101634347D01*
X102729157Y-101589814D01*
X102631367Y-101505247D01*
X102624146Y-101497884D01*
X102505110Y-101375506D01*
X102471423Y-101493980D01*
X102454246Y-101563536D01*
X102446464Y-101614380D01*
X102447707Y-101630103D01*
X102472790Y-101650499D01*
X102524359Y-101681273D01*
X102550526Y-101695118D01*
X102661777Y-101733228D01*
X102798056Y-101752027D01*
X102941971Y-101750467D01*
X103076132Y-101727496D01*
X103078000Y-101726978D01*
X103212707Y-101683583D01*
X103329574Y-101631255D01*
X103432618Y-101565337D01*
X103525856Y-101481175D01*
X103613305Y-101374110D01*
X103698982Y-101239489D01*
X103786906Y-101072653D01*
X103881092Y-100868948D01*
X103943819Y-100723455D01*
X103991749Y-100611650D01*
X104034498Y-100514841D01*
X104068390Y-100441132D01*
X104089751Y-100398632D01*
X104094042Y-100392100D01*
X104121489Y-100391813D01*
X104156694Y-100416694D01*
X104183047Y-100461866D01*
X104212382Y-100548468D01*
X104245233Y-100678249D01*
X104266798Y-100777310D01*
X104292369Y-100893248D01*
X104317060Y-100992989D01*
X104338490Y-101067730D01*
X104354275Y-101108668D01*
X104357659Y-101113125D01*
X104396694Y-101134311D01*
X104454878Y-101156685D01*
X104517792Y-101175980D01*
X104571015Y-101187927D01*
X104600125Y-101188259D01*
X104602000Y-101185445D01*
X104596827Y-101152558D01*
X104582231Y-101080731D01*
X104559598Y-100975923D01*
X104530314Y-100844093D01*
X104495764Y-100691199D01*
X104457335Y-100523203D01*
X104416412Y-100346061D01*
X104374381Y-100165734D01*
X104332628Y-99988179D01*
X104292538Y-99819358D01*
X104255497Y-99665228D01*
X104222892Y-99531748D01*
X104196107Y-99424878D01*
X104176529Y-99350577D01*
X104170125Y-99328316D01*
X104134451Y-99220044D01*
X104099383Y-99140385D01*
X104055842Y-99072800D01*
X103994750Y-99000748D01*
X103983773Y-98988815D01*
X103881591Y-98887732D01*
X103768220Y-98790831D01*
X103653873Y-98705684D01*
X103548760Y-98639863D01*
X103463094Y-98600941D01*
X103459000Y-98599687D01*
X103374914Y-98583366D01*
X103290157Y-98579275D01*
X103280086Y-98579945D01*
G37*
X103280086Y-98579945D02*
X103193535Y-98587545D01*
X103260007Y-98687649D01*
X103298963Y-98743107D01*
X103332637Y-98773397D01*
X103377193Y-98786668D01*
X103448798Y-98791070D01*
X103466118Y-98791558D01*
X103579645Y-98804509D01*
X103665727Y-98841131D01*
X103735265Y-98908780D01*
X103799163Y-99014809D01*
X103800253Y-99016965D01*
X103820467Y-99067147D01*
X103848257Y-99150373D01*
X103881750Y-99259621D01*
X103919074Y-99387873D01*
X103958355Y-99528108D01*
X103997721Y-99673306D01*
X104035298Y-99816447D01*
X104069215Y-99950511D01*
X104097599Y-100068478D01*
X104118576Y-100163328D01*
X104130273Y-100228041D01*
X104130819Y-100255597D01*
X104130720Y-100255704D01*
X104110871Y-100244555D01*
X104062493Y-100206479D01*
X103990894Y-100145980D01*
X103901382Y-100067560D01*
X103799266Y-99975722D01*
X103780594Y-99958697D01*
X103672878Y-99860695D01*
X103573396Y-99770959D01*
X103488454Y-99695115D01*
X103424360Y-99638794D01*
X103387421Y-99607623D01*
X103385737Y-99606315D01*
X103299470Y-99565134D01*
X103195393Y-99550431D01*
X103094731Y-99563998D01*
X103058397Y-99578651D01*
X102984959Y-99616627D01*
X103078964Y-99755056D01*
X103172969Y-99893484D01*
X103232508Y-99846651D01*
X103318281Y-99806363D01*
X103411513Y-99808728D01*
X103463290Y-99829519D01*
X103500968Y-99856353D01*
X103562890Y-99906673D01*
X103639484Y-99972516D01*
X103698643Y-100025335D01*
X103883524Y-100193086D01*
X103847549Y-100279316D01*
X103827387Y-100324084D01*
X103790153Y-100403346D01*
X103739171Y-100510159D01*
X103677765Y-100637583D01*
X103609259Y-100778678D01*
X103562933Y-100873545D01*
X103467912Y-101064418D01*
X103387330Y-101217636D01*
X103317611Y-101338065D01*
X103255176Y-101430573D01*
X103196449Y-101500028D01*
X103137853Y-101551296D01*
X103075812Y-101589245D01*
X103018524Y-101614349D01*
X102913390Y-101641605D01*
X102820049Y-101634347D01*
X102729157Y-101589814D01*
X102631367Y-101505247D01*
X102624146Y-101497884D01*
X102505110Y-101375506D01*
X102471423Y-101493980D01*
X102454246Y-101563536D01*
X102446464Y-101614380D01*
X102447707Y-101630103D01*
X102472790Y-101650499D01*
X102524359Y-101681273D01*
X102550526Y-101695118D01*
X102661777Y-101733228D01*
X102798056Y-101752027D01*
X102941971Y-101750467D01*
X103076132Y-101727496D01*
X103078000Y-101726978D01*
X103212707Y-101683583D01*
X103329574Y-101631255D01*
X103432618Y-101565337D01*
X103525856Y-101481175D01*
X103613305Y-101374110D01*
X103698982Y-101239489D01*
X103786906Y-101072653D01*
X103881092Y-100868948D01*
X103943819Y-100723455D01*
X103991749Y-100611650D01*
X104034498Y-100514841D01*
X104068390Y-100441132D01*
X104089751Y-100398632D01*
X104094042Y-100392100D01*
X104121489Y-100391813D01*
X104156694Y-100416694D01*
X104183047Y-100461866D01*
X104212382Y-100548468D01*
X104245233Y-100678249D01*
X104266798Y-100777310D01*
X104292369Y-100893248D01*
X104317060Y-100992989D01*
X104338490Y-101067730D01*
X104354275Y-101108668D01*
X104357659Y-101113125D01*
X104396694Y-101134311D01*
X104454878Y-101156685D01*
X104517792Y-101175980D01*
X104571015Y-101187927D01*
X104600125Y-101188259D01*
X104602000Y-101185445D01*
X104596827Y-101152558D01*
X104582231Y-101080731D01*
X104559598Y-100975923D01*
X104530314Y-100844093D01*
X104495764Y-100691199D01*
X104457335Y-100523203D01*
X104416412Y-100346061D01*
X104374381Y-100165734D01*
X104332628Y-99988179D01*
X104292538Y-99819358D01*
X104255497Y-99665228D01*
X104222892Y-99531748D01*
X104196107Y-99424878D01*
X104176529Y-99350577D01*
X104170125Y-99328316D01*
X104134451Y-99220044D01*
X104099383Y-99140385D01*
X104055842Y-99072800D01*
X103994750Y-99000748D01*
X103983773Y-98988815D01*
X103881591Y-98887732D01*
X103768220Y-98790831D01*
X103653873Y-98705684D01*
X103548760Y-98639863D01*
X103463094Y-98600941D01*
X103459000Y-98599687D01*
X103374914Y-98583366D01*
X103290157Y-98579275D01*
X103280086Y-98579945D01*
G36*
X125451985Y-95807398D02*
G01*
X125434708Y-95809921D01*
X125422901Y-95814680D01*
X125415731Y-95822129D01*
X125412368Y-95832721D01*
X125411829Y-95841388D01*
X125413849Y-95854528D01*
X125419142Y-95865088D01*
X125426558Y-95871184D01*
X125430501Y-95871972D01*
X125430960Y-95874040D01*
X125426845Y-95879158D01*
X125425321Y-95880627D01*
X125418775Y-95888448D01*
X125411063Y-95900161D01*
X125404782Y-95911470D01*
X125393581Y-95933658D01*
X125411225Y-95933658D01*
X125421980Y-95933296D01*
X125428148Y-95931117D01*
X125432397Y-95925482D01*
X125435638Y-95918648D01*
X125444250Y-95902078D01*
X125452577Y-95891836D01*
X125461429Y-95887075D01*
X125466521Y-95886486D01*
X125477143Y-95886486D01*
X125477143Y-95933658D01*
X125509800Y-95933658D01*
X125509800Y-95846572D01*
X125477143Y-95846572D01*
X125476905Y-95857312D01*
X125475443Y-95862668D01*
X125471633Y-95864511D01*
X125466257Y-95864715D01*
X125455603Y-95862254D01*
X125448114Y-95857458D01*
X125442738Y-95850353D01*
X125440857Y-95844963D01*
X125444055Y-95838339D01*
X125452012Y-95832461D01*
X125462275Y-95828880D01*
X125467065Y-95828429D01*
X125473035Y-95828898D01*
X125476012Y-95831551D01*
X125477035Y-95838254D01*
X125477143Y-95846572D01*
X125509800Y-95846572D01*
X125509800Y-95806658D01*
X125475565Y-95806658D01*
X125451985Y-95807398D01*
G37*
X125451985Y-95807398D02*
X125434708Y-95809921D01*
X125422901Y-95814680D01*
X125415731Y-95822129D01*
X125412368Y-95832721D01*
X125411829Y-95841388D01*
X125413849Y-95854528D01*
X125419142Y-95865088D01*
X125426558Y-95871184D01*
X125430501Y-95871972D01*
X125430960Y-95874040D01*
X125426845Y-95879158D01*
X125425321Y-95880627D01*
X125418775Y-95888448D01*
X125411063Y-95900161D01*
X125404782Y-95911470D01*
X125393581Y-95933658D01*
X125411225Y-95933658D01*
X125421980Y-95933296D01*
X125428148Y-95931117D01*
X125432397Y-95925482D01*
X125435638Y-95918648D01*
X125444250Y-95902078D01*
X125452577Y-95891836D01*
X125461429Y-95887075D01*
X125466521Y-95886486D01*
X125477143Y-95886486D01*
X125477143Y-95933658D01*
X125509800Y-95933658D01*
X125509800Y-95846572D01*
X125477143Y-95846572D01*
X125476905Y-95857312D01*
X125475443Y-95862668D01*
X125471633Y-95864511D01*
X125466257Y-95864715D01*
X125455603Y-95862254D01*
X125448114Y-95857458D01*
X125442738Y-95850353D01*
X125440857Y-95844963D01*
X125444055Y-95838339D01*
X125452012Y-95832461D01*
X125462275Y-95828880D01*
X125467065Y-95828429D01*
X125473035Y-95828898D01*
X125476012Y-95831551D01*
X125477035Y-95838254D01*
X125477143Y-95846572D01*
X125509800Y-95846572D01*
X125509800Y-95806658D01*
X125475565Y-95806658D01*
X125451985Y-95807398D01*
G36*
X131074175Y-92824879D02*
G01*
X131075327Y-92830124D01*
X131077888Y-92842023D01*
X131081783Y-92860213D01*
X131086933Y-92884331D01*
X131093262Y-92914015D01*
X131100693Y-92948902D01*
X131109150Y-92988629D01*
X131118554Y-93032835D01*
X131128830Y-93081156D01*
X131139900Y-93133230D01*
X131151687Y-93188695D01*
X131164115Y-93247188D01*
X131177106Y-93308345D01*
X131190584Y-93371806D01*
X131204472Y-93437207D01*
X131218692Y-93504186D01*
X131233168Y-93572379D01*
X131247823Y-93641426D01*
X131262580Y-93710962D01*
X131277362Y-93780626D01*
X131292092Y-93850055D01*
X131306693Y-93918886D01*
X131321089Y-93986757D01*
X131335201Y-94053305D01*
X131348954Y-94118168D01*
X131362271Y-94180984D01*
X131375074Y-94241389D01*
X131387286Y-94299021D01*
X131398831Y-94353517D01*
X131409632Y-94404516D01*
X131419612Y-94451654D01*
X131428693Y-94494568D01*
X131436800Y-94532898D01*
X131443854Y-94566279D01*
X131449780Y-94594349D01*
X131454499Y-94616746D01*
X131457936Y-94633107D01*
X131460013Y-94643069D01*
X131460657Y-94646275D01*
X131464197Y-94646711D01*
X131474465Y-94647126D01*
X131490931Y-94647517D01*
X131513064Y-94647877D01*
X131540336Y-94648202D01*
X131572216Y-94648488D01*
X131608175Y-94648728D01*
X131647684Y-94648918D01*
X131690212Y-94649053D01*
X131735230Y-94649129D01*
X131765851Y-94649143D01*
X132071044Y-94649143D01*
X132068884Y-94640539D01*
X132067982Y-94636411D01*
X132065649Y-94625550D01*
X132061963Y-94608323D01*
X132057001Y-94585096D01*
X132050841Y-94556233D01*
X132043562Y-94522102D01*
X132035241Y-94483068D01*
X132025956Y-94439497D01*
X132015785Y-94391755D01*
X132004805Y-94340208D01*
X131993095Y-94285222D01*
X131980733Y-94227163D01*
X131967796Y-94166397D01*
X131954362Y-94103290D01*
X131940509Y-94038207D01*
X131926315Y-93971516D01*
X131911857Y-93903580D01*
X131897215Y-93834768D01*
X131882465Y-93765444D01*
X131867685Y-93695975D01*
X131852953Y-93626726D01*
X131838347Y-93558063D01*
X131823945Y-93490353D01*
X131809825Y-93423961D01*
X131796065Y-93359254D01*
X131782742Y-93296596D01*
X131769934Y-93236355D01*
X131757720Y-93178896D01*
X131746176Y-93124585D01*
X131735382Y-93073788D01*
X131725414Y-93026871D01*
X131716351Y-92984200D01*
X131708270Y-92946140D01*
X131701250Y-92913059D01*
X131695368Y-92885321D01*
X131690702Y-92863293D01*
X131687330Y-92847341D01*
X131685330Y-92837830D01*
X131684901Y-92835765D01*
X131680998Y-92816715D01*
X131072262Y-92816715D01*
X131074175Y-92824879D01*
G37*
X131074175Y-92824879D02*
X131075327Y-92830124D01*
X131077888Y-92842023D01*
X131081783Y-92860213D01*
X131086933Y-92884331D01*
X131093262Y-92914015D01*
X131100693Y-92948902D01*
X131109150Y-92988629D01*
X131118554Y-93032835D01*
X131128830Y-93081156D01*
X131139900Y-93133230D01*
X131151687Y-93188695D01*
X131164115Y-93247188D01*
X131177106Y-93308345D01*
X131190584Y-93371806D01*
X131204472Y-93437207D01*
X131218692Y-93504186D01*
X131233168Y-93572379D01*
X131247823Y-93641426D01*
X131262580Y-93710962D01*
X131277362Y-93780626D01*
X131292092Y-93850055D01*
X131306693Y-93918886D01*
X131321089Y-93986757D01*
X131335201Y-94053305D01*
X131348954Y-94118168D01*
X131362271Y-94180984D01*
X131375074Y-94241389D01*
X131387286Y-94299021D01*
X131398831Y-94353517D01*
X131409632Y-94404516D01*
X131419612Y-94451654D01*
X131428693Y-94494568D01*
X131436800Y-94532898D01*
X131443854Y-94566279D01*
X131449780Y-94594349D01*
X131454499Y-94616746D01*
X131457936Y-94633107D01*
X131460013Y-94643069D01*
X131460657Y-94646275D01*
X131464197Y-94646711D01*
X131474465Y-94647126D01*
X131490931Y-94647517D01*
X131513064Y-94647877D01*
X131540336Y-94648202D01*
X131572216Y-94648488D01*
X131608175Y-94648728D01*
X131647684Y-94648918D01*
X131690212Y-94649053D01*
X131735230Y-94649129D01*
X131765851Y-94649143D01*
X132071044Y-94649143D01*
X132068884Y-94640539D01*
X132067982Y-94636411D01*
X132065649Y-94625550D01*
X132061963Y-94608323D01*
X132057001Y-94585096D01*
X132050841Y-94556233D01*
X132043562Y-94522102D01*
X132035241Y-94483068D01*
X132025956Y-94439497D01*
X132015785Y-94391755D01*
X132004805Y-94340208D01*
X131993095Y-94285222D01*
X131980733Y-94227163D01*
X131967796Y-94166397D01*
X131954362Y-94103290D01*
X131940509Y-94038207D01*
X131926315Y-93971516D01*
X131911857Y-93903580D01*
X131897215Y-93834768D01*
X131882465Y-93765444D01*
X131867685Y-93695975D01*
X131852953Y-93626726D01*
X131838347Y-93558063D01*
X131823945Y-93490353D01*
X131809825Y-93423961D01*
X131796065Y-93359254D01*
X131782742Y-93296596D01*
X131769934Y-93236355D01*
X131757720Y-93178896D01*
X131746176Y-93124585D01*
X131735382Y-93073788D01*
X131725414Y-93026871D01*
X131716351Y-92984200D01*
X131708270Y-92946140D01*
X131701250Y-92913059D01*
X131695368Y-92885321D01*
X131690702Y-92863293D01*
X131687330Y-92847341D01*
X131685330Y-92837830D01*
X131684901Y-92835765D01*
X131680998Y-92816715D01*
X131072262Y-92816715D01*
X131074175Y-92824879D01*
G36*
X132914096Y-92226535D02*
G01*
X132889887Y-92226994D01*
X132867854Y-92227777D01*
X132849169Y-92228859D01*
X132835004Y-92230215D01*
X132826532Y-92231820D01*
X132825185Y-92232400D01*
X132824852Y-92234505D01*
X132825337Y-92240105D01*
X132826693Y-92249473D01*
X132828977Y-92262880D01*
X132832242Y-92280598D01*
X132836543Y-92302900D01*
X132841936Y-92330056D01*
X132848474Y-92362339D01*
X132856212Y-92400021D01*
X132865205Y-92443373D01*
X132875508Y-92492668D01*
X132887175Y-92548177D01*
X132900261Y-92610171D01*
X132914821Y-92678924D01*
X132918355Y-92695587D01*
X132930350Y-92752190D01*
X132941899Y-92806835D01*
X132952917Y-92859103D01*
X132963315Y-92908573D01*
X132973007Y-92954825D01*
X132981904Y-92997437D01*
X132989920Y-93035990D01*
X132996968Y-93070063D01*
X133002959Y-93099235D01*
X133007806Y-93123087D01*
X133011423Y-93141197D01*
X133013721Y-93153144D01*
X133014613Y-93158510D01*
X133014611Y-93158767D01*
X133010885Y-93159978D01*
X133009904Y-93159520D01*
X133007461Y-93156390D01*
X133001028Y-93147672D01*
X132990834Y-93133685D01*
X132977108Y-93114744D01*
X132960078Y-93091169D01*
X132939972Y-93063278D01*
X132917019Y-93031387D01*
X132891447Y-92995814D01*
X132863484Y-92956878D01*
X132833360Y-92914896D01*
X132801303Y-92870185D01*
X132767541Y-92823064D01*
X132732302Y-92773850D01*
X132695816Y-92722861D01*
X132675891Y-92695004D01*
X132345159Y-92232515D01*
X132011765Y-92232515D01*
X131963263Y-92232533D01*
X131916881Y-92232586D01*
X131873125Y-92232671D01*
X131832502Y-92232786D01*
X131795518Y-92232928D01*
X131762682Y-92233095D01*
X131734499Y-92233283D01*
X131711477Y-92233490D01*
X131694122Y-92233714D01*
X131682940Y-92233951D01*
X131678440Y-92234200D01*
X131678371Y-92234235D01*
X131680583Y-92237217D01*
X131687068Y-92245613D01*
X131697605Y-92259141D01*
X131711973Y-92277519D01*
X131729949Y-92300465D01*
X131751312Y-92327696D01*
X131775839Y-92358931D01*
X131803310Y-92393886D01*
X131833501Y-92432280D01*
X131866192Y-92473831D01*
X131901160Y-92518256D01*
X131938184Y-92565273D01*
X131977041Y-92614600D01*
X132017510Y-92665954D01*
X132059369Y-92719053D01*
X132092029Y-92760472D01*
X132134818Y-92814758D01*
X132176384Y-92867551D01*
X132216507Y-92918567D01*
X132254962Y-92967521D01*
X132291529Y-93014129D01*
X132325985Y-93058104D01*
X132358107Y-93099164D01*
X132387674Y-93137023D01*
X132414463Y-93171396D01*
X132438252Y-93201999D01*
X132458820Y-93228546D01*
X132475943Y-93250754D01*
X132489399Y-93268337D01*
X132498967Y-93281012D01*
X132504424Y-93288492D01*
X132505686Y-93290524D01*
X132504694Y-93294520D01*
X132501784Y-93305148D01*
X132497053Y-93322068D01*
X132490598Y-93344940D01*
X132482517Y-93373426D01*
X132472906Y-93407186D01*
X132461862Y-93445879D01*
X132449484Y-93489166D01*
X132435867Y-93536708D01*
X132421110Y-93588165D01*
X132405310Y-93643197D01*
X132388563Y-93701465D01*
X132370968Y-93762628D01*
X132352620Y-93826348D01*
X132333618Y-93892285D01*
X132314059Y-93960099D01*
X132311557Y-93968769D01*
X132291939Y-94036769D01*
X132272867Y-94102920D01*
X132254436Y-94166882D01*
X132236744Y-94228316D01*
X132219888Y-94286885D01*
X132203966Y-94342250D01*
X132189074Y-94394073D01*
X132175309Y-94442014D01*
X132162770Y-94485735D01*
X132151552Y-94524899D01*
X132141754Y-94559165D01*
X132133471Y-94588197D01*
X132126802Y-94611655D01*
X132121843Y-94629200D01*
X132118692Y-94640495D01*
X132117446Y-94645200D01*
X132117429Y-94645310D01*
X132120281Y-94646016D01*
X132128937Y-94646645D01*
X132143546Y-94647200D01*
X132164257Y-94647681D01*
X132191219Y-94648091D01*
X132224581Y-94648432D01*
X132264493Y-94648704D01*
X132311103Y-94648909D01*
X132364560Y-94649049D01*
X132425014Y-94649126D01*
X132474774Y-94649143D01*
X132832119Y-94649143D01*
X132834047Y-94640979D01*
X132835080Y-94636436D01*
X132837602Y-94625264D01*
X132841510Y-94607913D01*
X132846704Y-94584836D01*
X132853083Y-94556484D01*
X132860544Y-94523307D01*
X132868986Y-94485758D01*
X132878308Y-94444288D01*
X132888409Y-94399348D01*
X132899186Y-94351389D01*
X132910538Y-94300863D01*
X132922364Y-94248222D01*
X132928406Y-94221328D01*
X132940404Y-94167951D01*
X132951973Y-94116567D01*
X132963011Y-94067617D01*
X132973418Y-94021543D01*
X132983094Y-93978787D01*
X132991938Y-93939791D01*
X132999850Y-93904995D01*
X133006729Y-93874843D01*
X133012476Y-93849776D01*
X133016989Y-93830235D01*
X133020169Y-93816662D01*
X133021915Y-93809498D01*
X133022223Y-93808453D01*
X133024852Y-93810711D01*
X133031538Y-93817774D01*
X133041648Y-93828909D01*
X133054549Y-93843384D01*
X133069607Y-93860467D01*
X133086188Y-93879425D01*
X133103660Y-93899525D01*
X133121389Y-93920036D01*
X133138740Y-93940225D01*
X133155082Y-93959360D01*
X133169780Y-93976708D01*
X133182201Y-93991536D01*
X133191711Y-94003113D01*
X133197677Y-94010706D01*
X133199450Y-94013357D01*
X133200557Y-94017764D01*
X133203043Y-94028754D01*
X133206796Y-94045811D01*
X133211706Y-94068415D01*
X133217661Y-94096048D01*
X133224549Y-94128191D01*
X133232261Y-94164326D01*
X133240684Y-94203935D01*
X133249708Y-94246500D01*
X133259222Y-94291501D01*
X133268259Y-94334365D01*
X133334548Y-94649143D01*
X133963600Y-94649143D01*
X133960579Y-94635536D01*
X133959562Y-94630809D01*
X133957102Y-94619291D01*
X133953263Y-94601291D01*
X133948111Y-94577117D01*
X133941712Y-94547076D01*
X133934132Y-94511477D01*
X133925435Y-94470628D01*
X133915688Y-94424837D01*
X133904956Y-94374412D01*
X133893305Y-94319660D01*
X133880799Y-94260890D01*
X133867506Y-94198411D01*
X133853489Y-94132529D01*
X133838816Y-94063553D01*
X133823550Y-93991792D01*
X133807759Y-93917552D01*
X133791507Y-93841143D01*
X133774860Y-93762872D01*
X133770421Y-93742000D01*
X133753541Y-93662665D01*
X133736953Y-93584784D01*
X133720730Y-93508687D01*
X133704942Y-93434702D01*
X133689659Y-93363158D01*
X133674952Y-93294386D01*
X133660892Y-93228712D01*
X133647549Y-93166467D01*
X133634995Y-93107979D01*
X133623299Y-93053578D01*
X133612532Y-93003591D01*
X133602766Y-92958349D01*
X133594071Y-92918180D01*
X133586517Y-92883413D01*
X133580175Y-92854377D01*
X133575116Y-92831400D01*
X133571411Y-92814813D01*
X133569130Y-92804944D01*
X133568903Y-92804015D01*
X133551848Y-92740723D01*
X133532544Y-92679064D01*
X133511312Y-92619731D01*
X133488473Y-92563422D01*
X133464346Y-92510829D01*
X133439252Y-92462648D01*
X133413511Y-92419575D01*
X133387445Y-92382304D01*
X133361373Y-92351531D01*
X133359250Y-92349322D01*
X133330388Y-92323143D01*
X133297821Y-92300422D01*
X133261087Y-92280999D01*
X133219727Y-92264714D01*
X133173278Y-92251409D01*
X133121281Y-92240925D01*
X133063275Y-92233103D01*
X133009217Y-92228449D01*
X132988039Y-92227358D01*
X132964344Y-92226692D01*
X132939305Y-92226426D01*
X132914096Y-92226535D01*
G37*
X132914096Y-92226535D02*
X132889887Y-92226994D01*
X132867854Y-92227777D01*
X132849169Y-92228859D01*
X132835004Y-92230215D01*
X132826532Y-92231820D01*
X132825185Y-92232400D01*
X132824852Y-92234505D01*
X132825337Y-92240105D01*
X132826693Y-92249473D01*
X132828977Y-92262880D01*
X132832242Y-92280598D01*
X132836543Y-92302900D01*
X132841936Y-92330056D01*
X132848474Y-92362339D01*
X132856212Y-92400021D01*
X132865205Y-92443373D01*
X132875508Y-92492668D01*
X132887175Y-92548177D01*
X132900261Y-92610171D01*
X132914821Y-92678924D01*
X132918355Y-92695587D01*
X132930350Y-92752190D01*
X132941899Y-92806835D01*
X132952917Y-92859103D01*
X132963315Y-92908573D01*
X132973007Y-92954825D01*
X132981904Y-92997437D01*
X132989920Y-93035990D01*
X132996968Y-93070063D01*
X133002959Y-93099235D01*
X133007806Y-93123087D01*
X133011423Y-93141197D01*
X133013721Y-93153144D01*
X133014613Y-93158510D01*
X133014611Y-93158767D01*
X133010885Y-93159978D01*
X133009904Y-93159520D01*
X133007461Y-93156390D01*
X133001028Y-93147672D01*
X132990834Y-93133685D01*
X132977108Y-93114744D01*
X132960078Y-93091169D01*
X132939972Y-93063278D01*
X132917019Y-93031387D01*
X132891447Y-92995814D01*
X132863484Y-92956878D01*
X132833360Y-92914896D01*
X132801303Y-92870185D01*
X132767541Y-92823064D01*
X132732302Y-92773850D01*
X132695816Y-92722861D01*
X132675891Y-92695004D01*
X132345159Y-92232515D01*
X132011765Y-92232515D01*
X131963263Y-92232533D01*
X131916881Y-92232586D01*
X131873125Y-92232671D01*
X131832502Y-92232786D01*
X131795518Y-92232928D01*
X131762682Y-92233095D01*
X131734499Y-92233283D01*
X131711477Y-92233490D01*
X131694122Y-92233714D01*
X131682940Y-92233951D01*
X131678440Y-92234200D01*
X131678371Y-92234235D01*
X131680583Y-92237217D01*
X131687068Y-92245613D01*
X131697605Y-92259141D01*
X131711973Y-92277519D01*
X131729949Y-92300465D01*
X131751312Y-92327696D01*
X131775839Y-92358931D01*
X131803310Y-92393886D01*
X131833501Y-92432280D01*
X131866192Y-92473831D01*
X131901160Y-92518256D01*
X131938184Y-92565273D01*
X131977041Y-92614600D01*
X132017510Y-92665954D01*
X132059369Y-92719053D01*
X132092029Y-92760472D01*
X132134818Y-92814758D01*
X132176384Y-92867551D01*
X132216507Y-92918567D01*
X132254962Y-92967521D01*
X132291529Y-93014129D01*
X132325985Y-93058104D01*
X132358107Y-93099164D01*
X132387674Y-93137023D01*
X132414463Y-93171396D01*
X132438252Y-93201999D01*
X132458820Y-93228546D01*
X132475943Y-93250754D01*
X132489399Y-93268337D01*
X132498967Y-93281012D01*
X132504424Y-93288492D01*
X132505686Y-93290524D01*
X132504694Y-93294520D01*
X132501784Y-93305148D01*
X132497053Y-93322068D01*
X132490598Y-93344940D01*
X132482517Y-93373426D01*
X132472906Y-93407186D01*
X132461862Y-93445879D01*
X132449484Y-93489166D01*
X132435867Y-93536708D01*
X132421110Y-93588165D01*
X132405310Y-93643197D01*
X132388563Y-93701465D01*
X132370968Y-93762628D01*
X132352620Y-93826348D01*
X132333618Y-93892285D01*
X132314059Y-93960099D01*
X132311557Y-93968769D01*
X132291939Y-94036769D01*
X132272867Y-94102920D01*
X132254436Y-94166882D01*
X132236744Y-94228316D01*
X132219888Y-94286885D01*
X132203966Y-94342250D01*
X132189074Y-94394073D01*
X132175309Y-94442014D01*
X132162770Y-94485735D01*
X132151552Y-94524899D01*
X132141754Y-94559165D01*
X132133471Y-94588197D01*
X132126802Y-94611655D01*
X132121843Y-94629200D01*
X132118692Y-94640495D01*
X132117446Y-94645200D01*
X132117429Y-94645310D01*
X132120281Y-94646016D01*
X132128937Y-94646645D01*
X132143546Y-94647200D01*
X132164257Y-94647681D01*
X132191219Y-94648091D01*
X132224581Y-94648432D01*
X132264493Y-94648704D01*
X132311103Y-94648909D01*
X132364560Y-94649049D01*
X132425014Y-94649126D01*
X132474774Y-94649143D01*
X132832119Y-94649143D01*
X132834047Y-94640979D01*
X132835080Y-94636436D01*
X132837602Y-94625264D01*
X132841510Y-94607913D01*
X132846704Y-94584836D01*
X132853083Y-94556484D01*
X132860544Y-94523307D01*
X132868986Y-94485758D01*
X132878308Y-94444288D01*
X132888409Y-94399348D01*
X132899186Y-94351389D01*
X132910538Y-94300863D01*
X132922364Y-94248222D01*
X132928406Y-94221328D01*
X132940404Y-94167951D01*
X132951973Y-94116567D01*
X132963011Y-94067617D01*
X132973418Y-94021543D01*
X132983094Y-93978787D01*
X132991938Y-93939791D01*
X132999850Y-93904995D01*
X133006729Y-93874843D01*
X133012476Y-93849776D01*
X133016989Y-93830235D01*
X133020169Y-93816662D01*
X133021915Y-93809498D01*
X133022223Y-93808453D01*
X133024852Y-93810711D01*
X133031538Y-93817774D01*
X133041648Y-93828909D01*
X133054549Y-93843384D01*
X133069607Y-93860467D01*
X133086188Y-93879425D01*
X133103660Y-93899525D01*
X133121389Y-93920036D01*
X133138740Y-93940225D01*
X133155082Y-93959360D01*
X133169780Y-93976708D01*
X133182201Y-93991536D01*
X133191711Y-94003113D01*
X133197677Y-94010706D01*
X133199450Y-94013357D01*
X133200557Y-94017764D01*
X133203043Y-94028754D01*
X133206796Y-94045811D01*
X133211706Y-94068415D01*
X133217661Y-94096048D01*
X133224549Y-94128191D01*
X133232261Y-94164326D01*
X133240684Y-94203935D01*
X133249708Y-94246500D01*
X133259222Y-94291501D01*
X133268259Y-94334365D01*
X133334548Y-94649143D01*
X133963600Y-94649143D01*
X133960579Y-94635536D01*
X133959562Y-94630809D01*
X133957102Y-94619291D01*
X133953263Y-94601291D01*
X133948111Y-94577117D01*
X133941712Y-94547076D01*
X133934132Y-94511477D01*
X133925435Y-94470628D01*
X133915688Y-94424837D01*
X133904956Y-94374412D01*
X133893305Y-94319660D01*
X133880799Y-94260890D01*
X133867506Y-94198411D01*
X133853489Y-94132529D01*
X133838816Y-94063553D01*
X133823550Y-93991792D01*
X133807759Y-93917552D01*
X133791507Y-93841143D01*
X133774860Y-93762872D01*
X133770421Y-93742000D01*
X133753541Y-93662665D01*
X133736953Y-93584784D01*
X133720730Y-93508687D01*
X133704942Y-93434702D01*
X133689659Y-93363158D01*
X133674952Y-93294386D01*
X133660892Y-93228712D01*
X133647549Y-93166467D01*
X133634995Y-93107979D01*
X133623299Y-93053578D01*
X133612532Y-93003591D01*
X133602766Y-92958349D01*
X133594071Y-92918180D01*
X133586517Y-92883413D01*
X133580175Y-92854377D01*
X133575116Y-92831400D01*
X133571411Y-92814813D01*
X133569130Y-92804944D01*
X133568903Y-92804015D01*
X133551848Y-92740723D01*
X133532544Y-92679064D01*
X133511312Y-92619731D01*
X133488473Y-92563422D01*
X133464346Y-92510829D01*
X133439252Y-92462648D01*
X133413511Y-92419575D01*
X133387445Y-92382304D01*
X133361373Y-92351531D01*
X133359250Y-92349322D01*
X133330388Y-92323143D01*
X133297821Y-92300422D01*
X133261087Y-92280999D01*
X133219727Y-92264714D01*
X133173278Y-92251409D01*
X133121281Y-92240925D01*
X133063275Y-92233103D01*
X133009217Y-92228449D01*
X132988039Y-92227358D01*
X132964344Y-92226692D01*
X132939305Y-92226426D01*
X132914096Y-92226535D01*
G36*
X125866413Y-92244307D02*
G01*
X125867471Y-92249672D01*
X125869968Y-92261770D01*
X125873827Y-92280239D01*
X125878971Y-92304715D01*
X125885322Y-92334835D01*
X125892803Y-92370235D01*
X125901336Y-92410554D01*
X125910844Y-92455427D01*
X125921250Y-92504491D01*
X125932476Y-92557383D01*
X125944445Y-92613739D01*
X125957079Y-92673198D01*
X125970302Y-92735395D01*
X125984035Y-92799967D01*
X125998201Y-92866551D01*
X126012723Y-92934783D01*
X126027524Y-93004302D01*
X126042525Y-93074742D01*
X126057650Y-93145742D01*
X126072822Y-93216938D01*
X126087962Y-93287966D01*
X126102994Y-93358464D01*
X126117840Y-93428068D01*
X126132423Y-93496416D01*
X126146665Y-93563143D01*
X126160489Y-93627887D01*
X126173817Y-93690285D01*
X126186573Y-93749973D01*
X126198678Y-93806588D01*
X126210055Y-93859766D01*
X126220628Y-93909146D01*
X126230318Y-93954363D01*
X126239048Y-93995054D01*
X126246741Y-94030856D01*
X126253319Y-94061406D01*
X126258705Y-94086341D01*
X126262822Y-94105297D01*
X126265592Y-94117911D01*
X126266741Y-94123000D01*
X126281472Y-94180404D01*
X126298487Y-94236978D01*
X126317384Y-94291722D01*
X126337758Y-94343634D01*
X126359205Y-94391711D01*
X126381323Y-94434952D01*
X126403708Y-94472356D01*
X126412877Y-94485781D01*
X126438555Y-94517557D01*
X126467748Y-94545530D01*
X126500868Y-94569870D01*
X126538327Y-94590747D01*
X126580536Y-94608331D01*
X126627908Y-94622791D01*
X126680854Y-94634298D01*
X126739787Y-94643022D01*
X126805118Y-94649133D01*
X126809632Y-94649446D01*
X126830684Y-94650594D01*
X126853549Y-94651359D01*
X126877029Y-94651755D01*
X126899927Y-94651794D01*
X126921046Y-94651489D01*
X126939188Y-94650854D01*
X126953156Y-94649900D01*
X126961752Y-94648641D01*
X126963790Y-94647792D01*
X126963467Y-94643956D01*
X126961748Y-94633868D01*
X126958797Y-94618362D01*
X126954781Y-94598272D01*
X126949866Y-94574434D01*
X126944217Y-94547681D01*
X126939758Y-94526938D01*
X126933615Y-94498437D01*
X126927999Y-94472113D01*
X126923088Y-94448828D01*
X126919061Y-94429442D01*
X126916099Y-94414816D01*
X126914380Y-94405812D01*
X126914012Y-94403308D01*
X126915460Y-94398887D01*
X126919660Y-94401109D01*
X126926632Y-94409990D01*
X126935745Y-94424454D01*
X126953047Y-94451347D01*
X126974074Y-94480531D01*
X126996988Y-94509637D01*
X127019951Y-94536295D01*
X127033965Y-94551117D01*
X127078091Y-94591049D01*
X127124923Y-94624339D01*
X127174953Y-94651255D01*
X127228673Y-94672068D01*
X127279821Y-94685640D01*
X127298358Y-94688669D01*
X127322362Y-94691194D01*
X127350057Y-94693158D01*
X127379667Y-94694499D01*
X127409417Y-94695159D01*
X127437528Y-94695078D01*
X127462226Y-94694196D01*
X127481734Y-94692453D01*
X127481929Y-94692427D01*
X127535440Y-94682339D01*
X127583745Y-94667247D01*
X127626955Y-94647047D01*
X127665181Y-94621637D01*
X127698534Y-94590913D01*
X127727124Y-94554771D01*
X127751063Y-94513109D01*
X127770462Y-94465822D01*
X127785432Y-94412807D01*
X127786317Y-94408878D01*
X127792188Y-94379962D01*
X127796645Y-94351882D01*
X127799834Y-94322996D01*
X127801904Y-94291662D01*
X127802999Y-94256238D01*
X127803274Y-94219132D01*
X127802637Y-94171302D01*
X127800712Y-94124488D01*
X127799571Y-94108403D01*
X127188540Y-94108403D01*
X127186724Y-94137433D01*
X127182620Y-94162228D01*
X127176210Y-94183126D01*
X127167479Y-94200464D01*
X127156408Y-94214580D01*
X127142980Y-94225810D01*
X127127179Y-94234492D01*
X127114259Y-94239374D01*
X127106781Y-94240556D01*
X127093961Y-94241368D01*
X127077709Y-94241729D01*
X127062829Y-94241622D01*
X127043676Y-94241033D01*
X127029739Y-94239965D01*
X127018978Y-94238069D01*
X127009354Y-94235000D01*
X126999924Y-94230923D01*
X126975252Y-94216986D01*
X126953430Y-94199081D01*
X126933689Y-94176347D01*
X126915258Y-94147921D01*
X126900655Y-94119915D01*
X126888087Y-94091003D01*
X126874886Y-94055516D01*
X126861216Y-94014090D01*
X126847241Y-93967362D01*
X126833124Y-93915970D01*
X126819029Y-93860551D01*
X126805121Y-93801742D01*
X126791563Y-93740180D01*
X126778520Y-93676503D01*
X126766155Y-93611348D01*
X126758097Y-93565826D01*
X126749148Y-93508973D01*
X126742670Y-93457220D01*
X126738680Y-93410867D01*
X126737192Y-93370217D01*
X126738219Y-93335572D01*
X126741775Y-93307233D01*
X126745208Y-93293125D01*
X126755819Y-93268451D01*
X126771033Y-93249290D01*
X126791008Y-93235525D01*
X126815899Y-93227038D01*
X126837353Y-93224102D01*
X126874215Y-93224431D01*
X126907321Y-93230871D01*
X126937052Y-93243612D01*
X126963788Y-93262843D01*
X126987910Y-93288753D01*
X126999331Y-93304604D01*
X127012488Y-93326080D01*
X127025192Y-93350437D01*
X127037577Y-93378116D01*
X127049779Y-93409556D01*
X127061934Y-93445200D01*
X127074176Y-93485486D01*
X127086641Y-93530856D01*
X127099464Y-93581751D01*
X127112780Y-93638611D01*
X127126725Y-93701876D01*
X127138617Y-93758329D01*
X127152341Y-93826435D01*
X127163895Y-93887948D01*
X127173264Y-93943204D01*
X127180430Y-93992540D01*
X127185376Y-94036294D01*
X127188085Y-94074803D01*
X127188540Y-94108403D01*
X127799571Y-94108403D01*
X127797363Y-94077289D01*
X127792458Y-94028307D01*
X127785860Y-93976142D01*
X127777437Y-93919395D01*
X127770393Y-93876258D01*
X127748746Y-93758005D01*
X127724784Y-93646608D01*
X127698495Y-93542037D01*
X127669863Y-93444264D01*
X127638874Y-93353261D01*
X127605514Y-93269000D01*
X127569769Y-93191452D01*
X127531623Y-93120589D01*
X127491063Y-93056383D01*
X127448075Y-92998805D01*
X127402643Y-92947827D01*
X127354755Y-92903421D01*
X127304394Y-92865558D01*
X127251548Y-92834211D01*
X127239753Y-92828267D01*
X127192627Y-92808201D01*
X127142630Y-92792345D01*
X127090805Y-92780753D01*
X127038197Y-92773478D01*
X126985851Y-92770574D01*
X126934809Y-92772096D01*
X126886115Y-92778097D01*
X126840815Y-92788632D01*
X126799951Y-92803754D01*
X126796515Y-92805347D01*
X126759366Y-92826153D01*
X126727874Y-92850963D01*
X126701774Y-92880140D01*
X126680798Y-92914046D01*
X126664680Y-92953043D01*
X126653153Y-92997494D01*
X126652477Y-93001001D01*
X126649707Y-93012634D01*
X126646737Y-93020358D01*
X126644364Y-93022545D01*
X126643109Y-93018899D01*
X126640454Y-93008611D01*
X126636500Y-92992140D01*
X126631350Y-92969945D01*
X126625105Y-92942485D01*
X126617869Y-92910218D01*
X126609743Y-92873603D01*
X126600830Y-92833098D01*
X126591231Y-92789162D01*
X126581049Y-92742253D01*
X126570387Y-92692830D01*
X126559346Y-92641352D01*
X126558335Y-92636623D01*
X126547252Y-92584790D01*
X126536565Y-92534835D01*
X126526374Y-92487229D01*
X126516780Y-92442444D01*
X126507886Y-92400952D01*
X126499791Y-92363224D01*
X126492598Y-92329733D01*
X126486408Y-92300951D01*
X126481321Y-92277348D01*
X126477440Y-92259398D01*
X126474866Y-92247571D01*
X126473699Y-92242340D01*
X126473675Y-92242243D01*
X126471233Y-92232515D01*
X125864451Y-92232515D01*
X125866413Y-92244307D01*
G37*
X125866413Y-92244307D02*
X125867471Y-92249672D01*
X125869968Y-92261770D01*
X125873827Y-92280239D01*
X125878971Y-92304715D01*
X125885322Y-92334835D01*
X125892803Y-92370235D01*
X125901336Y-92410554D01*
X125910844Y-92455427D01*
X125921250Y-92504491D01*
X125932476Y-92557383D01*
X125944445Y-92613739D01*
X125957079Y-92673198D01*
X125970302Y-92735395D01*
X125984035Y-92799967D01*
X125998201Y-92866551D01*
X126012723Y-92934783D01*
X126027524Y-93004302D01*
X126042525Y-93074742D01*
X126057650Y-93145742D01*
X126072822Y-93216938D01*
X126087962Y-93287966D01*
X126102994Y-93358464D01*
X126117840Y-93428068D01*
X126132423Y-93496416D01*
X126146665Y-93563143D01*
X126160489Y-93627887D01*
X126173817Y-93690285D01*
X126186573Y-93749973D01*
X126198678Y-93806588D01*
X126210055Y-93859766D01*
X126220628Y-93909146D01*
X126230318Y-93954363D01*
X126239048Y-93995054D01*
X126246741Y-94030856D01*
X126253319Y-94061406D01*
X126258705Y-94086341D01*
X126262822Y-94105297D01*
X126265592Y-94117911D01*
X126266741Y-94123000D01*
X126281472Y-94180404D01*
X126298487Y-94236978D01*
X126317384Y-94291722D01*
X126337758Y-94343634D01*
X126359205Y-94391711D01*
X126381323Y-94434952D01*
X126403708Y-94472356D01*
X126412877Y-94485781D01*
X126438555Y-94517557D01*
X126467748Y-94545530D01*
X126500868Y-94569870D01*
X126538327Y-94590747D01*
X126580536Y-94608331D01*
X126627908Y-94622791D01*
X126680854Y-94634298D01*
X126739787Y-94643022D01*
X126805118Y-94649133D01*
X126809632Y-94649446D01*
X126830684Y-94650594D01*
X126853549Y-94651359D01*
X126877029Y-94651755D01*
X126899927Y-94651794D01*
X126921046Y-94651489D01*
X126939188Y-94650854D01*
X126953156Y-94649900D01*
X126961752Y-94648641D01*
X126963790Y-94647792D01*
X126963467Y-94643956D01*
X126961748Y-94633868D01*
X126958797Y-94618362D01*
X126954781Y-94598272D01*
X126949866Y-94574434D01*
X126944217Y-94547681D01*
X126939758Y-94526938D01*
X126933615Y-94498437D01*
X126927999Y-94472113D01*
X126923088Y-94448828D01*
X126919061Y-94429442D01*
X126916099Y-94414816D01*
X126914380Y-94405812D01*
X126914012Y-94403308D01*
X126915460Y-94398887D01*
X126919660Y-94401109D01*
X126926632Y-94409990D01*
X126935745Y-94424454D01*
X126953047Y-94451347D01*
X126974074Y-94480531D01*
X126996988Y-94509637D01*
X127019951Y-94536295D01*
X127033965Y-94551117D01*
X127078091Y-94591049D01*
X127124923Y-94624339D01*
X127174953Y-94651255D01*
X127228673Y-94672068D01*
X127279821Y-94685640D01*
X127298358Y-94688669D01*
X127322362Y-94691194D01*
X127350057Y-94693158D01*
X127379667Y-94694499D01*
X127409417Y-94695159D01*
X127437528Y-94695078D01*
X127462226Y-94694196D01*
X127481734Y-94692453D01*
X127481929Y-94692427D01*
X127535440Y-94682339D01*
X127583745Y-94667247D01*
X127626955Y-94647047D01*
X127665181Y-94621637D01*
X127698534Y-94590913D01*
X127727124Y-94554771D01*
X127751063Y-94513109D01*
X127770462Y-94465822D01*
X127785432Y-94412807D01*
X127786317Y-94408878D01*
X127792188Y-94379962D01*
X127796645Y-94351882D01*
X127799834Y-94322996D01*
X127801904Y-94291662D01*
X127802999Y-94256238D01*
X127803274Y-94219132D01*
X127802637Y-94171302D01*
X127800712Y-94124488D01*
X127799571Y-94108403D01*
X127188540Y-94108403D01*
X127186724Y-94137433D01*
X127182620Y-94162228D01*
X127176210Y-94183126D01*
X127167479Y-94200464D01*
X127156408Y-94214580D01*
X127142980Y-94225810D01*
X127127179Y-94234492D01*
X127114259Y-94239374D01*
X127106781Y-94240556D01*
X127093961Y-94241368D01*
X127077709Y-94241729D01*
X127062829Y-94241622D01*
X127043676Y-94241033D01*
X127029739Y-94239965D01*
X127018978Y-94238069D01*
X127009354Y-94235000D01*
X126999924Y-94230923D01*
X126975252Y-94216986D01*
X126953430Y-94199081D01*
X126933689Y-94176347D01*
X126915258Y-94147921D01*
X126900655Y-94119915D01*
X126888087Y-94091003D01*
X126874886Y-94055516D01*
X126861216Y-94014090D01*
X126847241Y-93967362D01*
X126833124Y-93915970D01*
X126819029Y-93860551D01*
X126805121Y-93801742D01*
X126791563Y-93740180D01*
X126778520Y-93676503D01*
X126766155Y-93611348D01*
X126758097Y-93565826D01*
X126749148Y-93508973D01*
X126742670Y-93457220D01*
X126738680Y-93410867D01*
X126737192Y-93370217D01*
X126738219Y-93335572D01*
X126741775Y-93307233D01*
X126745208Y-93293125D01*
X126755819Y-93268451D01*
X126771033Y-93249290D01*
X126791008Y-93235525D01*
X126815899Y-93227038D01*
X126837353Y-93224102D01*
X126874215Y-93224431D01*
X126907321Y-93230871D01*
X126937052Y-93243612D01*
X126963788Y-93262843D01*
X126987910Y-93288753D01*
X126999331Y-93304604D01*
X127012488Y-93326080D01*
X127025192Y-93350437D01*
X127037577Y-93378116D01*
X127049779Y-93409556D01*
X127061934Y-93445200D01*
X127074176Y-93485486D01*
X127086641Y-93530856D01*
X127099464Y-93581751D01*
X127112780Y-93638611D01*
X127126725Y-93701876D01*
X127138617Y-93758329D01*
X127152341Y-93826435D01*
X127163895Y-93887948D01*
X127173264Y-93943204D01*
X127180430Y-93992540D01*
X127185376Y-94036294D01*
X127188085Y-94074803D01*
X127188540Y-94108403D01*
X127799571Y-94108403D01*
X127797363Y-94077289D01*
X127792458Y-94028307D01*
X127785860Y-93976142D01*
X127777437Y-93919395D01*
X127770393Y-93876258D01*
X127748746Y-93758005D01*
X127724784Y-93646608D01*
X127698495Y-93542037D01*
X127669863Y-93444264D01*
X127638874Y-93353261D01*
X127605514Y-93269000D01*
X127569769Y-93191452D01*
X127531623Y-93120589D01*
X127491063Y-93056383D01*
X127448075Y-92998805D01*
X127402643Y-92947827D01*
X127354755Y-92903421D01*
X127304394Y-92865558D01*
X127251548Y-92834211D01*
X127239753Y-92828267D01*
X127192627Y-92808201D01*
X127142630Y-92792345D01*
X127090805Y-92780753D01*
X127038197Y-92773478D01*
X126985851Y-92770574D01*
X126934809Y-92772096D01*
X126886115Y-92778097D01*
X126840815Y-92788632D01*
X126799951Y-92803754D01*
X126796515Y-92805347D01*
X126759366Y-92826153D01*
X126727874Y-92850963D01*
X126701774Y-92880140D01*
X126680798Y-92914046D01*
X126664680Y-92953043D01*
X126653153Y-92997494D01*
X126652477Y-93001001D01*
X126649707Y-93012634D01*
X126646737Y-93020358D01*
X126644364Y-93022545D01*
X126643109Y-93018899D01*
X126640454Y-93008611D01*
X126636500Y-92992140D01*
X126631350Y-92969945D01*
X126625105Y-92942485D01*
X126617869Y-92910218D01*
X126609743Y-92873603D01*
X126600830Y-92833098D01*
X126591231Y-92789162D01*
X126581049Y-92742253D01*
X126570387Y-92692830D01*
X126559346Y-92641352D01*
X126558335Y-92636623D01*
X126547252Y-92584790D01*
X126536565Y-92534835D01*
X126526374Y-92487229D01*
X126516780Y-92442444D01*
X126507886Y-92400952D01*
X126499791Y-92363224D01*
X126492598Y-92329733D01*
X126486408Y-92300951D01*
X126481321Y-92277348D01*
X126477440Y-92259398D01*
X126474866Y-92247571D01*
X126473699Y-92242340D01*
X126473675Y-92242243D01*
X126471233Y-92232515D01*
X125864451Y-92232515D01*
X125866413Y-92244307D01*
G36*
X128407163Y-92771812D02*
G01*
X128342411Y-92775539D01*
X128280114Y-92781733D01*
X128222110Y-92790350D01*
X128204014Y-92793758D01*
X128145021Y-92807916D01*
X128092122Y-92825664D01*
X128045027Y-92847146D01*
X128003447Y-92872503D01*
X127967090Y-92901875D01*
X127952334Y-92916465D01*
X127923145Y-92952438D01*
X127899586Y-92992927D01*
X127881683Y-93037839D01*
X127869461Y-93087079D01*
X127862948Y-93140555D01*
X127862167Y-93198170D01*
X127864563Y-93235815D01*
X127865386Y-93244836D01*
X127866183Y-93253245D01*
X127867029Y-93261421D01*
X127868000Y-93269744D01*
X127869172Y-93278595D01*
X127870620Y-93288354D01*
X127872420Y-93299401D01*
X127874647Y-93312116D01*
X127877378Y-93326880D01*
X127880686Y-93344073D01*
X127884649Y-93364075D01*
X127889342Y-93387266D01*
X127894840Y-93414026D01*
X127901219Y-93444736D01*
X127908555Y-93479776D01*
X127916922Y-93519526D01*
X127926398Y-93564366D01*
X127937056Y-93614677D01*
X127948974Y-93670838D01*
X127962226Y-93733231D01*
X127976888Y-93802234D01*
X127981302Y-93823007D01*
X127997534Y-93899444D01*
X128012312Y-93969155D01*
X128025709Y-94032506D01*
X128037798Y-94089867D01*
X128048651Y-94141605D01*
X128058340Y-94188089D01*
X128066938Y-94229685D01*
X128074518Y-94266763D01*
X128081152Y-94299690D01*
X128086913Y-94328834D01*
X128091874Y-94354564D01*
X128096106Y-94377247D01*
X128099683Y-94397251D01*
X128102677Y-94414944D01*
X128105161Y-94430695D01*
X128107207Y-94444871D01*
X128108888Y-94457840D01*
X128110277Y-94469970D01*
X128111445Y-94481630D01*
X128111674Y-94484099D01*
X128113711Y-94518197D01*
X128113785Y-94552454D01*
X128112001Y-94585138D01*
X128108463Y-94614519D01*
X128103276Y-94638866D01*
X128102109Y-94642793D01*
X128102041Y-94643941D01*
X128102915Y-94644942D01*
X128105191Y-94645805D01*
X128109329Y-94646542D01*
X128115788Y-94647163D01*
X128125029Y-94647676D01*
X128137511Y-94648093D01*
X128153695Y-94648422D01*
X128174041Y-94648676D01*
X128199008Y-94648862D01*
X128229056Y-94648991D01*
X128264645Y-94649074D01*
X128306236Y-94649121D01*
X128354288Y-94649140D01*
X128393732Y-94649143D01*
X128687353Y-94649143D01*
X128689540Y-94620781D01*
X128690086Y-94605921D01*
X128689995Y-94585557D01*
X128689340Y-94561406D01*
X128688195Y-94535186D01*
X128686633Y-94508616D01*
X128684730Y-94483413D01*
X128682769Y-94463179D01*
X128681937Y-94450024D01*
X128683279Y-94443620D01*
X128687054Y-94443911D01*
X128693522Y-94450844D01*
X128699744Y-94459550D01*
X128716966Y-94482905D01*
X128737780Y-94507876D01*
X128760138Y-94532182D01*
X128781993Y-94553540D01*
X128791771Y-94562132D01*
X128843671Y-94601277D01*
X128898099Y-94633639D01*
X128955263Y-94659313D01*
X129015371Y-94678389D01*
X129078500Y-94690945D01*
X129096612Y-94692869D01*
X129119792Y-94694327D01*
X129145861Y-94695275D01*
X129172642Y-94695671D01*
X129197959Y-94695472D01*
X129219633Y-94694635D01*
X129229086Y-94693900D01*
X129285956Y-94685614D01*
X129337957Y-94672502D01*
X129384891Y-94654642D01*
X129426563Y-94632111D01*
X129462778Y-94604985D01*
X129469476Y-94598897D01*
X129499198Y-94566516D01*
X129523590Y-94530163D01*
X129542672Y-94489703D01*
X129556461Y-94445006D01*
X129564978Y-94395938D01*
X129568242Y-94342367D01*
X129566272Y-94284160D01*
X129559087Y-94221186D01*
X129546706Y-94153311D01*
X129543978Y-94141258D01*
X128952529Y-94141258D01*
X128951417Y-94177419D01*
X128945216Y-94209680D01*
X128944546Y-94211900D01*
X128935498Y-94232312D01*
X128922147Y-94251420D01*
X128906245Y-94267022D01*
X128894589Y-94274649D01*
X128869143Y-94283871D01*
X128840003Y-94287620D01*
X128808263Y-94285881D01*
X128775017Y-94278636D01*
X128768651Y-94276645D01*
X128736771Y-94262937D01*
X128707790Y-94243561D01*
X128681543Y-94218297D01*
X128657865Y-94186924D01*
X128636592Y-94149222D01*
X128617559Y-94104971D01*
X128600601Y-94053951D01*
X128599576Y-94050429D01*
X128596179Y-94037823D01*
X128591823Y-94020380D01*
X128586709Y-93999011D01*
X128581035Y-93974626D01*
X128575000Y-93948134D01*
X128568802Y-93920446D01*
X128562640Y-93892471D01*
X128556712Y-93865119D01*
X128551218Y-93839300D01*
X128546356Y-93815924D01*
X128542324Y-93795901D01*
X128539322Y-93780141D01*
X128537548Y-93769554D01*
X128537201Y-93765049D01*
X128537243Y-93764976D01*
X128540783Y-93766063D01*
X128548191Y-93770629D01*
X128555504Y-93775916D01*
X128564696Y-93782364D01*
X128574865Y-93788156D01*
X128587042Y-93793674D01*
X128602254Y-93799302D01*
X128621532Y-93805423D01*
X128645904Y-93812420D01*
X128673893Y-93820009D01*
X128712963Y-93830942D01*
X128745898Y-93841436D01*
X128773755Y-93852003D01*
X128797592Y-93863158D01*
X128818467Y-93875413D01*
X128837440Y-93889281D01*
X128855567Y-93905275D01*
X128861320Y-93910884D01*
X128875870Y-93925927D01*
X128886736Y-93938925D01*
X128895739Y-93952434D01*
X128904700Y-93969013D01*
X128909192Y-93978132D01*
X128926883Y-94019632D01*
X128940106Y-94061337D01*
X128948707Y-94102221D01*
X128952529Y-94141258D01*
X129543978Y-94141258D01*
X129539024Y-94119372D01*
X129519540Y-94048174D01*
X129496525Y-93983118D01*
X129469705Y-93923859D01*
X129438803Y-93870053D01*
X129403544Y-93821355D01*
X129363652Y-93777421D01*
X129318851Y-93737904D01*
X129268866Y-93702462D01*
X129213421Y-93670750D01*
X129160143Y-93645760D01*
X129138957Y-93636906D01*
X129118103Y-93628685D01*
X129096883Y-93620900D01*
X129074599Y-93613354D01*
X129050554Y-93605850D01*
X129024049Y-93598193D01*
X128994387Y-93590183D01*
X128960870Y-93581625D01*
X128922800Y-93572322D01*
X128879479Y-93562076D01*
X128830209Y-93550692D01*
X128794063Y-93542451D01*
X128752214Y-93532923D01*
X128716737Y-93524764D01*
X128686915Y-93517777D01*
X128662036Y-93511763D01*
X128641384Y-93506523D01*
X128624244Y-93501861D01*
X128609902Y-93497578D01*
X128597644Y-93493475D01*
X128586754Y-93489356D01*
X128576519Y-93485021D01*
X128566222Y-93480272D01*
X128561429Y-93477972D01*
X128538207Y-93464069D01*
X128514921Y-93445408D01*
X128493385Y-93423784D01*
X128475415Y-93400991D01*
X128464278Y-93381987D01*
X128450868Y-93350215D01*
X128442166Y-93319795D01*
X128437542Y-93287919D01*
X128436348Y-93257586D01*
X128436417Y-93238717D01*
X128436924Y-93225289D01*
X128438157Y-93215487D01*
X128440404Y-93207498D01*
X128443954Y-93199507D01*
X128446300Y-93194959D01*
X128459197Y-93176015D01*
X128475824Y-93161674D01*
X128496829Y-93151642D01*
X128522859Y-93145624D01*
X128554562Y-93143328D01*
X128560094Y-93143286D01*
X128594215Y-93144653D01*
X128622952Y-93149097D01*
X128647712Y-93157130D01*
X128669900Y-93169266D01*
X128690923Y-93186019D01*
X128699314Y-93194121D01*
X128718762Y-93217500D01*
X128737201Y-93246936D01*
X128754060Y-93281241D01*
X128768769Y-93319228D01*
X128780756Y-93359710D01*
X128782623Y-93367350D01*
X128787124Y-93386400D01*
X129313470Y-93386400D01*
X129311215Y-93372294D01*
X129309308Y-93363237D01*
X129305816Y-93349197D01*
X129301247Y-93332138D01*
X129296435Y-93315144D01*
X129272129Y-93243401D01*
X129242389Y-93176444D01*
X129207292Y-93114338D01*
X129166911Y-93057143D01*
X129121321Y-93004921D01*
X129070597Y-92957735D01*
X129014813Y-92915646D01*
X128954045Y-92878716D01*
X128888367Y-92847008D01*
X128817853Y-92820582D01*
X128742578Y-92799501D01*
X128662617Y-92783827D01*
X128653957Y-92782499D01*
X128597768Y-92775896D01*
X128536681Y-92771944D01*
X128472533Y-92770598D01*
X128407163Y-92771812D01*
G37*
X128407163Y-92771812D02*
X128342411Y-92775539D01*
X128280114Y-92781733D01*
X128222110Y-92790350D01*
X128204014Y-92793758D01*
X128145021Y-92807916D01*
X128092122Y-92825664D01*
X128045027Y-92847146D01*
X128003447Y-92872503D01*
X127967090Y-92901875D01*
X127952334Y-92916465D01*
X127923145Y-92952438D01*
X127899586Y-92992927D01*
X127881683Y-93037839D01*
X127869461Y-93087079D01*
X127862948Y-93140555D01*
X127862167Y-93198170D01*
X127864563Y-93235815D01*
X127865386Y-93244836D01*
X127866183Y-93253245D01*
X127867029Y-93261421D01*
X127868000Y-93269744D01*
X127869172Y-93278595D01*
X127870620Y-93288354D01*
X127872420Y-93299401D01*
X127874647Y-93312116D01*
X127877378Y-93326880D01*
X127880686Y-93344073D01*
X127884649Y-93364075D01*
X127889342Y-93387266D01*
X127894840Y-93414026D01*
X127901219Y-93444736D01*
X127908555Y-93479776D01*
X127916922Y-93519526D01*
X127926398Y-93564366D01*
X127937056Y-93614677D01*
X127948974Y-93670838D01*
X127962226Y-93733231D01*
X127976888Y-93802234D01*
X127981302Y-93823007D01*
X127997534Y-93899444D01*
X128012312Y-93969155D01*
X128025709Y-94032506D01*
X128037798Y-94089867D01*
X128048651Y-94141605D01*
X128058340Y-94188089D01*
X128066938Y-94229685D01*
X128074518Y-94266763D01*
X128081152Y-94299690D01*
X128086913Y-94328834D01*
X128091874Y-94354564D01*
X128096106Y-94377247D01*
X128099683Y-94397251D01*
X128102677Y-94414944D01*
X128105161Y-94430695D01*
X128107207Y-94444871D01*
X128108888Y-94457840D01*
X128110277Y-94469970D01*
X128111445Y-94481630D01*
X128111674Y-94484099D01*
X128113711Y-94518197D01*
X128113785Y-94552454D01*
X128112001Y-94585138D01*
X128108463Y-94614519D01*
X128103276Y-94638866D01*
X128102109Y-94642793D01*
X128102041Y-94643941D01*
X128102915Y-94644942D01*
X128105191Y-94645805D01*
X128109329Y-94646542D01*
X128115788Y-94647163D01*
X128125029Y-94647676D01*
X128137511Y-94648093D01*
X128153695Y-94648422D01*
X128174041Y-94648676D01*
X128199008Y-94648862D01*
X128229056Y-94648991D01*
X128264645Y-94649074D01*
X128306236Y-94649121D01*
X128354288Y-94649140D01*
X128393732Y-94649143D01*
X128687353Y-94649143D01*
X128689540Y-94620781D01*
X128690086Y-94605921D01*
X128689995Y-94585557D01*
X128689340Y-94561406D01*
X128688195Y-94535186D01*
X128686633Y-94508616D01*
X128684730Y-94483413D01*
X128682769Y-94463179D01*
X128681937Y-94450024D01*
X128683279Y-94443620D01*
X128687054Y-94443911D01*
X128693522Y-94450844D01*
X128699744Y-94459550D01*
X128716966Y-94482905D01*
X128737780Y-94507876D01*
X128760138Y-94532182D01*
X128781993Y-94553540D01*
X128791771Y-94562132D01*
X128843671Y-94601277D01*
X128898099Y-94633639D01*
X128955263Y-94659313D01*
X129015371Y-94678389D01*
X129078500Y-94690945D01*
X129096612Y-94692869D01*
X129119792Y-94694327D01*
X129145861Y-94695275D01*
X129172642Y-94695671D01*
X129197959Y-94695472D01*
X129219633Y-94694635D01*
X129229086Y-94693900D01*
X129285956Y-94685614D01*
X129337957Y-94672502D01*
X129384891Y-94654642D01*
X129426563Y-94632111D01*
X129462778Y-94604985D01*
X129469476Y-94598897D01*
X129499198Y-94566516D01*
X129523590Y-94530163D01*
X129542672Y-94489703D01*
X129556461Y-94445006D01*
X129564978Y-94395938D01*
X129568242Y-94342367D01*
X129566272Y-94284160D01*
X129559087Y-94221186D01*
X129546706Y-94153311D01*
X129543978Y-94141258D01*
X128952529Y-94141258D01*
X128951417Y-94177419D01*
X128945216Y-94209680D01*
X128944546Y-94211900D01*
X128935498Y-94232312D01*
X128922147Y-94251420D01*
X128906245Y-94267022D01*
X128894589Y-94274649D01*
X128869143Y-94283871D01*
X128840003Y-94287620D01*
X128808263Y-94285881D01*
X128775017Y-94278636D01*
X128768651Y-94276645D01*
X128736771Y-94262937D01*
X128707790Y-94243561D01*
X128681543Y-94218297D01*
X128657865Y-94186924D01*
X128636592Y-94149222D01*
X128617559Y-94104971D01*
X128600601Y-94053951D01*
X128599576Y-94050429D01*
X128596179Y-94037823D01*
X128591823Y-94020380D01*
X128586709Y-93999011D01*
X128581035Y-93974626D01*
X128575000Y-93948134D01*
X128568802Y-93920446D01*
X128562640Y-93892471D01*
X128556712Y-93865119D01*
X128551218Y-93839300D01*
X128546356Y-93815924D01*
X128542324Y-93795901D01*
X128539322Y-93780141D01*
X128537548Y-93769554D01*
X128537201Y-93765049D01*
X128537243Y-93764976D01*
X128540783Y-93766063D01*
X128548191Y-93770629D01*
X128555504Y-93775916D01*
X128564696Y-93782364D01*
X128574865Y-93788156D01*
X128587042Y-93793674D01*
X128602254Y-93799302D01*
X128621532Y-93805423D01*
X128645904Y-93812420D01*
X128673893Y-93820009D01*
X128712963Y-93830942D01*
X128745898Y-93841436D01*
X128773755Y-93852003D01*
X128797592Y-93863158D01*
X128818467Y-93875413D01*
X128837440Y-93889281D01*
X128855567Y-93905275D01*
X128861320Y-93910884D01*
X128875870Y-93925927D01*
X128886736Y-93938925D01*
X128895739Y-93952434D01*
X128904700Y-93969013D01*
X128909192Y-93978132D01*
X128926883Y-94019632D01*
X128940106Y-94061337D01*
X128948707Y-94102221D01*
X128952529Y-94141258D01*
X129543978Y-94141258D01*
X129539024Y-94119372D01*
X129519540Y-94048174D01*
X129496525Y-93983118D01*
X129469705Y-93923859D01*
X129438803Y-93870053D01*
X129403544Y-93821355D01*
X129363652Y-93777421D01*
X129318851Y-93737904D01*
X129268866Y-93702462D01*
X129213421Y-93670750D01*
X129160143Y-93645760D01*
X129138957Y-93636906D01*
X129118103Y-93628685D01*
X129096883Y-93620900D01*
X129074599Y-93613354D01*
X129050554Y-93605850D01*
X129024049Y-93598193D01*
X128994387Y-93590183D01*
X128960870Y-93581625D01*
X128922800Y-93572322D01*
X128879479Y-93562076D01*
X128830209Y-93550692D01*
X128794063Y-93542451D01*
X128752214Y-93532923D01*
X128716737Y-93524764D01*
X128686915Y-93517777D01*
X128662036Y-93511763D01*
X128641384Y-93506523D01*
X128624244Y-93501861D01*
X128609902Y-93497578D01*
X128597644Y-93493475D01*
X128586754Y-93489356D01*
X128576519Y-93485021D01*
X128566222Y-93480272D01*
X128561429Y-93477972D01*
X128538207Y-93464069D01*
X128514921Y-93445408D01*
X128493385Y-93423784D01*
X128475415Y-93400991D01*
X128464278Y-93381987D01*
X128450868Y-93350215D01*
X128442166Y-93319795D01*
X128437542Y-93287919D01*
X128436348Y-93257586D01*
X128436417Y-93238717D01*
X128436924Y-93225289D01*
X128438157Y-93215487D01*
X128440404Y-93207498D01*
X128443954Y-93199507D01*
X128446300Y-93194959D01*
X128459197Y-93176015D01*
X128475824Y-93161674D01*
X128496829Y-93151642D01*
X128522859Y-93145624D01*
X128554562Y-93143328D01*
X128560094Y-93143286D01*
X128594215Y-93144653D01*
X128622952Y-93149097D01*
X128647712Y-93157130D01*
X128669900Y-93169266D01*
X128690923Y-93186019D01*
X128699314Y-93194121D01*
X128718762Y-93217500D01*
X128737201Y-93246936D01*
X128754060Y-93281241D01*
X128768769Y-93319228D01*
X128780756Y-93359710D01*
X128782623Y-93367350D01*
X128787124Y-93386400D01*
X129313470Y-93386400D01*
X129311215Y-93372294D01*
X129309308Y-93363237D01*
X129305816Y-93349197D01*
X129301247Y-93332138D01*
X129296435Y-93315144D01*
X129272129Y-93243401D01*
X129242389Y-93176444D01*
X129207292Y-93114338D01*
X129166911Y-93057143D01*
X129121321Y-93004921D01*
X129070597Y-92957735D01*
X129014813Y-92915646D01*
X128954045Y-92878716D01*
X128888367Y-92847008D01*
X128817853Y-92820582D01*
X128742578Y-92799501D01*
X128662617Y-92783827D01*
X128653957Y-92782499D01*
X128597768Y-92775896D01*
X128536681Y-92771944D01*
X128472533Y-92770598D01*
X128407163Y-92771812D01*
G36*
X129940074Y-92774714D02*
G01*
X129870434Y-92783228D01*
X129806434Y-92796254D01*
X129748087Y-92813788D01*
X129695407Y-92835828D01*
X129648407Y-92862371D01*
X129644557Y-92864912D01*
X129625389Y-92879523D01*
X129604448Y-92898469D01*
X129583438Y-92919947D01*
X129564066Y-92942153D01*
X129548036Y-92963283D01*
X129540694Y-92974760D01*
X129518235Y-93019233D01*
X129500617Y-93067317D01*
X129487807Y-93119311D01*
X129479771Y-93175511D01*
X129476475Y-93236216D01*
X129477888Y-93301724D01*
X129483975Y-93372331D01*
X129490659Y-93422686D01*
X129494024Y-93444260D01*
X129497731Y-93466575D01*
X129501327Y-93486971D01*
X129504300Y-93502515D01*
X129510607Y-93533358D01*
X129783504Y-93534288D01*
X129838866Y-93534443D01*
X129887249Y-93534504D01*
X129928931Y-93534469D01*
X129964189Y-93534334D01*
X129993302Y-93534096D01*
X130016546Y-93533752D01*
X130034199Y-93533299D01*
X130046540Y-93532733D01*
X130053845Y-93532052D01*
X130056392Y-93531252D01*
X130056400Y-93531202D01*
X130055795Y-93526323D01*
X130054136Y-93515728D01*
X130051656Y-93500844D01*
X130048590Y-93483097D01*
X130047631Y-93477657D01*
X130041823Y-93444047D01*
X130037360Y-93416018D01*
X130034075Y-93392052D01*
X130031804Y-93370632D01*
X130030383Y-93350241D01*
X130029646Y-93329360D01*
X130029435Y-93310200D01*
X130029865Y-93281902D01*
X130031570Y-93259312D01*
X130034888Y-93240944D01*
X130040163Y-93225308D01*
X130047735Y-93210917D01*
X130054496Y-93200909D01*
X130070629Y-93184695D01*
X130091990Y-93172632D01*
X130117676Y-93164984D01*
X130146789Y-93162016D01*
X130178427Y-93163991D01*
X130179851Y-93164194D01*
X130202806Y-93169073D01*
X130224418Y-93176999D01*
X130244823Y-93188258D01*
X130264159Y-93203135D01*
X130282564Y-93221915D01*
X130300176Y-93244883D01*
X130317131Y-93272326D01*
X130333568Y-93304528D01*
X130349625Y-93341774D01*
X130365438Y-93384350D01*
X130381145Y-93432541D01*
X130396884Y-93486633D01*
X130412793Y-93546911D01*
X130429009Y-93613659D01*
X130445669Y-93687164D01*
X130456732Y-93738372D01*
X130469750Y-93800620D01*
X130480970Y-93856474D01*
X130490485Y-93906545D01*
X130498387Y-93951447D01*
X130504769Y-93991792D01*
X130509723Y-94028192D01*
X130513342Y-94061259D01*
X130515718Y-94091606D01*
X130516943Y-94119844D01*
X130517166Y-94138561D01*
X130516264Y-94174377D01*
X130513486Y-94204034D01*
X130508577Y-94228443D01*
X130501282Y-94248517D01*
X130491349Y-94265170D01*
X130478521Y-94279315D01*
X130477793Y-94279979D01*
X130457912Y-94293155D01*
X130432978Y-94301281D01*
X130402885Y-94304391D01*
X130398820Y-94304429D01*
X130365393Y-94302145D01*
X130334682Y-94295134D01*
X130306518Y-94283159D01*
X130280729Y-94265982D01*
X130257144Y-94243366D01*
X130235594Y-94215073D01*
X130215907Y-94180866D01*
X130197912Y-94140508D01*
X130181439Y-94093760D01*
X130166318Y-94040387D01*
X130152377Y-93980149D01*
X130147130Y-93954272D01*
X130143177Y-93934234D01*
X130139589Y-93916380D01*
X130136645Y-93902071D01*
X130134622Y-93892666D01*
X130133945Y-93889865D01*
X130133277Y-93888674D01*
X130131688Y-93887641D01*
X130128691Y-93886756D01*
X130123803Y-93886007D01*
X130116539Y-93885382D01*
X130106414Y-93884871D01*
X130092943Y-93884462D01*
X130075642Y-93884144D01*
X130054026Y-93883905D01*
X130027611Y-93883735D01*
X129995911Y-93883623D01*
X129958443Y-93883556D01*
X129914721Y-93883523D01*
X129864261Y-93883515D01*
X129860427Y-93883515D01*
X129816688Y-93883550D01*
X129775085Y-93883653D01*
X129736184Y-93883817D01*
X129700552Y-93884037D01*
X129668754Y-93884307D01*
X129641356Y-93884622D01*
X129618925Y-93884976D01*
X129602026Y-93885363D01*
X129591225Y-93885778D01*
X129587089Y-93886215D01*
X129587068Y-93886236D01*
X129587445Y-93890378D01*
X129589405Y-93900541D01*
X129592723Y-93915716D01*
X129597173Y-93934895D01*
X129602530Y-93957072D01*
X129606341Y-93972415D01*
X129628442Y-94054031D01*
X129652162Y-94128987D01*
X129677698Y-94197742D01*
X129705248Y-94260751D01*
X129735012Y-94318474D01*
X129767186Y-94371365D01*
X129798280Y-94415100D01*
X129812742Y-94432727D01*
X129831102Y-94453210D01*
X129851653Y-94474793D01*
X129872690Y-94495722D01*
X129892506Y-94514240D01*
X129905814Y-94525717D01*
X129959281Y-94564914D01*
X130017802Y-94599032D01*
X130081412Y-94628082D01*
X130150143Y-94652078D01*
X130224031Y-94671032D01*
X130303110Y-94684955D01*
X130370271Y-94692491D01*
X130386621Y-94693515D01*
X130408677Y-94694344D01*
X130434892Y-94694971D01*
X130463718Y-94695385D01*
X130493607Y-94695578D01*
X130523010Y-94695542D01*
X130550381Y-94695265D01*
X130574171Y-94694741D01*
X130592832Y-94693959D01*
X130595243Y-94693809D01*
X130659402Y-94687831D01*
X130719960Y-94678688D01*
X130776193Y-94666547D01*
X130827377Y-94651578D01*
X130872790Y-94633949D01*
X130892476Y-94624514D01*
X130935597Y-94599071D01*
X130974129Y-94569388D01*
X131008095Y-94535352D01*
X131037516Y-94496849D01*
X131062412Y-94453768D01*
X131082805Y-94405994D01*
X131098715Y-94353414D01*
X131110164Y-94295916D01*
X131117174Y-94233385D01*
X131119764Y-94165709D01*
X131117956Y-94092774D01*
X131111771Y-94014467D01*
X131101231Y-93930675D01*
X131086356Y-93841285D01*
X131067167Y-93746183D01*
X131061155Y-93719095D01*
X131035207Y-93613549D01*
X131006574Y-93514693D01*
X130975213Y-93422458D01*
X130941081Y-93336775D01*
X130904135Y-93257573D01*
X130864331Y-93184784D01*
X130821627Y-93118339D01*
X130775978Y-93058168D01*
X130727342Y-93004202D01*
X130675676Y-92956371D01*
X130620936Y-92914606D01*
X130563079Y-92878838D01*
X130524706Y-92859208D01*
X130475782Y-92837925D01*
X130425641Y-92819907D01*
X130373387Y-92804972D01*
X130318122Y-92792935D01*
X130258950Y-92783612D01*
X130194974Y-92776819D01*
X130125297Y-92772372D01*
X130096223Y-92771228D01*
X130015341Y-92770713D01*
X129940074Y-92774714D01*
G37*
X129940074Y-92774714D02*
X129870434Y-92783228D01*
X129806434Y-92796254D01*
X129748087Y-92813788D01*
X129695407Y-92835828D01*
X129648407Y-92862371D01*
X129644557Y-92864912D01*
X129625389Y-92879523D01*
X129604448Y-92898469D01*
X129583438Y-92919947D01*
X129564066Y-92942153D01*
X129548036Y-92963283D01*
X129540694Y-92974760D01*
X129518235Y-93019233D01*
X129500617Y-93067317D01*
X129487807Y-93119311D01*
X129479771Y-93175511D01*
X129476475Y-93236216D01*
X129477888Y-93301724D01*
X129483975Y-93372331D01*
X129490659Y-93422686D01*
X129494024Y-93444260D01*
X129497731Y-93466575D01*
X129501327Y-93486971D01*
X129504300Y-93502515D01*
X129510607Y-93533358D01*
X129783504Y-93534288D01*
X129838866Y-93534443D01*
X129887249Y-93534504D01*
X129928931Y-93534469D01*
X129964189Y-93534334D01*
X129993302Y-93534096D01*
X130016546Y-93533752D01*
X130034199Y-93533299D01*
X130046540Y-93532733D01*
X130053845Y-93532052D01*
X130056392Y-93531252D01*
X130056400Y-93531202D01*
X130055795Y-93526323D01*
X130054136Y-93515728D01*
X130051656Y-93500844D01*
X130048590Y-93483097D01*
X130047631Y-93477657D01*
X130041823Y-93444047D01*
X130037360Y-93416018D01*
X130034075Y-93392052D01*
X130031804Y-93370632D01*
X130030383Y-93350241D01*
X130029646Y-93329360D01*
X130029435Y-93310200D01*
X130029865Y-93281902D01*
X130031570Y-93259312D01*
X130034888Y-93240944D01*
X130040163Y-93225308D01*
X130047735Y-93210917D01*
X130054496Y-93200909D01*
X130070629Y-93184695D01*
X130091990Y-93172632D01*
X130117676Y-93164984D01*
X130146789Y-93162016D01*
X130178427Y-93163991D01*
X130179851Y-93164194D01*
X130202806Y-93169073D01*
X130224418Y-93176999D01*
X130244823Y-93188258D01*
X130264159Y-93203135D01*
X130282564Y-93221915D01*
X130300176Y-93244883D01*
X130317131Y-93272326D01*
X130333568Y-93304528D01*
X130349625Y-93341774D01*
X130365438Y-93384350D01*
X130381145Y-93432541D01*
X130396884Y-93486633D01*
X130412793Y-93546911D01*
X130429009Y-93613659D01*
X130445669Y-93687164D01*
X130456732Y-93738372D01*
X130469750Y-93800620D01*
X130480970Y-93856474D01*
X130490485Y-93906545D01*
X130498387Y-93951447D01*
X130504769Y-93991792D01*
X130509723Y-94028192D01*
X130513342Y-94061259D01*
X130515718Y-94091606D01*
X130516943Y-94119844D01*
X130517166Y-94138561D01*
X130516264Y-94174377D01*
X130513486Y-94204034D01*
X130508577Y-94228443D01*
X130501282Y-94248517D01*
X130491349Y-94265170D01*
X130478521Y-94279315D01*
X130477793Y-94279979D01*
X130457912Y-94293155D01*
X130432978Y-94301281D01*
X130402885Y-94304391D01*
X130398820Y-94304429D01*
X130365393Y-94302145D01*
X130334682Y-94295134D01*
X130306518Y-94283159D01*
X130280729Y-94265982D01*
X130257144Y-94243366D01*
X130235594Y-94215073D01*
X130215907Y-94180866D01*
X130197912Y-94140508D01*
X130181439Y-94093760D01*
X130166318Y-94040387D01*
X130152377Y-93980149D01*
X130147130Y-93954272D01*
X130143177Y-93934234D01*
X130139589Y-93916380D01*
X130136645Y-93902071D01*
X130134622Y-93892666D01*
X130133945Y-93889865D01*
X130133277Y-93888674D01*
X130131688Y-93887641D01*
X130128691Y-93886756D01*
X130123803Y-93886007D01*
X130116539Y-93885382D01*
X130106414Y-93884871D01*
X130092943Y-93884462D01*
X130075642Y-93884144D01*
X130054026Y-93883905D01*
X130027611Y-93883735D01*
X129995911Y-93883623D01*
X129958443Y-93883556D01*
X129914721Y-93883523D01*
X129864261Y-93883515D01*
X129860427Y-93883515D01*
X129816688Y-93883550D01*
X129775085Y-93883653D01*
X129736184Y-93883817D01*
X129700552Y-93884037D01*
X129668754Y-93884307D01*
X129641356Y-93884622D01*
X129618925Y-93884976D01*
X129602026Y-93885363D01*
X129591225Y-93885778D01*
X129587089Y-93886215D01*
X129587068Y-93886236D01*
X129587445Y-93890378D01*
X129589405Y-93900541D01*
X129592723Y-93915716D01*
X129597173Y-93934895D01*
X129602530Y-93957072D01*
X129606341Y-93972415D01*
X129628442Y-94054031D01*
X129652162Y-94128987D01*
X129677698Y-94197742D01*
X129705248Y-94260751D01*
X129735012Y-94318474D01*
X129767186Y-94371365D01*
X129798280Y-94415100D01*
X129812742Y-94432727D01*
X129831102Y-94453210D01*
X129851653Y-94474793D01*
X129872690Y-94495722D01*
X129892506Y-94514240D01*
X129905814Y-94525717D01*
X129959281Y-94564914D01*
X130017802Y-94599032D01*
X130081412Y-94628082D01*
X130150143Y-94652078D01*
X130224031Y-94671032D01*
X130303110Y-94684955D01*
X130370271Y-94692491D01*
X130386621Y-94693515D01*
X130408677Y-94694344D01*
X130434892Y-94694971D01*
X130463718Y-94695385D01*
X130493607Y-94695578D01*
X130523010Y-94695542D01*
X130550381Y-94695265D01*
X130574171Y-94694741D01*
X130592832Y-94693959D01*
X130595243Y-94693809D01*
X130659402Y-94687831D01*
X130719960Y-94678688D01*
X130776193Y-94666547D01*
X130827377Y-94651578D01*
X130872790Y-94633949D01*
X130892476Y-94624514D01*
X130935597Y-94599071D01*
X130974129Y-94569388D01*
X131008095Y-94535352D01*
X131037516Y-94496849D01*
X131062412Y-94453768D01*
X131082805Y-94405994D01*
X131098715Y-94353414D01*
X131110164Y-94295916D01*
X131117174Y-94233385D01*
X131119764Y-94165709D01*
X131117956Y-94092774D01*
X131111771Y-94014467D01*
X131101231Y-93930675D01*
X131086356Y-93841285D01*
X131067167Y-93746183D01*
X131061155Y-93719095D01*
X131035207Y-93613549D01*
X131006574Y-93514693D01*
X130975213Y-93422458D01*
X130941081Y-93336775D01*
X130904135Y-93257573D01*
X130864331Y-93184784D01*
X130821627Y-93118339D01*
X130775978Y-93058168D01*
X130727342Y-93004202D01*
X130675676Y-92956371D01*
X130620936Y-92914606D01*
X130563079Y-92878838D01*
X130524706Y-92859208D01*
X130475782Y-92837925D01*
X130425641Y-92819907D01*
X130373387Y-92804972D01*
X130318122Y-92792935D01*
X130258950Y-92783612D01*
X130194974Y-92776819D01*
X130125297Y-92772372D01*
X130096223Y-92771228D01*
X130015341Y-92770713D01*
X129940074Y-92774714D01*
G36*
X125505874Y-95081066D02*
G01*
X125494659Y-95081482D01*
X125488333Y-95082436D01*
X125485714Y-95084126D01*
X125485618Y-95086752D01*
X125485764Y-95087293D01*
X125486936Y-95092248D01*
X125489420Y-95103434D01*
X125493029Y-95119980D01*
X125497575Y-95141018D01*
X125502869Y-95165676D01*
X125508724Y-95193085D01*
X125513429Y-95215200D01*
X125519570Y-95244068D01*
X125525280Y-95270802D01*
X125530372Y-95294541D01*
X125534661Y-95314423D01*
X125537961Y-95329587D01*
X125540086Y-95339171D01*
X125540804Y-95342200D01*
X125542384Y-95344190D01*
X125546448Y-95345642D01*
X125553949Y-95346634D01*
X125565839Y-95347246D01*
X125583072Y-95347557D01*
X125606600Y-95347643D01*
X125606819Y-95347643D01*
X125630760Y-95347729D01*
X125648883Y-95348079D01*
X125662626Y-95348826D01*
X125673426Y-95350108D01*
X125682723Y-95352058D01*
X125691954Y-95354814D01*
X125695433Y-95355993D01*
X125726861Y-95370488D01*
X125753730Y-95390578D01*
X125775820Y-95416042D01*
X125792911Y-95446657D01*
X125797971Y-95459378D01*
X125800333Y-95467397D01*
X125804029Y-95481853D01*
X125808907Y-95502080D01*
X125814816Y-95527412D01*
X125821605Y-95557181D01*
X125829123Y-95590721D01*
X125837217Y-95627366D01*
X125845737Y-95666450D01*
X125854531Y-95707306D01*
X125858308Y-95725015D01*
X125866980Y-95765743D01*
X125875242Y-95804474D01*
X125882966Y-95840609D01*
X125890023Y-95873549D01*
X125896283Y-95902695D01*
X125901619Y-95927447D01*
X125905901Y-95947207D01*
X125909001Y-95961375D01*
X125910789Y-95969353D01*
X125911156Y-95970850D01*
X125912036Y-95972442D01*
X125914070Y-95973744D01*
X125917927Y-95974786D01*
X125924272Y-95975595D01*
X125933772Y-95976202D01*
X125947094Y-95976635D01*
X125964903Y-95976922D01*
X125987866Y-95977093D01*
X126016650Y-95977176D01*
X126051921Y-95977200D01*
X126202995Y-95977200D01*
X126201089Y-95969036D01*
X126200104Y-95964502D01*
X126197708Y-95953314D01*
X126193994Y-95935913D01*
X126189057Y-95912745D01*
X126182992Y-95884253D01*
X126175892Y-95850882D01*
X126167852Y-95813074D01*
X126158967Y-95771273D01*
X126149330Y-95725925D01*
X126139037Y-95677471D01*
X126128181Y-95626357D01*
X126116858Y-95573026D01*
X126108327Y-95532838D01*
X126096748Y-95478320D01*
X126085578Y-95425797D01*
X126074912Y-95375702D01*
X126064843Y-95328471D01*
X126055462Y-95284538D01*
X126046864Y-95244336D01*
X126039141Y-95208301D01*
X126032386Y-95176866D01*
X126026692Y-95150465D01*
X126022154Y-95129534D01*
X126018862Y-95114506D01*
X126016911Y-95105815D01*
X126016383Y-95103717D01*
X126012637Y-95103498D01*
X126002426Y-95103343D01*
X125986541Y-95103251D01*
X125965773Y-95103224D01*
X125940915Y-95103262D01*
X125912757Y-95103366D01*
X125882092Y-95103537D01*
X125875761Y-95103579D01*
X125736227Y-95104529D01*
X125749900Y-95168029D01*
X125754271Y-95188794D01*
X125757973Y-95207285D01*
X125760773Y-95222262D01*
X125762438Y-95232482D01*
X125762780Y-95236550D01*
X125760648Y-95235933D01*
X125755556Y-95230205D01*
X125748370Y-95220418D01*
X125743282Y-95212834D01*
X125714722Y-95174128D01*
X125683759Y-95142154D01*
X125650195Y-95116729D01*
X125623259Y-95101878D01*
X125600350Y-95092195D01*
X125578768Y-95085858D01*
X125555882Y-95082318D01*
X125529059Y-95081024D01*
X125523163Y-95080986D01*
X125505874Y-95081066D01*
G37*
X125505874Y-95081066D02*
X125494659Y-95081482D01*
X125488333Y-95082436D01*
X125485714Y-95084126D01*
X125485618Y-95086752D01*
X125485764Y-95087293D01*
X125486936Y-95092248D01*
X125489420Y-95103434D01*
X125493029Y-95119980D01*
X125497575Y-95141018D01*
X125502869Y-95165676D01*
X125508724Y-95193085D01*
X125513429Y-95215200D01*
X125519570Y-95244068D01*
X125525280Y-95270802D01*
X125530372Y-95294541D01*
X125534661Y-95314423D01*
X125537961Y-95329587D01*
X125540086Y-95339171D01*
X125540804Y-95342200D01*
X125542384Y-95344190D01*
X125546448Y-95345642D01*
X125553949Y-95346634D01*
X125565839Y-95347246D01*
X125583072Y-95347557D01*
X125606600Y-95347643D01*
X125606819Y-95347643D01*
X125630760Y-95347729D01*
X125648883Y-95348079D01*
X125662626Y-95348826D01*
X125673426Y-95350108D01*
X125682723Y-95352058D01*
X125691954Y-95354814D01*
X125695433Y-95355993D01*
X125726861Y-95370488D01*
X125753730Y-95390578D01*
X125775820Y-95416042D01*
X125792911Y-95446657D01*
X125797971Y-95459378D01*
X125800333Y-95467397D01*
X125804029Y-95481853D01*
X125808907Y-95502080D01*
X125814816Y-95527412D01*
X125821605Y-95557181D01*
X125829123Y-95590721D01*
X125837217Y-95627366D01*
X125845737Y-95666450D01*
X125854531Y-95707306D01*
X125858308Y-95725015D01*
X125866980Y-95765743D01*
X125875242Y-95804474D01*
X125882966Y-95840609D01*
X125890023Y-95873549D01*
X125896283Y-95902695D01*
X125901619Y-95927447D01*
X125905901Y-95947207D01*
X125909001Y-95961375D01*
X125910789Y-95969353D01*
X125911156Y-95970850D01*
X125912036Y-95972442D01*
X125914070Y-95973744D01*
X125917927Y-95974786D01*
X125924272Y-95975595D01*
X125933772Y-95976202D01*
X125947094Y-95976635D01*
X125964903Y-95976922D01*
X125987866Y-95977093D01*
X126016650Y-95977176D01*
X126051921Y-95977200D01*
X126202995Y-95977200D01*
X126201089Y-95969036D01*
X126200104Y-95964502D01*
X126197708Y-95953314D01*
X126193994Y-95935913D01*
X126189057Y-95912745D01*
X126182992Y-95884253D01*
X126175892Y-95850882D01*
X126167852Y-95813074D01*
X126158967Y-95771273D01*
X126149330Y-95725925D01*
X126139037Y-95677471D01*
X126128181Y-95626357D01*
X126116858Y-95573026D01*
X126108327Y-95532838D01*
X126096748Y-95478320D01*
X126085578Y-95425797D01*
X126074912Y-95375702D01*
X126064843Y-95328471D01*
X126055462Y-95284538D01*
X126046864Y-95244336D01*
X126039141Y-95208301D01*
X126032386Y-95176866D01*
X126026692Y-95150465D01*
X126022154Y-95129534D01*
X126018862Y-95114506D01*
X126016911Y-95105815D01*
X126016383Y-95103717D01*
X126012637Y-95103498D01*
X126002426Y-95103343D01*
X125986541Y-95103251D01*
X125965773Y-95103224D01*
X125940915Y-95103262D01*
X125912757Y-95103366D01*
X125882092Y-95103537D01*
X125875761Y-95103579D01*
X125736227Y-95104529D01*
X125749900Y-95168029D01*
X125754271Y-95188794D01*
X125757973Y-95207285D01*
X125760773Y-95222262D01*
X125762438Y-95232482D01*
X125762780Y-95236550D01*
X125760648Y-95235933D01*
X125755556Y-95230205D01*
X125748370Y-95220418D01*
X125743282Y-95212834D01*
X125714722Y-95174128D01*
X125683759Y-95142154D01*
X125650195Y-95116729D01*
X125623259Y-95101878D01*
X125600350Y-95092195D01*
X125578768Y-95085858D01*
X125555882Y-95082318D01*
X125529059Y-95081024D01*
X125523163Y-95080986D01*
X125505874Y-95081066D01*
G36*
X128608797Y-95150752D02*
G01*
X128610944Y-95160831D01*
X128614486Y-95177476D01*
X128619311Y-95200156D01*
X128625305Y-95228340D01*
X128632356Y-95261496D01*
X128640350Y-95299092D01*
X128649174Y-95340596D01*
X128658716Y-95385478D01*
X128668862Y-95433205D01*
X128679499Y-95483245D01*
X128690514Y-95535067D01*
X128701773Y-95588036D01*
X128784486Y-95977200D01*
X129075302Y-95977200D01*
X128982541Y-95540865D01*
X128889780Y-95104529D01*
X128598534Y-95102633D01*
X128608797Y-95150752D01*
G37*
X128608797Y-95150752D02*
X128610944Y-95160831D01*
X128614486Y-95177476D01*
X128619311Y-95200156D01*
X128625305Y-95228340D01*
X128632356Y-95261496D01*
X128640350Y-95299092D01*
X128649174Y-95340596D01*
X128658716Y-95385478D01*
X128668862Y-95433205D01*
X128679499Y-95483245D01*
X128690514Y-95535067D01*
X128701773Y-95588036D01*
X128784486Y-95977200D01*
X129075302Y-95977200D01*
X128982541Y-95540865D01*
X128889780Y-95104529D01*
X128598534Y-95102633D01*
X128608797Y-95150752D01*
G36*
X131108615Y-94819726D02*
G01*
X131071787Y-94819869D01*
X131033994Y-94820139D01*
X130995935Y-94820531D01*
X130958309Y-94821038D01*
X130921814Y-94821654D01*
X130887150Y-94822373D01*
X130855014Y-94823190D01*
X130826107Y-94824098D01*
X130801126Y-94825091D01*
X130780771Y-94826164D01*
X130765741Y-94827310D01*
X130757249Y-94828417D01*
X130716950Y-94838624D01*
X130681494Y-94852644D01*
X130650799Y-94870679D01*
X130624782Y-94892933D01*
X130603362Y-94919607D01*
X130586459Y-94950903D01*
X130573989Y-94987025D01*
X130565872Y-95028175D01*
X130562025Y-95074555D01*
X130562368Y-95126367D01*
X130566819Y-95183815D01*
X130575295Y-95247101D01*
X130579126Y-95270252D01*
X130590140Y-95330543D01*
X130602284Y-95390804D01*
X130615258Y-95449754D01*
X130628757Y-95506111D01*
X130642482Y-95558594D01*
X130656128Y-95605921D01*
X130664445Y-95632196D01*
X130687106Y-95694035D01*
X130712198Y-95749177D01*
X130739931Y-95797834D01*
X130770518Y-95840220D01*
X130804173Y-95876547D01*
X130841108Y-95907029D01*
X130881536Y-95931878D01*
X130925668Y-95951307D01*
X130973718Y-95965529D01*
X131003189Y-95971430D01*
X131011028Y-95972598D01*
X131020060Y-95973602D01*
X131030853Y-95974454D01*
X131043975Y-95975165D01*
X131059992Y-95975747D01*
X131079474Y-95976213D01*
X131102987Y-95976572D01*
X131131100Y-95976838D01*
X131164379Y-95977022D01*
X131203394Y-95977136D01*
X131248711Y-95977191D01*
X131283497Y-95977200D01*
X131325029Y-95977158D01*
X131364358Y-95977037D01*
X131400896Y-95976842D01*
X131434050Y-95976583D01*
X131463233Y-95976265D01*
X131487854Y-95975895D01*
X131507322Y-95975481D01*
X131521049Y-95975030D01*
X131528444Y-95974549D01*
X131529600Y-95974264D01*
X131528858Y-95970380D01*
X131526696Y-95959856D01*
X131523212Y-95943150D01*
X131518504Y-95920721D01*
X131512669Y-95893026D01*
X131505804Y-95860522D01*
X131498007Y-95823667D01*
X131489375Y-95782920D01*
X131485176Y-95763115D01*
X131184000Y-95763115D01*
X131143381Y-95763115D01*
X131124209Y-95762747D01*
X131105185Y-95761757D01*
X131088990Y-95760312D01*
X131081231Y-95759206D01*
X131058265Y-95752988D01*
X131038749Y-95742863D01*
X131021770Y-95728016D01*
X131006416Y-95707630D01*
X130991774Y-95680888D01*
X130990349Y-95677907D01*
X130983173Y-95661714D01*
X130976146Y-95643608D01*
X130969102Y-95622979D01*
X130961879Y-95599217D01*
X130954314Y-95571713D01*
X130946242Y-95539858D01*
X130937501Y-95503041D01*
X130927926Y-95460652D01*
X130917355Y-95412083D01*
X130910635Y-95380518D01*
X130899244Y-95325209D01*
X130889881Y-95276421D01*
X130882509Y-95233718D01*
X130877090Y-95196663D01*
X130873589Y-95164821D01*
X130871969Y-95137754D01*
X130872193Y-95115028D01*
X130874225Y-95096204D01*
X130878027Y-95080848D01*
X130883564Y-95068522D01*
X130884314Y-95067272D01*
X130891859Y-95057536D01*
X130901550Y-95050181D01*
X130914443Y-95044876D01*
X130931591Y-95041286D01*
X130954049Y-95039080D01*
X130976781Y-95038081D01*
X130997092Y-95037566D01*
X131011303Y-95037454D01*
X131020565Y-95037860D01*
X131026030Y-95038897D01*
X131028847Y-95040679D01*
X131030170Y-95043319D01*
X131030181Y-95043356D01*
X131031144Y-95047556D01*
X131033498Y-95058292D01*
X131037122Y-95075004D01*
X131041897Y-95097130D01*
X131047703Y-95124110D01*
X131054420Y-95155381D01*
X131061928Y-95190384D01*
X131070107Y-95228556D01*
X131078836Y-95269336D01*
X131087996Y-95312163D01*
X131097468Y-95356477D01*
X131107130Y-95401715D01*
X131116863Y-95447316D01*
X131126547Y-95492720D01*
X131136063Y-95537365D01*
X131145289Y-95580689D01*
X131154106Y-95622132D01*
X131162395Y-95661132D01*
X131170034Y-95697129D01*
X131176905Y-95729560D01*
X131179205Y-95740436D01*
X131184000Y-95763115D01*
X131485176Y-95763115D01*
X131480006Y-95738737D01*
X131469997Y-95691576D01*
X131459446Y-95641895D01*
X131448450Y-95590152D01*
X131437106Y-95536804D01*
X131425513Y-95482309D01*
X131413767Y-95427124D01*
X131401966Y-95371708D01*
X131390207Y-95316518D01*
X131378589Y-95262011D01*
X131367208Y-95208646D01*
X131356161Y-95156880D01*
X131345547Y-95107170D01*
X131335463Y-95059975D01*
X131326006Y-95015752D01*
X131317274Y-94974958D01*
X131309364Y-94938052D01*
X131302373Y-94905491D01*
X131296399Y-94877733D01*
X131291540Y-94855235D01*
X131287893Y-94838455D01*
X131285556Y-94827851D01*
X131284627Y-94823884D01*
X131280679Y-94822793D01*
X131270176Y-94821877D01*
X131253815Y-94821130D01*
X131232296Y-94820546D01*
X131206318Y-94820120D01*
X131176579Y-94819845D01*
X131143778Y-94819716D01*
X131108615Y-94819726D01*
G37*
X131108615Y-94819726D02*
X131071787Y-94819869D01*
X131033994Y-94820139D01*
X130995935Y-94820531D01*
X130958309Y-94821038D01*
X130921814Y-94821654D01*
X130887150Y-94822373D01*
X130855014Y-94823190D01*
X130826107Y-94824098D01*
X130801126Y-94825091D01*
X130780771Y-94826164D01*
X130765741Y-94827310D01*
X130757249Y-94828417D01*
X130716950Y-94838624D01*
X130681494Y-94852644D01*
X130650799Y-94870679D01*
X130624782Y-94892933D01*
X130603362Y-94919607D01*
X130586459Y-94950903D01*
X130573989Y-94987025D01*
X130565872Y-95028175D01*
X130562025Y-95074555D01*
X130562368Y-95126367D01*
X130566819Y-95183815D01*
X130575295Y-95247101D01*
X130579126Y-95270252D01*
X130590140Y-95330543D01*
X130602284Y-95390804D01*
X130615258Y-95449754D01*
X130628757Y-95506111D01*
X130642482Y-95558594D01*
X130656128Y-95605921D01*
X130664445Y-95632196D01*
X130687106Y-95694035D01*
X130712198Y-95749177D01*
X130739931Y-95797834D01*
X130770518Y-95840220D01*
X130804173Y-95876547D01*
X130841108Y-95907029D01*
X130881536Y-95931878D01*
X130925668Y-95951307D01*
X130973718Y-95965529D01*
X131003189Y-95971430D01*
X131011028Y-95972598D01*
X131020060Y-95973602D01*
X131030853Y-95974454D01*
X131043975Y-95975165D01*
X131059992Y-95975747D01*
X131079474Y-95976213D01*
X131102987Y-95976572D01*
X131131100Y-95976838D01*
X131164379Y-95977022D01*
X131203394Y-95977136D01*
X131248711Y-95977191D01*
X131283497Y-95977200D01*
X131325029Y-95977158D01*
X131364358Y-95977037D01*
X131400896Y-95976842D01*
X131434050Y-95976583D01*
X131463233Y-95976265D01*
X131487854Y-95975895D01*
X131507322Y-95975481D01*
X131521049Y-95975030D01*
X131528444Y-95974549D01*
X131529600Y-95974264D01*
X131528858Y-95970380D01*
X131526696Y-95959856D01*
X131523212Y-95943150D01*
X131518504Y-95920721D01*
X131512669Y-95893026D01*
X131505804Y-95860522D01*
X131498007Y-95823667D01*
X131489375Y-95782920D01*
X131485176Y-95763115D01*
X131184000Y-95763115D01*
X131143381Y-95763115D01*
X131124209Y-95762747D01*
X131105185Y-95761757D01*
X131088990Y-95760312D01*
X131081231Y-95759206D01*
X131058265Y-95752988D01*
X131038749Y-95742863D01*
X131021770Y-95728016D01*
X131006416Y-95707630D01*
X130991774Y-95680888D01*
X130990349Y-95677907D01*
X130983173Y-95661714D01*
X130976146Y-95643608D01*
X130969102Y-95622979D01*
X130961879Y-95599217D01*
X130954314Y-95571713D01*
X130946242Y-95539858D01*
X130937501Y-95503041D01*
X130927926Y-95460652D01*
X130917355Y-95412083D01*
X130910635Y-95380518D01*
X130899244Y-95325209D01*
X130889881Y-95276421D01*
X130882509Y-95233718D01*
X130877090Y-95196663D01*
X130873589Y-95164821D01*
X130871969Y-95137754D01*
X130872193Y-95115028D01*
X130874225Y-95096204D01*
X130878027Y-95080848D01*
X130883564Y-95068522D01*
X130884314Y-95067272D01*
X130891859Y-95057536D01*
X130901550Y-95050181D01*
X130914443Y-95044876D01*
X130931591Y-95041286D01*
X130954049Y-95039080D01*
X130976781Y-95038081D01*
X130997092Y-95037566D01*
X131011303Y-95037454D01*
X131020565Y-95037860D01*
X131026030Y-95038897D01*
X131028847Y-95040679D01*
X131030170Y-95043319D01*
X131030181Y-95043356D01*
X131031144Y-95047556D01*
X131033498Y-95058292D01*
X131037122Y-95075004D01*
X131041897Y-95097130D01*
X131047703Y-95124110D01*
X131054420Y-95155381D01*
X131061928Y-95190384D01*
X131070107Y-95228556D01*
X131078836Y-95269336D01*
X131087996Y-95312163D01*
X131097468Y-95356477D01*
X131107130Y-95401715D01*
X131116863Y-95447316D01*
X131126547Y-95492720D01*
X131136063Y-95537365D01*
X131145289Y-95580689D01*
X131154106Y-95622132D01*
X131162395Y-95661132D01*
X131170034Y-95697129D01*
X131176905Y-95729560D01*
X131179205Y-95740436D01*
X131184000Y-95763115D01*
X131485176Y-95763115D01*
X131480006Y-95738737D01*
X131469997Y-95691576D01*
X131459446Y-95641895D01*
X131448450Y-95590152D01*
X131437106Y-95536804D01*
X131425513Y-95482309D01*
X131413767Y-95427124D01*
X131401966Y-95371708D01*
X131390207Y-95316518D01*
X131378589Y-95262011D01*
X131367208Y-95208646D01*
X131356161Y-95156880D01*
X131345547Y-95107170D01*
X131335463Y-95059975D01*
X131326006Y-95015752D01*
X131317274Y-94974958D01*
X131309364Y-94938052D01*
X131302373Y-94905491D01*
X131296399Y-94877733D01*
X131291540Y-94855235D01*
X131287893Y-94838455D01*
X131285556Y-94827851D01*
X131284627Y-94823884D01*
X131280679Y-94822793D01*
X131270176Y-94821877D01*
X131253815Y-94821130D01*
X131232296Y-94820546D01*
X131206318Y-94820120D01*
X131176579Y-94819845D01*
X131143778Y-94819716D01*
X131108615Y-94819726D01*
G36*
X127080404Y-95083019D02*
G01*
X127056235Y-95086844D01*
X127034654Y-95093142D01*
X127015761Y-95101343D01*
X126991328Y-95116242D01*
X126972277Y-95134115D01*
X126958310Y-95155585D01*
X126949128Y-95181276D01*
X126944433Y-95211811D01*
X126943925Y-95247813D01*
X126944062Y-95251063D01*
X126944695Y-95261428D01*
X126945739Y-95272552D01*
X126947320Y-95285105D01*
X126949559Y-95299754D01*
X126952580Y-95317169D01*
X126956509Y-95338017D01*
X126961466Y-95362968D01*
X126967578Y-95392689D01*
X126974966Y-95427849D01*
X126983754Y-95469116D01*
X126988298Y-95490315D01*
X126999874Y-95543940D01*
X127010221Y-95591074D01*
X127019516Y-95632344D01*
X127027937Y-95668379D01*
X127035663Y-95699805D01*
X127042872Y-95727252D01*
X127049742Y-95751346D01*
X127056451Y-95772716D01*
X127063177Y-95791989D01*
X127070099Y-95809793D01*
X127077394Y-95826756D01*
X127085242Y-95843506D01*
X127092898Y-95858868D01*
X127110278Y-95889209D01*
X127129219Y-95914395D01*
X127150479Y-95934828D01*
X127174813Y-95950913D01*
X127202976Y-95963053D01*
X127235724Y-95971651D01*
X127273814Y-95977111D01*
X127318000Y-95979837D01*
X127319550Y-95979884D01*
X127343136Y-95980476D01*
X127360316Y-95980619D01*
X127371932Y-95980277D01*
X127378824Y-95979410D01*
X127381832Y-95977983D01*
X127382143Y-95977102D01*
X127381400Y-95972914D01*
X127379247Y-95962166D01*
X127375797Y-95945395D01*
X127371163Y-95923137D01*
X127365456Y-95895927D01*
X127358791Y-95864301D01*
X127351280Y-95828796D01*
X127343036Y-95789948D01*
X127334172Y-95748292D01*
X127324800Y-95704364D01*
X127319982Y-95681823D01*
X127307739Y-95624437D01*
X127296992Y-95573698D01*
X127287669Y-95529168D01*
X127279695Y-95490410D01*
X127272998Y-95456986D01*
X127267504Y-95428457D01*
X127263140Y-95404386D01*
X127259832Y-95384335D01*
X127257507Y-95367866D01*
X127256091Y-95354541D01*
X127255512Y-95343922D01*
X127255696Y-95335571D01*
X127256570Y-95329051D01*
X127258060Y-95323923D01*
X127259510Y-95320779D01*
X127270331Y-95308000D01*
X127285973Y-95299475D01*
X127305116Y-95295594D01*
X127326440Y-95296741D01*
X127334998Y-95298619D01*
X127351348Y-95306221D01*
X127367242Y-95319407D01*
X127381136Y-95336583D01*
X127391485Y-95356158D01*
X127391945Y-95357336D01*
X127393947Y-95364129D01*
X127397305Y-95377430D01*
X127401887Y-95396642D01*
X127407559Y-95421171D01*
X127414186Y-95450422D01*
X127421636Y-95483800D01*
X127429775Y-95520709D01*
X127438469Y-95560554D01*
X127447585Y-95602741D01*
X127456988Y-95646673D01*
X127458344Y-95653044D01*
X127467760Y-95697287D01*
X127476849Y-95739959D01*
X127485481Y-95780455D01*
X127493526Y-95818170D01*
X127500857Y-95852498D01*
X127507342Y-95882833D01*
X127512854Y-95908570D01*
X127517261Y-95929103D01*
X127520436Y-95943826D01*
X127522248Y-95952135D01*
X127522376Y-95952708D01*
X127527867Y-95977200D01*
X127672719Y-95977200D01*
X127704342Y-95977163D01*
X127733583Y-95977056D01*
X127759674Y-95976889D01*
X127781845Y-95976668D01*
X127799328Y-95976403D01*
X127811354Y-95976101D01*
X127817154Y-95975771D01*
X127817571Y-95975654D01*
X127816834Y-95971976D01*
X127814697Y-95961726D01*
X127811271Y-95945433D01*
X127806669Y-95923622D01*
X127801003Y-95896820D01*
X127794385Y-95865554D01*
X127786926Y-95830352D01*
X127778740Y-95791739D01*
X127769936Y-95750242D01*
X127760629Y-95706389D01*
X127750929Y-95660706D01*
X127740949Y-95613719D01*
X127730800Y-95565957D01*
X127720595Y-95517945D01*
X127710445Y-95470210D01*
X127700463Y-95423279D01*
X127690760Y-95377679D01*
X127681448Y-95333937D01*
X127672640Y-95292579D01*
X127664447Y-95254132D01*
X127656982Y-95219123D01*
X127650356Y-95188079D01*
X127644681Y-95161527D01*
X127640069Y-95139993D01*
X127636632Y-95124005D01*
X127634483Y-95114088D01*
X127633765Y-95110879D01*
X127631728Y-95102715D01*
X127492421Y-95102715D01*
X127455422Y-95102763D01*
X127425127Y-95102920D01*
X127400981Y-95103205D01*
X127382431Y-95103634D01*
X127368923Y-95104226D01*
X127359905Y-95104999D01*
X127354822Y-95105971D01*
X127353122Y-95107160D01*
X127353115Y-95107250D01*
X127353843Y-95112320D01*
X127355835Y-95123024D01*
X127358808Y-95137906D01*
X127362477Y-95155510D01*
X127363405Y-95159865D01*
X127366980Y-95177389D01*
X127369636Y-95192055D01*
X127371168Y-95202576D01*
X127371368Y-95207666D01*
X127371155Y-95207943D01*
X127367798Y-95205215D01*
X127362059Y-95198258D01*
X127358383Y-95193178D01*
X127345989Y-95177875D01*
X127329270Y-95160753D01*
X127310209Y-95143564D01*
X127290792Y-95128060D01*
X127273002Y-95115992D01*
X127267336Y-95112804D01*
X127242668Y-95100978D01*
X127219591Y-95092518D01*
X127195833Y-95086860D01*
X127169120Y-95083441D01*
X127142435Y-95081878D01*
X127108643Y-95081439D01*
X127080404Y-95083019D01*
G37*
X127080404Y-95083019D02*
X127056235Y-95086844D01*
X127034654Y-95093142D01*
X127015761Y-95101343D01*
X126991328Y-95116242D01*
X126972277Y-95134115D01*
X126958310Y-95155585D01*
X126949128Y-95181276D01*
X126944433Y-95211811D01*
X126943925Y-95247813D01*
X126944062Y-95251063D01*
X126944695Y-95261428D01*
X126945739Y-95272552D01*
X126947320Y-95285105D01*
X126949559Y-95299754D01*
X126952580Y-95317169D01*
X126956509Y-95338017D01*
X126961466Y-95362968D01*
X126967578Y-95392689D01*
X126974966Y-95427849D01*
X126983754Y-95469116D01*
X126988298Y-95490315D01*
X126999874Y-95543940D01*
X127010221Y-95591074D01*
X127019516Y-95632344D01*
X127027937Y-95668379D01*
X127035663Y-95699805D01*
X127042872Y-95727252D01*
X127049742Y-95751346D01*
X127056451Y-95772716D01*
X127063177Y-95791989D01*
X127070099Y-95809793D01*
X127077394Y-95826756D01*
X127085242Y-95843506D01*
X127092898Y-95858868D01*
X127110278Y-95889209D01*
X127129219Y-95914395D01*
X127150479Y-95934828D01*
X127174813Y-95950913D01*
X127202976Y-95963053D01*
X127235724Y-95971651D01*
X127273814Y-95977111D01*
X127318000Y-95979837D01*
X127319550Y-95979884D01*
X127343136Y-95980476D01*
X127360316Y-95980619D01*
X127371932Y-95980277D01*
X127378824Y-95979410D01*
X127381832Y-95977983D01*
X127382143Y-95977102D01*
X127381400Y-95972914D01*
X127379247Y-95962166D01*
X127375797Y-95945395D01*
X127371163Y-95923137D01*
X127365456Y-95895927D01*
X127358791Y-95864301D01*
X127351280Y-95828796D01*
X127343036Y-95789948D01*
X127334172Y-95748292D01*
X127324800Y-95704364D01*
X127319982Y-95681823D01*
X127307739Y-95624437D01*
X127296992Y-95573698D01*
X127287669Y-95529168D01*
X127279695Y-95490410D01*
X127272998Y-95456986D01*
X127267504Y-95428457D01*
X127263140Y-95404386D01*
X127259832Y-95384335D01*
X127257507Y-95367866D01*
X127256091Y-95354541D01*
X127255512Y-95343922D01*
X127255696Y-95335571D01*
X127256570Y-95329051D01*
X127258060Y-95323923D01*
X127259510Y-95320779D01*
X127270331Y-95308000D01*
X127285973Y-95299475D01*
X127305116Y-95295594D01*
X127326440Y-95296741D01*
X127334998Y-95298619D01*
X127351348Y-95306221D01*
X127367242Y-95319407D01*
X127381136Y-95336583D01*
X127391485Y-95356158D01*
X127391945Y-95357336D01*
X127393947Y-95364129D01*
X127397305Y-95377430D01*
X127401887Y-95396642D01*
X127407559Y-95421171D01*
X127414186Y-95450422D01*
X127421636Y-95483800D01*
X127429775Y-95520709D01*
X127438469Y-95560554D01*
X127447585Y-95602741D01*
X127456988Y-95646673D01*
X127458344Y-95653044D01*
X127467760Y-95697287D01*
X127476849Y-95739959D01*
X127485481Y-95780455D01*
X127493526Y-95818170D01*
X127500857Y-95852498D01*
X127507342Y-95882833D01*
X127512854Y-95908570D01*
X127517261Y-95929103D01*
X127520436Y-95943826D01*
X127522248Y-95952135D01*
X127522376Y-95952708D01*
X127527867Y-95977200D01*
X127672719Y-95977200D01*
X127704342Y-95977163D01*
X127733583Y-95977056D01*
X127759674Y-95976889D01*
X127781845Y-95976668D01*
X127799328Y-95976403D01*
X127811354Y-95976101D01*
X127817154Y-95975771D01*
X127817571Y-95975654D01*
X127816834Y-95971976D01*
X127814697Y-95961726D01*
X127811271Y-95945433D01*
X127806669Y-95923622D01*
X127801003Y-95896820D01*
X127794385Y-95865554D01*
X127786926Y-95830352D01*
X127778740Y-95791739D01*
X127769936Y-95750242D01*
X127760629Y-95706389D01*
X127750929Y-95660706D01*
X127740949Y-95613719D01*
X127730800Y-95565957D01*
X127720595Y-95517945D01*
X127710445Y-95470210D01*
X127700463Y-95423279D01*
X127690760Y-95377679D01*
X127681448Y-95333937D01*
X127672640Y-95292579D01*
X127664447Y-95254132D01*
X127656982Y-95219123D01*
X127650356Y-95188079D01*
X127644681Y-95161527D01*
X127640069Y-95139993D01*
X127636632Y-95124005D01*
X127634483Y-95114088D01*
X127633765Y-95110879D01*
X127631728Y-95102715D01*
X127492421Y-95102715D01*
X127455422Y-95102763D01*
X127425127Y-95102920D01*
X127400981Y-95103205D01*
X127382431Y-95103634D01*
X127368923Y-95104226D01*
X127359905Y-95104999D01*
X127354822Y-95105971D01*
X127353122Y-95107160D01*
X127353115Y-95107250D01*
X127353843Y-95112320D01*
X127355835Y-95123024D01*
X127358808Y-95137906D01*
X127362477Y-95155510D01*
X127363405Y-95159865D01*
X127366980Y-95177389D01*
X127369636Y-95192055D01*
X127371168Y-95202576D01*
X127371368Y-95207666D01*
X127371155Y-95207943D01*
X127367798Y-95205215D01*
X127362059Y-95198258D01*
X127358383Y-95193178D01*
X127345989Y-95177875D01*
X127329270Y-95160753D01*
X127310209Y-95143564D01*
X127290792Y-95128060D01*
X127273002Y-95115992D01*
X127267336Y-95112804D01*
X127242668Y-95100978D01*
X127219591Y-95092518D01*
X127195833Y-95086860D01*
X127169120Y-95083441D01*
X127142435Y-95081878D01*
X127108643Y-95081439D01*
X127080404Y-95083019D01*
G36*
X125425141Y-95755482D02*
G01*
X125398299Y-95765111D01*
X125375164Y-95780915D01*
X125356055Y-95802697D01*
X125345741Y-95820379D01*
X125339455Y-95834082D01*
X125335863Y-95845360D01*
X125334254Y-95857421D01*
X125333916Y-95873470D01*
X125333917Y-95873710D01*
X125334526Y-95891181D01*
X125336617Y-95904603D01*
X125340801Y-95917132D01*
X125343525Y-95923309D01*
X125358833Y-95947967D01*
X125379687Y-95968858D01*
X125401726Y-95983139D01*
X125419213Y-95989591D01*
X125440137Y-95993582D01*
X125461797Y-95994890D01*
X125481488Y-95993297D01*
X125492223Y-95990501D01*
X125520305Y-95976916D01*
X125542834Y-95958972D01*
X125560458Y-95936069D01*
X125568663Y-95920339D01*
X125573455Y-95906928D01*
X125575991Y-95891777D01*
X125576751Y-95873721D01*
X125576605Y-95865240D01*
X125552963Y-95865240D01*
X125552402Y-95888666D01*
X125547943Y-95906837D01*
X125535622Y-95929783D01*
X125518522Y-95948273D01*
X125497781Y-95961803D01*
X125474540Y-95969870D01*
X125449939Y-95971970D01*
X125425118Y-95967599D01*
X125417063Y-95964647D01*
X125396529Y-95952338D01*
X125379334Y-95934737D01*
X125366518Y-95913435D01*
X125359119Y-95890023D01*
X125357712Y-95873786D01*
X125361223Y-95846624D01*
X125370884Y-95822781D01*
X125386338Y-95802878D01*
X125407225Y-95787538D01*
X125407594Y-95787337D01*
X125431991Y-95777940D01*
X125457142Y-95775137D01*
X125481832Y-95778609D01*
X125504850Y-95788038D01*
X125524980Y-95803108D01*
X125540110Y-95822010D01*
X125548779Y-95842083D01*
X125552963Y-95865240D01*
X125576605Y-95865240D01*
X125576473Y-95857657D01*
X125574936Y-95845634D01*
X125571437Y-95834460D01*
X125565272Y-95820939D01*
X125565002Y-95820390D01*
X125548751Y-95794744D01*
X125528261Y-95774944D01*
X125503851Y-95761187D01*
X125475840Y-95753673D01*
X125455371Y-95752229D01*
X125425141Y-95755482D01*
G37*
X125425141Y-95755482D02*
X125398299Y-95765111D01*
X125375164Y-95780915D01*
X125356055Y-95802697D01*
X125345741Y-95820379D01*
X125339455Y-95834082D01*
X125335863Y-95845360D01*
X125334254Y-95857421D01*
X125333916Y-95873470D01*
X125333917Y-95873710D01*
X125334526Y-95891181D01*
X125336617Y-95904603D01*
X125340801Y-95917132D01*
X125343525Y-95923309D01*
X125358833Y-95947967D01*
X125379687Y-95968858D01*
X125401726Y-95983139D01*
X125419213Y-95989591D01*
X125440137Y-95993582D01*
X125461797Y-95994890D01*
X125481488Y-95993297D01*
X125492223Y-95990501D01*
X125520305Y-95976916D01*
X125542834Y-95958972D01*
X125560458Y-95936069D01*
X125568663Y-95920339D01*
X125573455Y-95906928D01*
X125575991Y-95891777D01*
X125576751Y-95873721D01*
X125576605Y-95865240D01*
X125552963Y-95865240D01*
X125552402Y-95888666D01*
X125547943Y-95906837D01*
X125535622Y-95929783D01*
X125518522Y-95948273D01*
X125497781Y-95961803D01*
X125474540Y-95969870D01*
X125449939Y-95971970D01*
X125425118Y-95967599D01*
X125417063Y-95964647D01*
X125396529Y-95952338D01*
X125379334Y-95934737D01*
X125366518Y-95913435D01*
X125359119Y-95890023D01*
X125357712Y-95873786D01*
X125361223Y-95846624D01*
X125370884Y-95822781D01*
X125386338Y-95802878D01*
X125407225Y-95787538D01*
X125407594Y-95787337D01*
X125431991Y-95777940D01*
X125457142Y-95775137D01*
X125481832Y-95778609D01*
X125504850Y-95788038D01*
X125524980Y-95803108D01*
X125540110Y-95822010D01*
X125548779Y-95842083D01*
X125552963Y-95865240D01*
X125576605Y-95865240D01*
X125576473Y-95857657D01*
X125574936Y-95845634D01*
X125571437Y-95834460D01*
X125565272Y-95820939D01*
X125565002Y-95820390D01*
X125548751Y-95794744D01*
X125528261Y-95774944D01*
X125503851Y-95761187D01*
X125475840Y-95753673D01*
X125455371Y-95752229D01*
X125425141Y-95755482D01*
G36*
X126413569Y-95081912D02*
G01*
X126384340Y-95083428D01*
X126357423Y-95085658D01*
X126334523Y-95088541D01*
X126318971Y-95091588D01*
X126279727Y-95104240D01*
X126246218Y-95121043D01*
X126218234Y-95142253D01*
X126195566Y-95168125D01*
X126178001Y-95198915D01*
X126165332Y-95234879D01*
X126157346Y-95276273D01*
X126155805Y-95290074D01*
X126154162Y-95315822D01*
X126154100Y-95342957D01*
X126155717Y-95372345D01*
X126159111Y-95404849D01*
X126164380Y-95441334D01*
X126171620Y-95482665D01*
X126180931Y-95529705D01*
X126185176Y-95549936D01*
X126193472Y-95588943D01*
X126410192Y-95588943D01*
X126455346Y-95588953D01*
X126493786Y-95588994D01*
X126526056Y-95589082D01*
X126552699Y-95589232D01*
X126574258Y-95589460D01*
X126591276Y-95589783D01*
X126604297Y-95590215D01*
X126613864Y-95590772D01*
X126620521Y-95591471D01*
X126624811Y-95592327D01*
X126627276Y-95593356D01*
X126628461Y-95594574D01*
X126628753Y-95595293D01*
X126630063Y-95600805D01*
X126632549Y-95612136D01*
X126635933Y-95627994D01*
X126639941Y-95647087D01*
X126643512Y-95664321D01*
X126650635Y-95702574D01*
X126654819Y-95734613D01*
X126655955Y-95760911D01*
X126653933Y-95781937D01*
X126648644Y-95798162D01*
X126639977Y-95810056D01*
X126627823Y-95818090D01*
X126612072Y-95822735D01*
X126606373Y-95823568D01*
X126582146Y-95823071D01*
X126559982Y-95815708D01*
X126539986Y-95801598D01*
X126522262Y-95780864D01*
X126506915Y-95753625D01*
X126494050Y-95720002D01*
X126484247Y-95682379D01*
X126482119Y-95672400D01*
X126351560Y-95672400D01*
X126321592Y-95672485D01*
X126294047Y-95672725D01*
X126269734Y-95673102D01*
X126249463Y-95673595D01*
X126234045Y-95674186D01*
X126224288Y-95674854D01*
X126221000Y-95675557D01*
X126221976Y-95680143D01*
X126224615Y-95690103D01*
X126228490Y-95703861D01*
X126232140Y-95716378D01*
X126251211Y-95770360D01*
X126274814Y-95818687D01*
X126302934Y-95861346D01*
X126335559Y-95898326D01*
X126372673Y-95929612D01*
X126414265Y-95955194D01*
X126460319Y-95975058D01*
X126510823Y-95989191D01*
X126533157Y-95993383D01*
X126549766Y-95995553D01*
X126570698Y-95997501D01*
X126594152Y-95999142D01*
X126618329Y-96000390D01*
X126641430Y-96001157D01*
X126661655Y-96001358D01*
X126677205Y-96000907D01*
X126681829Y-96000511D01*
X126715108Y-95996450D01*
X126742409Y-95992444D01*
X126765005Y-95988194D01*
X126784165Y-95983400D01*
X126801160Y-95977762D01*
X126817263Y-95970980D01*
X126826971Y-95966264D01*
X126856081Y-95948622D01*
X126880154Y-95927492D01*
X126899409Y-95902424D01*
X126914065Y-95872966D01*
X126924342Y-95838666D01*
X126930458Y-95799073D01*
X126932634Y-95753736D01*
X126932642Y-95748600D01*
X126931228Y-95703055D01*
X126927044Y-95656753D01*
X126919859Y-95607648D01*
X126912201Y-95566953D01*
X126895695Y-95493872D01*
X126877224Y-95427596D01*
X126876062Y-95424230D01*
X126591114Y-95424230D01*
X126591114Y-95432915D01*
X126511286Y-95432915D01*
X126488096Y-95432853D01*
X126467554Y-95432682D01*
X126450696Y-95432418D01*
X126438558Y-95432081D01*
X126432176Y-95431689D01*
X126431457Y-95431500D01*
X126430785Y-95427562D01*
X126428980Y-95418141D01*
X126426357Y-95404862D01*
X126424602Y-95396121D01*
X126419408Y-95368722D01*
X126416130Y-95346938D01*
X126414657Y-95329415D01*
X126414878Y-95314800D01*
X126416682Y-95301739D01*
X126416828Y-95301023D01*
X126423330Y-95282438D01*
X126434358Y-95269307D01*
X126450615Y-95260911D01*
X126458325Y-95258811D01*
X126482946Y-95256750D01*
X126506134Y-95261566D01*
X126527207Y-95272917D01*
X126545481Y-95290463D01*
X126557435Y-95308377D01*
X126562925Y-95320375D01*
X126569093Y-95336972D01*
X126575397Y-95356299D01*
X126581293Y-95376488D01*
X126586239Y-95395671D01*
X126589691Y-95411979D01*
X126591105Y-95423544D01*
X126591114Y-95424230D01*
X126876062Y-95424230D01*
X126856600Y-95367890D01*
X126833634Y-95314523D01*
X126808136Y-95267262D01*
X126779917Y-95225875D01*
X126748787Y-95190127D01*
X126714557Y-95159787D01*
X126677037Y-95134622D01*
X126636039Y-95114399D01*
X126591373Y-95098885D01*
X126542848Y-95087848D01*
X126519445Y-95084245D01*
X126498047Y-95082277D01*
X126472129Y-95081274D01*
X126443401Y-95081173D01*
X126413569Y-95081912D01*
G37*
X126413569Y-95081912D02*
X126384340Y-95083428D01*
X126357423Y-95085658D01*
X126334523Y-95088541D01*
X126318971Y-95091588D01*
X126279727Y-95104240D01*
X126246218Y-95121043D01*
X126218234Y-95142253D01*
X126195566Y-95168125D01*
X126178001Y-95198915D01*
X126165332Y-95234879D01*
X126157346Y-95276273D01*
X126155805Y-95290074D01*
X126154162Y-95315822D01*
X126154100Y-95342957D01*
X126155717Y-95372345D01*
X126159111Y-95404849D01*
X126164380Y-95441334D01*
X126171620Y-95482665D01*
X126180931Y-95529705D01*
X126185176Y-95549936D01*
X126193472Y-95588943D01*
X126410192Y-95588943D01*
X126455346Y-95588953D01*
X126493786Y-95588994D01*
X126526056Y-95589082D01*
X126552699Y-95589232D01*
X126574258Y-95589460D01*
X126591276Y-95589783D01*
X126604297Y-95590215D01*
X126613864Y-95590772D01*
X126620521Y-95591471D01*
X126624811Y-95592327D01*
X126627276Y-95593356D01*
X126628461Y-95594574D01*
X126628753Y-95595293D01*
X126630063Y-95600805D01*
X126632549Y-95612136D01*
X126635933Y-95627994D01*
X126639941Y-95647087D01*
X126643512Y-95664321D01*
X126650635Y-95702574D01*
X126654819Y-95734613D01*
X126655955Y-95760911D01*
X126653933Y-95781937D01*
X126648644Y-95798162D01*
X126639977Y-95810056D01*
X126627823Y-95818090D01*
X126612072Y-95822735D01*
X126606373Y-95823568D01*
X126582146Y-95823071D01*
X126559982Y-95815708D01*
X126539986Y-95801598D01*
X126522262Y-95780864D01*
X126506915Y-95753625D01*
X126494050Y-95720002D01*
X126484247Y-95682379D01*
X126482119Y-95672400D01*
X126351560Y-95672400D01*
X126321592Y-95672485D01*
X126294047Y-95672725D01*
X126269734Y-95673102D01*
X126249463Y-95673595D01*
X126234045Y-95674186D01*
X126224288Y-95674854D01*
X126221000Y-95675557D01*
X126221976Y-95680143D01*
X126224615Y-95690103D01*
X126228490Y-95703861D01*
X126232140Y-95716378D01*
X126251211Y-95770360D01*
X126274814Y-95818687D01*
X126302934Y-95861346D01*
X126335559Y-95898326D01*
X126372673Y-95929612D01*
X126414265Y-95955194D01*
X126460319Y-95975058D01*
X126510823Y-95989191D01*
X126533157Y-95993383D01*
X126549766Y-95995553D01*
X126570698Y-95997501D01*
X126594152Y-95999142D01*
X126618329Y-96000390D01*
X126641430Y-96001157D01*
X126661655Y-96001358D01*
X126677205Y-96000907D01*
X126681829Y-96000511D01*
X126715108Y-95996450D01*
X126742409Y-95992444D01*
X126765005Y-95988194D01*
X126784165Y-95983400D01*
X126801160Y-95977762D01*
X126817263Y-95970980D01*
X126826971Y-95966264D01*
X126856081Y-95948622D01*
X126880154Y-95927492D01*
X126899409Y-95902424D01*
X126914065Y-95872966D01*
X126924342Y-95838666D01*
X126930458Y-95799073D01*
X126932634Y-95753736D01*
X126932642Y-95748600D01*
X126931228Y-95703055D01*
X126927044Y-95656753D01*
X126919859Y-95607648D01*
X126912201Y-95566953D01*
X126895695Y-95493872D01*
X126877224Y-95427596D01*
X126876062Y-95424230D01*
X126591114Y-95424230D01*
X126591114Y-95432915D01*
X126511286Y-95432915D01*
X126488096Y-95432853D01*
X126467554Y-95432682D01*
X126450696Y-95432418D01*
X126438558Y-95432081D01*
X126432176Y-95431689D01*
X126431457Y-95431500D01*
X126430785Y-95427562D01*
X126428980Y-95418141D01*
X126426357Y-95404862D01*
X126424602Y-95396121D01*
X126419408Y-95368722D01*
X126416130Y-95346938D01*
X126414657Y-95329415D01*
X126414878Y-95314800D01*
X126416682Y-95301739D01*
X126416828Y-95301023D01*
X126423330Y-95282438D01*
X126434358Y-95269307D01*
X126450615Y-95260911D01*
X126458325Y-95258811D01*
X126482946Y-95256750D01*
X126506134Y-95261566D01*
X126527207Y-95272917D01*
X126545481Y-95290463D01*
X126557435Y-95308377D01*
X126562925Y-95320375D01*
X126569093Y-95336972D01*
X126575397Y-95356299D01*
X126581293Y-95376488D01*
X126586239Y-95395671D01*
X126589691Y-95411979D01*
X126591105Y-95423544D01*
X126591114Y-95424230D01*
X126876062Y-95424230D01*
X126856600Y-95367890D01*
X126833634Y-95314523D01*
X126808136Y-95267262D01*
X126779917Y-95225875D01*
X126748787Y-95190127D01*
X126714557Y-95159787D01*
X126677037Y-95134622D01*
X126636039Y-95114399D01*
X126591373Y-95098885D01*
X126542848Y-95087848D01*
X126519445Y-95084245D01*
X126498047Y-95082277D01*
X126472129Y-95081274D01*
X126443401Y-95081173D01*
X126413569Y-95081912D01*
G36*
X129301710Y-95081270D02*
G01*
X129272385Y-95082336D01*
X129246645Y-95084318D01*
X129230468Y-95086480D01*
X129186194Y-95096574D01*
X129147997Y-95110620D01*
X129115844Y-95128657D01*
X129089700Y-95150723D01*
X129069534Y-95176856D01*
X129055310Y-95207093D01*
X129046995Y-95241474D01*
X129044556Y-95280037D01*
X129045219Y-95296665D01*
X129046482Y-95312937D01*
X129047947Y-95327807D01*
X129049360Y-95338794D01*
X129049801Y-95341293D01*
X129052193Y-95353086D01*
X129304071Y-95353086D01*
X129301273Y-95332467D01*
X129300099Y-95307660D01*
X129304069Y-95287955D01*
X129313268Y-95273249D01*
X129327779Y-95263439D01*
X129347688Y-95258425D01*
X129363343Y-95257686D01*
X129389840Y-95261095D01*
X129412544Y-95270291D01*
X129430886Y-95284822D01*
X129444299Y-95304235D01*
X129452215Y-95328078D01*
X129452299Y-95328525D01*
X129452356Y-95347132D01*
X129445355Y-95364348D01*
X129431385Y-95380058D01*
X129410532Y-95394146D01*
X129397924Y-95400379D01*
X129387203Y-95404733D01*
X129371179Y-95410647D01*
X129351486Y-95417549D01*
X129329756Y-95424862D01*
X129312061Y-95430605D01*
X129273223Y-95443680D01*
X129240615Y-95456266D01*
X129213273Y-95468838D01*
X129190233Y-95481866D01*
X129170531Y-95495824D01*
X129159066Y-95505613D01*
X129136008Y-95531400D01*
X129118421Y-95561043D01*
X129107080Y-95593159D01*
X129105268Y-95601643D01*
X129103089Y-95622466D01*
X129103031Y-95647769D01*
X129104944Y-95675144D01*
X129108677Y-95702178D01*
X129112733Y-95721386D01*
X129120712Y-95746249D01*
X129132464Y-95774079D01*
X129146800Y-95802554D01*
X129162527Y-95829346D01*
X129178454Y-95852133D01*
X129181971Y-95856504D01*
X129215863Y-95891778D01*
X129255179Y-95922846D01*
X129299148Y-95949284D01*
X129347001Y-95970668D01*
X129397967Y-95986572D01*
X129430438Y-95993433D01*
X129455636Y-95996821D01*
X129485474Y-95999260D01*
X129517386Y-96000658D01*
X129548806Y-96000924D01*
X129577167Y-95999967D01*
X129588889Y-95999051D01*
X129635192Y-95992385D01*
X129676655Y-95981946D01*
X129712867Y-95967903D01*
X129743413Y-95950421D01*
X129767880Y-95929668D01*
X129772034Y-95925111D01*
X129786030Y-95905528D01*
X129798333Y-95881814D01*
X129807427Y-95857095D01*
X129810000Y-95846808D01*
X129811378Y-95835401D01*
X129812158Y-95818693D01*
X129812376Y-95798609D01*
X129812069Y-95777079D01*
X129811275Y-95756029D01*
X129810031Y-95737386D01*
X129808373Y-95723077D01*
X129807526Y-95718665D01*
X129805183Y-95708686D01*
X129551451Y-95708686D01*
X129553972Y-95732230D01*
X129555229Y-95757248D01*
X129552837Y-95777072D01*
X129546552Y-95792917D01*
X129540047Y-95801908D01*
X129523988Y-95815756D01*
X129505461Y-95823213D01*
X129483957Y-95824391D01*
X129459223Y-95819478D01*
X129435774Y-95809237D01*
X129416083Y-95794084D01*
X129401149Y-95775109D01*
X129391972Y-95753402D01*
X129390141Y-95744224D01*
X129390177Y-95724014D01*
X129396551Y-95706242D01*
X129409697Y-95689776D01*
X129411760Y-95687826D01*
X129420593Y-95680376D01*
X129430614Y-95673513D01*
X129442826Y-95666767D01*
X129458233Y-95659664D01*
X129477835Y-95651733D01*
X129502638Y-95642502D01*
X129524814Y-95634597D01*
X129566862Y-95618983D01*
X129602449Y-95603909D01*
X129632303Y-95588933D01*
X129657156Y-95573615D01*
X129677735Y-95557513D01*
X129694770Y-95540186D01*
X129706788Y-95524488D01*
X129715571Y-95510164D01*
X129723355Y-95494926D01*
X129728211Y-95482759D01*
X129733468Y-95458597D01*
X129736031Y-95430247D01*
X129735819Y-95400292D01*
X129732752Y-95371316D01*
X129731861Y-95366249D01*
X129719306Y-95317740D01*
X129700762Y-95273202D01*
X129676426Y-95232808D01*
X129646492Y-95196729D01*
X129611156Y-95165138D01*
X129570613Y-95138207D01*
X129525057Y-95116108D01*
X129474685Y-95099012D01*
X129419691Y-95087092D01*
X129414143Y-95086221D01*
X129390838Y-95083596D01*
X129362973Y-95081897D01*
X129332585Y-95081123D01*
X129301710Y-95081270D01*
G37*
X129301710Y-95081270D02*
X129272385Y-95082336D01*
X129246645Y-95084318D01*
X129230468Y-95086480D01*
X129186194Y-95096574D01*
X129147997Y-95110620D01*
X129115844Y-95128657D01*
X129089700Y-95150723D01*
X129069534Y-95176856D01*
X129055310Y-95207093D01*
X129046995Y-95241474D01*
X129044556Y-95280037D01*
X129045219Y-95296665D01*
X129046482Y-95312937D01*
X129047947Y-95327807D01*
X129049360Y-95338794D01*
X129049801Y-95341293D01*
X129052193Y-95353086D01*
X129304071Y-95353086D01*
X129301273Y-95332467D01*
X129300099Y-95307660D01*
X129304069Y-95287955D01*
X129313268Y-95273249D01*
X129327779Y-95263439D01*
X129347688Y-95258425D01*
X129363343Y-95257686D01*
X129389840Y-95261095D01*
X129412544Y-95270291D01*
X129430886Y-95284822D01*
X129444299Y-95304235D01*
X129452215Y-95328078D01*
X129452299Y-95328525D01*
X129452356Y-95347132D01*
X129445355Y-95364348D01*
X129431385Y-95380058D01*
X129410532Y-95394146D01*
X129397924Y-95400379D01*
X129387203Y-95404733D01*
X129371179Y-95410647D01*
X129351486Y-95417549D01*
X129329756Y-95424862D01*
X129312061Y-95430605D01*
X129273223Y-95443680D01*
X129240615Y-95456266D01*
X129213273Y-95468838D01*
X129190233Y-95481866D01*
X129170531Y-95495824D01*
X129159066Y-95505613D01*
X129136008Y-95531400D01*
X129118421Y-95561043D01*
X129107080Y-95593159D01*
X129105268Y-95601643D01*
X129103089Y-95622466D01*
X129103031Y-95647769D01*
X129104944Y-95675144D01*
X129108677Y-95702178D01*
X129112733Y-95721386D01*
X129120712Y-95746249D01*
X129132464Y-95774079D01*
X129146800Y-95802554D01*
X129162527Y-95829346D01*
X129178454Y-95852133D01*
X129181971Y-95856504D01*
X129215863Y-95891778D01*
X129255179Y-95922846D01*
X129299148Y-95949284D01*
X129347001Y-95970668D01*
X129397967Y-95986572D01*
X129430438Y-95993433D01*
X129455636Y-95996821D01*
X129485474Y-95999260D01*
X129517386Y-96000658D01*
X129548806Y-96000924D01*
X129577167Y-95999967D01*
X129588889Y-95999051D01*
X129635192Y-95992385D01*
X129676655Y-95981946D01*
X129712867Y-95967903D01*
X129743413Y-95950421D01*
X129767880Y-95929668D01*
X129772034Y-95925111D01*
X129786030Y-95905528D01*
X129798333Y-95881814D01*
X129807427Y-95857095D01*
X129810000Y-95846808D01*
X129811378Y-95835401D01*
X129812158Y-95818693D01*
X129812376Y-95798609D01*
X129812069Y-95777079D01*
X129811275Y-95756029D01*
X129810031Y-95737386D01*
X129808373Y-95723077D01*
X129807526Y-95718665D01*
X129805183Y-95708686D01*
X129551451Y-95708686D01*
X129553972Y-95732230D01*
X129555229Y-95757248D01*
X129552837Y-95777072D01*
X129546552Y-95792917D01*
X129540047Y-95801908D01*
X129523988Y-95815756D01*
X129505461Y-95823213D01*
X129483957Y-95824391D01*
X129459223Y-95819478D01*
X129435774Y-95809237D01*
X129416083Y-95794084D01*
X129401149Y-95775109D01*
X129391972Y-95753402D01*
X129390141Y-95744224D01*
X129390177Y-95724014D01*
X129396551Y-95706242D01*
X129409697Y-95689776D01*
X129411760Y-95687826D01*
X129420593Y-95680376D01*
X129430614Y-95673513D01*
X129442826Y-95666767D01*
X129458233Y-95659664D01*
X129477835Y-95651733D01*
X129502638Y-95642502D01*
X129524814Y-95634597D01*
X129566862Y-95618983D01*
X129602449Y-95603909D01*
X129632303Y-95588933D01*
X129657156Y-95573615D01*
X129677735Y-95557513D01*
X129694770Y-95540186D01*
X129706788Y-95524488D01*
X129715571Y-95510164D01*
X129723355Y-95494926D01*
X129728211Y-95482759D01*
X129733468Y-95458597D01*
X129736031Y-95430247D01*
X129735819Y-95400292D01*
X129732752Y-95371316D01*
X129731861Y-95366249D01*
X129719306Y-95317740D01*
X129700762Y-95273202D01*
X129676426Y-95232808D01*
X129646492Y-95196729D01*
X129611156Y-95165138D01*
X129570613Y-95138207D01*
X129525057Y-95116108D01*
X129474685Y-95099012D01*
X129419691Y-95087092D01*
X129414143Y-95086221D01*
X129390838Y-95083596D01*
X129362973Y-95081897D01*
X129332585Y-95081123D01*
X129301710Y-95081270D01*
G36*
X130046361Y-95081984D02*
G01*
X130016958Y-95083567D01*
X129990183Y-95085905D01*
X129967733Y-95088938D01*
X129955322Y-95091487D01*
X129915994Y-95104420D01*
X129882218Y-95121984D01*
X129853834Y-95144330D01*
X129830684Y-95171612D01*
X129812609Y-95203981D01*
X129799716Y-95240600D01*
X129796865Y-95255959D01*
X129794814Y-95276985D01*
X129793561Y-95302137D01*
X129793100Y-95329869D01*
X129793430Y-95358637D01*
X129794547Y-95386899D01*
X129796447Y-95413109D01*
X129799127Y-95435724D01*
X129800156Y-95441986D01*
X129803001Y-95457177D01*
X129806720Y-95475994D01*
X129810997Y-95496946D01*
X129815515Y-95518540D01*
X129819957Y-95539283D01*
X129824007Y-95557683D01*
X129827348Y-95572248D01*
X129829664Y-95581485D01*
X129829977Y-95582565D01*
X129830745Y-95583885D01*
X129832544Y-95585013D01*
X129835918Y-95585968D01*
X129841411Y-95586767D01*
X129849567Y-95587429D01*
X129860928Y-95587971D01*
X129876038Y-95588412D01*
X129895440Y-95588769D01*
X129919678Y-95589061D01*
X129949294Y-95589306D01*
X129984834Y-95589522D01*
X130026839Y-95589727D01*
X130048293Y-95589822D01*
X130264687Y-95590758D01*
X130278522Y-95654258D01*
X130286099Y-95691884D01*
X130290985Y-95723402D01*
X130293141Y-95749455D01*
X130292532Y-95770688D01*
X130289120Y-95787746D01*
X130282869Y-95801274D01*
X130273742Y-95811917D01*
X130269300Y-95815495D01*
X130258283Y-95820232D01*
X130242890Y-95822766D01*
X130225670Y-95823063D01*
X130209173Y-95821088D01*
X130195948Y-95816806D01*
X130195362Y-95816500D01*
X130181253Y-95807413D01*
X130168904Y-95795827D01*
X130157880Y-95780943D01*
X130147744Y-95761958D01*
X130138062Y-95738072D01*
X130128399Y-95708482D01*
X130119523Y-95676936D01*
X130117625Y-95675689D01*
X130112282Y-95674675D01*
X130102926Y-95673875D01*
X130088989Y-95673270D01*
X130069903Y-95672840D01*
X130045099Y-95672566D01*
X130014009Y-95672427D01*
X129987911Y-95672400D01*
X129857508Y-95672400D01*
X129859345Y-95680565D01*
X129874843Y-95736126D01*
X129895170Y-95786911D01*
X129920140Y-95832697D01*
X129949566Y-95873258D01*
X129983259Y-95908371D01*
X130021034Y-95937810D01*
X130062702Y-95961351D01*
X130108034Y-95978757D01*
X130146952Y-95988420D01*
X130190535Y-95995557D01*
X130236574Y-95999971D01*
X130282861Y-96001469D01*
X130327187Y-95999855D01*
X130337123Y-95998999D01*
X130384710Y-95992286D01*
X130426234Y-95981869D01*
X130461946Y-95967611D01*
X130492102Y-95949376D01*
X130516956Y-95927030D01*
X130536761Y-95900434D01*
X130543203Y-95888821D01*
X130552557Y-95868533D01*
X130559508Y-95848522D01*
X130564352Y-95827202D01*
X130567390Y-95802987D01*
X130568919Y-95774292D01*
X130569252Y-95750415D01*
X130568555Y-95713637D01*
X130566137Y-95677279D01*
X130561793Y-95639709D01*
X130555321Y-95599297D01*
X130546514Y-95554412D01*
X130542221Y-95534515D01*
X130525309Y-95465537D01*
X130514554Y-95430087D01*
X130230571Y-95430087D01*
X130230571Y-95430102D01*
X130227154Y-95431102D01*
X130217738Y-95431879D01*
X130203579Y-95432439D01*
X130185932Y-95432787D01*
X130166053Y-95432930D01*
X130145196Y-95432875D01*
X130124616Y-95432626D01*
X130105570Y-95432190D01*
X130089312Y-95431574D01*
X130077097Y-95430782D01*
X130070181Y-95429822D01*
X130069123Y-95429324D01*
X130066595Y-95422372D01*
X130063677Y-95409938D01*
X130060642Y-95393764D01*
X130057763Y-95375596D01*
X130055314Y-95357177D01*
X130053566Y-95340251D01*
X130052792Y-95326562D01*
X130052777Y-95324836D01*
X130054633Y-95300492D01*
X130060453Y-95282034D01*
X130070632Y-95269029D01*
X130085566Y-95261044D01*
X130105650Y-95257646D01*
X130114271Y-95257463D01*
X130139468Y-95260751D01*
X130161149Y-95270219D01*
X130179520Y-95286016D01*
X130194789Y-95308292D01*
X130200420Y-95319829D01*
X130203774Y-95328810D01*
X130208154Y-95342482D01*
X130213107Y-95359184D01*
X130218177Y-95377258D01*
X130222913Y-95395044D01*
X130226859Y-95410884D01*
X130229564Y-95423118D01*
X130230571Y-95430087D01*
X130514554Y-95430087D01*
X130506414Y-95403262D01*
X130485369Y-95347367D01*
X130462004Y-95297527D01*
X130436154Y-95253420D01*
X130407649Y-95214721D01*
X130376321Y-95181108D01*
X130345187Y-95154641D01*
X130312533Y-95133559D01*
X130274406Y-95115307D01*
X130232211Y-95100408D01*
X130187358Y-95089385D01*
X130156267Y-95084396D01*
X130133343Y-95082362D01*
X130106251Y-95081321D01*
X130076691Y-95081215D01*
X130046361Y-95081984D01*
G37*
X130046361Y-95081984D02*
X130016958Y-95083567D01*
X129990183Y-95085905D01*
X129967733Y-95088938D01*
X129955322Y-95091487D01*
X129915994Y-95104420D01*
X129882218Y-95121984D01*
X129853834Y-95144330D01*
X129830684Y-95171612D01*
X129812609Y-95203981D01*
X129799716Y-95240600D01*
X129796865Y-95255959D01*
X129794814Y-95276985D01*
X129793561Y-95302137D01*
X129793100Y-95329869D01*
X129793430Y-95358637D01*
X129794547Y-95386899D01*
X129796447Y-95413109D01*
X129799127Y-95435724D01*
X129800156Y-95441986D01*
X129803001Y-95457177D01*
X129806720Y-95475994D01*
X129810997Y-95496946D01*
X129815515Y-95518540D01*
X129819957Y-95539283D01*
X129824007Y-95557683D01*
X129827348Y-95572248D01*
X129829664Y-95581485D01*
X129829977Y-95582565D01*
X129830745Y-95583885D01*
X129832544Y-95585013D01*
X129835918Y-95585968D01*
X129841411Y-95586767D01*
X129849567Y-95587429D01*
X129860928Y-95587971D01*
X129876038Y-95588412D01*
X129895440Y-95588769D01*
X129919678Y-95589061D01*
X129949294Y-95589306D01*
X129984834Y-95589522D01*
X130026839Y-95589727D01*
X130048293Y-95589822D01*
X130264687Y-95590758D01*
X130278522Y-95654258D01*
X130286099Y-95691884D01*
X130290985Y-95723402D01*
X130293141Y-95749455D01*
X130292532Y-95770688D01*
X130289120Y-95787746D01*
X130282869Y-95801274D01*
X130273742Y-95811917D01*
X130269300Y-95815495D01*
X130258283Y-95820232D01*
X130242890Y-95822766D01*
X130225670Y-95823063D01*
X130209173Y-95821088D01*
X130195948Y-95816806D01*
X130195362Y-95816500D01*
X130181253Y-95807413D01*
X130168904Y-95795827D01*
X130157880Y-95780943D01*
X130147744Y-95761958D01*
X130138062Y-95738072D01*
X130128399Y-95708482D01*
X130119523Y-95676936D01*
X130117625Y-95675689D01*
X130112282Y-95674675D01*
X130102926Y-95673875D01*
X130088989Y-95673270D01*
X130069903Y-95672840D01*
X130045099Y-95672566D01*
X130014009Y-95672427D01*
X129987911Y-95672400D01*
X129857508Y-95672400D01*
X129859345Y-95680565D01*
X129874843Y-95736126D01*
X129895170Y-95786911D01*
X129920140Y-95832697D01*
X129949566Y-95873258D01*
X129983259Y-95908371D01*
X130021034Y-95937810D01*
X130062702Y-95961351D01*
X130108034Y-95978757D01*
X130146952Y-95988420D01*
X130190535Y-95995557D01*
X130236574Y-95999971D01*
X130282861Y-96001469D01*
X130327187Y-95999855D01*
X130337123Y-95998999D01*
X130384710Y-95992286D01*
X130426234Y-95981869D01*
X130461946Y-95967611D01*
X130492102Y-95949376D01*
X130516956Y-95927030D01*
X130536761Y-95900434D01*
X130543203Y-95888821D01*
X130552557Y-95868533D01*
X130559508Y-95848522D01*
X130564352Y-95827202D01*
X130567390Y-95802987D01*
X130568919Y-95774292D01*
X130569252Y-95750415D01*
X130568555Y-95713637D01*
X130566137Y-95677279D01*
X130561793Y-95639709D01*
X130555321Y-95599297D01*
X130546514Y-95554412D01*
X130542221Y-95534515D01*
X130525309Y-95465537D01*
X130514554Y-95430087D01*
X130230571Y-95430087D01*
X130230571Y-95430102D01*
X130227154Y-95431102D01*
X130217738Y-95431879D01*
X130203579Y-95432439D01*
X130185932Y-95432787D01*
X130166053Y-95432930D01*
X130145196Y-95432875D01*
X130124616Y-95432626D01*
X130105570Y-95432190D01*
X130089312Y-95431574D01*
X130077097Y-95430782D01*
X130070181Y-95429822D01*
X130069123Y-95429324D01*
X130066595Y-95422372D01*
X130063677Y-95409938D01*
X130060642Y-95393764D01*
X130057763Y-95375596D01*
X130055314Y-95357177D01*
X130053566Y-95340251D01*
X130052792Y-95326562D01*
X130052777Y-95324836D01*
X130054633Y-95300492D01*
X130060453Y-95282034D01*
X130070632Y-95269029D01*
X130085566Y-95261044D01*
X130105650Y-95257646D01*
X130114271Y-95257463D01*
X130139468Y-95260751D01*
X130161149Y-95270219D01*
X130179520Y-95286016D01*
X130194789Y-95308292D01*
X130200420Y-95319829D01*
X130203774Y-95328810D01*
X130208154Y-95342482D01*
X130213107Y-95359184D01*
X130218177Y-95377258D01*
X130222913Y-95395044D01*
X130226859Y-95410884D01*
X130229564Y-95423118D01*
X130230571Y-95430087D01*
X130514554Y-95430087D01*
X130506414Y-95403262D01*
X130485369Y-95347367D01*
X130462004Y-95297527D01*
X130436154Y-95253420D01*
X130407649Y-95214721D01*
X130376321Y-95181108D01*
X130345187Y-95154641D01*
X130312533Y-95133559D01*
X130274406Y-95115307D01*
X130232211Y-95100408D01*
X130187358Y-95089385D01*
X130156267Y-95084396D01*
X130133343Y-95082362D01*
X130106251Y-95081321D01*
X130076691Y-95081215D01*
X130046361Y-95081984D01*
G36*
X128191961Y-95082383D02*
G01*
X128171389Y-95084959D01*
X128163955Y-95086575D01*
X128133608Y-95097867D01*
X128107996Y-95114619D01*
X128087273Y-95136663D01*
X128071595Y-95163829D01*
X128061116Y-95195948D01*
X128060286Y-95199779D01*
X128057569Y-95211444D01*
X128055071Y-95219629D01*
X128053446Y-95222458D01*
X128052032Y-95219093D01*
X128049476Y-95209774D01*
X128046062Y-95195662D01*
X128042073Y-95177918D01*
X128038805Y-95162586D01*
X128026323Y-95102715D01*
X127754979Y-95102715D01*
X127756979Y-95112693D01*
X127760875Y-95131867D01*
X127765968Y-95156498D01*
X127772143Y-95186056D01*
X127779285Y-95220013D01*
X127787282Y-95257838D01*
X127796018Y-95299004D01*
X127805380Y-95342981D01*
X127815254Y-95389240D01*
X127825526Y-95437251D01*
X127836081Y-95486487D01*
X127846806Y-95536417D01*
X127857586Y-95586513D01*
X127868308Y-95636245D01*
X127878858Y-95685085D01*
X127889121Y-95732502D01*
X127898983Y-95777970D01*
X127908331Y-95820957D01*
X127917050Y-95860935D01*
X127925027Y-95897376D01*
X127932147Y-95929749D01*
X127938296Y-95957526D01*
X127943360Y-95980178D01*
X127947225Y-95997175D01*
X127949777Y-96007989D01*
X127950745Y-96011672D01*
X127969772Y-96061883D01*
X127993718Y-96106779D01*
X128022610Y-96146384D01*
X128056474Y-96180721D01*
X128095340Y-96209813D01*
X128139234Y-96233683D01*
X128188184Y-96252356D01*
X128242217Y-96265853D01*
X128253000Y-96267824D01*
X128279230Y-96271411D01*
X128310411Y-96274169D01*
X128344275Y-96276020D01*
X128378555Y-96276883D01*
X128410983Y-96276678D01*
X128439291Y-96275327D01*
X128447129Y-96274638D01*
X128495786Y-96267503D01*
X128538299Y-96256515D01*
X128574667Y-96241675D01*
X128604887Y-96222985D01*
X128628958Y-96200446D01*
X128646878Y-96174061D01*
X128658645Y-96143831D01*
X128664258Y-96109757D01*
X128663715Y-96071841D01*
X128662926Y-96064286D01*
X128661362Y-96050848D01*
X128660173Y-96040308D01*
X128659583Y-96034663D01*
X128659559Y-96034350D01*
X128656028Y-96033726D01*
X128646051Y-96033152D01*
X128630439Y-96032645D01*
X128610002Y-96032222D01*
X128585553Y-96031901D01*
X128557901Y-96031698D01*
X128528771Y-96031629D01*
X128398143Y-96031629D01*
X128398129Y-96048865D01*
X128395229Y-96068207D01*
X128386684Y-96083097D01*
X128372681Y-96093404D01*
X128353403Y-96098999D01*
X128329037Y-96099753D01*
X128325822Y-96099516D01*
X128309755Y-96097192D01*
X128294757Y-96093372D01*
X128286421Y-96090076D01*
X128269841Y-96078442D01*
X128254172Y-96061732D01*
X128241203Y-96042075D01*
X128235241Y-96029178D01*
X128232630Y-96020798D01*
X128229045Y-96007099D01*
X128224727Y-95989213D01*
X128219915Y-95968275D01*
X128214850Y-95945418D01*
X128209771Y-95921773D01*
X128204919Y-95898476D01*
X128200534Y-95876658D01*
X128196854Y-95857453D01*
X128194122Y-95841995D01*
X128192575Y-95831416D01*
X128192413Y-95826948D01*
X128194835Y-95827891D01*
X128200121Y-95833737D01*
X128207211Y-95843285D01*
X128208547Y-95845231D01*
X128226338Y-95867783D01*
X128248162Y-95889801D01*
X128271899Y-95909398D01*
X128295429Y-95924685D01*
X128301024Y-95927609D01*
X128330410Y-95940078D01*
X128359997Y-95948142D01*
X128392141Y-95952315D01*
X128418100Y-95953201D01*
X128457340Y-95950646D01*
X128491760Y-95942683D01*
X128521473Y-95929232D01*
X128546589Y-95910210D01*
X128567219Y-95885537D01*
X128583473Y-95855130D01*
X128594174Y-95823832D01*
X128601321Y-95787926D01*
X128604972Y-95746499D01*
X128605216Y-95700340D01*
X128602507Y-95656192D01*
X128310395Y-95656192D01*
X128309538Y-95680286D01*
X128306004Y-95699631D01*
X128299794Y-95714628D01*
X128290903Y-95725676D01*
X128286028Y-95729466D01*
X128271263Y-95735607D01*
X128252971Y-95737740D01*
X128233708Y-95735812D01*
X128218312Y-95730864D01*
X128202880Y-95720781D01*
X128188535Y-95704866D01*
X128175044Y-95682748D01*
X128162171Y-95654053D01*
X128151871Y-95625229D01*
X128141092Y-95589467D01*
X128131150Y-95551132D01*
X128122336Y-95511770D01*
X128114945Y-95472927D01*
X128109268Y-95436148D01*
X128105600Y-95402980D01*
X128104232Y-95374968D01*
X128104229Y-95373834D01*
X128104914Y-95351362D01*
X128107272Y-95334475D01*
X128111762Y-95321605D01*
X128118840Y-95311182D01*
X128124010Y-95305915D01*
X128130511Y-95300876D01*
X128137753Y-95298141D01*
X128148173Y-95297071D01*
X128158042Y-95296965D01*
X128176866Y-95298308D01*
X128190942Y-95301917D01*
X128193386Y-95303073D01*
X128209118Y-95314070D01*
X128223614Y-95329709D01*
X128237067Y-95350409D01*
X128249674Y-95376587D01*
X128261630Y-95408663D01*
X128273129Y-95447055D01*
X128284366Y-95492183D01*
X128287105Y-95504328D01*
X128296931Y-95551418D01*
X128304090Y-95592159D01*
X128308578Y-95626950D01*
X128310395Y-95656192D01*
X128602507Y-95656192D01*
X128602141Y-95650239D01*
X128595834Y-95596986D01*
X128586385Y-95541368D01*
X128573882Y-95484177D01*
X128558413Y-95426201D01*
X128544827Y-95382405D01*
X128523518Y-95323760D01*
X128500423Y-95271978D01*
X128475353Y-95226847D01*
X128448121Y-95188150D01*
X128418542Y-95155673D01*
X128386426Y-95129203D01*
X128351587Y-95108524D01*
X128313837Y-95093421D01*
X128286332Y-95086211D01*
X128265755Y-95083120D01*
X128241558Y-95081456D01*
X128216156Y-95081213D01*
X128191961Y-95082383D01*
G37*
X128191961Y-95082383D02*
X128171389Y-95084959D01*
X128163955Y-95086575D01*
X128133608Y-95097867D01*
X128107996Y-95114619D01*
X128087273Y-95136663D01*
X128071595Y-95163829D01*
X128061116Y-95195948D01*
X128060286Y-95199779D01*
X128057569Y-95211444D01*
X128055071Y-95219629D01*
X128053446Y-95222458D01*
X128052032Y-95219093D01*
X128049476Y-95209774D01*
X128046062Y-95195662D01*
X128042073Y-95177918D01*
X128038805Y-95162586D01*
X128026323Y-95102715D01*
X127754979Y-95102715D01*
X127756979Y-95112693D01*
X127760875Y-95131867D01*
X127765968Y-95156498D01*
X127772143Y-95186056D01*
X127779285Y-95220013D01*
X127787282Y-95257838D01*
X127796018Y-95299004D01*
X127805380Y-95342981D01*
X127815254Y-95389240D01*
X127825526Y-95437251D01*
X127836081Y-95486487D01*
X127846806Y-95536417D01*
X127857586Y-95586513D01*
X127868308Y-95636245D01*
X127878858Y-95685085D01*
X127889121Y-95732502D01*
X127898983Y-95777970D01*
X127908331Y-95820957D01*
X127917050Y-95860935D01*
X127925027Y-95897376D01*
X127932147Y-95929749D01*
X127938296Y-95957526D01*
X127943360Y-95980178D01*
X127947225Y-95997175D01*
X127949777Y-96007989D01*
X127950745Y-96011672D01*
X127969772Y-96061883D01*
X127993718Y-96106779D01*
X128022610Y-96146384D01*
X128056474Y-96180721D01*
X128095340Y-96209813D01*
X128139234Y-96233683D01*
X128188184Y-96252356D01*
X128242217Y-96265853D01*
X128253000Y-96267824D01*
X128279230Y-96271411D01*
X128310411Y-96274169D01*
X128344275Y-96276020D01*
X128378555Y-96276883D01*
X128410983Y-96276678D01*
X128439291Y-96275327D01*
X128447129Y-96274638D01*
X128495786Y-96267503D01*
X128538299Y-96256515D01*
X128574667Y-96241675D01*
X128604887Y-96222985D01*
X128628958Y-96200446D01*
X128646878Y-96174061D01*
X128658645Y-96143831D01*
X128664258Y-96109757D01*
X128663715Y-96071841D01*
X128662926Y-96064286D01*
X128661362Y-96050848D01*
X128660173Y-96040308D01*
X128659583Y-96034663D01*
X128659559Y-96034350D01*
X128656028Y-96033726D01*
X128646051Y-96033152D01*
X128630439Y-96032645D01*
X128610002Y-96032222D01*
X128585553Y-96031901D01*
X128557901Y-96031698D01*
X128528771Y-96031629D01*
X128398143Y-96031629D01*
X128398129Y-96048865D01*
X128395229Y-96068207D01*
X128386684Y-96083097D01*
X128372681Y-96093404D01*
X128353403Y-96098999D01*
X128329037Y-96099753D01*
X128325822Y-96099516D01*
X128309755Y-96097192D01*
X128294757Y-96093372D01*
X128286421Y-96090076D01*
X128269841Y-96078442D01*
X128254172Y-96061732D01*
X128241203Y-96042075D01*
X128235241Y-96029178D01*
X128232630Y-96020798D01*
X128229045Y-96007099D01*
X128224727Y-95989213D01*
X128219915Y-95968275D01*
X128214850Y-95945418D01*
X128209771Y-95921773D01*
X128204919Y-95898476D01*
X128200534Y-95876658D01*
X128196854Y-95857453D01*
X128194122Y-95841995D01*
X128192575Y-95831416D01*
X128192413Y-95826948D01*
X128194835Y-95827891D01*
X128200121Y-95833737D01*
X128207211Y-95843285D01*
X128208547Y-95845231D01*
X128226338Y-95867783D01*
X128248162Y-95889801D01*
X128271899Y-95909398D01*
X128295429Y-95924685D01*
X128301024Y-95927609D01*
X128330410Y-95940078D01*
X128359997Y-95948142D01*
X128392141Y-95952315D01*
X128418100Y-95953201D01*
X128457340Y-95950646D01*
X128491760Y-95942683D01*
X128521473Y-95929232D01*
X128546589Y-95910210D01*
X128567219Y-95885537D01*
X128583473Y-95855130D01*
X128594174Y-95823832D01*
X128601321Y-95787926D01*
X128604972Y-95746499D01*
X128605216Y-95700340D01*
X128602507Y-95656192D01*
X128310395Y-95656192D01*
X128309538Y-95680286D01*
X128306004Y-95699631D01*
X128299794Y-95714628D01*
X128290903Y-95725676D01*
X128286028Y-95729466D01*
X128271263Y-95735607D01*
X128252971Y-95737740D01*
X128233708Y-95735812D01*
X128218312Y-95730864D01*
X128202880Y-95720781D01*
X128188535Y-95704866D01*
X128175044Y-95682748D01*
X128162171Y-95654053D01*
X128151871Y-95625229D01*
X128141092Y-95589467D01*
X128131150Y-95551132D01*
X128122336Y-95511770D01*
X128114945Y-95472927D01*
X128109268Y-95436148D01*
X128105600Y-95402980D01*
X128104232Y-95374968D01*
X128104229Y-95373834D01*
X128104914Y-95351362D01*
X128107272Y-95334475D01*
X128111762Y-95321605D01*
X128118840Y-95311182D01*
X128124010Y-95305915D01*
X128130511Y-95300876D01*
X128137753Y-95298141D01*
X128148173Y-95297071D01*
X128158042Y-95296965D01*
X128176866Y-95298308D01*
X128190942Y-95301917D01*
X128193386Y-95303073D01*
X128209118Y-95314070D01*
X128223614Y-95329709D01*
X128237067Y-95350409D01*
X128249674Y-95376587D01*
X128261630Y-95408663D01*
X128273129Y-95447055D01*
X128284366Y-95492183D01*
X128287105Y-95504328D01*
X128296931Y-95551418D01*
X128304090Y-95592159D01*
X128308578Y-95626950D01*
X128310395Y-95656192D01*
X128602507Y-95656192D01*
X128602141Y-95650239D01*
X128595834Y-95596986D01*
X128586385Y-95541368D01*
X128573882Y-95484177D01*
X128558413Y-95426201D01*
X128544827Y-95382405D01*
X128523518Y-95323760D01*
X128500423Y-95271978D01*
X128475353Y-95226847D01*
X128448121Y-95188150D01*
X128418542Y-95155673D01*
X128386426Y-95129203D01*
X128351587Y-95108524D01*
X128313837Y-95093421D01*
X128286332Y-95086211D01*
X128265755Y-95083120D01*
X128241558Y-95081456D01*
X128216156Y-95081213D01*
X128191961Y-95082383D01*
D10*
X116311155Y-105004222D02*
X116104222Y-106388845D01*
X117695778Y-105211155D02*
X116311155Y-105004222D01*
X117488845Y-106595778D02*
X117695778Y-105211155D01*
X116104222Y-106388845D02*
X117488845Y-106595778D01*
X118311155Y-105304222D02*
X118104222Y-106688845D01*
X119695778Y-105511155D02*
X118311155Y-105304222D01*
X119488845Y-106895778D02*
X119695778Y-105511155D01*
X118104222Y-106688845D02*
X119488845Y-106895778D01*
M02*
