G04 #@! TF.GenerationSoftware,KiCad,Pcbnew,5.1.5-52549c5~84~ubuntu19.10.1*
G04 #@! TF.CreationDate,2020-04-02T17:13:57+02:00*
G04 #@! TF.ProjectId,JEGGER_s-link,4a454747-4552-45f7-932d-6c696e6b2e6b,rev?*
G04 #@! TF.SameCoordinates,Original*
G04 #@! TF.FileFunction,Legend,Top*
G04 #@! TF.FilePolarity,Positive*
%FSLAX46Y46*%
G04 Gerber Fmt 4.6, Leading zero omitted, Abs format (unit mm)*
G04 Created by KiCad (PCBNEW 5.1.5-52549c5~84~ubuntu19.10.1) date 2020-04-02 17:13:57*
%MOMM*%
%LPD*%
G04 APERTURE LIST*
%ADD10C,0.130000*%
%ADD11C,0.120000*%
%ADD12C,0.150000*%
%ADD13C,0.100000*%
G04 APERTURE END LIST*
D10*
X137961904Y-106847142D02*
X137580952Y-107113809D01*
X137961904Y-107304285D02*
X137161904Y-107304285D01*
X137161904Y-106999523D01*
X137200000Y-106923333D01*
X137238095Y-106885238D01*
X137314285Y-106847142D01*
X137428571Y-106847142D01*
X137504761Y-106885238D01*
X137542857Y-106923333D01*
X137580952Y-106999523D01*
X137580952Y-107304285D01*
X137542857Y-106504285D02*
X137542857Y-106237619D01*
X137961904Y-106123333D02*
X137961904Y-106504285D01*
X137161904Y-106504285D01*
X137161904Y-106123333D01*
X137542857Y-105513809D02*
X137542857Y-105780476D01*
X137961904Y-105780476D02*
X137161904Y-105780476D01*
X137161904Y-105399523D01*
X137923809Y-94794761D02*
X137961904Y-94680476D01*
X137961904Y-94490000D01*
X137923809Y-94413809D01*
X137885714Y-94375714D01*
X137809523Y-94337619D01*
X137733333Y-94337619D01*
X137657142Y-94375714D01*
X137619047Y-94413809D01*
X137580952Y-94490000D01*
X137542857Y-94642380D01*
X137504761Y-94718571D01*
X137466666Y-94756666D01*
X137390476Y-94794761D01*
X137314285Y-94794761D01*
X137238095Y-94756666D01*
X137200000Y-94718571D01*
X137161904Y-94642380D01*
X137161904Y-94451904D01*
X137200000Y-94337619D01*
X137161904Y-94070952D02*
X137961904Y-93880476D01*
X137390476Y-93728095D01*
X137961904Y-93575714D01*
X137161904Y-93385238D01*
X137161904Y-92928095D02*
X137161904Y-92775714D01*
X137200000Y-92699523D01*
X137276190Y-92623333D01*
X137428571Y-92585238D01*
X137695238Y-92585238D01*
X137847619Y-92623333D01*
X137923809Y-92699523D01*
X137961904Y-92775714D01*
X137961904Y-92928095D01*
X137923809Y-93004285D01*
X137847619Y-93080476D01*
X137695238Y-93118571D01*
X137428571Y-93118571D01*
X137276190Y-93080476D01*
X137200000Y-93004285D01*
X137161904Y-92928095D01*
X137428571Y-97172857D02*
X137961904Y-97172857D01*
X137504761Y-97172857D02*
X137466666Y-97144285D01*
X137428571Y-97087142D01*
X137428571Y-97001428D01*
X137466666Y-96944285D01*
X137542857Y-96915714D01*
X137961904Y-96915714D01*
X137961904Y-96287142D02*
X137580952Y-96487142D01*
X137961904Y-96630000D02*
X137161904Y-96630000D01*
X137161904Y-96401428D01*
X137200000Y-96344285D01*
X137238095Y-96315714D01*
X137314285Y-96287142D01*
X137428571Y-96287142D01*
X137504761Y-96315714D01*
X137542857Y-96344285D01*
X137580952Y-96401428D01*
X137580952Y-96630000D01*
X137923809Y-96058571D02*
X137961904Y-95972857D01*
X137961904Y-95830000D01*
X137923809Y-95772857D01*
X137885714Y-95744285D01*
X137809523Y-95715714D01*
X137733333Y-95715714D01*
X137657142Y-95744285D01*
X137619047Y-95772857D01*
X137580952Y-95830000D01*
X137542857Y-95944285D01*
X137504761Y-96001428D01*
X137466666Y-96030000D01*
X137390476Y-96058571D01*
X137314285Y-96058571D01*
X137238095Y-96030000D01*
X137200000Y-96001428D01*
X137161904Y-95944285D01*
X137161904Y-95801428D01*
X137200000Y-95715714D01*
X137161904Y-95544285D02*
X137161904Y-95201428D01*
X137961904Y-95372857D02*
X137161904Y-95372857D01*
X137961904Y-99594047D02*
X137161904Y-99594047D01*
X137161904Y-99403571D01*
X137200000Y-99289285D01*
X137276190Y-99213095D01*
X137352380Y-99175000D01*
X137504761Y-99136904D01*
X137619047Y-99136904D01*
X137771428Y-99175000D01*
X137847619Y-99213095D01*
X137923809Y-99289285D01*
X137961904Y-99403571D01*
X137961904Y-99594047D01*
X137961904Y-98794047D02*
X137161904Y-98794047D01*
X137161904Y-98260714D02*
X137161904Y-98108333D01*
X137200000Y-98032142D01*
X137276190Y-97955952D01*
X137428571Y-97917857D01*
X137695238Y-97917857D01*
X137847619Y-97955952D01*
X137923809Y-98032142D01*
X137961904Y-98108333D01*
X137961904Y-98260714D01*
X137923809Y-98336904D01*
X137847619Y-98413095D01*
X137695238Y-98451190D01*
X137428571Y-98451190D01*
X137276190Y-98413095D01*
X137200000Y-98336904D01*
X137161904Y-98260714D01*
X137200000Y-101909523D02*
X137161904Y-101985714D01*
X137161904Y-102100000D01*
X137200000Y-102214285D01*
X137276190Y-102290476D01*
X137352380Y-102328571D01*
X137504761Y-102366666D01*
X137619047Y-102366666D01*
X137771428Y-102328571D01*
X137847619Y-102290476D01*
X137923809Y-102214285D01*
X137961904Y-102100000D01*
X137961904Y-102023809D01*
X137923809Y-101909523D01*
X137885714Y-101871428D01*
X137619047Y-101871428D01*
X137619047Y-102023809D01*
X137961904Y-101528571D02*
X137161904Y-101528571D01*
X137961904Y-101071428D01*
X137161904Y-101071428D01*
X137961904Y-100690476D02*
X137161904Y-100690476D01*
X137161904Y-100500000D01*
X137200000Y-100385714D01*
X137276190Y-100309523D01*
X137352380Y-100271428D01*
X137504761Y-100233333D01*
X137619047Y-100233333D01*
X137771428Y-100271428D01*
X137847619Y-100309523D01*
X137923809Y-100385714D01*
X137961904Y-100500000D01*
X137961904Y-100690476D01*
X137885714Y-104326190D02*
X137923809Y-104364285D01*
X137961904Y-104478571D01*
X137961904Y-104554761D01*
X137923809Y-104669047D01*
X137847619Y-104745238D01*
X137771428Y-104783333D01*
X137619047Y-104821428D01*
X137504761Y-104821428D01*
X137352380Y-104783333D01*
X137276190Y-104745238D01*
X137200000Y-104669047D01*
X137161904Y-104554761D01*
X137161904Y-104478571D01*
X137200000Y-104364285D01*
X137238095Y-104326190D01*
X137961904Y-103602380D02*
X137961904Y-103983333D01*
X137161904Y-103983333D01*
X137961904Y-103335714D02*
X137161904Y-103335714D01*
X137961904Y-102878571D02*
X137504761Y-103221428D01*
X137161904Y-102878571D02*
X137619047Y-103335714D01*
D11*
X120813934Y-94366066D02*
X121026066Y-94153934D01*
X123640000Y-96580000D02*
X123640000Y-96880000D01*
X122510000Y-95420000D02*
X122210000Y-95420000D01*
D12*
X107500000Y-104000000D02*
X107500000Y-104500000D01*
X107500000Y-95500000D02*
X107500000Y-96000000D01*
X105000000Y-95500000D02*
X103000000Y-95500000D01*
X103000000Y-104500000D02*
X105000000Y-104500000D01*
D11*
X134005000Y-107890000D02*
X124655000Y-107890000D01*
X134005000Y-92110000D02*
X134005000Y-107890000D01*
X124655000Y-92110000D02*
X134005000Y-92110000D01*
X124655000Y-107890000D02*
X124655000Y-92110000D01*
X134000000Y-102250000D02*
X133200000Y-102250000D01*
X133200000Y-102250000D02*
X133200000Y-97750000D01*
X133200000Y-97750000D02*
X134000000Y-97750000D01*
X113362887Y-100168198D02*
X112450719Y-101080366D01*
X113044689Y-99850000D02*
X113362887Y-100168198D01*
X113362887Y-99531802D02*
X113044689Y-99850000D01*
X118150000Y-94744689D02*
X118468198Y-95062887D01*
X117831802Y-95062887D02*
X118150000Y-94744689D01*
X118150000Y-104955311D02*
X117831802Y-104637113D01*
X118468198Y-104637113D02*
X118150000Y-104955311D01*
X123255311Y-99850000D02*
X122937113Y-99531802D01*
X122937113Y-100168198D02*
X123255311Y-99850000D01*
X113922171Y-94167822D02*
X113877829Y-93871118D01*
X111850000Y-97800000D02*
X111850000Y-97500000D01*
X110645370Y-95320172D02*
X111677746Y-94287797D01*
X112879828Y-97554630D02*
X114407178Y-96027279D01*
X112879828Y-97554630D02*
X112222218Y-96897021D01*
X110645370Y-95320172D02*
X111302979Y-95977782D01*
X118443934Y-106043934D02*
X118656066Y-106256066D01*
X120493934Y-105193934D02*
X120706066Y-105406066D01*
X115106066Y-95256066D02*
X114893934Y-95043934D01*
X108856066Y-104743934D02*
X108643934Y-104956066D01*
X109856066Y-104343934D02*
X109643934Y-104556066D01*
X124300000Y-98250000D02*
X124600000Y-98250000D01*
X120322171Y-106401648D02*
X120277829Y-106698352D01*
X124350000Y-101150000D02*
X124650000Y-101150000D01*
X124385000Y-107835001D02*
X124385000Y-105550001D01*
X122915000Y-107835001D02*
X124385000Y-107835001D01*
X122915000Y-105550001D02*
X122915000Y-107835001D01*
X122885000Y-107585000D02*
X122885000Y-105300000D01*
X121415000Y-107585000D02*
X122885000Y-107585000D01*
X121415000Y-105300000D02*
X121415000Y-107585000D01*
X121688299Y-103659619D02*
X123491421Y-101856497D01*
X122890381Y-104861701D02*
X124693503Y-103058579D01*
X121688299Y-103659619D02*
X122890381Y-104861701D01*
X123850000Y-99850000D02*
X123550000Y-99850000D01*
X112356066Y-98893934D02*
X112143934Y-99106066D01*
X117243934Y-105793934D02*
X117456066Y-106006066D01*
X136810000Y-107720000D02*
X135480000Y-107720000D01*
X136810000Y-106390000D02*
X136810000Y-107720000D01*
X136810000Y-105120000D02*
X134150000Y-105120000D01*
X134150000Y-105120000D02*
X134150000Y-92360000D01*
X136810000Y-105120000D02*
X136810000Y-92360000D01*
X136810000Y-92360000D02*
X134150000Y-92360000D01*
X109669060Y-103602513D02*
X112497487Y-106430940D01*
X112002513Y-101269060D02*
X109669060Y-103602513D01*
X108290000Y-98900000D02*
X108290000Y-101350000D01*
X111510000Y-100700000D02*
X111510000Y-98900000D01*
X108350000Y-96750000D02*
X108650000Y-96750000D01*
X108650000Y-103100000D02*
X108350000Y-103100000D01*
X109300000Y-97050000D02*
X109600000Y-97050000D01*
X107739951Y-95996424D02*
X109999853Y-95658679D01*
X107522672Y-94542570D02*
X107739951Y-95996424D01*
X109782573Y-94204826D02*
X107522672Y-94542570D01*
X113793934Y-105543934D02*
X114006066Y-105756066D01*
X109743934Y-102393934D02*
X109956066Y-102606066D01*
X115256066Y-104943934D02*
X115043934Y-105156066D01*
X110500000Y-97050000D02*
X110200000Y-97050000D01*
D13*
X121101827Y-93669060D02*
X121147284Y-93411471D01*
X120919999Y-93487233D02*
X121238197Y-93169035D01*
X121359416Y-93290253D01*
X121374568Y-93335710D01*
X121374568Y-93366015D01*
X121359416Y-93411471D01*
X121313959Y-93456928D01*
X121268502Y-93472081D01*
X121238197Y-93472081D01*
X121192741Y-93456928D01*
X121071522Y-93335710D01*
X121404873Y-93972106D02*
X121223045Y-93790279D01*
X121313959Y-93881192D02*
X121632157Y-93562994D01*
X121556396Y-93578147D01*
X121495786Y-93578147D01*
X121450330Y-93562994D01*
X121707918Y-94275152D02*
X121526091Y-94093324D01*
X121617005Y-94184238D02*
X121935203Y-93866040D01*
X121859441Y-93881192D01*
X121798832Y-93881192D01*
X121753375Y-93866040D01*
X124950714Y-96933571D02*
X124800714Y-96719285D01*
X124693571Y-96933571D02*
X124693571Y-96483571D01*
X124865000Y-96483571D01*
X124907857Y-96505000D01*
X124929285Y-96526428D01*
X124950714Y-96569285D01*
X124950714Y-96633571D01*
X124929285Y-96676428D01*
X124907857Y-96697857D01*
X124865000Y-96719285D01*
X124693571Y-96719285D01*
X125379285Y-96933571D02*
X125122142Y-96933571D01*
X125250714Y-96933571D02*
X125250714Y-96483571D01*
X125207857Y-96547857D01*
X125165000Y-96590714D01*
X125122142Y-96612142D01*
X125657857Y-96483571D02*
X125700714Y-96483571D01*
X125743571Y-96505000D01*
X125765000Y-96526428D01*
X125786428Y-96569285D01*
X125807857Y-96655000D01*
X125807857Y-96762142D01*
X125786428Y-96847857D01*
X125765000Y-96890714D01*
X125743571Y-96912142D01*
X125700714Y-96933571D01*
X125657857Y-96933571D01*
X125615000Y-96912142D01*
X125593571Y-96890714D01*
X125572142Y-96847857D01*
X125550714Y-96762142D01*
X125550714Y-96655000D01*
X125572142Y-96569285D01*
X125593571Y-96526428D01*
X125615000Y-96505000D01*
X125657857Y-96483571D01*
X122305000Y-94413571D02*
X122155000Y-94199285D01*
X122047857Y-94413571D02*
X122047857Y-93963571D01*
X122219285Y-93963571D01*
X122262142Y-93985000D01*
X122283571Y-94006428D01*
X122305000Y-94049285D01*
X122305000Y-94113571D01*
X122283571Y-94156428D01*
X122262142Y-94177857D01*
X122219285Y-94199285D01*
X122047857Y-94199285D01*
X122519285Y-94413571D02*
X122605000Y-94413571D01*
X122647857Y-94392142D01*
X122669285Y-94370714D01*
X122712142Y-94306428D01*
X122733571Y-94220714D01*
X122733571Y-94049285D01*
X122712142Y-94006428D01*
X122690714Y-93985000D01*
X122647857Y-93963571D01*
X122562142Y-93963571D01*
X122519285Y-93985000D01*
X122497857Y-94006428D01*
X122476428Y-94049285D01*
X122476428Y-94156428D01*
X122497857Y-94199285D01*
X122519285Y-94220714D01*
X122562142Y-94242142D01*
X122647857Y-94242142D01*
X122690714Y-94220714D01*
X122712142Y-94199285D01*
X122733571Y-94156428D01*
X117857142Y-99603571D02*
X117857142Y-99967857D01*
X117878571Y-100010714D01*
X117900000Y-100032142D01*
X117942857Y-100053571D01*
X118028571Y-100053571D01*
X118071428Y-100032142D01*
X118092857Y-100010714D01*
X118114285Y-99967857D01*
X118114285Y-99603571D01*
X118285714Y-99603571D02*
X118564285Y-99603571D01*
X118414285Y-99775000D01*
X118478571Y-99775000D01*
X118521428Y-99796428D01*
X118542857Y-99817857D01*
X118564285Y-99860714D01*
X118564285Y-99967857D01*
X118542857Y-100010714D01*
X118521428Y-100032142D01*
X118478571Y-100053571D01*
X118350000Y-100053571D01*
X118307142Y-100032142D01*
X118285714Y-100010714D01*
X113299578Y-95020034D02*
X113281553Y-95044395D01*
X113221140Y-95075090D01*
X113178754Y-95081425D01*
X113112007Y-95069733D01*
X113063286Y-95033682D01*
X113035758Y-94994463D01*
X113001895Y-94912857D01*
X112992393Y-94849278D01*
X113000917Y-94761338D01*
X113015776Y-94715784D01*
X113051827Y-94667063D01*
X113112240Y-94636368D01*
X113154626Y-94630033D01*
X113221373Y-94641724D01*
X113245734Y-94659750D01*
X113387751Y-94595192D02*
X113684456Y-94550849D01*
X113560231Y-95024412D01*
X112775000Y-96960714D02*
X112753571Y-96982142D01*
X112689285Y-97003571D01*
X112646428Y-97003571D01*
X112582142Y-96982142D01*
X112539285Y-96939285D01*
X112517857Y-96896428D01*
X112496428Y-96810714D01*
X112496428Y-96746428D01*
X112517857Y-96660714D01*
X112539285Y-96617857D01*
X112582142Y-96575000D01*
X112646428Y-96553571D01*
X112689285Y-96553571D01*
X112753571Y-96575000D01*
X112775000Y-96596428D01*
X113160714Y-96553571D02*
X113075000Y-96553571D01*
X113032142Y-96575000D01*
X113010714Y-96596428D01*
X112967857Y-96660714D01*
X112946428Y-96746428D01*
X112946428Y-96917857D01*
X112967857Y-96960714D01*
X112989285Y-96982142D01*
X113032142Y-97003571D01*
X113117857Y-97003571D01*
X113160714Y-96982142D01*
X113182142Y-96960714D01*
X113203571Y-96917857D01*
X113203571Y-96810714D01*
X113182142Y-96767857D01*
X113160714Y-96746428D01*
X113117857Y-96725000D01*
X113032142Y-96725000D01*
X112989285Y-96746428D01*
X112967857Y-96767857D01*
X112946428Y-96810714D01*
X112007142Y-95503571D02*
X112007142Y-95867857D01*
X112028571Y-95910714D01*
X112050000Y-95932142D01*
X112092857Y-95953571D01*
X112178571Y-95953571D01*
X112221428Y-95932142D01*
X112242857Y-95910714D01*
X112264285Y-95867857D01*
X112264285Y-95503571D01*
X112457142Y-95546428D02*
X112478571Y-95525000D01*
X112521428Y-95503571D01*
X112628571Y-95503571D01*
X112671428Y-95525000D01*
X112692857Y-95546428D01*
X112714285Y-95589285D01*
X112714285Y-95632142D01*
X112692857Y-95696428D01*
X112435714Y-95953571D01*
X112714285Y-95953571D01*
X117860714Y-103803571D02*
X117710714Y-103589285D01*
X117603571Y-103803571D02*
X117603571Y-103353571D01*
X117775000Y-103353571D01*
X117817857Y-103375000D01*
X117839285Y-103396428D01*
X117860714Y-103439285D01*
X117860714Y-103503571D01*
X117839285Y-103546428D01*
X117817857Y-103567857D01*
X117775000Y-103589285D01*
X117603571Y-103589285D01*
X118032142Y-103396428D02*
X118053571Y-103375000D01*
X118096428Y-103353571D01*
X118203571Y-103353571D01*
X118246428Y-103375000D01*
X118267857Y-103396428D01*
X118289285Y-103439285D01*
X118289285Y-103482142D01*
X118267857Y-103546428D01*
X118010714Y-103803571D01*
X118289285Y-103803571D01*
X118567857Y-103353571D02*
X118610714Y-103353571D01*
X118653571Y-103375000D01*
X118675000Y-103396428D01*
X118696428Y-103439285D01*
X118717857Y-103525000D01*
X118717857Y-103632142D01*
X118696428Y-103717857D01*
X118675000Y-103760714D01*
X118653571Y-103782142D01*
X118610714Y-103803571D01*
X118567857Y-103803571D01*
X118525000Y-103782142D01*
X118503571Y-103760714D01*
X118482142Y-103717857D01*
X118460714Y-103632142D01*
X118460714Y-103525000D01*
X118482142Y-103439285D01*
X118503571Y-103396428D01*
X118525000Y-103375000D01*
X118567857Y-103353571D01*
X125060714Y-105003571D02*
X124910714Y-104789285D01*
X124803571Y-105003571D02*
X124803571Y-104553571D01*
X124975000Y-104553571D01*
X125017857Y-104575000D01*
X125039285Y-104596428D01*
X125060714Y-104639285D01*
X125060714Y-104703571D01*
X125039285Y-104746428D01*
X125017857Y-104767857D01*
X124975000Y-104789285D01*
X124803571Y-104789285D01*
X125489285Y-105003571D02*
X125232142Y-105003571D01*
X125360714Y-105003571D02*
X125360714Y-104553571D01*
X125317857Y-104617857D01*
X125275000Y-104660714D01*
X125232142Y-104682142D01*
X125703571Y-105003571D02*
X125789285Y-105003571D01*
X125832142Y-104982142D01*
X125853571Y-104960714D01*
X125896428Y-104896428D01*
X125917857Y-104810714D01*
X125917857Y-104639285D01*
X125896428Y-104596428D01*
X125875000Y-104575000D01*
X125832142Y-104553571D01*
X125746428Y-104553571D01*
X125703571Y-104575000D01*
X125682142Y-104596428D01*
X125660714Y-104639285D01*
X125660714Y-104746428D01*
X125682142Y-104789285D01*
X125703571Y-104810714D01*
X125746428Y-104832142D01*
X125832142Y-104832142D01*
X125875000Y-104810714D01*
X125896428Y-104789285D01*
X125917857Y-104746428D01*
X114289390Y-95298502D02*
X114031801Y-95253045D01*
X114107563Y-95480330D02*
X113789365Y-95162132D01*
X113910583Y-95040913D01*
X113956040Y-95025761D01*
X113986345Y-95025761D01*
X114031801Y-95040913D01*
X114077258Y-95086370D01*
X114092411Y-95131827D01*
X114092411Y-95162132D01*
X114077258Y-95207588D01*
X113956040Y-95328807D01*
X114592436Y-94995456D02*
X114410609Y-95177284D01*
X114501522Y-95086370D02*
X114183324Y-94768172D01*
X114198477Y-94843933D01*
X114198477Y-94904543D01*
X114183324Y-94950000D01*
X114380304Y-94571192D02*
X114592436Y-94359060D01*
X114774264Y-94813629D01*
X103101497Y-103789390D02*
X103146954Y-103531801D01*
X102919669Y-103607563D02*
X103237867Y-103289365D01*
X103359086Y-103410583D01*
X103374238Y-103456040D01*
X103374238Y-103486345D01*
X103359086Y-103531801D01*
X103313629Y-103577258D01*
X103268172Y-103592411D01*
X103237867Y-103592411D01*
X103192411Y-103577258D01*
X103071192Y-103456040D01*
X103404543Y-104092436D02*
X103222715Y-103910609D01*
X103313629Y-104001522D02*
X103631827Y-103683324D01*
X103556066Y-103698477D01*
X103495456Y-103698477D01*
X103450000Y-103683324D01*
X103995482Y-104046979D02*
X103934873Y-103986370D01*
X103889416Y-103971218D01*
X103859111Y-103971218D01*
X103783350Y-103986370D01*
X103707588Y-104031827D01*
X103586370Y-104153045D01*
X103571218Y-104198502D01*
X103571218Y-104228807D01*
X103586370Y-104274264D01*
X103646979Y-104334873D01*
X103692436Y-104350025D01*
X103722741Y-104350025D01*
X103768198Y-104334873D01*
X103843959Y-104259111D01*
X103859111Y-104213654D01*
X103859111Y-104183350D01*
X103843959Y-104137893D01*
X103783350Y-104077284D01*
X103737893Y-104062132D01*
X103707588Y-104062132D01*
X103662132Y-104077284D01*
X103551497Y-103389390D02*
X103596954Y-103131801D01*
X103369669Y-103207563D02*
X103687867Y-102889365D01*
X103809086Y-103010583D01*
X103824238Y-103056040D01*
X103824238Y-103086345D01*
X103809086Y-103131801D01*
X103763629Y-103177258D01*
X103718172Y-103192411D01*
X103687867Y-103192411D01*
X103642411Y-103177258D01*
X103521192Y-103056040D01*
X103854543Y-103692436D02*
X103672715Y-103510609D01*
X103763629Y-103601522D02*
X104081827Y-103283324D01*
X104006066Y-103298477D01*
X103945456Y-103298477D01*
X103900000Y-103283324D01*
X104460634Y-103662132D02*
X104309111Y-103510609D01*
X104142436Y-103646979D01*
X104172741Y-103646979D01*
X104218198Y-103662132D01*
X104293959Y-103737893D01*
X104309111Y-103783350D01*
X104309111Y-103813654D01*
X104293959Y-103859111D01*
X104218198Y-103934873D01*
X104172741Y-103950025D01*
X104142436Y-103950025D01*
X104096979Y-103934873D01*
X104021218Y-103859111D01*
X104006066Y-103813654D01*
X104006066Y-103783350D01*
X125310714Y-98453571D02*
X125160714Y-98239285D01*
X125053571Y-98453571D02*
X125053571Y-98003571D01*
X125225000Y-98003571D01*
X125267857Y-98025000D01*
X125289285Y-98046428D01*
X125310714Y-98089285D01*
X125310714Y-98153571D01*
X125289285Y-98196428D01*
X125267857Y-98217857D01*
X125225000Y-98239285D01*
X125053571Y-98239285D01*
X125739285Y-98453571D02*
X125482142Y-98453571D01*
X125610714Y-98453571D02*
X125610714Y-98003571D01*
X125567857Y-98067857D01*
X125525000Y-98110714D01*
X125482142Y-98132142D01*
X125889285Y-98003571D02*
X126167857Y-98003571D01*
X126017857Y-98175000D01*
X126082142Y-98175000D01*
X126125000Y-98196428D01*
X126146428Y-98217857D01*
X126167857Y-98260714D01*
X126167857Y-98367857D01*
X126146428Y-98410714D01*
X126125000Y-98432142D01*
X126082142Y-98453571D01*
X125953571Y-98453571D01*
X125910714Y-98432142D01*
X125889285Y-98410714D01*
X125075000Y-107203570D02*
X124925000Y-106989284D01*
X124817857Y-107203570D02*
X124817857Y-106753570D01*
X124989285Y-106753570D01*
X125032142Y-106774999D01*
X125053571Y-106796427D01*
X125075000Y-106839284D01*
X125075000Y-106903570D01*
X125053571Y-106946427D01*
X125032142Y-106967856D01*
X124989285Y-106989284D01*
X124817857Y-106989284D01*
X125482142Y-106753570D02*
X125267857Y-106753570D01*
X125246428Y-106967856D01*
X125267857Y-106946427D01*
X125310714Y-106924999D01*
X125417857Y-106924999D01*
X125460714Y-106946427D01*
X125482142Y-106967856D01*
X125503571Y-107010713D01*
X125503571Y-107117856D01*
X125482142Y-107160713D01*
X125460714Y-107182141D01*
X125417857Y-107203570D01*
X125310714Y-107203570D01*
X125267857Y-107182141D01*
X125246428Y-107160713D01*
X125325000Y-101353571D02*
X125175000Y-101139285D01*
X125067857Y-101353571D02*
X125067857Y-100903571D01*
X125239285Y-100903571D01*
X125282142Y-100925000D01*
X125303571Y-100946428D01*
X125325000Y-100989285D01*
X125325000Y-101053571D01*
X125303571Y-101096428D01*
X125282142Y-101117857D01*
X125239285Y-101139285D01*
X125067857Y-101139285D01*
X125710714Y-101053571D02*
X125710714Y-101353571D01*
X125603571Y-100882142D02*
X125496428Y-101203571D01*
X125775000Y-101203571D01*
X125067857Y-106553572D02*
X125067857Y-106103572D01*
X125175000Y-106103572D01*
X125239285Y-106125001D01*
X125282142Y-106167858D01*
X125303571Y-106210715D01*
X125325000Y-106296429D01*
X125325000Y-106360715D01*
X125303571Y-106446429D01*
X125282142Y-106489286D01*
X125239285Y-106532143D01*
X125175000Y-106553572D01*
X125067857Y-106553572D01*
X125710714Y-106253572D02*
X125710714Y-106553572D01*
X125603571Y-106082143D02*
X125496428Y-106403572D01*
X125775000Y-106403572D01*
X124817857Y-106003571D02*
X124817857Y-105553571D01*
X124925000Y-105553571D01*
X124989285Y-105575000D01*
X125032142Y-105617857D01*
X125053571Y-105660714D01*
X125075000Y-105746428D01*
X125075000Y-105810714D01*
X125053571Y-105896428D01*
X125032142Y-105939285D01*
X124989285Y-105982142D01*
X124925000Y-106003571D01*
X124817857Y-106003571D01*
X125225000Y-105553571D02*
X125503571Y-105553571D01*
X125353571Y-105725000D01*
X125417857Y-105725000D01*
X125460714Y-105746428D01*
X125482142Y-105767857D01*
X125503571Y-105810714D01*
X125503571Y-105917857D01*
X125482142Y-105960714D01*
X125460714Y-105982142D01*
X125417857Y-106003571D01*
X125289285Y-106003571D01*
X125246428Y-105982142D01*
X125225000Y-105960714D01*
X124867858Y-103403571D02*
X124867858Y-102953571D01*
X124975001Y-102953571D01*
X125039286Y-102975000D01*
X125082143Y-103017857D01*
X125103572Y-103060714D01*
X125125001Y-103146428D01*
X125125001Y-103210714D01*
X125103572Y-103296428D01*
X125082143Y-103339285D01*
X125039286Y-103382142D01*
X124975001Y-103403571D01*
X124867858Y-103403571D01*
X125296429Y-102996428D02*
X125317858Y-102975000D01*
X125360715Y-102953571D01*
X125467858Y-102953571D01*
X125510715Y-102975000D01*
X125532143Y-102996428D01*
X125553572Y-103039285D01*
X125553572Y-103082142D01*
X125532143Y-103146428D01*
X125275001Y-103403571D01*
X125553572Y-103403571D01*
X125260714Y-99810714D02*
X125239285Y-99832142D01*
X125175000Y-99853571D01*
X125132142Y-99853571D01*
X125067857Y-99832142D01*
X125025000Y-99789285D01*
X125003571Y-99746428D01*
X124982142Y-99660714D01*
X124982142Y-99596428D01*
X125003571Y-99510714D01*
X125025000Y-99467857D01*
X125067857Y-99425000D01*
X125132142Y-99403571D01*
X125175000Y-99403571D01*
X125239285Y-99425000D01*
X125260714Y-99446428D01*
X125689285Y-99853571D02*
X125432142Y-99853571D01*
X125560714Y-99853571D02*
X125560714Y-99403571D01*
X125517857Y-99467857D01*
X125475000Y-99510714D01*
X125432142Y-99532142D01*
X126117857Y-99853571D02*
X125860714Y-99853571D01*
X125989285Y-99853571D02*
X125989285Y-99403571D01*
X125946428Y-99467857D01*
X125903571Y-99510714D01*
X125860714Y-99532142D01*
X112010714Y-100410714D02*
X111989285Y-100432142D01*
X111925000Y-100453571D01*
X111882142Y-100453571D01*
X111817857Y-100432142D01*
X111775000Y-100389285D01*
X111753571Y-100346428D01*
X111732142Y-100260714D01*
X111732142Y-100196428D01*
X111753571Y-100110714D01*
X111775000Y-100067857D01*
X111817857Y-100025000D01*
X111882142Y-100003571D01*
X111925000Y-100003571D01*
X111989285Y-100025000D01*
X112010714Y-100046428D01*
X112439285Y-100453571D02*
X112182142Y-100453571D01*
X112310714Y-100453571D02*
X112310714Y-100003571D01*
X112267857Y-100067857D01*
X112225000Y-100110714D01*
X112182142Y-100132142D01*
X112717857Y-100003571D02*
X112760714Y-100003571D01*
X112803571Y-100025000D01*
X112825000Y-100046428D01*
X112846428Y-100089285D01*
X112867857Y-100175000D01*
X112867857Y-100282142D01*
X112846428Y-100367857D01*
X112825000Y-100410714D01*
X112803571Y-100432142D01*
X112760714Y-100453571D01*
X112717857Y-100453571D01*
X112675000Y-100432142D01*
X112653571Y-100410714D01*
X112632142Y-100367857D01*
X112610714Y-100282142D01*
X112610714Y-100175000D01*
X112632142Y-100089285D01*
X112653571Y-100046428D01*
X112675000Y-100025000D01*
X112717857Y-100003571D01*
X116125000Y-105960714D02*
X116103571Y-105982142D01*
X116039285Y-106003571D01*
X115996428Y-106003571D01*
X115932142Y-105982142D01*
X115889285Y-105939285D01*
X115867857Y-105896428D01*
X115846428Y-105810714D01*
X115846428Y-105746428D01*
X115867857Y-105660714D01*
X115889285Y-105617857D01*
X115932142Y-105575000D01*
X115996428Y-105553571D01*
X116039285Y-105553571D01*
X116103571Y-105575000D01*
X116125000Y-105596428D01*
X116382142Y-105746428D02*
X116339285Y-105725000D01*
X116317857Y-105703571D01*
X116296428Y-105660714D01*
X116296428Y-105639285D01*
X116317857Y-105596428D01*
X116339285Y-105575000D01*
X116382142Y-105553571D01*
X116467857Y-105553571D01*
X116510714Y-105575000D01*
X116532142Y-105596428D01*
X116553571Y-105639285D01*
X116553571Y-105660714D01*
X116532142Y-105703571D01*
X116510714Y-105725000D01*
X116467857Y-105746428D01*
X116382142Y-105746428D01*
X116339285Y-105767857D01*
X116317857Y-105789285D01*
X116296428Y-105832142D01*
X116296428Y-105917857D01*
X116317857Y-105960714D01*
X116339285Y-105982142D01*
X116382142Y-106003571D01*
X116467857Y-106003571D01*
X116510714Y-105982142D01*
X116532142Y-105960714D01*
X116553571Y-105917857D01*
X116553571Y-105832142D01*
X116532142Y-105789285D01*
X116510714Y-105767857D01*
X116467857Y-105746428D01*
X113435714Y-102189285D02*
X113435714Y-102403571D01*
X113285714Y-101953571D02*
X113435714Y-102189285D01*
X113585714Y-101953571D01*
X113971428Y-102403571D02*
X113714285Y-102403571D01*
X113842857Y-102403571D02*
X113842857Y-101953571D01*
X113800000Y-102017857D01*
X113757142Y-102060714D01*
X113714285Y-102082142D01*
X109557142Y-99553571D02*
X109557142Y-99917857D01*
X109578571Y-99960714D01*
X109600000Y-99982142D01*
X109642857Y-100003571D01*
X109728571Y-100003571D01*
X109771428Y-99982142D01*
X109792857Y-99960714D01*
X109814285Y-99917857D01*
X109814285Y-99553571D01*
X110264285Y-100003571D02*
X110007142Y-100003571D01*
X110135714Y-100003571D02*
X110135714Y-99553571D01*
X110092857Y-99617857D01*
X110050000Y-99660714D01*
X110007142Y-99682142D01*
X103625000Y-96903571D02*
X103475000Y-96689285D01*
X103367857Y-96903571D02*
X103367857Y-96453571D01*
X103539285Y-96453571D01*
X103582142Y-96475000D01*
X103603571Y-96496428D01*
X103625000Y-96539285D01*
X103625000Y-96603571D01*
X103603571Y-96646428D01*
X103582142Y-96667857D01*
X103539285Y-96689285D01*
X103367857Y-96689285D01*
X103775000Y-96453571D02*
X104053571Y-96453571D01*
X103903571Y-96625000D01*
X103967857Y-96625000D01*
X104010714Y-96646428D01*
X104032142Y-96667857D01*
X104053571Y-96710714D01*
X104053571Y-96817857D01*
X104032142Y-96860714D01*
X104010714Y-96882142D01*
X103967857Y-96903571D01*
X103839285Y-96903571D01*
X103796428Y-96882142D01*
X103775000Y-96860714D01*
X104475000Y-103303571D02*
X104325000Y-103089285D01*
X104217857Y-103303571D02*
X104217857Y-102853571D01*
X104389285Y-102853571D01*
X104432142Y-102875000D01*
X104453571Y-102896428D01*
X104475000Y-102939285D01*
X104475000Y-103003571D01*
X104453571Y-103046428D01*
X104432142Y-103067857D01*
X104389285Y-103089285D01*
X104217857Y-103089285D01*
X104646428Y-102896428D02*
X104667857Y-102875000D01*
X104710714Y-102853571D01*
X104817857Y-102853571D01*
X104860714Y-102875000D01*
X104882142Y-102896428D01*
X104903571Y-102939285D01*
X104903571Y-102982142D01*
X104882142Y-103046428D01*
X104625000Y-103303571D01*
X104903571Y-103303571D01*
X104525000Y-97203571D02*
X104375000Y-96989285D01*
X104267857Y-97203571D02*
X104267857Y-96753571D01*
X104439285Y-96753571D01*
X104482142Y-96775000D01*
X104503571Y-96796428D01*
X104525000Y-96839285D01*
X104525000Y-96903571D01*
X104503571Y-96946428D01*
X104482142Y-96967857D01*
X104439285Y-96989285D01*
X104267857Y-96989285D01*
X104953571Y-97203571D02*
X104696428Y-97203571D01*
X104825000Y-97203571D02*
X104825000Y-96753571D01*
X104782142Y-96817857D01*
X104739285Y-96860714D01*
X104696428Y-96882142D01*
X110471460Y-94659336D02*
X110463606Y-94209404D01*
X110570733Y-94207534D01*
X110635383Y-94227838D01*
X110678981Y-94269940D01*
X110701155Y-94312417D01*
X110724076Y-94397744D01*
X110725198Y-94462020D01*
X110705269Y-94548095D01*
X110684591Y-94591320D01*
X110642489Y-94634918D01*
X110578587Y-94657466D01*
X110471460Y-94659336D01*
X111157070Y-94647368D02*
X110899966Y-94651856D01*
X111028518Y-94649612D02*
X111020664Y-94199681D01*
X110978936Y-94264705D01*
X110936833Y-94308303D01*
X110894356Y-94330476D01*
X114535000Y-106380714D02*
X114513571Y-106402142D01*
X114449285Y-106423571D01*
X114406428Y-106423571D01*
X114342142Y-106402142D01*
X114299285Y-106359285D01*
X114277857Y-106316428D01*
X114256428Y-106230714D01*
X114256428Y-106166428D01*
X114277857Y-106080714D01*
X114299285Y-106037857D01*
X114342142Y-105995000D01*
X114406428Y-105973571D01*
X114449285Y-105973571D01*
X114513571Y-105995000D01*
X114535000Y-106016428D01*
X114942142Y-105973571D02*
X114727857Y-105973571D01*
X114706428Y-106187857D01*
X114727857Y-106166428D01*
X114770714Y-106145000D01*
X114877857Y-106145000D01*
X114920714Y-106166428D01*
X114942142Y-106187857D01*
X114963571Y-106230714D01*
X114963571Y-106337857D01*
X114942142Y-106380714D01*
X114920714Y-106402142D01*
X114877857Y-106423571D01*
X114770714Y-106423571D01*
X114727857Y-106402142D01*
X114706428Y-106380714D01*
X109125000Y-102210714D02*
X109103571Y-102232142D01*
X109039285Y-102253571D01*
X108996428Y-102253571D01*
X108932142Y-102232142D01*
X108889285Y-102189285D01*
X108867857Y-102146428D01*
X108846428Y-102060714D01*
X108846428Y-101996428D01*
X108867857Y-101910714D01*
X108889285Y-101867857D01*
X108932142Y-101825000D01*
X108996428Y-101803571D01*
X109039285Y-101803571D01*
X109103571Y-101825000D01*
X109125000Y-101846428D01*
X109510714Y-101953571D02*
X109510714Y-102253571D01*
X109403571Y-101782142D02*
X109296428Y-102103571D01*
X109575000Y-102103571D01*
X115375000Y-106410714D02*
X115353571Y-106432142D01*
X115289285Y-106453571D01*
X115246428Y-106453571D01*
X115182142Y-106432142D01*
X115139285Y-106389285D01*
X115117857Y-106346428D01*
X115096428Y-106260714D01*
X115096428Y-106196428D01*
X115117857Y-106110714D01*
X115139285Y-106067857D01*
X115182142Y-106025000D01*
X115246428Y-106003571D01*
X115289285Y-106003571D01*
X115353571Y-106025000D01*
X115375000Y-106046428D01*
X115525000Y-106003571D02*
X115803571Y-106003571D01*
X115653571Y-106175000D01*
X115717857Y-106175000D01*
X115760714Y-106196428D01*
X115782142Y-106217857D01*
X115803571Y-106260714D01*
X115803571Y-106367857D01*
X115782142Y-106410714D01*
X115760714Y-106432142D01*
X115717857Y-106453571D01*
X115589285Y-106453571D01*
X115546428Y-106432142D01*
X115525000Y-106410714D01*
X110375000Y-96010714D02*
X110353571Y-96032142D01*
X110289285Y-96053571D01*
X110246428Y-96053571D01*
X110182142Y-96032142D01*
X110139285Y-95989285D01*
X110117857Y-95946428D01*
X110096428Y-95860714D01*
X110096428Y-95796428D01*
X110117857Y-95710714D01*
X110139285Y-95667857D01*
X110182142Y-95625000D01*
X110246428Y-95603571D01*
X110289285Y-95603571D01*
X110353571Y-95625000D01*
X110375000Y-95646428D01*
X110546428Y-95646428D02*
X110567857Y-95625000D01*
X110610714Y-95603571D01*
X110717857Y-95603571D01*
X110760714Y-95625000D01*
X110782142Y-95646428D01*
X110803571Y-95689285D01*
X110803571Y-95732142D01*
X110782142Y-95796428D01*
X110525000Y-96053571D01*
X110803571Y-96053571D01*
M02*
