G04 #@! TF.GenerationSoftware,KiCad,Pcbnew,5.1.5-52549c5~84~ubuntu19.10.1*
G04 #@! TF.CreationDate,2020-03-16T21:02:33+01:00*
G04 #@! TF.ProjectId,JTAG-TC-PROG,4a544147-2d54-4432-9d50-524f472e6b69,rev?*
G04 #@! TF.SameCoordinates,Original*
G04 #@! TF.FileFunction,Soldermask,Top*
G04 #@! TF.FilePolarity,Negative*
%FSLAX46Y46*%
G04 Gerber Fmt 4.6, Leading zero omitted, Abs format (unit mm)*
G04 Created by KiCad (PCBNEW 5.1.5-52549c5~84~ubuntu19.10.1) date 2020-03-16 21:02:33*
%MOMM*%
%LPD*%
G04 APERTURE LIST*
%ADD10C,0.100000*%
%ADD11R,1.450000X0.600000*%
%ADD12O,2.100000X1.000000*%
%ADD13O,1.600000X1.000000*%
%ADD14C,0.650000*%
%ADD15R,1.450000X0.300000*%
%ADD16C,0.985520*%
%ADD17C,0.988060*%
%ADD18O,1.727200X1.727200*%
%ADD19R,1.727200X1.727200*%
%ADD20R,0.500000X0.600000*%
%ADD21R,0.600000X0.500000*%
%ADD22O,1.700000X1.700000*%
%ADD23R,1.700000X1.700000*%
%ADD24R,0.650000X1.060000*%
G04 APERTURE END LIST*
D10*
G36*
X122271752Y-93943934D02*
G01*
X121706066Y-93378248D01*
X122342462Y-92741852D01*
X122908148Y-93307538D01*
X122271752Y-93943934D01*
G37*
G36*
X121529290Y-96029899D02*
G01*
X120963604Y-95464213D01*
X121600000Y-94827817D01*
X122165686Y-95393503D01*
X121529290Y-96029899D01*
G37*
G36*
X120185787Y-94686396D02*
G01*
X119620101Y-94120710D01*
X120256497Y-93484314D01*
X120822183Y-94050000D01*
X120185787Y-94686396D01*
G37*
D11*
X107000000Y-97600000D03*
X107000000Y-102400000D03*
X107000000Y-103200000D03*
X107000000Y-96800000D03*
D12*
X106085000Y-95680000D03*
X106085000Y-104320000D03*
D13*
X101905000Y-95680000D03*
X101905000Y-104320000D03*
D14*
X105555000Y-102890000D03*
X105555000Y-97110000D03*
D11*
X107000000Y-103200000D03*
X107000000Y-102400000D03*
D15*
X107000000Y-101750000D03*
X107000000Y-101250000D03*
X107000000Y-100750000D03*
X107000000Y-100250000D03*
X107000000Y-99750000D03*
X107000000Y-99250000D03*
X107000000Y-98750000D03*
X107000000Y-98250000D03*
D11*
X107000000Y-97600000D03*
X107000000Y-96800000D03*
D16*
X123640000Y-93134000D03*
X123640000Y-95166000D03*
D17*
X118560000Y-94150000D03*
D18*
X128060000Y-97460000D03*
X130600000Y-97460000D03*
X128060000Y-100000000D03*
X130600000Y-100000000D03*
X128060000Y-102540000D03*
D19*
X130600000Y-102540000D03*
D10*
G36*
X113677549Y-99478769D02*
G01*
X112634567Y-98435787D01*
X112846699Y-98223655D01*
X113889681Y-99266637D01*
X113677549Y-99478769D01*
G37*
G36*
X114031103Y-99125215D02*
G01*
X112988121Y-98082233D01*
X113200253Y-97870101D01*
X114243235Y-98913083D01*
X114031103Y-99125215D01*
G37*
G36*
X114384656Y-98771662D02*
G01*
X113341674Y-97728680D01*
X113553806Y-97516548D01*
X114596788Y-98559530D01*
X114384656Y-98771662D01*
G37*
G36*
X114738210Y-98418108D02*
G01*
X113695228Y-97375126D01*
X113907360Y-97162994D01*
X114950342Y-98205976D01*
X114738210Y-98418108D01*
G37*
G36*
X115091763Y-98064555D02*
G01*
X114048781Y-97021573D01*
X114260913Y-96809441D01*
X115303895Y-97852423D01*
X115091763Y-98064555D01*
G37*
G36*
X115445316Y-97711002D02*
G01*
X114402334Y-96668020D01*
X114614466Y-96455888D01*
X115657448Y-97498870D01*
X115445316Y-97711002D01*
G37*
G36*
X115798870Y-97357448D02*
G01*
X114755888Y-96314466D01*
X114968020Y-96102334D01*
X116011002Y-97145316D01*
X115798870Y-97357448D01*
G37*
G36*
X116152423Y-97003895D02*
G01*
X115109441Y-95960913D01*
X115321573Y-95748781D01*
X116364555Y-96791763D01*
X116152423Y-97003895D01*
G37*
G36*
X116505976Y-96650342D02*
G01*
X115462994Y-95607360D01*
X115675126Y-95395228D01*
X116718108Y-96438210D01*
X116505976Y-96650342D01*
G37*
G36*
X116859530Y-96296788D02*
G01*
X115816548Y-95253806D01*
X116028680Y-95041674D01*
X117071662Y-96084656D01*
X116859530Y-96296788D01*
G37*
G36*
X117213083Y-95943235D02*
G01*
X116170101Y-94900253D01*
X116382233Y-94688121D01*
X117425215Y-95731103D01*
X117213083Y-95943235D01*
G37*
G36*
X117566637Y-95589681D02*
G01*
X116523655Y-94546699D01*
X116735787Y-94334567D01*
X117778769Y-95377549D01*
X117566637Y-95589681D01*
G37*
G36*
X118733363Y-95589681D02*
G01*
X118521231Y-95377549D01*
X119564213Y-94334567D01*
X119776345Y-94546699D01*
X118733363Y-95589681D01*
G37*
G36*
X119086917Y-95943235D02*
G01*
X118874785Y-95731103D01*
X119917767Y-94688121D01*
X120129899Y-94900253D01*
X119086917Y-95943235D01*
G37*
G36*
X119440470Y-96296788D02*
G01*
X119228338Y-96084656D01*
X120271320Y-95041674D01*
X120483452Y-95253806D01*
X119440470Y-96296788D01*
G37*
G36*
X119794024Y-96650342D02*
G01*
X119581892Y-96438210D01*
X120624874Y-95395228D01*
X120837006Y-95607360D01*
X119794024Y-96650342D01*
G37*
G36*
X120147577Y-97003895D02*
G01*
X119935445Y-96791763D01*
X120978427Y-95748781D01*
X121190559Y-95960913D01*
X120147577Y-97003895D01*
G37*
G36*
X120501130Y-97357448D02*
G01*
X120288998Y-97145316D01*
X121331980Y-96102334D01*
X121544112Y-96314466D01*
X120501130Y-97357448D01*
G37*
G36*
X120854684Y-97711002D02*
G01*
X120642552Y-97498870D01*
X121685534Y-96455888D01*
X121897666Y-96668020D01*
X120854684Y-97711002D01*
G37*
G36*
X121208237Y-98064555D02*
G01*
X120996105Y-97852423D01*
X122039087Y-96809441D01*
X122251219Y-97021573D01*
X121208237Y-98064555D01*
G37*
G36*
X121561790Y-98418108D02*
G01*
X121349658Y-98205976D01*
X122392640Y-97162994D01*
X122604772Y-97375126D01*
X121561790Y-98418108D01*
G37*
G36*
X121915344Y-98771662D02*
G01*
X121703212Y-98559530D01*
X122746194Y-97516548D01*
X122958326Y-97728680D01*
X121915344Y-98771662D01*
G37*
G36*
X122268897Y-99125215D02*
G01*
X122056765Y-98913083D01*
X123099747Y-97870101D01*
X123311879Y-98082233D01*
X122268897Y-99125215D01*
G37*
G36*
X122622451Y-99478769D02*
G01*
X122410319Y-99266637D01*
X123453301Y-98223655D01*
X123665433Y-98435787D01*
X122622451Y-99478769D01*
G37*
G36*
X123453301Y-101476345D02*
G01*
X122410319Y-100433363D01*
X122622451Y-100221231D01*
X123665433Y-101264213D01*
X123453301Y-101476345D01*
G37*
G36*
X123099747Y-101829899D02*
G01*
X122056765Y-100786917D01*
X122268897Y-100574785D01*
X123311879Y-101617767D01*
X123099747Y-101829899D01*
G37*
G36*
X122746194Y-102183452D02*
G01*
X121703212Y-101140470D01*
X121915344Y-100928338D01*
X122958326Y-101971320D01*
X122746194Y-102183452D01*
G37*
G36*
X122392640Y-102537006D02*
G01*
X121349658Y-101494024D01*
X121561790Y-101281892D01*
X122604772Y-102324874D01*
X122392640Y-102537006D01*
G37*
G36*
X122039087Y-102890559D02*
G01*
X120996105Y-101847577D01*
X121208237Y-101635445D01*
X122251219Y-102678427D01*
X122039087Y-102890559D01*
G37*
G36*
X121685534Y-103244112D02*
G01*
X120642552Y-102201130D01*
X120854684Y-101988998D01*
X121897666Y-103031980D01*
X121685534Y-103244112D01*
G37*
G36*
X121331980Y-103597666D02*
G01*
X120288998Y-102554684D01*
X120501130Y-102342552D01*
X121544112Y-103385534D01*
X121331980Y-103597666D01*
G37*
G36*
X120978427Y-103951219D02*
G01*
X119935445Y-102908237D01*
X120147577Y-102696105D01*
X121190559Y-103739087D01*
X120978427Y-103951219D01*
G37*
G36*
X120624874Y-104304772D02*
G01*
X119581892Y-103261790D01*
X119794024Y-103049658D01*
X120837006Y-104092640D01*
X120624874Y-104304772D01*
G37*
G36*
X120271320Y-104658326D02*
G01*
X119228338Y-103615344D01*
X119440470Y-103403212D01*
X120483452Y-104446194D01*
X120271320Y-104658326D01*
G37*
G36*
X119917767Y-105011879D02*
G01*
X118874785Y-103968897D01*
X119086917Y-103756765D01*
X120129899Y-104799747D01*
X119917767Y-105011879D01*
G37*
G36*
X119564213Y-105365433D02*
G01*
X118521231Y-104322451D01*
X118733363Y-104110319D01*
X119776345Y-105153301D01*
X119564213Y-105365433D01*
G37*
G36*
X116735787Y-105365433D02*
G01*
X116523655Y-105153301D01*
X117566637Y-104110319D01*
X117778769Y-104322451D01*
X116735787Y-105365433D01*
G37*
G36*
X116382233Y-105011879D02*
G01*
X116170101Y-104799747D01*
X117213083Y-103756765D01*
X117425215Y-103968897D01*
X116382233Y-105011879D01*
G37*
G36*
X116028680Y-104658326D02*
G01*
X115816548Y-104446194D01*
X116859530Y-103403212D01*
X117071662Y-103615344D01*
X116028680Y-104658326D01*
G37*
G36*
X115675126Y-104304772D02*
G01*
X115462994Y-104092640D01*
X116505976Y-103049658D01*
X116718108Y-103261790D01*
X115675126Y-104304772D01*
G37*
G36*
X115321573Y-103951219D02*
G01*
X115109441Y-103739087D01*
X116152423Y-102696105D01*
X116364555Y-102908237D01*
X115321573Y-103951219D01*
G37*
G36*
X114968020Y-103597666D02*
G01*
X114755888Y-103385534D01*
X115798870Y-102342552D01*
X116011002Y-102554684D01*
X114968020Y-103597666D01*
G37*
G36*
X114614466Y-103244112D02*
G01*
X114402334Y-103031980D01*
X115445316Y-101988998D01*
X115657448Y-102201130D01*
X114614466Y-103244112D01*
G37*
G36*
X114260913Y-102890559D02*
G01*
X114048781Y-102678427D01*
X115091763Y-101635445D01*
X115303895Y-101847577D01*
X114260913Y-102890559D01*
G37*
G36*
X114075298Y-102369068D02*
G01*
X113863166Y-102156936D01*
X114570272Y-101449830D01*
X114782404Y-101661962D01*
X114075298Y-102369068D01*
G37*
G36*
X113553806Y-102183452D02*
G01*
X113341674Y-101971320D01*
X114384656Y-100928338D01*
X114596788Y-101140470D01*
X113553806Y-102183452D01*
G37*
G36*
X113200253Y-101829899D02*
G01*
X112988121Y-101617767D01*
X114031103Y-100574785D01*
X114243235Y-100786917D01*
X113200253Y-101829899D01*
G37*
G36*
X112846699Y-101476345D02*
G01*
X112634567Y-101264213D01*
X113677549Y-100221231D01*
X113889681Y-100433363D01*
X112846699Y-101476345D01*
G37*
G36*
X114161926Y-94283657D02*
G01*
X114073240Y-93690248D01*
X114567748Y-93616343D01*
X114656434Y-94209752D01*
X114161926Y-94283657D01*
G37*
G36*
X113232252Y-94422597D02*
G01*
X113143566Y-93829188D01*
X113638074Y-93755283D01*
X113726760Y-94348692D01*
X113232252Y-94422597D01*
G37*
D20*
X112320000Y-97650000D03*
X111380000Y-97650000D03*
D10*
G36*
X111628248Y-96006066D02*
G01*
X112193934Y-96571752D01*
X111557538Y-97208148D01*
X110991852Y-96642462D01*
X111628248Y-96006066D01*
G37*
G36*
X112370710Y-93920101D02*
G01*
X112936396Y-94485787D01*
X112300000Y-95122183D01*
X111734314Y-94556497D01*
X112370710Y-93920101D01*
G37*
G36*
X113714213Y-95263604D02*
G01*
X114279899Y-95829290D01*
X113643503Y-96465686D01*
X113077817Y-95900000D01*
X113714213Y-95263604D01*
G37*
G36*
X118182305Y-106093431D02*
G01*
X118606569Y-106517695D01*
X118253015Y-106871249D01*
X117828751Y-106446985D01*
X118182305Y-106093431D01*
G37*
G36*
X118846985Y-105428751D02*
G01*
X119271249Y-105853015D01*
X118917695Y-106206569D01*
X118493431Y-105782305D01*
X118846985Y-105428751D01*
G37*
G36*
X120232305Y-105243431D02*
G01*
X120656569Y-105667695D01*
X120303015Y-106021249D01*
X119878751Y-105596985D01*
X120232305Y-105243431D01*
G37*
G36*
X120896985Y-104578751D02*
G01*
X121321249Y-105003015D01*
X120967695Y-105356569D01*
X120543431Y-104932305D01*
X120896985Y-104578751D01*
G37*
G36*
X115367695Y-95206569D02*
G01*
X114943431Y-94782305D01*
X115296985Y-94428751D01*
X115721249Y-94853015D01*
X115367695Y-95206569D01*
G37*
G36*
X114703015Y-95871249D02*
G01*
X114278751Y-95446985D01*
X114632305Y-95093431D01*
X115056569Y-95517695D01*
X114703015Y-95871249D01*
G37*
G36*
X108806569Y-104482305D02*
G01*
X108382305Y-104906569D01*
X108028751Y-104553015D01*
X108453015Y-104128751D01*
X108806569Y-104482305D01*
G37*
G36*
X109471249Y-105146985D02*
G01*
X109046985Y-105571249D01*
X108693431Y-105217695D01*
X109117695Y-104793431D01*
X109471249Y-105146985D01*
G37*
G36*
X109806569Y-104082305D02*
G01*
X109382305Y-104506569D01*
X109028751Y-104153015D01*
X109453015Y-103728751D01*
X109806569Y-104082305D01*
G37*
G36*
X110471249Y-104746985D02*
G01*
X110046985Y-105171249D01*
X109693431Y-104817695D01*
X110117695Y-104393431D01*
X110471249Y-104746985D01*
G37*
D21*
X124450000Y-98720000D03*
X124450000Y-97780000D03*
D20*
X124320000Y-97000000D03*
X123380000Y-97000000D03*
X122530000Y-96200000D03*
X123470000Y-96200000D03*
X123430000Y-94150000D03*
X124370000Y-94150000D03*
D10*
G36*
X115288074Y-93485813D02*
G01*
X115376760Y-94079222D01*
X114882252Y-94153127D01*
X114793566Y-93559718D01*
X115288074Y-93485813D01*
G37*
G36*
X116217748Y-93346873D02*
G01*
X116306434Y-93940282D01*
X115811926Y-94014187D01*
X115723240Y-93420778D01*
X116217748Y-93346873D01*
G37*
G36*
X117917695Y-93806569D02*
G01*
X117493431Y-93382305D01*
X117846985Y-93028751D01*
X118271249Y-93453015D01*
X117917695Y-93806569D01*
G37*
G36*
X117253015Y-94471249D02*
G01*
X116828751Y-94046985D01*
X117182305Y-93693431D01*
X117606569Y-94117695D01*
X117253015Y-94471249D01*
G37*
G36*
X120126760Y-106220778D02*
G01*
X120038074Y-106814187D01*
X119543566Y-106740282D01*
X119632252Y-106146873D01*
X120126760Y-106220778D01*
G37*
G36*
X121056434Y-106359718D02*
G01*
X120967748Y-106953127D01*
X120473240Y-106879222D01*
X120561926Y-106285813D01*
X121056434Y-106359718D01*
G37*
D21*
X124500000Y-101620000D03*
X124500000Y-100680000D03*
D10*
G36*
X123927691Y-105126054D02*
G01*
X123948926Y-105129204D01*
X123969750Y-105134420D01*
X123989962Y-105141652D01*
X124009368Y-105150831D01*
X124027781Y-105161867D01*
X124045024Y-105174655D01*
X124060930Y-105189071D01*
X124075346Y-105204977D01*
X124088134Y-105222220D01*
X124099170Y-105240633D01*
X124108349Y-105260039D01*
X124115581Y-105280251D01*
X124120797Y-105301075D01*
X124123947Y-105322310D01*
X124125000Y-105343751D01*
X124125000Y-105781251D01*
X124123947Y-105802692D01*
X124120797Y-105823927D01*
X124115581Y-105844751D01*
X124108349Y-105864963D01*
X124099170Y-105884369D01*
X124088134Y-105902782D01*
X124075346Y-105920025D01*
X124060930Y-105935931D01*
X124045024Y-105950347D01*
X124027781Y-105963135D01*
X124009368Y-105974171D01*
X123989962Y-105983350D01*
X123969750Y-105990582D01*
X123948926Y-105995798D01*
X123927691Y-105998948D01*
X123906250Y-106000001D01*
X123393750Y-106000001D01*
X123372309Y-105998948D01*
X123351074Y-105995798D01*
X123330250Y-105990582D01*
X123310038Y-105983350D01*
X123290632Y-105974171D01*
X123272219Y-105963135D01*
X123254976Y-105950347D01*
X123239070Y-105935931D01*
X123224654Y-105920025D01*
X123211866Y-105902782D01*
X123200830Y-105884369D01*
X123191651Y-105864963D01*
X123184419Y-105844751D01*
X123179203Y-105823927D01*
X123176053Y-105802692D01*
X123175000Y-105781251D01*
X123175000Y-105343751D01*
X123176053Y-105322310D01*
X123179203Y-105301075D01*
X123184419Y-105280251D01*
X123191651Y-105260039D01*
X123200830Y-105240633D01*
X123211866Y-105222220D01*
X123224654Y-105204977D01*
X123239070Y-105189071D01*
X123254976Y-105174655D01*
X123272219Y-105161867D01*
X123290632Y-105150831D01*
X123310038Y-105141652D01*
X123330250Y-105134420D01*
X123351074Y-105129204D01*
X123372309Y-105126054D01*
X123393750Y-105125001D01*
X123906250Y-105125001D01*
X123927691Y-105126054D01*
G37*
G36*
X123927691Y-106701054D02*
G01*
X123948926Y-106704204D01*
X123969750Y-106709420D01*
X123989962Y-106716652D01*
X124009368Y-106725831D01*
X124027781Y-106736867D01*
X124045024Y-106749655D01*
X124060930Y-106764071D01*
X124075346Y-106779977D01*
X124088134Y-106797220D01*
X124099170Y-106815633D01*
X124108349Y-106835039D01*
X124115581Y-106855251D01*
X124120797Y-106876075D01*
X124123947Y-106897310D01*
X124125000Y-106918751D01*
X124125000Y-107356251D01*
X124123947Y-107377692D01*
X124120797Y-107398927D01*
X124115581Y-107419751D01*
X124108349Y-107439963D01*
X124099170Y-107459369D01*
X124088134Y-107477782D01*
X124075346Y-107495025D01*
X124060930Y-107510931D01*
X124045024Y-107525347D01*
X124027781Y-107538135D01*
X124009368Y-107549171D01*
X123989962Y-107558350D01*
X123969750Y-107565582D01*
X123948926Y-107570798D01*
X123927691Y-107573948D01*
X123906250Y-107575001D01*
X123393750Y-107575001D01*
X123372309Y-107573948D01*
X123351074Y-107570798D01*
X123330250Y-107565582D01*
X123310038Y-107558350D01*
X123290632Y-107549171D01*
X123272219Y-107538135D01*
X123254976Y-107525347D01*
X123239070Y-107510931D01*
X123224654Y-107495025D01*
X123211866Y-107477782D01*
X123200830Y-107459369D01*
X123191651Y-107439963D01*
X123184419Y-107419751D01*
X123179203Y-107398927D01*
X123176053Y-107377692D01*
X123175000Y-107356251D01*
X123175000Y-106918751D01*
X123176053Y-106897310D01*
X123179203Y-106876075D01*
X123184419Y-106855251D01*
X123191651Y-106835039D01*
X123200830Y-106815633D01*
X123211866Y-106797220D01*
X123224654Y-106779977D01*
X123239070Y-106764071D01*
X123254976Y-106749655D01*
X123272219Y-106736867D01*
X123290632Y-106725831D01*
X123310038Y-106716652D01*
X123330250Y-106709420D01*
X123351074Y-106704204D01*
X123372309Y-106701054D01*
X123393750Y-106700001D01*
X123906250Y-106700001D01*
X123927691Y-106701054D01*
G37*
G36*
X122427691Y-104876053D02*
G01*
X122448926Y-104879203D01*
X122469750Y-104884419D01*
X122489962Y-104891651D01*
X122509368Y-104900830D01*
X122527781Y-104911866D01*
X122545024Y-104924654D01*
X122560930Y-104939070D01*
X122575346Y-104954976D01*
X122588134Y-104972219D01*
X122599170Y-104990632D01*
X122608349Y-105010038D01*
X122615581Y-105030250D01*
X122620797Y-105051074D01*
X122623947Y-105072309D01*
X122625000Y-105093750D01*
X122625000Y-105531250D01*
X122623947Y-105552691D01*
X122620797Y-105573926D01*
X122615581Y-105594750D01*
X122608349Y-105614962D01*
X122599170Y-105634368D01*
X122588134Y-105652781D01*
X122575346Y-105670024D01*
X122560930Y-105685930D01*
X122545024Y-105700346D01*
X122527781Y-105713134D01*
X122509368Y-105724170D01*
X122489962Y-105733349D01*
X122469750Y-105740581D01*
X122448926Y-105745797D01*
X122427691Y-105748947D01*
X122406250Y-105750000D01*
X121893750Y-105750000D01*
X121872309Y-105748947D01*
X121851074Y-105745797D01*
X121830250Y-105740581D01*
X121810038Y-105733349D01*
X121790632Y-105724170D01*
X121772219Y-105713134D01*
X121754976Y-105700346D01*
X121739070Y-105685930D01*
X121724654Y-105670024D01*
X121711866Y-105652781D01*
X121700830Y-105634368D01*
X121691651Y-105614962D01*
X121684419Y-105594750D01*
X121679203Y-105573926D01*
X121676053Y-105552691D01*
X121675000Y-105531250D01*
X121675000Y-105093750D01*
X121676053Y-105072309D01*
X121679203Y-105051074D01*
X121684419Y-105030250D01*
X121691651Y-105010038D01*
X121700830Y-104990632D01*
X121711866Y-104972219D01*
X121724654Y-104954976D01*
X121739070Y-104939070D01*
X121754976Y-104924654D01*
X121772219Y-104911866D01*
X121790632Y-104900830D01*
X121810038Y-104891651D01*
X121830250Y-104884419D01*
X121851074Y-104879203D01*
X121872309Y-104876053D01*
X121893750Y-104875000D01*
X122406250Y-104875000D01*
X122427691Y-104876053D01*
G37*
G36*
X122427691Y-106451053D02*
G01*
X122448926Y-106454203D01*
X122469750Y-106459419D01*
X122489962Y-106466651D01*
X122509368Y-106475830D01*
X122527781Y-106486866D01*
X122545024Y-106499654D01*
X122560930Y-106514070D01*
X122575346Y-106529976D01*
X122588134Y-106547219D01*
X122599170Y-106565632D01*
X122608349Y-106585038D01*
X122615581Y-106605250D01*
X122620797Y-106626074D01*
X122623947Y-106647309D01*
X122625000Y-106668750D01*
X122625000Y-107106250D01*
X122623947Y-107127691D01*
X122620797Y-107148926D01*
X122615581Y-107169750D01*
X122608349Y-107189962D01*
X122599170Y-107209368D01*
X122588134Y-107227781D01*
X122575346Y-107245024D01*
X122560930Y-107260930D01*
X122545024Y-107275346D01*
X122527781Y-107288134D01*
X122509368Y-107299170D01*
X122489962Y-107308349D01*
X122469750Y-107315581D01*
X122448926Y-107320797D01*
X122427691Y-107323947D01*
X122406250Y-107325000D01*
X121893750Y-107325000D01*
X121872309Y-107323947D01*
X121851074Y-107320797D01*
X121830250Y-107315581D01*
X121810038Y-107308349D01*
X121790632Y-107299170D01*
X121772219Y-107288134D01*
X121754976Y-107275346D01*
X121739070Y-107260930D01*
X121724654Y-107245024D01*
X121711866Y-107227781D01*
X121700830Y-107209368D01*
X121691651Y-107189962D01*
X121684419Y-107169750D01*
X121679203Y-107148926D01*
X121676053Y-107127691D01*
X121675000Y-107106250D01*
X121675000Y-106668750D01*
X121676053Y-106647309D01*
X121679203Y-106626074D01*
X121684419Y-106605250D01*
X121691651Y-106585038D01*
X121700830Y-106565632D01*
X121711866Y-106547219D01*
X121724654Y-106529976D01*
X121739070Y-106514070D01*
X121754976Y-106499654D01*
X121772219Y-106486866D01*
X121790632Y-106475830D01*
X121810038Y-106466651D01*
X121830250Y-106459419D01*
X121851074Y-106454203D01*
X121872309Y-106451053D01*
X121893750Y-106450000D01*
X122406250Y-106450000D01*
X122427691Y-106451053D01*
G37*
G36*
X124039429Y-102828769D02*
G01*
X123721231Y-102510571D01*
X124145495Y-102086307D01*
X124463693Y-102404505D01*
X124039429Y-102828769D01*
G37*
G36*
X122554505Y-104313693D02*
G01*
X122236307Y-103995495D01*
X122660571Y-103571231D01*
X122978769Y-103889429D01*
X122554505Y-104313693D01*
G37*
D21*
X123700000Y-99380000D03*
X123700000Y-100320000D03*
D10*
G36*
X112306569Y-98632305D02*
G01*
X111882305Y-99056569D01*
X111528751Y-98703015D01*
X111953015Y-98278751D01*
X112306569Y-98632305D01*
G37*
G36*
X112971249Y-99296985D02*
G01*
X112546985Y-99721249D01*
X112193431Y-99367695D01*
X112617695Y-98943431D01*
X112971249Y-99296985D01*
G37*
G36*
X116982305Y-105843431D02*
G01*
X117406569Y-106267695D01*
X117053015Y-106621249D01*
X116628751Y-106196985D01*
X116982305Y-105843431D01*
G37*
G36*
X117646985Y-105178751D02*
G01*
X118071249Y-105603015D01*
X117717695Y-105956569D01*
X117293431Y-105532305D01*
X117646985Y-105178751D01*
G37*
D22*
X135480000Y-93690000D03*
X135480000Y-96230000D03*
X135480000Y-98770000D03*
X135480000Y-101310000D03*
X135480000Y-103850000D03*
D23*
X135480000Y-106390000D03*
D10*
G36*
X113346016Y-105299569D02*
G01*
X112497488Y-106148097D01*
X111507538Y-105158147D01*
X112356066Y-104309619D01*
X113346016Y-105299569D01*
G37*
G36*
X111790381Y-103743934D02*
G01*
X110941853Y-104592462D01*
X109951903Y-103602512D01*
X110800431Y-102753984D01*
X111790381Y-103743934D01*
G37*
G36*
X112992462Y-102541853D02*
G01*
X112143934Y-103390381D01*
X111153984Y-102400431D01*
X112002512Y-101551903D01*
X112992462Y-102541853D01*
G37*
G36*
X114548097Y-104097488D02*
G01*
X113699569Y-104946016D01*
X112709619Y-103956066D01*
X113558147Y-103107538D01*
X114548097Y-104097488D01*
G37*
D24*
X109900000Y-98700000D03*
X108950000Y-98700000D03*
X110850000Y-98700000D03*
X110850000Y-100900000D03*
X109900000Y-100900000D03*
X108950000Y-100900000D03*
D21*
X108500000Y-97220000D03*
X108500000Y-96280000D03*
X108500000Y-102630000D03*
X108500000Y-103570000D03*
X109450000Y-97520000D03*
X109450000Y-96580000D03*
D10*
G36*
X110089182Y-94431414D02*
G01*
X110110241Y-94435579D01*
X110130791Y-94441788D01*
X110150633Y-94449981D01*
X110169576Y-94460080D01*
X110187438Y-94471987D01*
X110204047Y-94485588D01*
X110219244Y-94500751D01*
X110232880Y-94517330D01*
X110244826Y-94535166D01*
X110254966Y-94554087D01*
X110263203Y-94573912D01*
X110269457Y-94594447D01*
X110273668Y-94615498D01*
X110349420Y-95122369D01*
X110351548Y-95143730D01*
X110351571Y-95165197D01*
X110349490Y-95186563D01*
X110345325Y-95207623D01*
X110339116Y-95228172D01*
X110330922Y-95248014D01*
X110320824Y-95266957D01*
X110308917Y-95284820D01*
X110295316Y-95301429D01*
X110280153Y-95316625D01*
X110263574Y-95330261D01*
X110245737Y-95342207D01*
X110226816Y-95352348D01*
X110206992Y-95360584D01*
X110186456Y-95366838D01*
X110165407Y-95371049D01*
X109732713Y-95435716D01*
X109711351Y-95437844D01*
X109689884Y-95437867D01*
X109668518Y-95435786D01*
X109647459Y-95431621D01*
X109626909Y-95425412D01*
X109607067Y-95417219D01*
X109588124Y-95407120D01*
X109570262Y-95395213D01*
X109553653Y-95381612D01*
X109538456Y-95366449D01*
X109524820Y-95349870D01*
X109512874Y-95332034D01*
X109502734Y-95313113D01*
X109494497Y-95293288D01*
X109488243Y-95272753D01*
X109484032Y-95251702D01*
X109408280Y-94744831D01*
X109406152Y-94723470D01*
X109406129Y-94702003D01*
X109408210Y-94680637D01*
X109412375Y-94659577D01*
X109418584Y-94639028D01*
X109426778Y-94619186D01*
X109436876Y-94600243D01*
X109448783Y-94582380D01*
X109462384Y-94565771D01*
X109477547Y-94550575D01*
X109494126Y-94536939D01*
X109511963Y-94524993D01*
X109530884Y-94514852D01*
X109550708Y-94506616D01*
X109571244Y-94500362D01*
X109592293Y-94496151D01*
X110024987Y-94431484D01*
X110046349Y-94429356D01*
X110067816Y-94429333D01*
X110089182Y-94431414D01*
G37*
G36*
X108531482Y-94664214D02*
G01*
X108552541Y-94668379D01*
X108573091Y-94674588D01*
X108592933Y-94682781D01*
X108611876Y-94692880D01*
X108629738Y-94704787D01*
X108646347Y-94718388D01*
X108661544Y-94733551D01*
X108675180Y-94750130D01*
X108687126Y-94767966D01*
X108697266Y-94786887D01*
X108705503Y-94806712D01*
X108711757Y-94827247D01*
X108715968Y-94848298D01*
X108791720Y-95355169D01*
X108793848Y-95376530D01*
X108793871Y-95397997D01*
X108791790Y-95419363D01*
X108787625Y-95440423D01*
X108781416Y-95460972D01*
X108773222Y-95480814D01*
X108763124Y-95499757D01*
X108751217Y-95517620D01*
X108737616Y-95534229D01*
X108722453Y-95549425D01*
X108705874Y-95563061D01*
X108688037Y-95575007D01*
X108669116Y-95585148D01*
X108649292Y-95593384D01*
X108628756Y-95599638D01*
X108607707Y-95603849D01*
X108175013Y-95668516D01*
X108153651Y-95670644D01*
X108132184Y-95670667D01*
X108110818Y-95668586D01*
X108089759Y-95664421D01*
X108069209Y-95658212D01*
X108049367Y-95650019D01*
X108030424Y-95639920D01*
X108012562Y-95628013D01*
X107995953Y-95614412D01*
X107980756Y-95599249D01*
X107967120Y-95582670D01*
X107955174Y-95564834D01*
X107945034Y-95545913D01*
X107936797Y-95526088D01*
X107930543Y-95505553D01*
X107926332Y-95484502D01*
X107850580Y-94977631D01*
X107848452Y-94956270D01*
X107848429Y-94934803D01*
X107850510Y-94913437D01*
X107854675Y-94892377D01*
X107860884Y-94871828D01*
X107869078Y-94851986D01*
X107879176Y-94833043D01*
X107891083Y-94815180D01*
X107904684Y-94798571D01*
X107919847Y-94783375D01*
X107936426Y-94769739D01*
X107954263Y-94757793D01*
X107973184Y-94747652D01*
X107993008Y-94739416D01*
X108013544Y-94733162D01*
X108034593Y-94728951D01*
X108467287Y-94664284D01*
X108488649Y-94662156D01*
X108510116Y-94662133D01*
X108531482Y-94664214D01*
G37*
G36*
X114267695Y-105706569D02*
G01*
X113843431Y-105282305D01*
X114196985Y-104928751D01*
X114621249Y-105353015D01*
X114267695Y-105706569D01*
G37*
G36*
X113603015Y-106371249D02*
G01*
X113178751Y-105946985D01*
X113532305Y-105593431D01*
X113956569Y-106017695D01*
X113603015Y-106371249D01*
G37*
G36*
X110217695Y-102556569D02*
G01*
X109793431Y-102132305D01*
X110146985Y-101778751D01*
X110571249Y-102203015D01*
X110217695Y-102556569D01*
G37*
G36*
X109553015Y-103221249D02*
G01*
X109128751Y-102796985D01*
X109482305Y-102443431D01*
X109906569Y-102867695D01*
X109553015Y-103221249D01*
G37*
G36*
X115206569Y-104682305D02*
G01*
X114782305Y-105106569D01*
X114428751Y-104753015D01*
X114853015Y-104328751D01*
X115206569Y-104682305D01*
G37*
G36*
X115871249Y-105346985D02*
G01*
X115446985Y-105771249D01*
X115093431Y-105417695D01*
X115517695Y-104993431D01*
X115871249Y-105346985D01*
G37*
D21*
X110350000Y-96580000D03*
X110350000Y-97520000D03*
M02*
