M48
; DRILL file {KiCad 6.0.0-d3dd2cf0fa~116~ubuntu20.04.1} date Sun 09 Jan 2022 06:21:25 PM CET
; FORMAT={-:-/ absolute / metric / decimal}
; #@! TF.CreationDate,2022-01-09T18:21:25+01:00
; #@! TF.GenerationSoftware,Kicad,Pcbnew,6.0.0-d3dd2cf0fa~116~ubuntu20.04.1
; #@! TF.FileFunction,Plated,1,2,PTH
FMAT,2
METRIC
; #@! TA.AperFunction,Plated,PTH,ViaDrill
T1C0.400
; #@! TA.AperFunction,Plated,PTH,ComponentDrill
T2C0.600
; #@! TA.AperFunction,Plated,PTH,ComponentDrill
T3C1.000
; #@! TA.AperFunction,Plated,PTH,ComponentDrill
T4C1.016
%
G90
G05
T1
X105.619Y-98.119
X105.8Y-100.75
X108.5Y-99.6
X109.25Y-99.9
X109.428Y-105.324
X110.35Y-99.8
X110.373Y-105.131
X111.15Y-95.85
X111.4Y-94.9
X111.6Y-99.75
X111.8Y-104.6
X112.0Y-100.85
X112.238Y-95.799
X113.1Y-97.0
X113.35Y-96.2
X114.8Y-104.6
X114.81Y-105.91
X115.187Y-100.643
X115.65Y-94.7
X115.65Y-99.25
X115.727Y-101.234
X116.325Y-105.626
X116.75Y-102.05
X117.045Y-96.95
X117.523Y-103.262
X117.6Y-98.0
X117.6Y-98.8
X117.801Y-106.544
X117.85Y-99.8
X118.185Y-102.699
X118.21Y-96.054
X118.25Y-97.2
X118.35Y-105.0
X118.6Y-95.15
X118.65Y-103.35
X118.842Y-96.612
X119.3Y-98.75
X119.95Y-98.2
X120.0Y-101.9
X120.05Y-101.0
X120.25Y-99.4
X120.318Y-93.085
X120.7Y-98.55
X121.05Y-100.9
X121.25Y-106.0
X121.6Y-99.201
X121.65Y-104.3
X122.721Y-102.974
X124.75Y-104.5
X125.05Y-105.4
X125.1Y-102.8
X126.0Y-96.1
X126.057Y-101.858
X126.4Y-105.3
X126.85Y-101.75
X127.2Y-98.7
X127.4Y-103.9
X128.2Y-94.5
X128.35Y-95.85
X128.856Y-101.266
X129.05Y-105.35
X129.15Y-103.85
X129.25Y-98.75
X130.5Y-93.8
X131.1Y-104.2
X132.35Y-100.25
X132.45Y-102.25
X133.6Y-92.85
X133.9Y-107.1
T3
X135.48Y-93.69
X135.48Y-96.23
X135.48Y-98.77
X135.48Y-101.31
X135.48Y-103.85
X135.48Y-106.39
T4
X128.06Y-97.46
X128.06Y-100.0
X128.06Y-102.54
X130.6Y-97.46
X130.6Y-100.0
X130.6Y-102.54
T2
X102.205Y-95.68G85X101.605Y-95.68
G05
X102.205Y-104.32G85X101.605Y-104.32
G05
X106.635Y-95.68G85X105.535Y-95.68
G05
X106.635Y-104.32G85X105.535Y-104.32
G05
T0
M30
