G04 #@! TF.GenerationSoftware,KiCad,Pcbnew,6.0.0-d3dd2cf0fa~116~ubuntu20.04.1*
G04 #@! TF.CreationDate,2022-01-09T18:21:22+01:00*
G04 #@! TF.ProjectId,JEGGER_s-link,4a454747-4552-45f7-932d-6c696e6b2e6b,rev?*
G04 #@! TF.SameCoordinates,Original*
G04 #@! TF.FileFunction,Copper,L2,Bot*
G04 #@! TF.FilePolarity,Positive*
%FSLAX46Y46*%
G04 Gerber Fmt 4.6, Leading zero omitted, Abs format (unit mm)*
G04 Created by KiCad (PCBNEW 6.0.0-d3dd2cf0fa~116~ubuntu20.04.1) date 2022-01-09 18:21:22*
%MOMM*%
%LPD*%
G01*
G04 APERTURE LIST*
G04 Aperture macros list*
%AMRotRect*
0 Rectangle, with rotation*
0 The origin of the aperture is its center*
0 $1 length*
0 $2 width*
0 $3 Rotation angle, in degrees counterclockwise*
0 Add horizontal line*
21,1,$1,$2,0,0,$3*%
G04 Aperture macros list end*
G04 #@! TA.AperFunction,ComponentPad*
%ADD10O,2.100000X1.000000*%
G04 #@! TD*
G04 #@! TA.AperFunction,ComponentPad*
%ADD11O,1.600000X1.000000*%
G04 #@! TD*
G04 #@! TA.AperFunction,ConnectorPad*
%ADD12C,0.784860*%
G04 #@! TD*
G04 #@! TA.AperFunction,ComponentPad*
%ADD13O,1.727200X1.727200*%
G04 #@! TD*
G04 #@! TA.AperFunction,ComponentPad*
%ADD14R,1.727200X1.727200*%
G04 #@! TD*
G04 #@! TA.AperFunction,SMDPad,CuDef*
%ADD15RotRect,1.000000X1.000000X351.500000*%
G04 #@! TD*
G04 #@! TA.AperFunction,ComponentPad*
%ADD16O,1.700000X1.700000*%
G04 #@! TD*
G04 #@! TA.AperFunction,ComponentPad*
%ADD17R,1.700000X1.700000*%
G04 #@! TD*
G04 #@! TA.AperFunction,ViaPad*
%ADD18C,0.600000*%
G04 #@! TD*
G04 #@! TA.AperFunction,Conductor*
%ADD19C,0.127000*%
G04 #@! TD*
G04 #@! TA.AperFunction,Conductor*
%ADD20C,0.400000*%
G04 #@! TD*
G04 #@! TA.AperFunction,Conductor*
%ADD21C,0.200000*%
G04 #@! TD*
G04 #@! TA.AperFunction,Conductor*
%ADD22C,0.300000*%
G04 #@! TD*
G04 APERTURE END LIST*
D10*
X106085000Y-95680000D03*
X106085000Y-104320000D03*
D11*
X101905000Y-95680000D03*
X101905000Y-104320000D03*
D12*
X122370000Y-94785000D03*
X122370000Y-93515000D03*
X121100000Y-94785000D03*
X121100000Y-93515000D03*
X119830000Y-94785000D03*
X119830000Y-93515000D03*
D13*
X128060000Y-97460000D03*
X130600000Y-97460000D03*
X128060000Y-100000000D03*
X130600000Y-100000000D03*
X128060000Y-102540000D03*
D14*
X130600000Y-102540000D03*
D15*
X116900000Y-105800000D03*
X118900000Y-106100000D03*
D16*
X135480000Y-93690000D03*
X135480000Y-96230000D03*
X135480000Y-98770000D03*
X135480000Y-101310000D03*
X135480000Y-103850000D03*
D17*
X135480000Y-106390000D03*
D18*
X126000000Y-96100000D03*
X128200000Y-94500000D03*
X133900000Y-107100000D03*
X113350000Y-96200000D03*
X112238316Y-95798981D03*
X115650000Y-94700000D03*
X117800905Y-106543781D03*
X120000000Y-101900000D03*
X121050000Y-100900000D03*
X125100000Y-102800000D03*
X127400000Y-103900000D03*
X129150000Y-103850000D03*
X126400000Y-105300000D03*
X129050000Y-105350000D03*
X131100000Y-104200000D03*
X132450000Y-102250000D03*
X132350000Y-100250000D03*
X129250000Y-98750000D03*
X128350000Y-95850000D03*
X130500000Y-93800000D03*
X133600000Y-92850000D03*
X127200000Y-98700000D03*
X120250000Y-99400000D03*
X120700000Y-98550000D03*
X119300000Y-98750000D03*
X117850000Y-99800000D03*
X115650000Y-99250000D03*
X113100000Y-97000000D03*
X110350000Y-99800000D03*
X111600000Y-99750000D03*
X112000000Y-100850000D03*
X111800000Y-104600000D03*
X118210071Y-96054131D03*
X114800000Y-104600000D03*
X114810000Y-105910000D03*
X111150000Y-95850000D03*
X105619001Y-98119001D03*
X105800000Y-100750000D03*
X108500000Y-99600000D03*
X117600000Y-98000000D03*
X109250000Y-99900000D03*
X117600000Y-98800000D03*
X111400000Y-94900000D03*
X118600000Y-95150000D03*
X117045452Y-96949895D03*
X120318136Y-93084720D03*
X118185473Y-102698668D03*
X116750000Y-102050000D03*
X121650000Y-104300000D03*
X121250000Y-106000000D03*
X126850000Y-101750000D03*
X125050002Y-105400000D03*
X124750000Y-104500000D03*
X126057313Y-101858013D03*
X118250000Y-97200000D03*
X118841961Y-96611854D03*
X118350000Y-105000000D03*
X117522988Y-103262178D03*
X115187317Y-100643337D03*
X110372814Y-105131455D03*
X109427779Y-105324288D03*
X115726664Y-101234204D03*
X120050000Y-101000000D03*
X121600000Y-99201296D03*
X122720738Y-102973559D03*
X128856051Y-101266374D03*
X119950000Y-98200000D03*
X118650000Y-103350000D03*
X116324504Y-105626215D03*
D19*
X117910072Y-96705946D02*
X117686499Y-96929519D01*
X117910072Y-96354130D02*
X117910072Y-96705946D01*
X118210071Y-96054131D02*
X117910072Y-96354130D01*
X117686499Y-97013501D02*
X117686499Y-97113501D01*
X117686499Y-96929519D02*
X117686499Y-97013501D01*
X117686499Y-97113501D02*
X117200000Y-97600000D01*
X117200000Y-97600000D02*
X116800000Y-97600000D01*
D20*
X111150000Y-95850000D02*
X107888002Y-95850000D01*
X107888002Y-95850000D02*
X105619001Y-98119001D01*
D21*
X105800000Y-100750000D02*
X107350000Y-100750000D01*
X107350000Y-100750000D02*
X108500000Y-99600000D01*
X108500000Y-99450000D02*
X108650000Y-99300000D01*
X108500000Y-99600000D02*
X108500000Y-99450000D01*
X108650000Y-99300000D02*
X108650000Y-99167156D01*
X117400000Y-98200000D02*
X117600000Y-98000000D01*
X109617156Y-98200000D02*
X117400000Y-98200000D01*
X108650000Y-99167156D02*
X109617156Y-98200000D01*
X117400000Y-98600000D02*
X117600000Y-98800000D01*
X109782844Y-98600000D02*
X117400000Y-98600000D01*
X109250000Y-99900000D02*
X109250000Y-99132844D01*
X109250000Y-99132844D02*
X109782844Y-98600000D01*
D22*
X116900001Y-93750000D02*
X118000001Y-94850000D01*
X114731353Y-93750000D02*
X116900001Y-93750000D01*
X111400000Y-94900000D02*
X112176436Y-94123564D01*
X112176436Y-94123564D02*
X114731353Y-93750000D01*
D21*
X119115990Y-93355969D02*
X118144031Y-93355969D01*
X118144031Y-93355969D02*
X117350000Y-94150000D01*
X119830000Y-93515000D02*
X119275021Y-93515000D01*
X119275021Y-93515000D02*
X119115990Y-93355969D01*
X118300000Y-95150000D02*
X118600000Y-95150000D01*
X118050000Y-94850000D02*
X118050000Y-94900000D01*
X118050000Y-94900000D02*
X118300000Y-95150000D01*
D22*
X117045452Y-96525631D02*
X117045452Y-96949895D01*
X118600000Y-95150000D02*
X118137998Y-95150000D01*
X117045452Y-96242546D02*
X117045452Y-96525631D01*
X118137998Y-95150000D02*
X117045452Y-96242546D01*
D21*
X120260280Y-93084720D02*
X119830000Y-93515000D01*
X120318136Y-93084720D02*
X120260280Y-93084720D01*
D19*
X117398668Y-102698668D02*
X116750000Y-102050000D01*
X118185473Y-102698668D02*
X117398668Y-102698668D01*
X121650000Y-104300000D02*
X121650000Y-105600000D01*
X121650000Y-105600000D02*
X121250000Y-106000000D01*
X126850000Y-101750000D02*
X126850000Y-103600002D01*
X126850000Y-103600002D02*
X125050002Y-105400000D01*
X126057313Y-103842687D02*
X126057313Y-101858013D01*
X124750000Y-104500000D02*
X125400000Y-104500000D01*
X125400000Y-104500000D02*
X126057313Y-103842687D01*
X118674264Y-97200000D02*
X118250000Y-97200000D01*
X121100000Y-95339979D02*
X119239979Y-97200000D01*
X121100000Y-94785000D02*
X121100000Y-95339979D01*
X119239979Y-97200000D02*
X118674264Y-97200000D01*
X119830000Y-95623815D02*
X118841961Y-96611854D01*
X119830000Y-94785000D02*
X119830000Y-95623815D01*
X118350000Y-105000000D02*
X117522988Y-104172988D01*
X117522988Y-104172988D02*
X117522988Y-103262178D01*
X110372814Y-104014723D02*
X110372814Y-104707191D01*
X110372814Y-104707191D02*
X110372814Y-105131455D01*
X115187317Y-100643337D02*
X113744200Y-100643337D01*
X113744200Y-100643337D02*
X110372814Y-104014723D01*
X110642831Y-105740238D02*
X110037594Y-105652089D01*
X109709793Y-105324288D02*
X109427779Y-105324288D01*
X110936315Y-105446754D02*
X110642831Y-105740238D01*
X110037594Y-105652089D02*
X109709793Y-105324288D01*
X115726664Y-101234204D02*
X113615796Y-101234204D01*
X113615796Y-101234204D02*
X110900000Y-103950000D01*
X110900000Y-103950000D02*
X110900000Y-104824659D01*
X110900000Y-104824659D02*
X110936315Y-104860974D01*
X110936315Y-104860974D02*
X110936315Y-105446754D01*
X132830000Y-101200000D02*
X134630001Y-103000001D01*
X129623661Y-101200000D02*
X132830000Y-101200000D01*
X128060000Y-100000000D02*
X128423661Y-100000000D01*
X128423661Y-100000000D02*
X129623661Y-101200000D01*
X134630001Y-103000001D02*
X135480000Y-103850000D01*
X120050000Y-101000000D02*
X121600000Y-99450000D01*
X128060000Y-100000000D02*
X122398704Y-100000000D01*
X121899999Y-99501295D02*
X121600000Y-99201296D01*
X122398704Y-100000000D02*
X121899999Y-99501295D01*
X121600000Y-99450000D02*
X121600000Y-99201296D01*
X134370000Y-96230000D02*
X135480000Y-96230000D01*
X130600000Y-100000000D02*
X134370000Y-96230000D01*
X122720738Y-102973559D02*
X124557798Y-101136499D01*
X128301912Y-101136499D02*
X128431787Y-101266374D01*
X128431787Y-101266374D02*
X128856051Y-101266374D01*
X124557798Y-101136499D02*
X128301912Y-101136499D01*
X131830000Y-93690000D02*
X135480000Y-93690000D01*
X128060000Y-97460000D02*
X131830000Y-93690000D01*
X120690000Y-97460000D02*
X119950000Y-98200000D01*
X128060000Y-97460000D02*
X120690000Y-97460000D01*
X118900000Y-105594447D02*
X118900000Y-106100000D01*
X118949999Y-103649999D02*
X118949999Y-105544448D01*
X118949999Y-105544448D02*
X118900000Y-105594447D01*
X118650000Y-103350000D02*
X118949999Y-103649999D01*
X116394447Y-105800000D02*
X116324504Y-105730057D01*
X116900000Y-105800000D02*
X116394447Y-105800000D01*
X116324504Y-105730057D02*
X116324504Y-105626215D01*
G04 #@! TA.AperFunction,Conductor*
G36*
X137468227Y-92152518D02*
G01*
X137468778Y-92152645D01*
X137468779Y-92152645D01*
X137479642Y-92155143D01*
X137490514Y-92152683D01*
X137498540Y-92152697D01*
X137509450Y-92153319D01*
X137571972Y-92160363D01*
X137591304Y-92162541D01*
X137612917Y-92167475D01*
X137708109Y-92200784D01*
X137728083Y-92210403D01*
X137813472Y-92264057D01*
X137830804Y-92277878D01*
X137902122Y-92349196D01*
X137915943Y-92366528D01*
X137969597Y-92451917D01*
X137979217Y-92471892D01*
X138012527Y-92567088D01*
X138017459Y-92588699D01*
X138024872Y-92654481D01*
X138026744Y-92671096D01*
X138027367Y-92682356D01*
X138027356Y-92688776D01*
X138024857Y-92699642D01*
X138027559Y-92711583D01*
X138030000Y-92733432D01*
X138030000Y-107266040D01*
X138027482Y-107288227D01*
X138024857Y-107299642D01*
X138027317Y-107310514D01*
X138027303Y-107318540D01*
X138026681Y-107329450D01*
X138017459Y-107411303D01*
X138012525Y-107432917D01*
X137979216Y-107528109D01*
X137969597Y-107548083D01*
X137915943Y-107633472D01*
X137902122Y-107650804D01*
X137830804Y-107722122D01*
X137813472Y-107735943D01*
X137728083Y-107789597D01*
X137708108Y-107799217D01*
X137612912Y-107832527D01*
X137591301Y-107837459D01*
X137567962Y-107840089D01*
X137508897Y-107846744D01*
X137497644Y-107847367D01*
X137491224Y-107847356D01*
X137480358Y-107844857D01*
X137468417Y-107847559D01*
X137446568Y-107850000D01*
X124521655Y-107850000D01*
X124507387Y-107848966D01*
X124497727Y-107847559D01*
X121650765Y-107432917D01*
X120461774Y-107259748D01*
X134429500Y-107259748D01*
X134430448Y-107264512D01*
X134437507Y-107300000D01*
X134441133Y-107318231D01*
X134485448Y-107384552D01*
X134551769Y-107428867D01*
X134561332Y-107430769D01*
X134561334Y-107430770D01*
X134584005Y-107435279D01*
X134610252Y-107440500D01*
X136349748Y-107440500D01*
X136375995Y-107435279D01*
X136398666Y-107430770D01*
X136398668Y-107430769D01*
X136408231Y-107428867D01*
X136474552Y-107384552D01*
X136518867Y-107318231D01*
X136522494Y-107300000D01*
X136529552Y-107264512D01*
X136530500Y-107259748D01*
X136530500Y-105520252D01*
X136522171Y-105478378D01*
X136520770Y-105471334D01*
X136520769Y-105471332D01*
X136518867Y-105461769D01*
X136474552Y-105395448D01*
X136408231Y-105351133D01*
X136398668Y-105349231D01*
X136398666Y-105349230D01*
X136368942Y-105343318D01*
X136349748Y-105339500D01*
X134610252Y-105339500D01*
X134591058Y-105343318D01*
X134561334Y-105349230D01*
X134561332Y-105349231D01*
X134551769Y-105351133D01*
X134485448Y-105395448D01*
X134441133Y-105461769D01*
X134439231Y-105471332D01*
X134439230Y-105471334D01*
X134437829Y-105478378D01*
X134429500Y-105520252D01*
X134429500Y-107259748D01*
X120461774Y-107259748D01*
X111085914Y-105894213D01*
X111031056Y-105867117D01*
X111002601Y-105812950D01*
X111011420Y-105752404D01*
X111030178Y-105726243D01*
X111097713Y-105658708D01*
X111112710Y-105646400D01*
X111126648Y-105637087D01*
X111138040Y-105620038D01*
X115818895Y-105620038D01*
X115819810Y-105627035D01*
X115819810Y-105627036D01*
X115830806Y-105711123D01*
X115837484Y-105762194D01*
X115840325Y-105768650D01*
X115840325Y-105768651D01*
X115877212Y-105852482D01*
X115895224Y-105893418D01*
X115941349Y-105948290D01*
X115982935Y-105997764D01*
X115982938Y-105997766D01*
X115987474Y-106003163D01*
X115993345Y-106007071D01*
X115993346Y-106007072D01*
X116093274Y-106073590D01*
X116131237Y-106121574D01*
X116136329Y-106170634D01*
X116130371Y-106210499D01*
X116133232Y-106270059D01*
X116167257Y-106342201D01*
X116226299Y-106395832D01*
X116282420Y-106415982D01*
X116287224Y-106416700D01*
X116287228Y-106416701D01*
X117305687Y-106568910D01*
X117305689Y-106568910D01*
X117310499Y-106569629D01*
X117343197Y-106568058D01*
X117360322Y-106567236D01*
X117360323Y-106567236D01*
X117370059Y-106566768D01*
X117378874Y-106562610D01*
X117378876Y-106562610D01*
X117433381Y-106536903D01*
X117433382Y-106536903D01*
X117442201Y-106532743D01*
X117495832Y-106473701D01*
X117515982Y-106417580D01*
X117519233Y-106395832D01*
X117668910Y-105394313D01*
X117668910Y-105394311D01*
X117669629Y-105389501D01*
X117667695Y-105349230D01*
X117667236Y-105339678D01*
X117667236Y-105339677D01*
X117666768Y-105329941D01*
X117657900Y-105311137D01*
X117636903Y-105266619D01*
X117636903Y-105266618D01*
X117632743Y-105257799D01*
X117573701Y-105204168D01*
X117517580Y-105184018D01*
X117512776Y-105183300D01*
X117512772Y-105183299D01*
X116494313Y-105031090D01*
X116494311Y-105031090D01*
X116489501Y-105030371D01*
X116456803Y-105031942D01*
X116439678Y-105032764D01*
X116439677Y-105032764D01*
X116429941Y-105033232D01*
X116421126Y-105037390D01*
X116421124Y-105037390D01*
X116366619Y-105063097D01*
X116357799Y-105067257D01*
X116351242Y-105074476D01*
X116334559Y-105092842D01*
X116281438Y-105123203D01*
X116269361Y-105124408D01*
X116262929Y-105125289D01*
X116255880Y-105125246D01*
X116249104Y-105127183D01*
X116249101Y-105127183D01*
X116124813Y-105162705D01*
X116124811Y-105162706D01*
X116118033Y-105164643D01*
X115996784Y-105241145D01*
X115992117Y-105246429D01*
X115992115Y-105246431D01*
X115906548Y-105343318D01*
X115906546Y-105343320D01*
X115901881Y-105348603D01*
X115840951Y-105478378D01*
X115839866Y-105485347D01*
X115839865Y-105485350D01*
X115827212Y-105566619D01*
X115818895Y-105620038D01*
X111138040Y-105620038D01*
X111184998Y-105549762D01*
X111200315Y-105472756D01*
X111200315Y-105472752D01*
X111205486Y-105446754D01*
X111202217Y-105430318D01*
X111200315Y-105411006D01*
X111200315Y-104896722D01*
X111202217Y-104877409D01*
X111203584Y-104870536D01*
X111205486Y-104860974D01*
X111203017Y-104848558D01*
X111200315Y-104834976D01*
X111200315Y-104834972D01*
X111186900Y-104767530D01*
X111184998Y-104757966D01*
X111179580Y-104749858D01*
X111175849Y-104740850D01*
X111177272Y-104740261D01*
X111164000Y-104696509D01*
X111164000Y-104100360D01*
X111182907Y-104042169D01*
X111192996Y-104030356D01*
X113179530Y-102043823D01*
X116244391Y-102043823D01*
X116245306Y-102050820D01*
X116245306Y-102050821D01*
X116247865Y-102070391D01*
X116262980Y-102185979D01*
X116265821Y-102192435D01*
X116265821Y-102192436D01*
X116314108Y-102302175D01*
X116320720Y-102317203D01*
X116333423Y-102332315D01*
X116408431Y-102421549D01*
X116408434Y-102421551D01*
X116412970Y-102426948D01*
X116418841Y-102430856D01*
X116418842Y-102430857D01*
X116421557Y-102432664D01*
X116532313Y-102506390D01*
X116631063Y-102537241D01*
X116662425Y-102547039D01*
X116662426Y-102547039D01*
X116669157Y-102549142D01*
X116740828Y-102550456D01*
X116805445Y-102551641D01*
X116805447Y-102551641D01*
X116812499Y-102551770D01*
X116819304Y-102549915D01*
X116822200Y-102549554D01*
X116882281Y-102561125D01*
X116904439Y-102577791D01*
X117133454Y-102806806D01*
X117161231Y-102861323D01*
X117151660Y-102921755D01*
X117137654Y-102942344D01*
X117105032Y-102979281D01*
X117105030Y-102979283D01*
X117100365Y-102984566D01*
X117039435Y-103114341D01*
X117038350Y-103121310D01*
X117038349Y-103121313D01*
X117026439Y-103197810D01*
X117017379Y-103256001D01*
X117018294Y-103262998D01*
X117018294Y-103262999D01*
X117034738Y-103388750D01*
X117035968Y-103398157D01*
X117038809Y-103404613D01*
X117038809Y-103404614D01*
X117087965Y-103516328D01*
X117093708Y-103529381D01*
X117120516Y-103561273D01*
X117181419Y-103633727D01*
X117181422Y-103633729D01*
X117185958Y-103639126D01*
X117214847Y-103658356D01*
X117252809Y-103706340D01*
X117258988Y-103740767D01*
X117258988Y-104137234D01*
X117257086Y-104156547D01*
X117253816Y-104172988D01*
X117258988Y-104198990D01*
X117274305Y-104275996D01*
X117332655Y-104363321D01*
X117346593Y-104372634D01*
X117361590Y-104384942D01*
X117825824Y-104849176D01*
X117853601Y-104903693D01*
X117853641Y-104934410D01*
X117847610Y-104973150D01*
X117844391Y-104993823D01*
X117845306Y-105000820D01*
X117845306Y-105000821D01*
X117861616Y-105125545D01*
X117862980Y-105135979D01*
X117865821Y-105142435D01*
X117865821Y-105142436D01*
X117895870Y-105210726D01*
X117920720Y-105267203D01*
X117957650Y-105311137D01*
X118008431Y-105371549D01*
X118008434Y-105371551D01*
X118012970Y-105376948D01*
X118132313Y-105456390D01*
X118139041Y-105458492D01*
X118200046Y-105477551D01*
X118249950Y-105512951D01*
X118269517Y-105570924D01*
X118268436Y-105586680D01*
X118131090Y-106505687D01*
X118130371Y-106510499D01*
X118133232Y-106570059D01*
X118167257Y-106642201D01*
X118226299Y-106695832D01*
X118282420Y-106715982D01*
X118287224Y-106716700D01*
X118287228Y-106716701D01*
X119305687Y-106868910D01*
X119305689Y-106868910D01*
X119310499Y-106869629D01*
X119343197Y-106868058D01*
X119360322Y-106867236D01*
X119360323Y-106867236D01*
X119370059Y-106866768D01*
X119378874Y-106862610D01*
X119378876Y-106862610D01*
X119433381Y-106836903D01*
X119433382Y-106836903D01*
X119442201Y-106832743D01*
X119495832Y-106773701D01*
X119515982Y-106717580D01*
X119519233Y-106695832D01*
X119624148Y-105993823D01*
X120744391Y-105993823D01*
X120745306Y-106000820D01*
X120745306Y-106000821D01*
X120746814Y-106012354D01*
X120762980Y-106135979D01*
X120765821Y-106142435D01*
X120765821Y-106142436D01*
X120795770Y-106210499D01*
X120820720Y-106267203D01*
X120833792Y-106282754D01*
X120908431Y-106371549D01*
X120908434Y-106371551D01*
X120912970Y-106376948D01*
X120918841Y-106380856D01*
X120918842Y-106380857D01*
X120931143Y-106389045D01*
X121032313Y-106456390D01*
X121110834Y-106480921D01*
X121162425Y-106497039D01*
X121162426Y-106497039D01*
X121169157Y-106499142D01*
X121240828Y-106500456D01*
X121305445Y-106501641D01*
X121305447Y-106501641D01*
X121312499Y-106501770D01*
X121319302Y-106499915D01*
X121319304Y-106499915D01*
X121415454Y-106473701D01*
X121450817Y-106464060D01*
X121572991Y-106389045D01*
X121580403Y-106380857D01*
X121664468Y-106287982D01*
X121669200Y-106282754D01*
X121731710Y-106153733D01*
X121735875Y-106128982D01*
X121754862Y-106016124D01*
X121754862Y-106016120D01*
X121755496Y-106012354D01*
X121755647Y-106000000D01*
X121755104Y-105996207D01*
X121746095Y-105933299D01*
X121756562Y-105873016D01*
X121774091Y-105849261D01*
X121811398Y-105811954D01*
X121826395Y-105799646D01*
X121840333Y-105790333D01*
X121852885Y-105771549D01*
X121888545Y-105718181D01*
X121893261Y-105711123D01*
X121898683Y-105703008D01*
X121899035Y-105701236D01*
X121914000Y-105626002D01*
X121914000Y-105625998D01*
X121919171Y-105600000D01*
X121915902Y-105583564D01*
X121914000Y-105564252D01*
X121914000Y-104780651D01*
X121932907Y-104722460D01*
X121961201Y-104696284D01*
X121961374Y-104696178D01*
X121972991Y-104689045D01*
X121988828Y-104671549D01*
X122064468Y-104587982D01*
X122069200Y-104582754D01*
X122131710Y-104453733D01*
X122133163Y-104445101D01*
X122154862Y-104316124D01*
X122154862Y-104316120D01*
X122155496Y-104312354D01*
X122155647Y-104300000D01*
X122135323Y-104158082D01*
X122091582Y-104061878D01*
X122078905Y-104033996D01*
X122078904Y-104033995D01*
X122075984Y-104027572D01*
X122007838Y-103948485D01*
X121987005Y-103924307D01*
X121987004Y-103924306D01*
X121982400Y-103918963D01*
X121862095Y-103840985D01*
X121724739Y-103799907D01*
X121641497Y-103799398D01*
X121588427Y-103799074D01*
X121588426Y-103799074D01*
X121581376Y-103799031D01*
X121574599Y-103800968D01*
X121574598Y-103800968D01*
X121450309Y-103836490D01*
X121450307Y-103836491D01*
X121443529Y-103838428D01*
X121322280Y-103914930D01*
X121317613Y-103920214D01*
X121317611Y-103920216D01*
X121232044Y-104017103D01*
X121232042Y-104017105D01*
X121227377Y-104022388D01*
X121224381Y-104028770D01*
X121224380Y-104028771D01*
X121221927Y-104033996D01*
X121166447Y-104152163D01*
X121165362Y-104159132D01*
X121165361Y-104159135D01*
X121156336Y-104217103D01*
X121144391Y-104293823D01*
X121145306Y-104300820D01*
X121145306Y-104300821D01*
X121153479Y-104363321D01*
X121162980Y-104435979D01*
X121165821Y-104442435D01*
X121165821Y-104442436D01*
X121190724Y-104499031D01*
X121220720Y-104567203D01*
X121238187Y-104587982D01*
X121308431Y-104671549D01*
X121308434Y-104671551D01*
X121312970Y-104676948D01*
X121341859Y-104696178D01*
X121379821Y-104744162D01*
X121386000Y-104778589D01*
X121386000Y-105400675D01*
X121367093Y-105458866D01*
X121317593Y-105494830D01*
X121286397Y-105499673D01*
X121210131Y-105499207D01*
X121188427Y-105499074D01*
X121188426Y-105499074D01*
X121181376Y-105499031D01*
X121174599Y-105500968D01*
X121174598Y-105500968D01*
X121050309Y-105536490D01*
X121050307Y-105536491D01*
X121043529Y-105538428D01*
X120922280Y-105614930D01*
X120917613Y-105620214D01*
X120917611Y-105620216D01*
X120832044Y-105717103D01*
X120832042Y-105717105D01*
X120827377Y-105722388D01*
X120766447Y-105852163D01*
X120765362Y-105859132D01*
X120765361Y-105859135D01*
X120759112Y-105899271D01*
X120744391Y-105993823D01*
X119624148Y-105993823D01*
X119668910Y-105694313D01*
X119668910Y-105694311D01*
X119669629Y-105689501D01*
X119667819Y-105651816D01*
X119667236Y-105639678D01*
X119667236Y-105639677D01*
X119666768Y-105629941D01*
X119662182Y-105620216D01*
X119636903Y-105566619D01*
X119636903Y-105566618D01*
X119632743Y-105557799D01*
X119586163Y-105515488D01*
X119580921Y-105510726D01*
X119580920Y-105510725D01*
X119573701Y-105504168D01*
X119517580Y-105484018D01*
X119512776Y-105483300D01*
X119512772Y-105483299D01*
X119399856Y-105466424D01*
X119298365Y-105451256D01*
X119243609Y-105423956D01*
X119215357Y-105369684D01*
X119213999Y-105353344D01*
X119213999Y-103685753D01*
X119215901Y-103666440D01*
X119217269Y-103659562D01*
X119217269Y-103659561D01*
X119219171Y-103649999D01*
X119198682Y-103546991D01*
X119192800Y-103538187D01*
X119161200Y-103490895D01*
X119144591Y-103432007D01*
X119145887Y-103419468D01*
X119154862Y-103366124D01*
X119154862Y-103366120D01*
X119155496Y-103362354D01*
X119155647Y-103350000D01*
X119135323Y-103208082D01*
X119075984Y-103077572D01*
X119015582Y-103007472D01*
X118987005Y-102974307D01*
X118987004Y-102974306D01*
X118982400Y-102968963D01*
X118862095Y-102890985D01*
X118855340Y-102888965D01*
X118855336Y-102888963D01*
X118754108Y-102858690D01*
X118703774Y-102823903D01*
X118683501Y-102766173D01*
X118684846Y-102747416D01*
X118690335Y-102714792D01*
X118690335Y-102714788D01*
X118690969Y-102711022D01*
X118691120Y-102698668D01*
X118670796Y-102556750D01*
X118632531Y-102472590D01*
X118614378Y-102432664D01*
X118614377Y-102432663D01*
X118611457Y-102426240D01*
X118526536Y-102327685D01*
X118522478Y-102322975D01*
X118522477Y-102322974D01*
X118517873Y-102317631D01*
X118397568Y-102239653D01*
X118260212Y-102198575D01*
X118176970Y-102198066D01*
X118123900Y-102197742D01*
X118123899Y-102197742D01*
X118116849Y-102197699D01*
X118110072Y-102199636D01*
X118110071Y-102199636D01*
X117985782Y-102235158D01*
X117985780Y-102235159D01*
X117979002Y-102237096D01*
X117857753Y-102313598D01*
X117780383Y-102401204D01*
X117727692Y-102432303D01*
X117706180Y-102434668D01*
X117549028Y-102434668D01*
X117490837Y-102415761D01*
X117479024Y-102405672D01*
X117274338Y-102200986D01*
X117246561Y-102146469D01*
X117246714Y-102114558D01*
X117254861Y-102066127D01*
X117255496Y-102062354D01*
X117255647Y-102050000D01*
X117235323Y-101908082D01*
X117175984Y-101777572D01*
X117109245Y-101700118D01*
X117087005Y-101674307D01*
X117087004Y-101674306D01*
X117082400Y-101668963D01*
X116962095Y-101590985D01*
X116824739Y-101549907D01*
X116741497Y-101549398D01*
X116688427Y-101549074D01*
X116688426Y-101549074D01*
X116681376Y-101549031D01*
X116674599Y-101550968D01*
X116674598Y-101550968D01*
X116550309Y-101586490D01*
X116550307Y-101586491D01*
X116543529Y-101588428D01*
X116422280Y-101664930D01*
X116417613Y-101670214D01*
X116417611Y-101670216D01*
X116332044Y-101767103D01*
X116332042Y-101767105D01*
X116327377Y-101772388D01*
X116266447Y-101902163D01*
X116265362Y-101909132D01*
X116265361Y-101909135D01*
X116251144Y-102000449D01*
X116244391Y-102043823D01*
X113179530Y-102043823D01*
X113696153Y-101527200D01*
X113750670Y-101499423D01*
X113766157Y-101498204D01*
X115248580Y-101498204D01*
X115306771Y-101517111D01*
X115324361Y-101533500D01*
X115339044Y-101550968D01*
X115385095Y-101605753D01*
X115385098Y-101605755D01*
X115389634Y-101611152D01*
X115395505Y-101615060D01*
X115395506Y-101615061D01*
X115407807Y-101623249D01*
X115508977Y-101690594D01*
X115571657Y-101710176D01*
X115639089Y-101731243D01*
X115639090Y-101731243D01*
X115645821Y-101733346D01*
X115717492Y-101734660D01*
X115782109Y-101735845D01*
X115782111Y-101735845D01*
X115789163Y-101735974D01*
X115795966Y-101734119D01*
X115795968Y-101734119D01*
X115871167Y-101713617D01*
X115927481Y-101698264D01*
X116049655Y-101623249D01*
X116057067Y-101615061D01*
X116141132Y-101522186D01*
X116145864Y-101516958D01*
X116208374Y-101387937D01*
X116209566Y-101380857D01*
X116231526Y-101250328D01*
X116231526Y-101250324D01*
X116232160Y-101246558D01*
X116232311Y-101234204D01*
X116211987Y-101092286D01*
X116187911Y-101039334D01*
X116167219Y-100993823D01*
X119544391Y-100993823D01*
X119545306Y-101000820D01*
X119545306Y-101000821D01*
X119556061Y-101083064D01*
X119562980Y-101135979D01*
X119565821Y-101142435D01*
X119565821Y-101142436D01*
X119613873Y-101251641D01*
X119620720Y-101267203D01*
X119633792Y-101282754D01*
X119708431Y-101371549D01*
X119708434Y-101371551D01*
X119712970Y-101376948D01*
X119718841Y-101380856D01*
X119718842Y-101380857D01*
X119729478Y-101387937D01*
X119832313Y-101456390D01*
X119906849Y-101479676D01*
X119962425Y-101497039D01*
X119962426Y-101497039D01*
X119969157Y-101499142D01*
X120040828Y-101500456D01*
X120105445Y-101501641D01*
X120105447Y-101501641D01*
X120112499Y-101501770D01*
X120119302Y-101499915D01*
X120119304Y-101499915D01*
X120203442Y-101476976D01*
X120250817Y-101464060D01*
X120372991Y-101389045D01*
X120380403Y-101380857D01*
X120464468Y-101287982D01*
X120469200Y-101282754D01*
X120531710Y-101153733D01*
X120534182Y-101139045D01*
X120554862Y-101016124D01*
X120554862Y-101016120D01*
X120555496Y-101012354D01*
X120555647Y-101000000D01*
X120555025Y-100995658D01*
X120546095Y-100933299D01*
X120556562Y-100873016D01*
X120574091Y-100849261D01*
X121654348Y-99769004D01*
X121708865Y-99741227D01*
X121769297Y-99750798D01*
X121794356Y-99769004D01*
X122186750Y-100161398D01*
X122199058Y-100176395D01*
X122208371Y-100190333D01*
X122295696Y-100248683D01*
X122372702Y-100264000D01*
X122372703Y-100264000D01*
X122372709Y-100264001D01*
X122389140Y-100267269D01*
X122389141Y-100267269D01*
X122398704Y-100269171D01*
X122415140Y-100265902D01*
X122434452Y-100264000D01*
X126954068Y-100264000D01*
X127012259Y-100282907D01*
X127049233Y-100335712D01*
X127061168Y-100377333D01*
X127065837Y-100393617D01*
X127161225Y-100579221D01*
X127164233Y-100583016D01*
X127266468Y-100712005D01*
X127287795Y-100769353D01*
X127271341Y-100828285D01*
X127223391Y-100866290D01*
X127188882Y-100872499D01*
X124593546Y-100872499D01*
X124574233Y-100870597D01*
X124557798Y-100867328D01*
X124548235Y-100869230D01*
X124548234Y-100869230D01*
X124531803Y-100872498D01*
X124531798Y-100872499D01*
X124531796Y-100872499D01*
X124454790Y-100887816D01*
X124367465Y-100946166D01*
X124358152Y-100960104D01*
X124345844Y-100975101D01*
X122875123Y-102445822D01*
X122820606Y-102473599D01*
X122796281Y-102473706D01*
X122795477Y-102473466D01*
X122717448Y-102472989D01*
X122659165Y-102472633D01*
X122659164Y-102472633D01*
X122652114Y-102472590D01*
X122645337Y-102474527D01*
X122645336Y-102474527D01*
X122521047Y-102510049D01*
X122521045Y-102510050D01*
X122514267Y-102511987D01*
X122393018Y-102588489D01*
X122388351Y-102593773D01*
X122388349Y-102593775D01*
X122302782Y-102690662D01*
X122302780Y-102690664D01*
X122298115Y-102695947D01*
X122237185Y-102825722D01*
X122236100Y-102832691D01*
X122236099Y-102832694D01*
X122227177Y-102890000D01*
X122215129Y-102967382D01*
X122216044Y-102974379D01*
X122216044Y-102974380D01*
X122217376Y-102984566D01*
X122233718Y-103109538D01*
X122236559Y-103115994D01*
X122236559Y-103115995D01*
X122275753Y-103205069D01*
X122291458Y-103240762D01*
X122329263Y-103285737D01*
X122379169Y-103345108D01*
X122379172Y-103345110D01*
X122383708Y-103350507D01*
X122389579Y-103354415D01*
X122389580Y-103354416D01*
X122395765Y-103358533D01*
X122503051Y-103429949D01*
X122560027Y-103447749D01*
X122633163Y-103470598D01*
X122633164Y-103470598D01*
X122639895Y-103472701D01*
X122711566Y-103474015D01*
X122776183Y-103475200D01*
X122776185Y-103475200D01*
X122783237Y-103475329D01*
X122790040Y-103473474D01*
X122790042Y-103473474D01*
X122894555Y-103444980D01*
X122921555Y-103437619D01*
X123043729Y-103362604D01*
X123051141Y-103354416D01*
X123135206Y-103261541D01*
X123139938Y-103256313D01*
X123202448Y-103127292D01*
X123205366Y-103109952D01*
X123225600Y-102989683D01*
X123225600Y-102989679D01*
X123226234Y-102985913D01*
X123226385Y-102973559D01*
X123225727Y-102968963D01*
X123216833Y-102906858D01*
X123227300Y-102846575D01*
X123244829Y-102822820D01*
X124638154Y-101429495D01*
X124692671Y-101401718D01*
X124708158Y-101400499D01*
X125574058Y-101400499D01*
X125632249Y-101419406D01*
X125668213Y-101468906D01*
X125668213Y-101530092D01*
X125648263Y-101565032D01*
X125639357Y-101575116D01*
X125639355Y-101575118D01*
X125634690Y-101580401D01*
X125631694Y-101586783D01*
X125631693Y-101586784D01*
X125622787Y-101605753D01*
X125573760Y-101710176D01*
X125572675Y-101717145D01*
X125572674Y-101717148D01*
X125560461Y-101795589D01*
X125551704Y-101851836D01*
X125570293Y-101993992D01*
X125573134Y-102000448D01*
X125573134Y-102000449D01*
X125596621Y-102053826D01*
X125628033Y-102125216D01*
X125638084Y-102137173D01*
X125715744Y-102229562D01*
X125715747Y-102229564D01*
X125720283Y-102234961D01*
X125749172Y-102254191D01*
X125787134Y-102302175D01*
X125793313Y-102336602D01*
X125793313Y-103692327D01*
X125774406Y-103750518D01*
X125764317Y-103762331D01*
X125319644Y-104207004D01*
X125265127Y-104234781D01*
X125249640Y-104236000D01*
X125228624Y-104236000D01*
X125170433Y-104217093D01*
X125153628Y-104201627D01*
X125082400Y-104118963D01*
X124962095Y-104040985D01*
X124824739Y-103999907D01*
X124741497Y-103999398D01*
X124688427Y-103999074D01*
X124688426Y-103999074D01*
X124681376Y-103999031D01*
X124674599Y-104000968D01*
X124674598Y-104000968D01*
X124550309Y-104036490D01*
X124550307Y-104036491D01*
X124543529Y-104038428D01*
X124422280Y-104114930D01*
X124417613Y-104120214D01*
X124417611Y-104120216D01*
X124332044Y-104217103D01*
X124332042Y-104217105D01*
X124327377Y-104222388D01*
X124266447Y-104352163D01*
X124265362Y-104359132D01*
X124265361Y-104359135D01*
X124253397Y-104435979D01*
X124244391Y-104493823D01*
X124245306Y-104500820D01*
X124245306Y-104500821D01*
X124256103Y-104583387D01*
X124262980Y-104635979D01*
X124265821Y-104642435D01*
X124265821Y-104642436D01*
X124316656Y-104757966D01*
X124320720Y-104767203D01*
X124333792Y-104782754D01*
X124408431Y-104871549D01*
X124408434Y-104871551D01*
X124412970Y-104876948D01*
X124418841Y-104880856D01*
X124418842Y-104880857D01*
X124450544Y-104901960D01*
X124532313Y-104956390D01*
X124539040Y-104958492D01*
X124539043Y-104958493D01*
X124577371Y-104970467D01*
X124627276Y-105005867D01*
X124646843Y-105063840D01*
X124630842Y-105118467D01*
X124627379Y-105122388D01*
X124566449Y-105252163D01*
X124565364Y-105259132D01*
X124565363Y-105259135D01*
X124554339Y-105329941D01*
X124544393Y-105393823D01*
X124545308Y-105400820D01*
X124545308Y-105400821D01*
X124558156Y-105499074D01*
X124562982Y-105535979D01*
X124565823Y-105542435D01*
X124565823Y-105542436D01*
X124613952Y-105651816D01*
X124620722Y-105667203D01*
X124662667Y-105717103D01*
X124708433Y-105771549D01*
X124708436Y-105771551D01*
X124712972Y-105776948D01*
X124718843Y-105780856D01*
X124718844Y-105780857D01*
X124747066Y-105799643D01*
X124832315Y-105856390D01*
X124921581Y-105884278D01*
X124962427Y-105897039D01*
X124962428Y-105897039D01*
X124969159Y-105899142D01*
X125040830Y-105900456D01*
X125105447Y-105901641D01*
X125105449Y-105901641D01*
X125112501Y-105901770D01*
X125119304Y-105899915D01*
X125119306Y-105899915D01*
X125239606Y-105867117D01*
X125250819Y-105864060D01*
X125372993Y-105789045D01*
X125379164Y-105782228D01*
X125464470Y-105687982D01*
X125469202Y-105682754D01*
X125531712Y-105553733D01*
X125533990Y-105540198D01*
X125554864Y-105416124D01*
X125554864Y-105416120D01*
X125555498Y-105412354D01*
X125555649Y-105400000D01*
X125554835Y-105394313D01*
X125546097Y-105333299D01*
X125556564Y-105273016D01*
X125574093Y-105249261D01*
X126282370Y-104540985D01*
X127011401Y-103811954D01*
X127026398Y-103799646D01*
X127040333Y-103790335D01*
X127045752Y-103782225D01*
X127045754Y-103782223D01*
X127055058Y-103768299D01*
X127055063Y-103768292D01*
X127090187Y-103715725D01*
X127093267Y-103711115D01*
X127098683Y-103703010D01*
X127100676Y-103692993D01*
X127114000Y-103626004D01*
X127117270Y-103609564D01*
X127119172Y-103600002D01*
X127117270Y-103590439D01*
X127115902Y-103583561D01*
X127114000Y-103564248D01*
X127114000Y-103343928D01*
X127132907Y-103285737D01*
X127182407Y-103249773D01*
X127243593Y-103249773D01*
X127282854Y-103277048D01*
X127284473Y-103275484D01*
X127287846Y-103278977D01*
X127290847Y-103282763D01*
X127294527Y-103285895D01*
X127294529Y-103285897D01*
X127375039Y-103354416D01*
X127449765Y-103418013D01*
X127453988Y-103420373D01*
X127453992Y-103420376D01*
X127552089Y-103475200D01*
X127631927Y-103519820D01*
X127636525Y-103521314D01*
X127825789Y-103582810D01*
X127825791Y-103582811D01*
X127830394Y-103584306D01*
X128037607Y-103609014D01*
X128042429Y-103608643D01*
X128042432Y-103608643D01*
X128113794Y-103603152D01*
X128245673Y-103593005D01*
X128446667Y-103536886D01*
X128450980Y-103534707D01*
X128450986Y-103534705D01*
X128628611Y-103444980D01*
X128628613Y-103444978D01*
X128632932Y-103442797D01*
X128797375Y-103314320D01*
X128933731Y-103156350D01*
X128974834Y-103083996D01*
X129034420Y-102979107D01*
X129034421Y-102979105D01*
X129036808Y-102974903D01*
X129102677Y-102776891D01*
X129128832Y-102569855D01*
X129128918Y-102563734D01*
X129129105Y-102550328D01*
X129129249Y-102540000D01*
X129128979Y-102537250D01*
X129128979Y-102537241D01*
X129114664Y-102391250D01*
X129108885Y-102332315D01*
X129048570Y-102132541D01*
X128974902Y-101993992D01*
X128952873Y-101952561D01*
X128952871Y-101952558D01*
X128950600Y-101948287D01*
X128920833Y-101911789D01*
X128898707Y-101854744D01*
X128914337Y-101795589D01*
X128961752Y-101756918D01*
X128971503Y-101753707D01*
X129056868Y-101730434D01*
X129179042Y-101655419D01*
X129188210Y-101645291D01*
X129270519Y-101554356D01*
X129275251Y-101549128D01*
X129279444Y-101540475D01*
X129322461Y-101451687D01*
X129364848Y-101407562D01*
X129425076Y-101396780D01*
X129466557Y-101412537D01*
X129520653Y-101448683D01*
X129519454Y-101450477D01*
X129556089Y-101481764D01*
X129570375Y-101541258D01*
X129556590Y-101581016D01*
X129556682Y-101581054D01*
X129556039Y-101582606D01*
X129553998Y-101588493D01*
X129552952Y-101590058D01*
X129552951Y-101590061D01*
X129547533Y-101598169D01*
X129545631Y-101607732D01*
X129545630Y-101607734D01*
X129544173Y-101615061D01*
X129535900Y-101656652D01*
X129535900Y-103423348D01*
X129539176Y-103439817D01*
X129545299Y-103470598D01*
X129547533Y-103481831D01*
X129591848Y-103548152D01*
X129658169Y-103592467D01*
X129667732Y-103594369D01*
X129667734Y-103594370D01*
X129690405Y-103598879D01*
X129716652Y-103604100D01*
X131483348Y-103604100D01*
X131509595Y-103598879D01*
X131532266Y-103594370D01*
X131532268Y-103594369D01*
X131541831Y-103592467D01*
X131608152Y-103548152D01*
X131652467Y-103481831D01*
X131654702Y-103470598D01*
X131660824Y-103439817D01*
X131664100Y-103423348D01*
X131664100Y-101656652D01*
X131655827Y-101615061D01*
X131654370Y-101607734D01*
X131654369Y-101607732D01*
X131652467Y-101598169D01*
X131651167Y-101596223D01*
X131646732Y-101539892D01*
X131678699Y-101487722D01*
X131735226Y-101464305D01*
X131742997Y-101464000D01*
X132679640Y-101464000D01*
X132737831Y-101482907D01*
X132749644Y-101492996D01*
X134461711Y-103205064D01*
X134461713Y-103205065D01*
X134521435Y-103264787D01*
X134549212Y-103319304D01*
X134538186Y-103382484D01*
X134514241Y-103426041D01*
X134509776Y-103434162D01*
X134508313Y-103438775D01*
X134508311Y-103438779D01*
X134458955Y-103594370D01*
X134447484Y-103630532D01*
X134446944Y-103635344D01*
X134446944Y-103635345D01*
X134425438Y-103827080D01*
X134424520Y-103835262D01*
X134425991Y-103852776D01*
X134440971Y-104031164D01*
X134441759Y-104040553D01*
X134443092Y-104045201D01*
X134443092Y-104045202D01*
X134495730Y-104228771D01*
X134498544Y-104238586D01*
X134592712Y-104421818D01*
X134720677Y-104583270D01*
X134724357Y-104586402D01*
X134724359Y-104586404D01*
X134782610Y-104635979D01*
X134877564Y-104716791D01*
X134881787Y-104719151D01*
X134881791Y-104719154D01*
X134977426Y-104772602D01*
X135057398Y-104817297D01*
X135061996Y-104818791D01*
X135248724Y-104879463D01*
X135248726Y-104879464D01*
X135253329Y-104880959D01*
X135457894Y-104905351D01*
X135462716Y-104904980D01*
X135462719Y-104904980D01*
X135534104Y-104899487D01*
X135663300Y-104889546D01*
X135861725Y-104834145D01*
X135866038Y-104831966D01*
X135866044Y-104831964D01*
X136041289Y-104743441D01*
X136041291Y-104743440D01*
X136045610Y-104741258D01*
X136049427Y-104738276D01*
X136204135Y-104617406D01*
X136204139Y-104617402D01*
X136207951Y-104614424D01*
X136240570Y-104576635D01*
X136272834Y-104539256D01*
X136342564Y-104458472D01*
X136361231Y-104425613D01*
X136441934Y-104283550D01*
X136441935Y-104283547D01*
X136444323Y-104279344D01*
X136457882Y-104238586D01*
X136507824Y-104088454D01*
X136507824Y-104088452D01*
X136509351Y-104083863D01*
X136511941Y-104063365D01*
X136534823Y-103882228D01*
X136535171Y-103879474D01*
X136535583Y-103850000D01*
X136535233Y-103846433D01*
X136515952Y-103649780D01*
X136515951Y-103649776D01*
X136515480Y-103644970D01*
X136508846Y-103622995D01*
X136463507Y-103472830D01*
X136455935Y-103447749D01*
X136359218Y-103265849D01*
X136229011Y-103106200D01*
X136187944Y-103072226D01*
X136074002Y-102977965D01*
X136074000Y-102977964D01*
X136070275Y-102974882D01*
X135889055Y-102876897D01*
X135825855Y-102857333D01*
X135696875Y-102817407D01*
X135696871Y-102817406D01*
X135692254Y-102815977D01*
X135687446Y-102815472D01*
X135687443Y-102815471D01*
X135492185Y-102794949D01*
X135492183Y-102794949D01*
X135487369Y-102794443D01*
X135427354Y-102799905D01*
X135287022Y-102812675D01*
X135287017Y-102812676D01*
X135282203Y-102813114D01*
X135084572Y-102871280D01*
X135080288Y-102873519D01*
X135080287Y-102873520D01*
X135011155Y-102909662D01*
X134950826Y-102919866D01*
X134895284Y-102891932D01*
X134835066Y-102831714D01*
X134835064Y-102831711D01*
X133581574Y-101578222D01*
X134464549Y-101578222D01*
X134497674Y-101693743D01*
X134501225Y-101702711D01*
X134590919Y-101877236D01*
X134596142Y-101885341D01*
X134718037Y-102039134D01*
X134724720Y-102046055D01*
X134874164Y-102173241D01*
X134882078Y-102178742D01*
X135053373Y-102274475D01*
X135062201Y-102278332D01*
X135211088Y-102326708D01*
X135222479Y-102326708D01*
X135226000Y-102315871D01*
X135226000Y-102313608D01*
X135734000Y-102313608D01*
X135737747Y-102325141D01*
X135748079Y-102325357D01*
X135856882Y-102294978D01*
X135865862Y-102291496D01*
X136041020Y-102203017D01*
X136049155Y-102197854D01*
X136203787Y-102077042D01*
X136210771Y-102070391D01*
X136338990Y-101921848D01*
X136344546Y-101913973D01*
X136441471Y-101743353D01*
X136445392Y-101734546D01*
X136497176Y-101578879D01*
X136497255Y-101567612D01*
X136486268Y-101564000D01*
X135749680Y-101564000D01*
X135736995Y-101568122D01*
X135734000Y-101572243D01*
X135734000Y-102313608D01*
X135226000Y-102313608D01*
X135226000Y-101579680D01*
X135221878Y-101566995D01*
X135217757Y-101564000D01*
X134476151Y-101564000D01*
X134464733Y-101567710D01*
X134464549Y-101578222D01*
X133581574Y-101578222D01*
X133044405Y-101041053D01*
X134463703Y-101041053D01*
X134463784Y-101052570D01*
X134474466Y-101056000D01*
X135210320Y-101056000D01*
X135223005Y-101051878D01*
X135226000Y-101047757D01*
X135226000Y-101040320D01*
X135734000Y-101040320D01*
X135738122Y-101053005D01*
X135742243Y-101056000D01*
X136484493Y-101056000D01*
X136495681Y-101052365D01*
X136495794Y-101041497D01*
X136456869Y-100912572D01*
X136453199Y-100903668D01*
X136361072Y-100730401D01*
X136355740Y-100722376D01*
X136231716Y-100570307D01*
X136224922Y-100563466D01*
X136073721Y-100438381D01*
X136065738Y-100432997D01*
X135893114Y-100339660D01*
X135884243Y-100335931D01*
X135748977Y-100294059D01*
X135737340Y-100294222D01*
X135734000Y-100304750D01*
X135734000Y-101040320D01*
X135226000Y-101040320D01*
X135226000Y-100305857D01*
X135222327Y-100294553D01*
X135211638Y-100294404D01*
X135089407Y-100330378D01*
X135080466Y-100333991D01*
X134906573Y-100424899D01*
X134898497Y-100430184D01*
X134745571Y-100553140D01*
X134738687Y-100559881D01*
X134612551Y-100710205D01*
X134607104Y-100718159D01*
X134512573Y-100890111D01*
X134508773Y-100898976D01*
X134463703Y-101041053D01*
X133044405Y-101041053D01*
X133041954Y-101038602D01*
X133029646Y-101023605D01*
X133020333Y-101009667D01*
X132933008Y-100951317D01*
X132856002Y-100936000D01*
X132830000Y-100930828D01*
X132820438Y-100932730D01*
X132820437Y-100932730D01*
X132813559Y-100934098D01*
X132794246Y-100936000D01*
X131414052Y-100936000D01*
X131355861Y-100917093D01*
X131319897Y-100867593D01*
X131319897Y-100806407D01*
X131339110Y-100772311D01*
X131470566Y-100620018D01*
X131470571Y-100620011D01*
X131473731Y-100616350D01*
X131485419Y-100595776D01*
X131574420Y-100439107D01*
X131574421Y-100439105D01*
X131576808Y-100434903D01*
X131629352Y-100276948D01*
X131641150Y-100241482D01*
X131641150Y-100241480D01*
X131642677Y-100236891D01*
X131643285Y-100232084D01*
X131659763Y-100101641D01*
X131668832Y-100029855D01*
X131669249Y-100000000D01*
X131668979Y-99997250D01*
X131668979Y-99997241D01*
X131650611Y-99809917D01*
X131648885Y-99792315D01*
X131588570Y-99592541D01*
X131586299Y-99588269D01*
X131586297Y-99588265D01*
X131550842Y-99521586D01*
X131540216Y-99461330D01*
X131568249Y-99405103D01*
X132218090Y-98755262D01*
X134424520Y-98755262D01*
X134428000Y-98796699D01*
X134440962Y-98951057D01*
X134441759Y-98960553D01*
X134443092Y-98965201D01*
X134443092Y-98965202D01*
X134492764Y-99138428D01*
X134498544Y-99158586D01*
X134592712Y-99341818D01*
X134720677Y-99503270D01*
X134724357Y-99506402D01*
X134724359Y-99506404D01*
X134766630Y-99542379D01*
X134877564Y-99636791D01*
X134881787Y-99639151D01*
X134881791Y-99639154D01*
X134921342Y-99661258D01*
X135057398Y-99737297D01*
X135061996Y-99738791D01*
X135248724Y-99799463D01*
X135248726Y-99799464D01*
X135253329Y-99800959D01*
X135457894Y-99825351D01*
X135462716Y-99824980D01*
X135462719Y-99824980D01*
X135530541Y-99819761D01*
X135663300Y-99809546D01*
X135861725Y-99754145D01*
X135866038Y-99751966D01*
X135866044Y-99751964D01*
X136041289Y-99663441D01*
X136041291Y-99663440D01*
X136045610Y-99661258D01*
X136080943Y-99633653D01*
X136204135Y-99537406D01*
X136204139Y-99537402D01*
X136207951Y-99534424D01*
X136219033Y-99521586D01*
X136267313Y-99465651D01*
X136342564Y-99378472D01*
X136362299Y-99343733D01*
X136441934Y-99203550D01*
X136441935Y-99203547D01*
X136444323Y-99199344D01*
X136448049Y-99188145D01*
X136507824Y-99008454D01*
X136507824Y-99008452D01*
X136509351Y-99003863D01*
X136512619Y-98977999D01*
X136534823Y-98802228D01*
X136535171Y-98799474D01*
X136535583Y-98770000D01*
X136533667Y-98750454D01*
X136515952Y-98569780D01*
X136515951Y-98569776D01*
X136515480Y-98564970D01*
X136506129Y-98533996D01*
X136476842Y-98436996D01*
X136455935Y-98367749D01*
X136359218Y-98185849D01*
X136229011Y-98026200D01*
X136170912Y-97978136D01*
X136074002Y-97897965D01*
X136074000Y-97897964D01*
X136070275Y-97894882D01*
X135932183Y-97820216D01*
X135893309Y-97799197D01*
X135893308Y-97799197D01*
X135889055Y-97796897D01*
X135747234Y-97752996D01*
X135696875Y-97737407D01*
X135696871Y-97737406D01*
X135692254Y-97735977D01*
X135687446Y-97735472D01*
X135687443Y-97735471D01*
X135492185Y-97714949D01*
X135492183Y-97714949D01*
X135487369Y-97714443D01*
X135427354Y-97719905D01*
X135287022Y-97732675D01*
X135287017Y-97732676D01*
X135282203Y-97733114D01*
X135084572Y-97791280D01*
X135080288Y-97793519D01*
X135080287Y-97793520D01*
X135069428Y-97799197D01*
X134902002Y-97886726D01*
X134898231Y-97889758D01*
X134745220Y-98012781D01*
X134745217Y-98012783D01*
X134741447Y-98015815D01*
X134738333Y-98019526D01*
X134738332Y-98019527D01*
X134625720Y-98153733D01*
X134609024Y-98173630D01*
X134606689Y-98177878D01*
X134606688Y-98177879D01*
X134601757Y-98186849D01*
X134509776Y-98354162D01*
X134508313Y-98358775D01*
X134508311Y-98358779D01*
X134456463Y-98522226D01*
X134447484Y-98550532D01*
X134446944Y-98555344D01*
X134446944Y-98555345D01*
X134425546Y-98746119D01*
X134424520Y-98755262D01*
X132218090Y-98755262D01*
X134353737Y-96619615D01*
X134408254Y-96591838D01*
X134468686Y-96601409D01*
X134511793Y-96644366D01*
X134592712Y-96801818D01*
X134720677Y-96963270D01*
X134724357Y-96966402D01*
X134724359Y-96966404D01*
X134833318Y-97059135D01*
X134877564Y-97096791D01*
X134881787Y-97099151D01*
X134881791Y-97099154D01*
X134921342Y-97121258D01*
X135057398Y-97197297D01*
X135061996Y-97198791D01*
X135248724Y-97259463D01*
X135248726Y-97259464D01*
X135253329Y-97260959D01*
X135457894Y-97285351D01*
X135462716Y-97284980D01*
X135462719Y-97284980D01*
X135530541Y-97279761D01*
X135663300Y-97269546D01*
X135861725Y-97214145D01*
X135866038Y-97211966D01*
X135866044Y-97211964D01*
X136041289Y-97123441D01*
X136041291Y-97123440D01*
X136045610Y-97121258D01*
X136049427Y-97118276D01*
X136204135Y-96997406D01*
X136204139Y-96997402D01*
X136207951Y-96994424D01*
X136219033Y-96981586D01*
X136270130Y-96922388D01*
X136342564Y-96838472D01*
X136344957Y-96834260D01*
X136441934Y-96663550D01*
X136441935Y-96663547D01*
X136444323Y-96659344D01*
X136456012Y-96624208D01*
X136507824Y-96468454D01*
X136507824Y-96468452D01*
X136509351Y-96463863D01*
X136510139Y-96457630D01*
X136534823Y-96262228D01*
X136535171Y-96259474D01*
X136535280Y-96251719D01*
X136535405Y-96242737D01*
X136535583Y-96230000D01*
X136532595Y-96199527D01*
X136515952Y-96029780D01*
X136515951Y-96029776D01*
X136515480Y-96024970D01*
X136506968Y-95996775D01*
X136468315Y-95868754D01*
X136455935Y-95827749D01*
X136359218Y-95645849D01*
X136229011Y-95486200D01*
X136198043Y-95460581D01*
X136074002Y-95357965D01*
X136074000Y-95357964D01*
X136070275Y-95354882D01*
X135889055Y-95256897D01*
X135818986Y-95235207D01*
X135696875Y-95197407D01*
X135696871Y-95197406D01*
X135692254Y-95195977D01*
X135687446Y-95195472D01*
X135687443Y-95195471D01*
X135492185Y-95174949D01*
X135492183Y-95174949D01*
X135487369Y-95174443D01*
X135427354Y-95179905D01*
X135287022Y-95192675D01*
X135287017Y-95192676D01*
X135282203Y-95193114D01*
X135084572Y-95251280D01*
X135080288Y-95253519D01*
X135080287Y-95253520D01*
X135035474Y-95276948D01*
X134902002Y-95346726D01*
X134898231Y-95349758D01*
X134745220Y-95472781D01*
X134745217Y-95472783D01*
X134741447Y-95475815D01*
X134738333Y-95479526D01*
X134738332Y-95479527D01*
X134623890Y-95615914D01*
X134609024Y-95633630D01*
X134606689Y-95637878D01*
X134606688Y-95637879D01*
X134601652Y-95647039D01*
X134509776Y-95814162D01*
X134508312Y-95818778D01*
X134508310Y-95818782D01*
X134484504Y-95893829D01*
X134448887Y-95943579D01*
X134390829Y-95962893D01*
X134389123Y-95962731D01*
X134379563Y-95962731D01*
X134370000Y-95960829D01*
X134360437Y-95962731D01*
X134360436Y-95962731D01*
X134344005Y-95965999D01*
X134344000Y-95966000D01*
X134343998Y-95966000D01*
X134266992Y-95981317D01*
X134179667Y-96039667D01*
X134170354Y-96053605D01*
X134158046Y-96068602D01*
X131195042Y-99031606D01*
X131140525Y-99059383D01*
X131077952Y-99048687D01*
X131018610Y-99016601D01*
X131018603Y-99016598D01*
X131014351Y-99014299D01*
X130910191Y-98982056D01*
X130819623Y-98954020D01*
X130819619Y-98954019D01*
X130815002Y-98952590D01*
X130810194Y-98952085D01*
X130810191Y-98952084D01*
X130612281Y-98931283D01*
X130612279Y-98931283D01*
X130607465Y-98930777D01*
X130557853Y-98935292D01*
X130404463Y-98949251D01*
X130404459Y-98949252D01*
X130399643Y-98949690D01*
X130362734Y-98960553D01*
X130204099Y-99007242D01*
X130204096Y-99007243D01*
X130199452Y-99008610D01*
X130014519Y-99105291D01*
X130010750Y-99108321D01*
X130010749Y-99108322D01*
X129855659Y-99233017D01*
X129855657Y-99233019D01*
X129851886Y-99236051D01*
X129848772Y-99239762D01*
X129848771Y-99239763D01*
X129735915Y-99374260D01*
X129717748Y-99395910D01*
X129715412Y-99400158D01*
X129715412Y-99400159D01*
X129684217Y-99456903D01*
X129617215Y-99578778D01*
X129554117Y-99777691D01*
X129530855Y-99985071D01*
X129536621Y-100053733D01*
X129547587Y-100184322D01*
X129548317Y-100193020D01*
X129549650Y-100197668D01*
X129549650Y-100197669D01*
X129601168Y-100377333D01*
X129605837Y-100393617D01*
X129701225Y-100579221D01*
X129830847Y-100742763D01*
X129852992Y-100761610D01*
X129885050Y-100813721D01*
X129880356Y-100874726D01*
X129840701Y-100921321D01*
X129788826Y-100936000D01*
X129774021Y-100936000D01*
X129715830Y-100917093D01*
X129704017Y-100907004D01*
X129128194Y-100331181D01*
X129100417Y-100276664D01*
X129101631Y-100240036D01*
X129102677Y-100236891D01*
X129128832Y-100029855D01*
X129129249Y-100000000D01*
X129128979Y-99997250D01*
X129128979Y-99997241D01*
X129110611Y-99809917D01*
X129108885Y-99792315D01*
X129048570Y-99592541D01*
X128983174Y-99469549D01*
X128952873Y-99412561D01*
X128952871Y-99412558D01*
X128950600Y-99408287D01*
X128929274Y-99382138D01*
X128821769Y-99250324D01*
X128821768Y-99250323D01*
X128818708Y-99246571D01*
X128657916Y-99113552D01*
X128506360Y-99031606D01*
X128478605Y-99016599D01*
X128478604Y-99016599D01*
X128474351Y-99014299D01*
X128370191Y-98982056D01*
X128279623Y-98954020D01*
X128279619Y-98954019D01*
X128275002Y-98952590D01*
X128270194Y-98952085D01*
X128270191Y-98952084D01*
X128072281Y-98931283D01*
X128072279Y-98931283D01*
X128067465Y-98930777D01*
X128017853Y-98935292D01*
X127864463Y-98949251D01*
X127864459Y-98949252D01*
X127859643Y-98949690D01*
X127822734Y-98960553D01*
X127664099Y-99007242D01*
X127664096Y-99007243D01*
X127659452Y-99008610D01*
X127474519Y-99105291D01*
X127470750Y-99108321D01*
X127470749Y-99108322D01*
X127315659Y-99233017D01*
X127315657Y-99233019D01*
X127311886Y-99236051D01*
X127308772Y-99239762D01*
X127308771Y-99239763D01*
X127195915Y-99374260D01*
X127177748Y-99395910D01*
X127175412Y-99400158D01*
X127175412Y-99400159D01*
X127144217Y-99456903D01*
X127077215Y-99578778D01*
X127058813Y-99636791D01*
X127049251Y-99666934D01*
X127013634Y-99716684D01*
X126954885Y-99736000D01*
X122549064Y-99736000D01*
X122490873Y-99717093D01*
X122479060Y-99707004D01*
X122124337Y-99352281D01*
X122096560Y-99297764D01*
X122096713Y-99265855D01*
X122105496Y-99213650D01*
X122105647Y-99201296D01*
X122085323Y-99059378D01*
X122050167Y-98982056D01*
X122028905Y-98935292D01*
X122028904Y-98935291D01*
X122025984Y-98928868D01*
X121932400Y-98820259D01*
X121812095Y-98742281D01*
X121674739Y-98701203D01*
X121591497Y-98700694D01*
X121538427Y-98700370D01*
X121538426Y-98700370D01*
X121531376Y-98700327D01*
X121524599Y-98702264D01*
X121524598Y-98702264D01*
X121400309Y-98737786D01*
X121400307Y-98737787D01*
X121393529Y-98739724D01*
X121272280Y-98816226D01*
X121267613Y-98821510D01*
X121267611Y-98821512D01*
X121182044Y-98918399D01*
X121182042Y-98918401D01*
X121177377Y-98923684D01*
X121116447Y-99053459D01*
X121115362Y-99060428D01*
X121115361Y-99060431D01*
X121100804Y-99153928D01*
X121094391Y-99195119D01*
X121095306Y-99202116D01*
X121095306Y-99202117D01*
X121108010Y-99299271D01*
X121112980Y-99337275D01*
X121115820Y-99343729D01*
X121115821Y-99343733D01*
X121154881Y-99432503D01*
X121161011Y-99493381D01*
X121134269Y-99542379D01*
X120204385Y-100472263D01*
X120149868Y-100500040D01*
X120125543Y-100500147D01*
X120124739Y-100499907D01*
X120046709Y-100499430D01*
X119988427Y-100499074D01*
X119988426Y-100499074D01*
X119981376Y-100499031D01*
X119974599Y-100500968D01*
X119974598Y-100500968D01*
X119850309Y-100536490D01*
X119850307Y-100536491D01*
X119843529Y-100538428D01*
X119722280Y-100614930D01*
X119717613Y-100620214D01*
X119717611Y-100620216D01*
X119632044Y-100717103D01*
X119632042Y-100717105D01*
X119627377Y-100722388D01*
X119624381Y-100728770D01*
X119624380Y-100728771D01*
X119609863Y-100759692D01*
X119566447Y-100852163D01*
X119565362Y-100859132D01*
X119565361Y-100859135D01*
X119555679Y-100921321D01*
X119544391Y-100993823D01*
X116167219Y-100993823D01*
X116155569Y-100968200D01*
X116155568Y-100968199D01*
X116152648Y-100961776D01*
X116076167Y-100873016D01*
X116063669Y-100858511D01*
X116063668Y-100858510D01*
X116059064Y-100853167D01*
X115938759Y-100775189D01*
X115801403Y-100734111D01*
X115790735Y-100734046D01*
X115787893Y-100733103D01*
X115787375Y-100733026D01*
X115787388Y-100732936D01*
X115732660Y-100714785D01*
X115696999Y-100665067D01*
X115692960Y-100643666D01*
X115692964Y-100643337D01*
X115672640Y-100501419D01*
X115623626Y-100393617D01*
X115616222Y-100377333D01*
X115616221Y-100377332D01*
X115613301Y-100370909D01*
X115547223Y-100294222D01*
X115524322Y-100267644D01*
X115524321Y-100267643D01*
X115519717Y-100262300D01*
X115399412Y-100184322D01*
X115262056Y-100143244D01*
X115178814Y-100142735D01*
X115125744Y-100142411D01*
X115125743Y-100142411D01*
X115118693Y-100142368D01*
X115111916Y-100144305D01*
X115111915Y-100144305D01*
X114987626Y-100179827D01*
X114987624Y-100179828D01*
X114980846Y-100181765D01*
X114859597Y-100258267D01*
X114782227Y-100345873D01*
X114729536Y-100376972D01*
X114708024Y-100379337D01*
X113779954Y-100379337D01*
X113760641Y-100377435D01*
X113753763Y-100376067D01*
X113753762Y-100376067D01*
X113744200Y-100374165D01*
X113641192Y-100394654D01*
X113583808Y-100432997D01*
X113575910Y-100438274D01*
X113575903Y-100438279D01*
X113561979Y-100447583D01*
X113561977Y-100447585D01*
X113553867Y-100453004D01*
X113544556Y-100466939D01*
X113532248Y-100481936D01*
X110211416Y-103802769D01*
X110196419Y-103815077D01*
X110182481Y-103824390D01*
X110167752Y-103846433D01*
X110124131Y-103911715D01*
X110103642Y-104014723D01*
X110105544Y-104024285D01*
X110105544Y-104024286D01*
X110106912Y-104031164D01*
X110108814Y-104050477D01*
X110108814Y-104651586D01*
X110089907Y-104709777D01*
X110062642Y-104735313D01*
X110053220Y-104741258D01*
X110045094Y-104746385D01*
X110040427Y-104751669D01*
X110040425Y-104751671D01*
X109954858Y-104848558D01*
X109954856Y-104848560D01*
X109950191Y-104853843D01*
X109926277Y-104904778D01*
X109920541Y-104916995D01*
X109878696Y-104961633D01*
X109818604Y-104973150D01*
X109765846Y-104949522D01*
X109764785Y-104948596D01*
X109760179Y-104943251D01*
X109639874Y-104865273D01*
X109502518Y-104824195D01*
X109419276Y-104823686D01*
X109366206Y-104823362D01*
X109366205Y-104823362D01*
X109359155Y-104823319D01*
X109352378Y-104825256D01*
X109352377Y-104825256D01*
X109228088Y-104860778D01*
X109228086Y-104860779D01*
X109221308Y-104862716D01*
X109100059Y-104939218D01*
X109095392Y-104944502D01*
X109095390Y-104944504D01*
X109009823Y-105041391D01*
X109009821Y-105041393D01*
X109005156Y-105046676D01*
X108944226Y-105176451D01*
X108943141Y-105183420D01*
X108943140Y-105183423D01*
X108938889Y-105210726D01*
X108922170Y-105318111D01*
X108940005Y-105454499D01*
X108928803Y-105514648D01*
X108884384Y-105556727D01*
X108827573Y-105565300D01*
X106435887Y-105216966D01*
X106381029Y-105189870D01*
X106352574Y-105135703D01*
X106361393Y-105075157D01*
X106404115Y-105031357D01*
X106450155Y-105020000D01*
X106674495Y-105020000D01*
X106680451Y-105019641D01*
X106797273Y-105005504D01*
X106808783Y-105002677D01*
X106956108Y-104947007D01*
X106966606Y-104941518D01*
X107096401Y-104852314D01*
X107105288Y-104844478D01*
X107210058Y-104726887D01*
X107216817Y-104717163D01*
X107285281Y-104587857D01*
X107287239Y-104576635D01*
X107282263Y-104574000D01*
X104894000Y-104574000D01*
X104883165Y-104577521D01*
X104883165Y-104583387D01*
X104949054Y-104711043D01*
X104955717Y-104720847D01*
X105059248Y-104839527D01*
X105068048Y-104847451D01*
X105100136Y-104870003D01*
X105136873Y-104918932D01*
X105137833Y-104980110D01*
X105102651Y-105030169D01*
X105043210Y-105050000D01*
X102697598Y-105050000D01*
X102639407Y-105031093D01*
X102603443Y-104981593D01*
X102603443Y-104920407D01*
X102641524Y-104869412D01*
X102666395Y-104852318D01*
X102675288Y-104844478D01*
X102780058Y-104726887D01*
X102786817Y-104717163D01*
X102855281Y-104587857D01*
X102857239Y-104576635D01*
X102852263Y-104574000D01*
X101750000Y-104574000D01*
X101691809Y-104555093D01*
X101655845Y-104505593D01*
X101651000Y-104475000D01*
X101651000Y-104050320D01*
X102159000Y-104050320D01*
X102163122Y-104063005D01*
X102167243Y-104066000D01*
X102846000Y-104066000D01*
X102854109Y-104063365D01*
X104882761Y-104063365D01*
X104887737Y-104066000D01*
X105815320Y-104066000D01*
X105828005Y-104061878D01*
X105831000Y-104057757D01*
X105831000Y-104050320D01*
X106339000Y-104050320D01*
X106343122Y-104063005D01*
X106347243Y-104066000D01*
X107276000Y-104066000D01*
X107286835Y-104062479D01*
X107286835Y-104056613D01*
X107220946Y-103928957D01*
X107214283Y-103919153D01*
X107110752Y-103800473D01*
X107101952Y-103792549D01*
X106973094Y-103701986D01*
X106962656Y-103696390D01*
X106815922Y-103639180D01*
X106804445Y-103636233D01*
X106684352Y-103620423D01*
X106677898Y-103620000D01*
X106354680Y-103620000D01*
X106341995Y-103624122D01*
X106339000Y-103628243D01*
X106339000Y-104050320D01*
X105831000Y-104050320D01*
X105831000Y-103635680D01*
X105826878Y-103622995D01*
X105822757Y-103620000D01*
X105794185Y-103620000D01*
X105735994Y-103601093D01*
X105700030Y-103551593D01*
X105700030Y-103490407D01*
X105735994Y-103440907D01*
X105756299Y-103429536D01*
X105839240Y-103395181D01*
X105839244Y-103395179D01*
X105845233Y-103392698D01*
X105850375Y-103388752D01*
X105850379Y-103388750D01*
X105960302Y-103304402D01*
X105965451Y-103300451D01*
X105984609Y-103275484D01*
X106053750Y-103185379D01*
X106053752Y-103185375D01*
X106057698Y-103180233D01*
X106060179Y-103174244D01*
X106060181Y-103174240D01*
X106113203Y-103046233D01*
X106115687Y-103040236D01*
X106135466Y-102890000D01*
X106115687Y-102739764D01*
X106100181Y-102702330D01*
X106060181Y-102605760D01*
X106060179Y-102605756D01*
X106057698Y-102599767D01*
X106053752Y-102594625D01*
X106053750Y-102594621D01*
X105969402Y-102484698D01*
X105965451Y-102479549D01*
X105957524Y-102473466D01*
X105850379Y-102391250D01*
X105850375Y-102391248D01*
X105845233Y-102387302D01*
X105839244Y-102384821D01*
X105839240Y-102384819D01*
X105711233Y-102331797D01*
X105705236Y-102329313D01*
X105592720Y-102314500D01*
X105517280Y-102314500D01*
X105404764Y-102329313D01*
X105398767Y-102331797D01*
X105270760Y-102384819D01*
X105270756Y-102384821D01*
X105264767Y-102387302D01*
X105259625Y-102391248D01*
X105259621Y-102391250D01*
X105152476Y-102473466D01*
X105144549Y-102479549D01*
X105140598Y-102484698D01*
X105056250Y-102594621D01*
X105056248Y-102594625D01*
X105052302Y-102599767D01*
X105049821Y-102605756D01*
X105049819Y-102605760D01*
X105009819Y-102702330D01*
X104994313Y-102739764D01*
X104974534Y-102890000D01*
X104994313Y-103040236D01*
X104996797Y-103046233D01*
X105049819Y-103174240D01*
X105049821Y-103174244D01*
X105052302Y-103180233D01*
X105056248Y-103185375D01*
X105056250Y-103185379D01*
X105125391Y-103275484D01*
X105144549Y-103300451D01*
X105149698Y-103304402D01*
X105259621Y-103388750D01*
X105259625Y-103388752D01*
X105264767Y-103392698D01*
X105270756Y-103395179D01*
X105270760Y-103395181D01*
X105392395Y-103445564D01*
X105438921Y-103485301D01*
X105453204Y-103544796D01*
X105429789Y-103601324D01*
X105378121Y-103633171D01*
X105361218Y-103637322D01*
X105213892Y-103692993D01*
X105203394Y-103698482D01*
X105073599Y-103787686D01*
X105064712Y-103795522D01*
X104959942Y-103913113D01*
X104953183Y-103922837D01*
X104884719Y-104052143D01*
X104882761Y-104063365D01*
X102854109Y-104063365D01*
X102856835Y-104062479D01*
X102856835Y-104056613D01*
X102790946Y-103928957D01*
X102784283Y-103919153D01*
X102680752Y-103800473D01*
X102671952Y-103792549D01*
X102543094Y-103701986D01*
X102532656Y-103696390D01*
X102385922Y-103639180D01*
X102374445Y-103636233D01*
X102254352Y-103620423D01*
X102247898Y-103620000D01*
X102174680Y-103620000D01*
X102161995Y-103624122D01*
X102159000Y-103628243D01*
X102159000Y-104050320D01*
X101651000Y-104050320D01*
X101651000Y-103635680D01*
X101646878Y-103622995D01*
X101642757Y-103620000D01*
X101565505Y-103620000D01*
X101559549Y-103620359D01*
X101442727Y-103634496D01*
X101431217Y-103637323D01*
X101283892Y-103692993D01*
X101273394Y-103698482D01*
X101143599Y-103787686D01*
X101134712Y-103795522D01*
X101047917Y-103892938D01*
X100995090Y-103923808D01*
X100934207Y-103917731D01*
X100888524Y-103877028D01*
X100875000Y-103827080D01*
X100875000Y-96172162D01*
X100893907Y-96113971D01*
X100943407Y-96078007D01*
X101004593Y-96078007D01*
X101048603Y-96107082D01*
X101129248Y-96199527D01*
X101138048Y-96207451D01*
X101266906Y-96298014D01*
X101277344Y-96303610D01*
X101424078Y-96360820D01*
X101435555Y-96363767D01*
X101555648Y-96379577D01*
X101562102Y-96380000D01*
X101635320Y-96380000D01*
X101648005Y-96375878D01*
X101651000Y-96371757D01*
X101651000Y-96364320D01*
X102159000Y-96364320D01*
X102163122Y-96377005D01*
X102167243Y-96380000D01*
X102244495Y-96380000D01*
X102250451Y-96379641D01*
X102367273Y-96365504D01*
X102378783Y-96362677D01*
X102526108Y-96307007D01*
X102536606Y-96301518D01*
X102666401Y-96212314D01*
X102675288Y-96204478D01*
X102780058Y-96086887D01*
X102786817Y-96077163D01*
X102855281Y-95947857D01*
X102857239Y-95936635D01*
X102852263Y-95934000D01*
X102174680Y-95934000D01*
X102161995Y-95938122D01*
X102159000Y-95942243D01*
X102159000Y-96364320D01*
X101651000Y-96364320D01*
X101651000Y-95525000D01*
X101669907Y-95466809D01*
X101719407Y-95430845D01*
X101750000Y-95426000D01*
X102846000Y-95426000D01*
X102856835Y-95422479D01*
X102856835Y-95416613D01*
X102790946Y-95288957D01*
X102784283Y-95279153D01*
X102680752Y-95160473D01*
X102671952Y-95152549D01*
X102639864Y-95129997D01*
X102603127Y-95081068D01*
X102602167Y-95019890D01*
X102637349Y-94969831D01*
X102696790Y-94950000D01*
X105042402Y-94950000D01*
X105100593Y-94968907D01*
X105136557Y-95018407D01*
X105136557Y-95079593D01*
X105098476Y-95130588D01*
X105073605Y-95147682D01*
X105064712Y-95155522D01*
X104959942Y-95273113D01*
X104953183Y-95282837D01*
X104884719Y-95412143D01*
X104882761Y-95423365D01*
X104887737Y-95426000D01*
X106240000Y-95426000D01*
X106298191Y-95444907D01*
X106334155Y-95494407D01*
X106339000Y-95525000D01*
X106339000Y-96364320D01*
X106343122Y-96377005D01*
X106347243Y-96380000D01*
X106552601Y-96380000D01*
X106610792Y-96398907D01*
X106646756Y-96448407D01*
X106646756Y-96509593D01*
X106622605Y-96549004D01*
X106248619Y-96922990D01*
X106194102Y-96950767D01*
X106133670Y-96941196D01*
X106090405Y-96897931D01*
X106087151Y-96890872D01*
X106060181Y-96825760D01*
X106060179Y-96825756D01*
X106057698Y-96819767D01*
X106053752Y-96814625D01*
X106053750Y-96814621D01*
X105969402Y-96704698D01*
X105965451Y-96699549D01*
X105938245Y-96678673D01*
X105850379Y-96611250D01*
X105850375Y-96611248D01*
X105845233Y-96607302D01*
X105839244Y-96604821D01*
X105839240Y-96604819D01*
X105756299Y-96570464D01*
X105709773Y-96530727D01*
X105695490Y-96471232D01*
X105718905Y-96414704D01*
X105771074Y-96382735D01*
X105794185Y-96380000D01*
X105815320Y-96380000D01*
X105828005Y-96375878D01*
X105831000Y-96371757D01*
X105831000Y-95949680D01*
X105826878Y-95936995D01*
X105822757Y-95934000D01*
X104894000Y-95934000D01*
X104883165Y-95937521D01*
X104883165Y-95943387D01*
X104949054Y-96071043D01*
X104955717Y-96080847D01*
X105059248Y-96199527D01*
X105068048Y-96207451D01*
X105196906Y-96298014D01*
X105207344Y-96303610D01*
X105354078Y-96360820D01*
X105365556Y-96363767D01*
X105368905Y-96364208D01*
X105370808Y-96365116D01*
X105371339Y-96365252D01*
X105371312Y-96365356D01*
X105424131Y-96390548D01*
X105453327Y-96444318D01*
X105445342Y-96504980D01*
X105403225Y-96549363D01*
X105393871Y-96553825D01*
X105270760Y-96604819D01*
X105270756Y-96604821D01*
X105264767Y-96607302D01*
X105259625Y-96611248D01*
X105259621Y-96611250D01*
X105171755Y-96678673D01*
X105144549Y-96699549D01*
X105140598Y-96704698D01*
X105056250Y-96814621D01*
X105056248Y-96814625D01*
X105052302Y-96819767D01*
X105049821Y-96825756D01*
X105049819Y-96825760D01*
X104999971Y-96946104D01*
X104994313Y-96959764D01*
X104974534Y-97110000D01*
X104994313Y-97260236D01*
X104996797Y-97266233D01*
X105049819Y-97394240D01*
X105049821Y-97394244D01*
X105052302Y-97400233D01*
X105056248Y-97405375D01*
X105056250Y-97405379D01*
X105105201Y-97469172D01*
X105144549Y-97520451D01*
X105149698Y-97524402D01*
X105260239Y-97609224D01*
X105294894Y-97659649D01*
X105293292Y-97720813D01*
X105274175Y-97753300D01*
X105201045Y-97836104D01*
X105201043Y-97836106D01*
X105196378Y-97841389D01*
X105193382Y-97847771D01*
X105193381Y-97847772D01*
X105176145Y-97884484D01*
X105135448Y-97971164D01*
X105134363Y-97978133D01*
X105134362Y-97978136D01*
X105122837Y-98052163D01*
X105113392Y-98112824D01*
X105114307Y-98119821D01*
X105114307Y-98119822D01*
X105124899Y-98200821D01*
X105131981Y-98254980D01*
X105134822Y-98261436D01*
X105134822Y-98261437D01*
X105181601Y-98367749D01*
X105189721Y-98386204D01*
X105202793Y-98401755D01*
X105277432Y-98490550D01*
X105277435Y-98490552D01*
X105281971Y-98495949D01*
X105287842Y-98499857D01*
X105287843Y-98499858D01*
X105294525Y-98504306D01*
X105401314Y-98575391D01*
X105501921Y-98606822D01*
X105531426Y-98616040D01*
X105531427Y-98616040D01*
X105538158Y-98618143D01*
X105609829Y-98619457D01*
X105674446Y-98620642D01*
X105674448Y-98620642D01*
X105681500Y-98620771D01*
X105688303Y-98618916D01*
X105688305Y-98618916D01*
X105797869Y-98589045D01*
X105819818Y-98583061D01*
X105941992Y-98508046D01*
X105946732Y-98502810D01*
X106033469Y-98406983D01*
X106038201Y-98401755D01*
X106100711Y-98272734D01*
X106109428Y-98220922D01*
X106137052Y-98167343D01*
X108024899Y-96279496D01*
X108079416Y-96251719D01*
X108094903Y-96250500D01*
X110818414Y-96250500D01*
X110873272Y-96267089D01*
X110932313Y-96306390D01*
X111021464Y-96334242D01*
X111062425Y-96347039D01*
X111062426Y-96347039D01*
X111069157Y-96349142D01*
X111140828Y-96350456D01*
X111205445Y-96351641D01*
X111205447Y-96351641D01*
X111212499Y-96351770D01*
X111219302Y-96349915D01*
X111219304Y-96349915D01*
X111296176Y-96328957D01*
X111350817Y-96314060D01*
X111472991Y-96239045D01*
X111478666Y-96232776D01*
X111564468Y-96137982D01*
X111569200Y-96132754D01*
X111631710Y-96003733D01*
X111635482Y-95981317D01*
X111654862Y-95866124D01*
X111654862Y-95866120D01*
X111655496Y-95862354D01*
X111655647Y-95850000D01*
X111635323Y-95708082D01*
X111593417Y-95615914D01*
X111578905Y-95583996D01*
X111578904Y-95583995D01*
X111575984Y-95577572D01*
X111534151Y-95529023D01*
X111510491Y-95472599D01*
X111524515Y-95413043D01*
X111570866Y-95373103D01*
X111583112Y-95368887D01*
X111594014Y-95365915D01*
X111594016Y-95365914D01*
X111600817Y-95364060D01*
X111722991Y-95289045D01*
X111748047Y-95261364D01*
X111814468Y-95187982D01*
X111819200Y-95182754D01*
X111874314Y-95068998D01*
X111878634Y-95060082D01*
X111881710Y-95053733D01*
X111886850Y-95023186D01*
X111904730Y-94916907D01*
X111932354Y-94863328D01*
X112318910Y-94476772D01*
X112374591Y-94448818D01*
X114489123Y-94139644D01*
X114749715Y-94101542D01*
X114764037Y-94100500D01*
X116713811Y-94100500D01*
X116772002Y-94119407D01*
X116783815Y-94129496D01*
X117237761Y-94583441D01*
X117653314Y-94998994D01*
X117681091Y-95053511D01*
X117671520Y-95113943D01*
X117653314Y-95139002D01*
X116831515Y-95960801D01*
X116815212Y-95973966D01*
X116813178Y-95975279D01*
X116813174Y-95975282D01*
X116806300Y-95979721D01*
X116786467Y-96004878D01*
X116782553Y-96009283D01*
X116782554Y-96009284D01*
X116779901Y-96012415D01*
X116777024Y-96015292D01*
X116766408Y-96030147D01*
X116763622Y-96033858D01*
X116734060Y-96071357D01*
X116731494Y-96078664D01*
X116730847Y-96079909D01*
X116726341Y-96086215D01*
X116718622Y-96112027D01*
X116712660Y-96131961D01*
X116711219Y-96136397D01*
X116705022Y-96154045D01*
X116695397Y-96181452D01*
X116694952Y-96186590D01*
X116694952Y-96188728D01*
X116694878Y-96190447D01*
X116694763Y-96191808D01*
X116692908Y-96198010D01*
X116693229Y-96206181D01*
X116694876Y-96248100D01*
X116694952Y-96251987D01*
X116694952Y-96553160D01*
X116676045Y-96611351D01*
X116670156Y-96618694D01*
X116627502Y-96666991D01*
X116627500Y-96666994D01*
X116622829Y-96672283D01*
X116561899Y-96802058D01*
X116560814Y-96809027D01*
X116560813Y-96809030D01*
X116548071Y-96890872D01*
X116539843Y-96943718D01*
X116540758Y-96950715D01*
X116540758Y-96950716D01*
X116552877Y-97043390D01*
X116558432Y-97085874D01*
X116561273Y-97092330D01*
X116561273Y-97092331D01*
X116611289Y-97206000D01*
X116616172Y-97217098D01*
X116652433Y-97260236D01*
X116703883Y-97321444D01*
X116703886Y-97321446D01*
X116708422Y-97326843D01*
X116714293Y-97330751D01*
X116714294Y-97330752D01*
X116726595Y-97338940D01*
X116827765Y-97406285D01*
X116928372Y-97437716D01*
X116957877Y-97446934D01*
X116957878Y-97446934D01*
X116964609Y-97449037D01*
X117036280Y-97450351D01*
X117100897Y-97451536D01*
X117100899Y-97451536D01*
X117107951Y-97451665D01*
X117213851Y-97422793D01*
X117274964Y-97425728D01*
X117316293Y-97458899D01*
X117307527Y-97428226D01*
X117328504Y-97370749D01*
X117354663Y-97347401D01*
X117362430Y-97342632D01*
X117368443Y-97338940D01*
X117375855Y-97330752D01*
X117459920Y-97237877D01*
X117464652Y-97232649D01*
X117527162Y-97103628D01*
X117528841Y-97093653D01*
X117550314Y-96966019D01*
X117550314Y-96966015D01*
X117550948Y-96962249D01*
X117551099Y-96949895D01*
X117530775Y-96807977D01*
X117481476Y-96699549D01*
X117474357Y-96683891D01*
X117474356Y-96683890D01*
X117471436Y-96677467D01*
X117425545Y-96624208D01*
X117419953Y-96617718D01*
X117396292Y-96561293D01*
X117395952Y-96553095D01*
X117395952Y-96428736D01*
X117414859Y-96370545D01*
X117424948Y-96358732D01*
X118201877Y-95581803D01*
X118256394Y-95554026D01*
X118316826Y-95563597D01*
X118326732Y-95569392D01*
X118330996Y-95572230D01*
X118376443Y-95602483D01*
X118376445Y-95602484D01*
X118382313Y-95606390D01*
X118469505Y-95633630D01*
X118512425Y-95647039D01*
X118512426Y-95647039D01*
X118519157Y-95649142D01*
X118590828Y-95650456D01*
X118655445Y-95651641D01*
X118655447Y-95651641D01*
X118662499Y-95651770D01*
X118669302Y-95649915D01*
X118669304Y-95649915D01*
X118784777Y-95618433D01*
X118800817Y-95614060D01*
X118922991Y-95539045D01*
X118938084Y-95522371D01*
X119014468Y-95437982D01*
X119019200Y-95432754D01*
X119081710Y-95303733D01*
X119083761Y-95291547D01*
X119104862Y-95166124D01*
X119104862Y-95166120D01*
X119105496Y-95162354D01*
X119105561Y-95157081D01*
X119105576Y-95155818D01*
X119105647Y-95150000D01*
X119085323Y-95008082D01*
X119057433Y-94946740D01*
X119028905Y-94883996D01*
X119028904Y-94883995D01*
X119025984Y-94877572D01*
X119020975Y-94871759D01*
X119020778Y-94871288D01*
X119017580Y-94866288D01*
X119018448Y-94865733D01*
X118997315Y-94815336D01*
X119011338Y-94755779D01*
X119032469Y-94731190D01*
X119036026Y-94728216D01*
X119040830Y-94725066D01*
X119147627Y-94612328D01*
X119201372Y-94583086D01*
X119262041Y-94591019D01*
X119306461Y-94633097D01*
X119317652Y-94693334D01*
X119307628Y-94769478D01*
X119305584Y-94785000D01*
X119306431Y-94791434D01*
X119319911Y-94893823D01*
X119323453Y-94920729D01*
X119325936Y-94926723D01*
X119373357Y-95041210D01*
X119373359Y-95041213D01*
X119375842Y-95047208D01*
X119459182Y-95155818D01*
X119464331Y-95159769D01*
X119527268Y-95208063D01*
X119561923Y-95258488D01*
X119566000Y-95286605D01*
X119566000Y-95473455D01*
X119547093Y-95531646D01*
X119537004Y-95543459D01*
X118996346Y-96084117D01*
X118941829Y-96111894D01*
X118917504Y-96112001D01*
X118916700Y-96111761D01*
X118838671Y-96111284D01*
X118780388Y-96110928D01*
X118780387Y-96110928D01*
X118773337Y-96110885D01*
X118766560Y-96112822D01*
X118766559Y-96112822D01*
X118642270Y-96148344D01*
X118642268Y-96148345D01*
X118635490Y-96150282D01*
X118514241Y-96226784D01*
X118509574Y-96232068D01*
X118509572Y-96232070D01*
X118424005Y-96328957D01*
X118424003Y-96328959D01*
X118419338Y-96334242D01*
X118416342Y-96340624D01*
X118416341Y-96340625D01*
X118399790Y-96375878D01*
X118358408Y-96464017D01*
X118357323Y-96470986D01*
X118357322Y-96470989D01*
X118341647Y-96571668D01*
X118336352Y-96605677D01*
X118336034Y-96605628D01*
X118317788Y-96659540D01*
X118267853Y-96694898D01*
X118237806Y-96699376D01*
X118203140Y-96699164D01*
X118188427Y-96699074D01*
X118188426Y-96699074D01*
X118181376Y-96699031D01*
X118174599Y-96700968D01*
X118174598Y-96700968D01*
X118050309Y-96736490D01*
X118050307Y-96736491D01*
X118043529Y-96738428D01*
X117922280Y-96814930D01*
X117917613Y-96820214D01*
X117917611Y-96820216D01*
X117832044Y-96917103D01*
X117832042Y-96917105D01*
X117827377Y-96922388D01*
X117824381Y-96928770D01*
X117824380Y-96928771D01*
X117817362Y-96943718D01*
X117766447Y-97052163D01*
X117765362Y-97059132D01*
X117765361Y-97059135D01*
X117757442Y-97110000D01*
X117744391Y-97193823D01*
X117745306Y-97200820D01*
X117745306Y-97200821D01*
X117748638Y-97226304D01*
X117762980Y-97335979D01*
X117765820Y-97342433D01*
X117765821Y-97342437D01*
X117774572Y-97362324D01*
X117780702Y-97423202D01*
X117749878Y-97476056D01*
X117693874Y-97500698D01*
X117675946Y-97500268D01*
X117674739Y-97499907D01*
X117594862Y-97499419D01*
X117538427Y-97499074D01*
X117538426Y-97499074D01*
X117531376Y-97499031D01*
X117524599Y-97500968D01*
X117524598Y-97500968D01*
X117474445Y-97515302D01*
X117447315Y-97523056D01*
X117433669Y-97526956D01*
X117372523Y-97524767D01*
X117330214Y-97491653D01*
X117338776Y-97523056D01*
X117317099Y-97580273D01*
X117292720Y-97602033D01*
X117285097Y-97606843D01*
X117272280Y-97614930D01*
X117267613Y-97620214D01*
X117267611Y-97620216D01*
X117182044Y-97717103D01*
X117182042Y-97717105D01*
X117177377Y-97722388D01*
X117174381Y-97728770D01*
X117174380Y-97728771D01*
X117120949Y-97842574D01*
X117079104Y-97887213D01*
X117031335Y-97899500D01*
X109670664Y-97899500D01*
X109666539Y-97899197D01*
X109661814Y-97897575D01*
X109612395Y-97899430D01*
X109608682Y-97899500D01*
X109589208Y-97899500D01*
X109584778Y-97900325D01*
X109579585Y-97900661D01*
X109563554Y-97901263D01*
X109559081Y-97901431D01*
X109549948Y-97901774D01*
X109541554Y-97905380D01*
X109541551Y-97905381D01*
X109539373Y-97906317D01*
X109518422Y-97912683D01*
X109507103Y-97914791D01*
X109499320Y-97919588D01*
X109499321Y-97919588D01*
X109484428Y-97928768D01*
X109471560Y-97935452D01*
X109453514Y-97943205D01*
X109453513Y-97943206D01*
X109447093Y-97945964D01*
X109442207Y-97949978D01*
X109437843Y-97954342D01*
X109419788Y-97968613D01*
X109411808Y-97973532D01*
X109394138Y-97996769D01*
X109385346Y-98006839D01*
X108475349Y-98916836D01*
X108472220Y-98919536D01*
X108467731Y-98921731D01*
X108461513Y-98928434D01*
X108434107Y-98957978D01*
X108431531Y-98960654D01*
X108417752Y-98974433D01*
X108415207Y-98978143D01*
X108411771Y-98982056D01*
X108391599Y-99003802D01*
X108388212Y-99012290D01*
X108388212Y-99012291D01*
X108387334Y-99014492D01*
X108377020Y-99033808D01*
X108375679Y-99035763D01*
X108375678Y-99035766D01*
X108370508Y-99043302D01*
X108368398Y-99052192D01*
X108368397Y-99052195D01*
X108365277Y-99065346D01*
X108333446Y-99117599D01*
X108306157Y-99132291D01*
X108306747Y-99133611D01*
X108300312Y-99136489D01*
X108293529Y-99138428D01*
X108172280Y-99214930D01*
X108167613Y-99220214D01*
X108167611Y-99220216D01*
X108082044Y-99317103D01*
X108082042Y-99317105D01*
X108077377Y-99322388D01*
X108074381Y-99328770D01*
X108074380Y-99328771D01*
X108067355Y-99343733D01*
X108016447Y-99452163D01*
X108015362Y-99459132D01*
X108015361Y-99459135D01*
X108006046Y-99518963D01*
X107994391Y-99593823D01*
X107995306Y-99600821D01*
X107998107Y-99622241D01*
X107986905Y-99682392D01*
X107969947Y-99705081D01*
X107254525Y-100420504D01*
X107200008Y-100448281D01*
X107184521Y-100449500D01*
X106247173Y-100449500D01*
X106188982Y-100430593D01*
X106172174Y-100415123D01*
X106137005Y-100374307D01*
X106137004Y-100374306D01*
X106132400Y-100368963D01*
X106012095Y-100290985D01*
X105874739Y-100249907D01*
X105791497Y-100249398D01*
X105738427Y-100249074D01*
X105738426Y-100249074D01*
X105731376Y-100249031D01*
X105724599Y-100250968D01*
X105724598Y-100250968D01*
X105600309Y-100286490D01*
X105600307Y-100286491D01*
X105593529Y-100288428D01*
X105472280Y-100364930D01*
X105467613Y-100370214D01*
X105467611Y-100370216D01*
X105382044Y-100467103D01*
X105382042Y-100467105D01*
X105377377Y-100472388D01*
X105374381Y-100478770D01*
X105374380Y-100478771D01*
X105363747Y-100501419D01*
X105316447Y-100602163D01*
X105315362Y-100609132D01*
X105315361Y-100609135D01*
X105310036Y-100643337D01*
X105294391Y-100743823D01*
X105295306Y-100750820D01*
X105295306Y-100750821D01*
X105311938Y-100878013D01*
X105312980Y-100885979D01*
X105315821Y-100892435D01*
X105315821Y-100892436D01*
X105365020Y-101004248D01*
X105370720Y-101017203D01*
X105400039Y-101052082D01*
X105458431Y-101121549D01*
X105458434Y-101121551D01*
X105462970Y-101126948D01*
X105468841Y-101130856D01*
X105468842Y-101130857D01*
X105476537Y-101135979D01*
X105582313Y-101206390D01*
X105659208Y-101230413D01*
X105712425Y-101247039D01*
X105712426Y-101247039D01*
X105719157Y-101249142D01*
X105790828Y-101250456D01*
X105855445Y-101251641D01*
X105855447Y-101251641D01*
X105862499Y-101251770D01*
X105869302Y-101249915D01*
X105869304Y-101249915D01*
X105944503Y-101229413D01*
X106000817Y-101214060D01*
X106122991Y-101139045D01*
X106130403Y-101130857D01*
X106173662Y-101083064D01*
X106226730Y-101052610D01*
X106247060Y-101050500D01*
X107296492Y-101050500D01*
X107300617Y-101050803D01*
X107305342Y-101052425D01*
X107354761Y-101050570D01*
X107358474Y-101050500D01*
X107377948Y-101050500D01*
X107382378Y-101049675D01*
X107387571Y-101049339D01*
X107403602Y-101048737D01*
X107408075Y-101048569D01*
X107417208Y-101048226D01*
X107425602Y-101044620D01*
X107425605Y-101044619D01*
X107427783Y-101043683D01*
X107448734Y-101037317D01*
X107460053Y-101035209D01*
X107482729Y-101021232D01*
X107495596Y-101014548D01*
X107513642Y-101006795D01*
X107513643Y-101006794D01*
X107520063Y-101004036D01*
X107524949Y-101000022D01*
X107529313Y-100995658D01*
X107547368Y-100981387D01*
X107555348Y-100976468D01*
X107573018Y-100953231D01*
X107581810Y-100943161D01*
X108395959Y-100129012D01*
X108450476Y-100101235D01*
X108467774Y-100100033D01*
X108512090Y-100100846D01*
X108555446Y-100101641D01*
X108555448Y-100101641D01*
X108562499Y-100101770D01*
X108569302Y-100099915D01*
X108569304Y-100099915D01*
X108685054Y-100068358D01*
X108746169Y-100071294D01*
X108793886Y-100109591D01*
X108801710Y-100124000D01*
X108810645Y-100144305D01*
X108820720Y-100167203D01*
X108866845Y-100222075D01*
X108908431Y-100271549D01*
X108908434Y-100271551D01*
X108912970Y-100276948D01*
X108918841Y-100280856D01*
X108918842Y-100280857D01*
X108939417Y-100294553D01*
X109032313Y-100356390D01*
X109099676Y-100377435D01*
X109162425Y-100397039D01*
X109162426Y-100397039D01*
X109169157Y-100399142D01*
X109240828Y-100400456D01*
X109305445Y-100401641D01*
X109305447Y-100401641D01*
X109312499Y-100401770D01*
X109319302Y-100399915D01*
X109319304Y-100399915D01*
X109402132Y-100377333D01*
X109450817Y-100364060D01*
X109572991Y-100289045D01*
X109580403Y-100280857D01*
X109664468Y-100187982D01*
X109669200Y-100182754D01*
X109731710Y-100053733D01*
X109735265Y-100032607D01*
X109754862Y-99916124D01*
X109754862Y-99916120D01*
X109755496Y-99912354D01*
X109755647Y-99900000D01*
X109735323Y-99758082D01*
X109675984Y-99627572D01*
X109598292Y-99537406D01*
X109587007Y-99524309D01*
X109587005Y-99524307D01*
X109582400Y-99518963D01*
X109582512Y-99518866D01*
X109552998Y-99469549D01*
X109550500Y-99447449D01*
X109550500Y-99298322D01*
X109569407Y-99240131D01*
X109579497Y-99228318D01*
X109878320Y-98929496D01*
X109932836Y-98901719D01*
X109948323Y-98900500D01*
X117032770Y-98900500D01*
X117090961Y-98919407D01*
X117123386Y-98959628D01*
X117128484Y-98971214D01*
X117148455Y-99016601D01*
X117170720Y-99067203D01*
X117183792Y-99082754D01*
X117258431Y-99171549D01*
X117258434Y-99171551D01*
X117262970Y-99176948D01*
X117268841Y-99180856D01*
X117268842Y-99180857D01*
X117279791Y-99188145D01*
X117382313Y-99256390D01*
X117482920Y-99287821D01*
X117512425Y-99297039D01*
X117512426Y-99297039D01*
X117519157Y-99299142D01*
X117590828Y-99300456D01*
X117655445Y-99301641D01*
X117655447Y-99301641D01*
X117662499Y-99301770D01*
X117669302Y-99299915D01*
X117669304Y-99299915D01*
X117744503Y-99279413D01*
X117800817Y-99264060D01*
X117922991Y-99189045D01*
X117930403Y-99180857D01*
X118014468Y-99087982D01*
X118019200Y-99082754D01*
X118081710Y-98953733D01*
X118085499Y-98931216D01*
X118104862Y-98816124D01*
X118104862Y-98816120D01*
X118105496Y-98812354D01*
X118105647Y-98800000D01*
X118085323Y-98658082D01*
X118025984Y-98527572D01*
X117978619Y-98472602D01*
X117971678Y-98464547D01*
X117948017Y-98408122D01*
X117962041Y-98348566D01*
X117973278Y-98333489D01*
X118014468Y-98287982D01*
X118019200Y-98282754D01*
X118062287Y-98193823D01*
X119444391Y-98193823D01*
X119445306Y-98200820D01*
X119445306Y-98200821D01*
X119453800Y-98265776D01*
X119462980Y-98335979D01*
X119465821Y-98342435D01*
X119465821Y-98342436D01*
X119515221Y-98454705D01*
X119520720Y-98467203D01*
X119559532Y-98513376D01*
X119608431Y-98571549D01*
X119608434Y-98571551D01*
X119612970Y-98576948D01*
X119618841Y-98580856D01*
X119618842Y-98580857D01*
X119631143Y-98589045D01*
X119732313Y-98656390D01*
X119832920Y-98687821D01*
X119862425Y-98697039D01*
X119862426Y-98697039D01*
X119869157Y-98699142D01*
X119940828Y-98700456D01*
X120005445Y-98701641D01*
X120005447Y-98701641D01*
X120012499Y-98701770D01*
X120019302Y-98699915D01*
X120019304Y-98699915D01*
X120094503Y-98679413D01*
X120150817Y-98664060D01*
X120272991Y-98589045D01*
X120278408Y-98583061D01*
X120364468Y-98487982D01*
X120369200Y-98482754D01*
X120431710Y-98353733D01*
X120433958Y-98340376D01*
X120454862Y-98216124D01*
X120454862Y-98216120D01*
X120455496Y-98212354D01*
X120455647Y-98200000D01*
X120455104Y-98196207D01*
X120446095Y-98133299D01*
X120456562Y-98073016D01*
X120474091Y-98049261D01*
X120770356Y-97752996D01*
X120824873Y-97725219D01*
X120840360Y-97724000D01*
X126954068Y-97724000D01*
X127012259Y-97742907D01*
X127049233Y-97795712D01*
X127062331Y-97841389D01*
X127065837Y-97853617D01*
X127161225Y-98039221D01*
X127290847Y-98202763D01*
X127294527Y-98205895D01*
X127294529Y-98205897D01*
X127384836Y-98282754D01*
X127449765Y-98338013D01*
X127453988Y-98340373D01*
X127453992Y-98340376D01*
X127541076Y-98389045D01*
X127631927Y-98439820D01*
X127636525Y-98441314D01*
X127825789Y-98502810D01*
X127825791Y-98502811D01*
X127830394Y-98504306D01*
X128037607Y-98529014D01*
X128042429Y-98528643D01*
X128042432Y-98528643D01*
X128125829Y-98522226D01*
X128245673Y-98513005D01*
X128446667Y-98456886D01*
X128450980Y-98454707D01*
X128450986Y-98454705D01*
X128628611Y-98364980D01*
X128628613Y-98364978D01*
X128632932Y-98362797D01*
X128797375Y-98234320D01*
X128933731Y-98076350D01*
X128951100Y-98045776D01*
X129034420Y-97899107D01*
X129034421Y-97899105D01*
X129036808Y-97894903D01*
X129092255Y-97728222D01*
X129570402Y-97728222D01*
X129604969Y-97848774D01*
X129608520Y-97857742D01*
X129699435Y-98034642D01*
X129704655Y-98042742D01*
X129828199Y-98198616D01*
X129834897Y-98205553D01*
X129986365Y-98334462D01*
X129994279Y-98339963D01*
X130167901Y-98436996D01*
X130176737Y-98440856D01*
X130331087Y-98491008D01*
X130342480Y-98491008D01*
X130346000Y-98480174D01*
X130346000Y-98477727D01*
X130854000Y-98477727D01*
X130857747Y-98489260D01*
X130868080Y-98489476D01*
X130981824Y-98457718D01*
X130990804Y-98454236D01*
X131168342Y-98364555D01*
X131176480Y-98359390D01*
X131333213Y-98236937D01*
X131340189Y-98230295D01*
X131470155Y-98079726D01*
X131475714Y-98071845D01*
X131573959Y-97898904D01*
X131577874Y-97890109D01*
X131631508Y-97728879D01*
X131631587Y-97717612D01*
X131620602Y-97714000D01*
X130869680Y-97714000D01*
X130856995Y-97718122D01*
X130854000Y-97722243D01*
X130854000Y-98477727D01*
X130346000Y-98477727D01*
X130346000Y-97729680D01*
X130341878Y-97716995D01*
X130337757Y-97714000D01*
X129582004Y-97714000D01*
X129570586Y-97717710D01*
X129570402Y-97728222D01*
X129092255Y-97728222D01*
X129093659Y-97724000D01*
X129101150Y-97701482D01*
X129101150Y-97701480D01*
X129102677Y-97696891D01*
X129106591Y-97665914D01*
X129124145Y-97526956D01*
X129128832Y-97489855D01*
X129129249Y-97460000D01*
X129128979Y-97457250D01*
X129128979Y-97457241D01*
X129115663Y-97321444D01*
X129108885Y-97252315D01*
X129090389Y-97191053D01*
X129569436Y-97191053D01*
X129569517Y-97202570D01*
X129580199Y-97206000D01*
X130330320Y-97206000D01*
X130343005Y-97201878D01*
X130346000Y-97197757D01*
X130346000Y-97190320D01*
X130854000Y-97190320D01*
X130858122Y-97203005D01*
X130862243Y-97206000D01*
X131618699Y-97206000D01*
X131629887Y-97202365D01*
X131630000Y-97191497D01*
X131589503Y-97057365D01*
X131585833Y-97048461D01*
X131492454Y-96872839D01*
X131487122Y-96864814D01*
X131361412Y-96710678D01*
X131354618Y-96703837D01*
X131201362Y-96577052D01*
X131193379Y-96571668D01*
X131018410Y-96477062D01*
X131009539Y-96473333D01*
X130868977Y-96429822D01*
X130857339Y-96429985D01*
X130854000Y-96440511D01*
X130854000Y-97190320D01*
X130346000Y-97190320D01*
X130346000Y-96441680D01*
X130342327Y-96430376D01*
X130331638Y-96430227D01*
X130204288Y-96467708D01*
X130195347Y-96471321D01*
X130019091Y-96563465D01*
X130011015Y-96568749D01*
X129856010Y-96693377D01*
X129849126Y-96700118D01*
X129721280Y-96852479D01*
X129715827Y-96860443D01*
X129620013Y-97034729D01*
X129616213Y-97043593D01*
X129569436Y-97191053D01*
X129090389Y-97191053D01*
X129048570Y-97052541D01*
X129046299Y-97048270D01*
X129046297Y-97048265D01*
X129010842Y-96981586D01*
X129000216Y-96921330D01*
X129028249Y-96865103D01*
X131910356Y-93982996D01*
X131964873Y-93955219D01*
X131980360Y-93954000D01*
X134388218Y-93954000D01*
X134446409Y-93972907D01*
X134483383Y-94025713D01*
X134497207Y-94073926D01*
X134497210Y-94073933D01*
X134498544Y-94078586D01*
X134592712Y-94261818D01*
X134720677Y-94423270D01*
X134724357Y-94426402D01*
X134724359Y-94426404D01*
X134769255Y-94464613D01*
X134877564Y-94556791D01*
X134881787Y-94559151D01*
X134881791Y-94559154D01*
X134985479Y-94617103D01*
X135057398Y-94657297D01*
X135061996Y-94658791D01*
X135248724Y-94719463D01*
X135248726Y-94719464D01*
X135253329Y-94720959D01*
X135457894Y-94745351D01*
X135462716Y-94744980D01*
X135462719Y-94744980D01*
X135530541Y-94739761D01*
X135663300Y-94729546D01*
X135861725Y-94674145D01*
X135866038Y-94671966D01*
X135866044Y-94671964D01*
X136041289Y-94583441D01*
X136041291Y-94583440D01*
X136045610Y-94581258D01*
X136089058Y-94547313D01*
X136204135Y-94457406D01*
X136204139Y-94457402D01*
X136207951Y-94454424D01*
X136212295Y-94449392D01*
X136295085Y-94353477D01*
X136342564Y-94298472D01*
X136348368Y-94288256D01*
X136441934Y-94123550D01*
X136441935Y-94123547D01*
X136444323Y-94119344D01*
X136449496Y-94103796D01*
X136507824Y-93928454D01*
X136507824Y-93928452D01*
X136509351Y-93923863D01*
X136515290Y-93876855D01*
X136534823Y-93722228D01*
X136535171Y-93719474D01*
X136535583Y-93690000D01*
X136533183Y-93665525D01*
X136515952Y-93489780D01*
X136515951Y-93489776D01*
X136515480Y-93484970D01*
X136513740Y-93479205D01*
X136473305Y-93345282D01*
X136455935Y-93287749D01*
X136359218Y-93105849D01*
X136229011Y-92946200D01*
X136154597Y-92884639D01*
X136074002Y-92817965D01*
X136074000Y-92817964D01*
X136070275Y-92814882D01*
X135919636Y-92733432D01*
X135893309Y-92719197D01*
X135893308Y-92719197D01*
X135889055Y-92716897D01*
X135788400Y-92685739D01*
X135696875Y-92657407D01*
X135696871Y-92657406D01*
X135692254Y-92655977D01*
X135687446Y-92655472D01*
X135687443Y-92655471D01*
X135492185Y-92634949D01*
X135492183Y-92634949D01*
X135487369Y-92634443D01*
X135427354Y-92639905D01*
X135287022Y-92652675D01*
X135287017Y-92652676D01*
X135282203Y-92653114D01*
X135084572Y-92711280D01*
X135080288Y-92713519D01*
X135080287Y-92713520D01*
X135069428Y-92719197D01*
X134902002Y-92806726D01*
X134898231Y-92809758D01*
X134745220Y-92932781D01*
X134745217Y-92932783D01*
X134741447Y-92935815D01*
X134738333Y-92939526D01*
X134738332Y-92939527D01*
X134629986Y-93068649D01*
X134609024Y-93093630D01*
X134606689Y-93097878D01*
X134606688Y-93097879D01*
X134602253Y-93105947D01*
X134509776Y-93274162D01*
X134508312Y-93278778D01*
X134508310Y-93278782D01*
X134483519Y-93356934D01*
X134447902Y-93406684D01*
X134389153Y-93426000D01*
X131865748Y-93426000D01*
X131846435Y-93424098D01*
X131830000Y-93420829D01*
X131820437Y-93422731D01*
X131820436Y-93422731D01*
X131804005Y-93425999D01*
X131804000Y-93426000D01*
X131803998Y-93426000D01*
X131726992Y-93441317D01*
X131639667Y-93499667D01*
X131630354Y-93513605D01*
X131618046Y-93528602D01*
X128655042Y-96491606D01*
X128600525Y-96519383D01*
X128537952Y-96508687D01*
X128478610Y-96476601D01*
X128478603Y-96476598D01*
X128474351Y-96474299D01*
X128390708Y-96448407D01*
X128279623Y-96414020D01*
X128279619Y-96414019D01*
X128275002Y-96412590D01*
X128270194Y-96412085D01*
X128270191Y-96412084D01*
X128072281Y-96391283D01*
X128072279Y-96391283D01*
X128067465Y-96390777D01*
X127998076Y-96397092D01*
X127864463Y-96409251D01*
X127864459Y-96409252D01*
X127859643Y-96409690D01*
X127794931Y-96428736D01*
X127664099Y-96467242D01*
X127664096Y-96467243D01*
X127659452Y-96468610D01*
X127474519Y-96565291D01*
X127470750Y-96568321D01*
X127470749Y-96568322D01*
X127315659Y-96693017D01*
X127315657Y-96693019D01*
X127311886Y-96696051D01*
X127308772Y-96699762D01*
X127308771Y-96699763D01*
X127195915Y-96834260D01*
X127177748Y-96855910D01*
X127175412Y-96860158D01*
X127175412Y-96860159D01*
X127119287Y-96962249D01*
X127077215Y-97038778D01*
X127052582Y-97116434D01*
X127049251Y-97126934D01*
X127013634Y-97176684D01*
X126954885Y-97196000D01*
X120725748Y-97196000D01*
X120706435Y-97194098D01*
X120690000Y-97190829D01*
X120680437Y-97192731D01*
X120680436Y-97192731D01*
X120664005Y-97195999D01*
X120664000Y-97196000D01*
X120663998Y-97196000D01*
X120586992Y-97211317D01*
X120499667Y-97269667D01*
X120490354Y-97283605D01*
X120478046Y-97298602D01*
X120104385Y-97672263D01*
X120049868Y-97700040D01*
X120025543Y-97700147D01*
X120024739Y-97699907D01*
X119946710Y-97699430D01*
X119888427Y-97699074D01*
X119888426Y-97699074D01*
X119881376Y-97699031D01*
X119874599Y-97700968D01*
X119874598Y-97700968D01*
X119750309Y-97736490D01*
X119750307Y-97736491D01*
X119743529Y-97738428D01*
X119622280Y-97814930D01*
X119617613Y-97820214D01*
X119617611Y-97820216D01*
X119532044Y-97917103D01*
X119532042Y-97917105D01*
X119527377Y-97922388D01*
X119466447Y-98052163D01*
X119465362Y-98059132D01*
X119465361Y-98059135D01*
X119458088Y-98105850D01*
X119444391Y-98193823D01*
X118062287Y-98193823D01*
X118081710Y-98153733D01*
X118087416Y-98119822D01*
X118104862Y-98016124D01*
X118104862Y-98016120D01*
X118105496Y-98012354D01*
X118105564Y-98006839D01*
X118105600Y-98003826D01*
X118105647Y-98000000D01*
X118085323Y-97858082D01*
X118076651Y-97839009D01*
X118069778Y-97778211D01*
X118099953Y-97724984D01*
X118155652Y-97699660D01*
X118169142Y-97699982D01*
X118169157Y-97699142D01*
X118305445Y-97701641D01*
X118305447Y-97701641D01*
X118312499Y-97701770D01*
X118319302Y-97699915D01*
X118319304Y-97699915D01*
X118420729Y-97672263D01*
X118450817Y-97664060D01*
X118572991Y-97589045D01*
X118616493Y-97540985D01*
X118656700Y-97496564D01*
X118709768Y-97466110D01*
X118730098Y-97464000D01*
X119204225Y-97464000D01*
X119223538Y-97465902D01*
X119230416Y-97467270D01*
X119230417Y-97467270D01*
X119239979Y-97469172D01*
X119249541Y-97467270D01*
X119265981Y-97464000D01*
X119272165Y-97462770D01*
X119342987Y-97448683D01*
X119430312Y-97390333D01*
X119439625Y-97376395D01*
X119451933Y-97361398D01*
X121261398Y-95551933D01*
X121276395Y-95539625D01*
X121290333Y-95530312D01*
X121300924Y-95514463D01*
X121310827Y-95499642D01*
X121318136Y-95488704D01*
X121348683Y-95442987D01*
X121369172Y-95339979D01*
X121365902Y-95323538D01*
X121364000Y-95304225D01*
X121364000Y-95286605D01*
X121382907Y-95228414D01*
X121402732Y-95208063D01*
X121465669Y-95159769D01*
X121470818Y-95155818D01*
X121554158Y-95047208D01*
X121556641Y-95041213D01*
X121556643Y-95041210D01*
X121604064Y-94926723D01*
X121606547Y-94920729D01*
X121610090Y-94893823D01*
X121623569Y-94791434D01*
X121624416Y-94785000D01*
X121845584Y-94785000D01*
X121846431Y-94791434D01*
X121859911Y-94893823D01*
X121863453Y-94920729D01*
X121865936Y-94926723D01*
X121913357Y-95041210D01*
X121913359Y-95041213D01*
X121915842Y-95047208D01*
X121999182Y-95155818D01*
X122107792Y-95239158D01*
X122113787Y-95241641D01*
X122113790Y-95241643D01*
X122161402Y-95261364D01*
X122234271Y-95291547D01*
X122240699Y-95292393D01*
X122240702Y-95292394D01*
X122363566Y-95308569D01*
X122370000Y-95309416D01*
X122376434Y-95308569D01*
X122499298Y-95292394D01*
X122499301Y-95292393D01*
X122505729Y-95291547D01*
X122578598Y-95261364D01*
X122626210Y-95241643D01*
X122626213Y-95241641D01*
X122632208Y-95239158D01*
X122737311Y-95158509D01*
X122794987Y-95138085D01*
X122853653Y-95155462D01*
X122890900Y-95204004D01*
X122895149Y-95220285D01*
X122905264Y-95279153D01*
X122922126Y-95377282D01*
X122924378Y-95382573D01*
X122924378Y-95382575D01*
X122984088Y-95522900D01*
X122989986Y-95536762D01*
X123034917Y-95597817D01*
X123086110Y-95667380D01*
X123092713Y-95676353D01*
X123097095Y-95680075D01*
X123097097Y-95680078D01*
X123220413Y-95784842D01*
X123224799Y-95788568D01*
X123266605Y-95809915D01*
X123374033Y-95864771D01*
X123374036Y-95864772D01*
X123379157Y-95867387D01*
X123384742Y-95868754D01*
X123384743Y-95868754D01*
X123543227Y-95907535D01*
X123543230Y-95907536D01*
X123547507Y-95908582D01*
X123551905Y-95908855D01*
X123551906Y-95908855D01*
X123556920Y-95909166D01*
X123556922Y-95909166D01*
X123558436Y-95909260D01*
X123683400Y-95909260D01*
X123812151Y-95894249D01*
X123975067Y-95835113D01*
X124120010Y-95740085D01*
X124206160Y-95649142D01*
X124235251Y-95618433D01*
X124235251Y-95618432D01*
X124239203Y-95614261D01*
X124312080Y-95488795D01*
X124323365Y-95469366D01*
X124323365Y-95469365D01*
X124326254Y-95464392D01*
X124361039Y-95349541D01*
X124374826Y-95304021D01*
X124374826Y-95304019D01*
X124376493Y-95298516D01*
X124385549Y-95152549D01*
X124386869Y-95131272D01*
X124386869Y-95131271D01*
X124387225Y-95125532D01*
X124357874Y-94954718D01*
X124354480Y-94946740D01*
X124292265Y-94800528D01*
X124290014Y-94795238D01*
X124215021Y-94693334D01*
X124190696Y-94660279D01*
X124190695Y-94660278D01*
X124187287Y-94655647D01*
X124182905Y-94651925D01*
X124182903Y-94651922D01*
X124059587Y-94547158D01*
X124059586Y-94547157D01*
X124055201Y-94543432D01*
X123960208Y-94494926D01*
X123905967Y-94467229D01*
X123905964Y-94467228D01*
X123900843Y-94464613D01*
X123895257Y-94463246D01*
X123736773Y-94424465D01*
X123736770Y-94424464D01*
X123732493Y-94423418D01*
X123728095Y-94423145D01*
X123728094Y-94423145D01*
X123723080Y-94422834D01*
X123723078Y-94422834D01*
X123721564Y-94422740D01*
X123596600Y-94422740D01*
X123467849Y-94437751D01*
X123304933Y-94496887D01*
X123300130Y-94500036D01*
X123300128Y-94500037D01*
X123269350Y-94520216D01*
X123159990Y-94591915D01*
X123156036Y-94596089D01*
X123047405Y-94710763D01*
X122993660Y-94740005D01*
X122932991Y-94732072D01*
X122888571Y-94689994D01*
X122879423Y-94661879D01*
X122879074Y-94661973D01*
X122877394Y-94655702D01*
X122876547Y-94649271D01*
X122855735Y-94599027D01*
X122826643Y-94528790D01*
X122826641Y-94528787D01*
X122824158Y-94522792D01*
X122740818Y-94414182D01*
X122632208Y-94330842D01*
X122508261Y-94279502D01*
X122461736Y-94239765D01*
X122447452Y-94180271D01*
X122470867Y-94123743D01*
X122520525Y-94092411D01*
X122530648Y-94089699D01*
X122554939Y-94079638D01*
X122563602Y-94072238D01*
X122560474Y-94064685D01*
X122381086Y-93885297D01*
X122369203Y-93879243D01*
X122364172Y-93880039D01*
X122181660Y-94062551D01*
X122176489Y-94072699D01*
X122182272Y-94078482D01*
X122209352Y-94089699D01*
X122219475Y-94092411D01*
X122270790Y-94125734D01*
X122292717Y-94182855D01*
X122276882Y-94241956D01*
X122231740Y-94279502D01*
X122107792Y-94330842D01*
X121999182Y-94414182D01*
X121915842Y-94522792D01*
X121913359Y-94528787D01*
X121913357Y-94528790D01*
X121884265Y-94599027D01*
X121863453Y-94649271D01*
X121862607Y-94655699D01*
X121862606Y-94655702D01*
X121846431Y-94778566D01*
X121845584Y-94785000D01*
X121624416Y-94785000D01*
X121623569Y-94778566D01*
X121607394Y-94655702D01*
X121607393Y-94655699D01*
X121606547Y-94649271D01*
X121585735Y-94599027D01*
X121556643Y-94528790D01*
X121556641Y-94528787D01*
X121554158Y-94522792D01*
X121470818Y-94414182D01*
X121362208Y-94330842D01*
X121356213Y-94328359D01*
X121356210Y-94328357D01*
X121273816Y-94294229D01*
X121235729Y-94278453D01*
X121229301Y-94277607D01*
X121229298Y-94277606D01*
X121106434Y-94261431D01*
X121100000Y-94260584D01*
X121093566Y-94261431D01*
X120970702Y-94277606D01*
X120970699Y-94277607D01*
X120964271Y-94278453D01*
X120926184Y-94294229D01*
X120843790Y-94328357D01*
X120843787Y-94328359D01*
X120837792Y-94330842D01*
X120729182Y-94414182D01*
X120645842Y-94522792D01*
X120643359Y-94528787D01*
X120643357Y-94528790D01*
X120614265Y-94599027D01*
X120593453Y-94649271D01*
X120592607Y-94655699D01*
X120592606Y-94655702D01*
X120576431Y-94778566D01*
X120575584Y-94785000D01*
X120576431Y-94791434D01*
X120589911Y-94893823D01*
X120593453Y-94920729D01*
X120595936Y-94926723D01*
X120643357Y-95041210D01*
X120643359Y-95041213D01*
X120645842Y-95047208D01*
X120729182Y-95155818D01*
X120734331Y-95159769D01*
X120734332Y-95159770D01*
X120742392Y-95165955D01*
X120777047Y-95216380D01*
X120775444Y-95277545D01*
X120752127Y-95314500D01*
X120242460Y-95824167D01*
X120187943Y-95851944D01*
X120127511Y-95842373D01*
X120084246Y-95799108D01*
X120074675Y-95738676D01*
X120077532Y-95728545D01*
X120078683Y-95726823D01*
X120080274Y-95718824D01*
X120080276Y-95718817D01*
X120094000Y-95649817D01*
X120094000Y-95649813D01*
X120097269Y-95633378D01*
X120099171Y-95623815D01*
X120095902Y-95607379D01*
X120094000Y-95588067D01*
X120094000Y-95286605D01*
X120112907Y-95228414D01*
X120132732Y-95208063D01*
X120195669Y-95159769D01*
X120200818Y-95155818D01*
X120284158Y-95047208D01*
X120286641Y-95041213D01*
X120286643Y-95041210D01*
X120334064Y-94926723D01*
X120336547Y-94920729D01*
X120340090Y-94893823D01*
X120353569Y-94791434D01*
X120354416Y-94785000D01*
X120353569Y-94778566D01*
X120337394Y-94655702D01*
X120337393Y-94655699D01*
X120336547Y-94649271D01*
X120315735Y-94599027D01*
X120286643Y-94528790D01*
X120286641Y-94528787D01*
X120284158Y-94522792D01*
X120200818Y-94414182D01*
X120092208Y-94330842D01*
X120086213Y-94328359D01*
X120086210Y-94328357D01*
X120003816Y-94294229D01*
X119965729Y-94278453D01*
X119959301Y-94277607D01*
X119959298Y-94277606D01*
X119836434Y-94261431D01*
X119830000Y-94260584D01*
X119823566Y-94261431D01*
X119700702Y-94277606D01*
X119700699Y-94277607D01*
X119694271Y-94278453D01*
X119656184Y-94294229D01*
X119573790Y-94328357D01*
X119573787Y-94328359D01*
X119567792Y-94330842D01*
X119459182Y-94414182D01*
X119455231Y-94419331D01*
X119450644Y-94423918D01*
X119448956Y-94422230D01*
X119407099Y-94450996D01*
X119345934Y-94449392D01*
X119297394Y-94412144D01*
X119280018Y-94353477D01*
X119284235Y-94327375D01*
X119296083Y-94288256D01*
X119296084Y-94288250D01*
X119297752Y-94282743D01*
X119308502Y-94109463D01*
X119283359Y-93963139D01*
X119292139Y-93902587D01*
X119334833Y-93858760D01*
X119395135Y-93848399D01*
X119450935Y-93876372D01*
X119455229Y-93880666D01*
X119459182Y-93885818D01*
X119464331Y-93889769D01*
X119464332Y-93889770D01*
X119502503Y-93919060D01*
X119567792Y-93969158D01*
X119573787Y-93971641D01*
X119573790Y-93971643D01*
X119645371Y-94001292D01*
X119694271Y-94021547D01*
X119700699Y-94022393D01*
X119700702Y-94022394D01*
X119823566Y-94038569D01*
X119830000Y-94039416D01*
X119836434Y-94038569D01*
X119959298Y-94022394D01*
X119959301Y-94022393D01*
X119965729Y-94021547D01*
X120014629Y-94001292D01*
X120086210Y-93971643D01*
X120086213Y-93971641D01*
X120092208Y-93969158D01*
X120200818Y-93885818D01*
X120284158Y-93777208D01*
X120286642Y-93771212D01*
X120286643Y-93771210D01*
X120334063Y-93656726D01*
X120334064Y-93656723D01*
X120336547Y-93650729D01*
X120336881Y-93648193D01*
X120369300Y-93598271D01*
X120405562Y-93579694D01*
X120468522Y-93562529D01*
X120529636Y-93565464D01*
X120577354Y-93603761D01*
X120590156Y-93638233D01*
X120590926Y-93638027D01*
X120592606Y-93644297D01*
X120593453Y-93650729D01*
X120603775Y-93675648D01*
X120643357Y-93771210D01*
X120643358Y-93771212D01*
X120645842Y-93777208D01*
X120729182Y-93885818D01*
X120837792Y-93969158D01*
X120843787Y-93971641D01*
X120843790Y-93971643D01*
X120915371Y-94001292D01*
X120964271Y-94021547D01*
X120970699Y-94022393D01*
X120970702Y-94022394D01*
X121093566Y-94038569D01*
X121100000Y-94039416D01*
X121106434Y-94038569D01*
X121229298Y-94022394D01*
X121229301Y-94022393D01*
X121235729Y-94021547D01*
X121284629Y-94001292D01*
X121356210Y-93971643D01*
X121356213Y-93971641D01*
X121362208Y-93969158D01*
X121470818Y-93885818D01*
X121554158Y-93777208D01*
X121605498Y-93653261D01*
X121645235Y-93606736D01*
X121704729Y-93592452D01*
X121761257Y-93615867D01*
X121792589Y-93665525D01*
X121795301Y-93675648D01*
X121805362Y-93699939D01*
X121812762Y-93708602D01*
X121820315Y-93705474D01*
X121999703Y-93526086D01*
X122005757Y-93514203D01*
X122004961Y-93509172D01*
X121822449Y-93326660D01*
X121812301Y-93321489D01*
X121806518Y-93327272D01*
X121795301Y-93354352D01*
X121792589Y-93364475D01*
X121759266Y-93415790D01*
X121702145Y-93437717D01*
X121643044Y-93421882D01*
X121605498Y-93376739D01*
X121600418Y-93364475D01*
X121554158Y-93252792D01*
X121470818Y-93144182D01*
X121362208Y-93060842D01*
X121356213Y-93058359D01*
X121356210Y-93058357D01*
X121261035Y-93018935D01*
X121235729Y-93008453D01*
X121229301Y-93007607D01*
X121229298Y-93007606D01*
X121106434Y-92991431D01*
X121100000Y-92990584D01*
X121093566Y-92991431D01*
X120970702Y-93007606D01*
X120970699Y-93007607D01*
X120964271Y-93008453D01*
X120940941Y-93018117D01*
X120938965Y-93018935D01*
X120877969Y-93023736D01*
X120825800Y-92991766D01*
X120807413Y-92957762D01*
X122176398Y-92957762D01*
X122179526Y-92965315D01*
X122358914Y-93144703D01*
X122370797Y-93150757D01*
X122375828Y-93149961D01*
X122558340Y-92967449D01*
X122563511Y-92957301D01*
X122557728Y-92951518D01*
X122530647Y-92940301D01*
X122518224Y-92936972D01*
X122376434Y-92918305D01*
X122363566Y-92918305D01*
X122221776Y-92936972D01*
X122209353Y-92940301D01*
X122185061Y-92950362D01*
X122176398Y-92957762D01*
X120807413Y-92957762D01*
X120806059Y-92955257D01*
X120804459Y-92949786D01*
X120803459Y-92942802D01*
X120748186Y-92821235D01*
X120741313Y-92760437D01*
X120771488Y-92707210D01*
X120823983Y-92682302D01*
X122715391Y-92405751D01*
X123147115Y-92342627D01*
X123207429Y-92352916D01*
X123250176Y-92396692D01*
X123259028Y-92457234D01*
X123230604Y-92511416D01*
X123215718Y-92523378D01*
X123164800Y-92556761D01*
X123164797Y-92556763D01*
X123159990Y-92559915D01*
X123156036Y-92564089D01*
X123068991Y-92655977D01*
X123040797Y-92685739D01*
X123019212Y-92722900D01*
X122962095Y-92821235D01*
X122953746Y-92835608D01*
X122952079Y-92841113D01*
X122906552Y-92991431D01*
X122903507Y-93001484D01*
X122898148Y-93087864D01*
X122894335Y-93149331D01*
X122892775Y-93174468D01*
X122910044Y-93274966D01*
X122901265Y-93335515D01*
X122882478Y-93361733D01*
X122740297Y-93503914D01*
X122734243Y-93515797D01*
X122735039Y-93520828D01*
X122917551Y-93703340D01*
X122927699Y-93708511D01*
X122933482Y-93702728D01*
X122940813Y-93685029D01*
X122980549Y-93638503D01*
X123040044Y-93624218D01*
X123096376Y-93647465D01*
X123171440Y-93711236D01*
X123224799Y-93756568D01*
X123275304Y-93782357D01*
X123374033Y-93832771D01*
X123374036Y-93832772D01*
X123379157Y-93835387D01*
X123384742Y-93836754D01*
X123384743Y-93836754D01*
X123543227Y-93875535D01*
X123543230Y-93875536D01*
X123547507Y-93876582D01*
X123551905Y-93876855D01*
X123551906Y-93876855D01*
X123556920Y-93877166D01*
X123556922Y-93877166D01*
X123558436Y-93877260D01*
X123683400Y-93877260D01*
X123812151Y-93862249D01*
X123975067Y-93803113D01*
X124006726Y-93782357D01*
X124042069Y-93759185D01*
X124120010Y-93708085D01*
X124239203Y-93582261D01*
X124317923Y-93446735D01*
X124323365Y-93437366D01*
X124323365Y-93437365D01*
X124326254Y-93432392D01*
X124370062Y-93287749D01*
X124374826Y-93272021D01*
X124374826Y-93272019D01*
X124376493Y-93266516D01*
X124384497Y-93137500D01*
X124386869Y-93099272D01*
X124386869Y-93099271D01*
X124387225Y-93093532D01*
X124357874Y-92922718D01*
X124323151Y-92841113D01*
X124292265Y-92768528D01*
X124290014Y-92763238D01*
X124222205Y-92671096D01*
X124190696Y-92628279D01*
X124190695Y-92628278D01*
X124187287Y-92623647D01*
X124182905Y-92619925D01*
X124182903Y-92619922D01*
X124059587Y-92515158D01*
X124059586Y-92515157D01*
X124055201Y-92511432D01*
X123957149Y-92461364D01*
X123905967Y-92435229D01*
X123905964Y-92435228D01*
X123900843Y-92432613D01*
X123881869Y-92427970D01*
X123829840Y-92395773D01*
X123806672Y-92339143D01*
X123821215Y-92279711D01*
X123867914Y-92240178D01*
X123891077Y-92233849D01*
X124117218Y-92200784D01*
X124457418Y-92151042D01*
X124471740Y-92150000D01*
X137446040Y-92150000D01*
X137468227Y-92152518D01*
G37*
G04 #@! TD.AperFunction*
M02*
