M48
; DRILL file {KiCad 5.1.5-52549c5~84~ubuntu19.10.1} date Do 02 Apr 2020 17:39:06 CEST
; FORMAT={-:-/ absolute / inch / decimal}
; #@! TF.CreationDate,2020-04-02T17:39:06+02:00
; #@! TF.GenerationSoftware,Kicad,Pcbnew,5.1.5-52549c5~84~ubuntu19.10.1
; #@! TF.FileFunction,Plated,1,2,PTH
FMAT,2
INCH
T1C0.0157
T2C0.0236
T3C0.0394
T4C0.0400
%
G90
G05
T1
X4.1582Y-3.863
X4.1654Y-3.9665
X4.2717Y-3.9213
X4.3012Y-3.9331
X4.3082Y-4.1466
X4.3445Y-3.9291
X4.3454Y-4.139
X4.376Y-3.7736
X4.3858Y-3.7362
X4.3937Y-3.9272
X4.4016Y-4.1181
X4.4094Y-3.9705
X4.4188Y-3.7716
X4.4528Y-3.8189
X4.4626Y-3.7874
X4.5197Y-4.1181
X4.5201Y-4.1697
X4.5349Y-3.9623
X4.5531Y-3.7283
X4.5531Y-3.9075
X4.5562Y-3.9856
X4.5797Y-4.1585
X4.5965Y-4.0177
X4.6081Y-3.8169
X4.6269Y-4.0654
X4.6299Y-3.8583
X4.6299Y-3.8898
X4.6378Y-4.1946
X4.6398Y-3.9291
X4.653Y-4.0433
X4.6539Y-3.7817
X4.6555Y-3.8268
X4.6594Y-4.1339
X4.6693Y-3.7461
X4.6713Y-4.0689
X4.6788Y-3.8036
X4.6969Y-3.8878
X4.7224Y-3.8661
X4.7244Y-4.0118
X4.7264Y-3.9764
X4.7343Y-3.9134
X4.7369Y-3.6648
X4.752Y-3.8799
X4.7657Y-3.9724
X4.7736Y-4.1732
X4.7874Y-3.9056
X4.7894Y-4.1063
X4.8315Y-4.0541
X4.9114Y-4.1142
X4.9232Y-4.1496
X4.9252Y-4.0472
X4.9606Y-3.7835
X4.9629Y-4.0102
X4.9764Y-4.1457
X4.9941Y-4.0059
X5.0079Y-3.8858
X5.0157Y-4.0906
X5.0472Y-3.7205
X5.0531Y-3.7736
X5.0731Y-3.9869
X5.0807Y-4.1476
X5.0846Y-4.0886
X5.0886Y-3.8878
X5.1378Y-3.6929
X5.1614Y-4.1024
X5.2106Y-3.9469
X5.2146Y-4.0256
X5.2598Y-3.6555
X5.2717Y-4.2165
T3
X5.3339Y-3.6886
X5.3339Y-3.7886
X5.3339Y-3.8886
X5.3339Y-3.9886
X5.3339Y-4.0886
X5.3339Y-4.1886
T4
X5.0417Y-3.837
X5.0417Y-3.937
X5.0417Y-4.037
X5.1417Y-3.837
X5.1417Y-3.937
X5.1417Y-4.037
T2
X4.0238Y-3.7669G85X4.0002Y-3.7669
G05
X4.0238Y-4.1071G85X4.0002Y-4.1071
G05
X4.1982Y-3.7669G85X4.1549Y-3.7669
G05
X4.1982Y-4.1071G85X4.1549Y-4.1071
G05
T0
M30
